<?xml version="1.0" encoding="utf-8"?>
<!-- Generator: Adobe Illustrator 14.0.0, SVG Export Plug-In . SVG Version: 6.00 Build 43363)  -->
<!DOCTYPE svg PUBLIC "-//W3C//DTD SVG 1.1//EN" "http://www.w3.org/Graphics/SVG/1.1/DTD/svg11.dtd">
<svg version="1.1" id="Ebene_1" xmlns="http://www.w3.org/2000/svg" xmlns:xlink="http://www.w3.org/1999/xlink" x="0px" y="0px"
	 width="465.555px" height="304.444px" viewBox="0 0 465.555 304.444" enable-background="new 0 0 465.555 304.444"
	 xml:space="preserve">
<g>
	<polygon fill="#F8B334" points="267.954,287.163 212.724,292.113 192.926,231.444 248.155,226.495 	"/>
	<polygon fill="#FFFFFF" points="264.846,284.888 214.275,289.42 195.781,232.749 246.352,228.214 	"/>
	<path fill="#707173" d="M224.475,227.289c0,0-2.084-5.084-5.426-4.784c-3.341,0.299-2.392,5.484-2.392,5.484l-8.605,0.771
		l1.182,3.62l25.338-2.27l-1.183-3.623L224.475,227.289z M220.43,227.182c-0.629,0.058-1.322-0.456-1.547-1.145
		c-0.226-0.691,0.103-1.297,0.73-1.354c0.631-0.056,1.323,0.458,1.548,1.146C221.387,226.521,221.06,227.126,220.43,227.182z"/>
	<path fill="#707173" d="M203.229,246.626c2.178-0.069,3.652-0.133,6.211-0.367c2.771-0.25,16.645-1.535,16.645-1.535
		s13.876-1.275,16.646-1.535c2.556-0.239,3.984-0.442,6.08-0.768c-2.18,0.069-3.653,0.133-6.213,0.366
		c-2.772,0.251-16.645,1.534-16.645,1.534s-13.875,1.278-16.645,1.537C206.751,246.099,205.323,246.3,203.229,246.626z"/>
	<g>
		<path fill="#707173" d="M224.746,271.932c-0.364-1.471-0.628-2.469-1.202-4.22c-0.622-1.893-3.754-11.38-3.754-11.38
			s-3.125-9.485-3.752-11.378c-0.58-1.749-0.972-2.735-1.569-4.187c0.365,1.474,0.629,2.471,1.202,4.221
			c0.622,1.896,3.753,11.379,3.753,11.379s3.126,9.487,3.754,11.383C223.756,269.497,224.147,270.482,224.746,271.932z"/>
		<path fill="#707173" d="M254.374,269.349c-0.365-1.471-0.628-2.469-1.203-4.219c-0.621-1.894-3.753-11.38-3.753-11.38
			s-3.125-9.485-3.754-11.379c-0.578-1.749-0.97-2.735-1.568-4.187c0.364,1.473,0.63,2.471,1.203,4.221
			c0.621,1.894,3.753,11.379,3.753,11.379s3.125,9.488,3.753,11.382C253.384,266.914,253.774,267.899,254.374,269.349z"/>
		<path fill="#707173" d="M239.941,270.917c-0.365-1.472-0.629-2.471-1.203-4.219c-0.622-1.895-3.754-11.381-3.754-11.381
			s-3.125-9.485-3.753-11.381c-0.579-1.746-0.97-2.734-1.569-4.184c0.365,1.471,0.63,2.47,1.204,4.219
			c0.62,1.895,3.752,11.381,3.752,11.381s3.126,9.486,3.754,11.38C238.952,268.482,239.34,269.466,239.941,270.917z"/>
	</g>
	<polygon fill="none" points="233.352,245.671 219.761,246.89 217.915,241.23 231.504,240.013 	"/>
	
		<text transform="matrix(0.8675 -0.0778 0.3102 0.9507 218.6426 243.4316)" fill="#707173" font-family="'Chalkboard'" font-size="3.2526">DOING</text>
	<polygon fill="none" points="248.34,244.384 234.75,245.603 232.904,239.946 246.495,238.727 	"/>
	
		<text transform="matrix(0.8675 -0.0778 0.3102 0.9507 233.6343 242.1465)" fill="#707173" font-family="'Chalkboard'" font-size="3.2526">DONE</text>
	<polygon fill="none" points="218.879,246.813 205.29,248.032 203.443,242.374 217.034,241.156 	"/>
	
		<text transform="matrix(0.8675 -0.0778 0.3102 0.9507 204.1714 244.5752)" fill="#707173" font-family="'Chalkboard'" font-size="3.2526">TO DO</text>
	<polygon fill="#EA6462" points="207.943,251.904 204.336,252.229 203.078,248.37 206.684,248.048 	"/>
	<polygon fill="#95C042" points="212.505,251.188 208.898,251.51 207.639,247.651 211.247,247.33 	"/>
	<polygon fill="#F8B334" points="217.088,251.265 213.482,251.59 212.223,247.73 215.829,247.407 	"/>
	<polygon fill="#60C3DE" points="214.816,256.523 211.209,256.848 209.951,252.989 213.557,252.667 	"/>
	<polygon fill="#60C3DE" points="216.452,261.948 212.846,262.27 211.586,258.411 215.192,258.087 	"/>
	<polygon fill="#95C042" points="209.674,257.097 206.067,257.419 204.808,253.562 208.415,253.238 	"/>
	<polygon fill="#F8B334" points="211.418,262.069 207.812,262.393 206.553,258.534 210.16,258.211 	"/>
	<polygon fill="#60C3DE" points="244.417,248.675 240.811,248.998 239.551,245.14 243.158,244.816 	"/>
	<polygon fill="#F8B334" points="239.383,248.798 235.777,249.12 234.519,245.264 238.125,244.94 	"/>
	<polygon fill="#F8B334" points="223.452,250.31 219.845,250.634 218.585,246.775 222.192,246.45 	"/>
	<polygon fill="#95C042" points="228.158,249.948 224.551,250.271 223.292,246.411 226.898,246.089 	"/>
	<polygon fill="#EA6462" points="232.277,249.319 228.669,249.642 227.411,245.782 231.018,245.458 	"/>
	<polygon fill="#60C3DE" points="225.017,255.624 221.41,255.946 220.152,252.09 223.759,251.765 	"/>
	<polygon fill="#60C3DE" points="233.771,254.55 230.165,254.873 228.906,251.014 232.512,250.691 	"/>
	<polygon fill="#EA6462" points="229.611,255.692 226.003,256.013 224.746,252.158 228.352,251.834 	"/>
	<polygon fill="#60C3DE" points="260.047,281.328 241.392,283 236.937,269.349 255.593,267.678 	"/>
	<polygon fill="none" points="251.537,272.298 241.814,273.171 240.973,270.593 250.696,269.722 	"/>
	
		<text transform="matrix(0.8675 -0.0778 0.3102 0.9507 241.4155 271.918)" fill="#707173" font-family="'Chalkboard'" font-size="1.9516">Ticket ID #</text>
	<polygon fill="none" points="253.893,271.02 250.871,271.289 250.22,269.295 253.242,269.024 	"/>
	
		<text transform="matrix(0.8675 -0.0778 0.3102 0.9507 250.52 270.1807)" fill="#707173" font-family="'Chalkboard'" font-size="1.3011">42</text>
	<polygon fill="none" points="261.983,278.479 241.068,280.354 239.014,274.06 259.928,272.183 	"/>
	<text transform="matrix(0.8675 -0.0778 0.3102 0.9507 239.4087 275.2373)"><tspan x="0" y="0" fill="#707173" font-family="'Chalkboard'" font-size="1.7347">The week view of the  </tspan><tspan x="0" y="2.081" fill="#707173" font-family="'Chalkboard'" font-size="1.7347">new calendar feature</tspan></text>
	<path fill="#707173" d="M238.741,273.198c0.833-0.014,1.396-0.033,2.368-0.125c1.053-0.1,6.325-0.609,6.325-0.609
		s5.271-0.508,6.324-0.611c0.973-0.096,1.511-0.184,2.301-0.325c-0.833,0.015-1.396,0.032-2.368,0.123
		c-1.052,0.103-6.324,0.61-6.324,0.61s-5.272,0.509-6.325,0.611C240.07,272.968,239.531,273.056,238.741,273.198z"/>
	<polygon fill="none" points="248.11,282.614 242.943,283.076 241.964,280.078 247.131,279.613 	"/>
	
		<text transform="matrix(0.8675 -0.0778 0.3102 0.9507 242.479 281.6211)" fill="#707173" font-family="'Chalkboard'" font-size="2.2768">3</text>
	<path fill="#707173" d="M244.133,280.721c0.062,0.428,0.026,0.706-0.18,1.065c-0.061,0.093-0.204,0.273-0.469,0.364
		c-0.261,0.092-0.64,0.07-0.979-0.103c-0.729-0.354-0.97-1.125-0.951-1.097c0,0.028-0.263-0.742,0.202-1.2
		c0.211-0.223,0.554-0.309,0.857-0.268c0.308,0.04,0.558,0.185,0.674,0.263C243.71,280.048,243.919,280.304,244.133,280.721
		c-0.096-0.429-0.285-0.79-0.773-1.138c-0.132-0.088-0.419-0.254-0.773-0.303c-0.35-0.047-0.744,0.051-0.985,0.311
		c-0.25,0.248-0.331,0.619-0.318,0.9c0.017,0.288,0.093,0.478,0.089,0.478c0.003-0.002,0.051,0.189,0.218,0.463
		c0.167,0.267,0.479,0.603,0.873,0.794c0.39,0.2,0.824,0.225,1.125,0.12c0.305-0.104,0.469-0.313,0.537-0.419
		C244.364,281.512,244.315,281.142,244.133,280.721z"/>
	<polygon opacity="0.23" fill="#707173" points="236.937,269.349 240.811,248.998 244.417,248.675 255.593,267.678 	"/>
	<polygon fill="#D1D2D4" points="260.175,277.784 254.858,278.901 253.824,276.462 259.141,275.343 	"/>
	<polygon fill="#D1D2D4" points="261.137,281.008 255.614,281.584 254.778,279.114 260.301,278.539 	"/>
	<polygon fill="none" points="265.519,277.562 256.152,279.397 255.1,276.849 264.468,275.015 	"/>
	
		<text transform="matrix(0.8222 -0.1611 0.3814 0.9244 255.5435 277.9043)" fill="#707173" font-family="'Chalkboard'" font-size="1.543">Chris</text>
	<polygon fill="none" points="266.899,281.384 257.15,282.179 256.327,279.601 266.076,278.805 	"/>
	
		<text transform="matrix(0.871 -0.0709 0.3043 0.9526 256.6206 280.6748)" fill="#707173" font-family="'Chalkboard'" font-size="1.5157">Alex</text>
</g>
<path fill="none" d="M276.219,123.56"/>
<g>
	<path fill="#F8B334" d="M199.036,77.782h47.053c3.586,0,4.307-0.72,4.307-4.307c0-3.586-7.281-8.679-10.866-8.679h-33.932
		c-3.587,0-10.867,5.093-10.867,8.679C194.73,77.062,195.451,77.782,199.036,77.782z"/>
	<path fill="#F8B334" d="M182.647,104.093h79.906c6.086,0,7.31-1.031,7.31-6.172c0-10.973-12.37-12.439-18.453-12.439h-57.624
		c-6.088,0-18.45,1.467-18.45,12.439C175.335,103.062,176.556,104.093,182.647,104.093z"/>
	<path fill="#F8B334" d="M175.819,132.068h92.506c7.047,0,8.464-1.032,8.464-6.172c0-10.972-5.575-12.44-12.615-12.44h-84.206
		c-7.049,0-12.615,1.469-12.615,12.44C167.354,131.036,168.769,132.068,175.819,132.068z"/>
	<path fill="#F8B334" d="M273.15,140.417H172.413c-4.378,0-7.926,4.438-7.926,9.908c0,5.473,3.548,9.91,7.926,9.91H273.15
		c4.376,0,7.926-4.438,7.926-9.91C281.076,144.854,277.526,140.417,273.15,140.417z"/>
	<path fill="#F8B334" d="M268.926,168.026h-92.654c-4.028,0-7.291,2.047-7.291,8.104c0,6.057,3.262,10.969,7.291,10.969h26.297
		v9.523h-18.396c-5.856,0-7.031,0.769-7.031,4.594c0,8.164,11.889,9.257,17.744,9.257h15.354v-11.111
		c0-11.724,5.536-21.229,12.358-21.229c6.825,0,12.358,9.506,12.358,21.229v11.111h15.346c5.853,0,17.748-1.093,17.748-9.257
		c0-3.825-1.178-4.594-7.031-4.594h-18.394V187.1h26.301c4.022,0,7.291-4.912,7.291-10.969
		C276.217,170.073,272.949,168.026,268.926,168.026z"/>
</g>
<path fill="#4D4D4D" d="M130.54,107.838c1.219-0.737,3.024,0.034,4.011,1.718c0.994,1.688,0.804,3.641-0.42,4.383
	c-1.225,0.73-3.024-0.033-4.014-1.724C129.128,110.532,129.317,108.574,130.54,107.838z"/>
<path fill="#4D4D4D" d="M55.558,119.761L55.558,119.761c-17.05-3.393-31.469-10.447-38.57-18.864
	C8.522,90.851,4.151,78.115,5.583,67.653c0.808-5.93,3.477-10.713,7.508-13.47c3.54-2.421,8.334-3.122,13.86-2.02
	c9.913,1.972,21.305,9.513,29.726,19.678c11.668,14.06,27.384,42.896,25.873,47.467c-0.224,0.684-0.729,1.164-1.384,1.32
	C75.043,122.099,65.713,121.782,55.558,119.761L55.558,119.761z M26.372,55.071c-4.737-0.942-8.763-0.403-11.633,1.562
	c-3.378,2.311-5.537,6.259-6.242,11.414c-1.322,9.651,2.792,21.506,10.732,30.927c6.689,7.924,20.485,14.611,36.906,17.88h0.001
	c9.193,1.831,17.923,2.215,23.6,1.058c-0.59-5.004-13.485-29.902-25.317-44.167C46.405,64.073,35.66,56.919,26.372,55.071
	L26.372,55.071z"/>
<path fill="#4D4D4D" d="M114.807,57.607c1.446,1.023,3.748,0.228,5.121-1.77c1.375-2.003,1.313-4.433-0.137-5.462
	c-1.45-1.012-3.746-0.227-5.121,1.776C113.297,54.149,113.358,56.591,114.807,57.607z"/>
<path fill="#4D4D4D" d="M94.237,59.382c1.76-0.061,3.112-2.092,3.012-4.529c-0.103-2.428-1.606-4.351-3.37-4.289
	c-1.758,0.072-3.119,2.093-3.015,4.525C90.965,57.529,92.481,59.442,94.237,59.382z"/>
<path fill="#4D4D4D" d="M92.773,58.547c0,0,1.482-0.392,2.518,0.343c-2.201,9.641,7.855,23.583,12.778,29.69
	c-4.223-23.419,6.954-32.52,6.954-32.52s1.444,0.521,1.881,1.618c-10.355,8.358-6.753,31.11-6.255,33.957l0.005,0.009
	c0,0,3.881,6.17,0.368,3.594C89.68,75.185,92.773,58.547,92.773,58.547z"/>
<path fill="#F8B334" d="M55.038,133.26c-2.884-0.019-15.698,8.285-15.841,10.596c3.163,9.715,11.038,27.69,40.176,38.354
	c6.007,0.055,15.221-5.587,16.996-11.566C66.919,162.147,57.435,141.349,55.038,133.26z"/>
<path fill="#4D4D4D" d="M86.612,125.75c-1.72-0.016-11.917-0.403-18.026,2.289c1.901,5.84,9.914,25.166,36.721,31.043
	c3.192-2.213,4.583-12.367,3.64-15.583C94.762,140.643,89.992,131.969,86.612,125.75z"/>
<path fill="#4D4D4D" d="M28.128,156.371c4.908,17.446,35.309,36.605,34.354,33.394C50.811,195.915,8.973,192.146,28.128,156.371z"/>
<path fill="#4D4D4D" d="M113.154,137.534c7.823,2.063,16.977,1.086,24.041-1.708c0.832-0.329-13.426-12.058-12.532-10.706
	c1.733,2.621,16.789,8.672,17.625,8.137c3.666-2.354,6.096-5.318,6.39-8.573c0.658-7.166-10.178-16.751-24.149-23.407
	c-16.141-7.686-28.699-1.249-31.144,8.149C90.958,118.772,98.235,133.567,113.154,137.534z M119.37,103.743
	c0.036-0.561,1.47-2.605,8.495,0.395c0,0,3.354,1.635,4.21,2.241c1.749,1.237,6.54,5.157,2.901,8.062
	C126.433,119.353,119.37,103.743,119.37,103.743z"/>
<path fill="#C6C7C8" stroke="#C6C7C8" d="M184.138,163.421c-4.718,5.838-34.479,6.044-30.026,0c14.731-19.996,0-19.859,0-40.412
	c0-7.507,24.718-5.309,30.026,0C191.282,130.152,190.488,155.563,184.138,163.421z"/>
<path fill="#4D4D4D" d="M113.45,147.835c0,0-2.031-0.211-2.15,1.266c-0.116,1.482,0.109,2.814,1.502,3.147
	c7.941,1.908,19.485,0.401,22.592,1.755c3.116,1.354,11.803,2.277,12.434,3.965c0.637,1.689,5.361-0.756,6.588-2.377
	c1.222-1.619,2.455-3.146,4.856-3.195c2.392-0.041,15.761-4.465,16.928-10.443c0,0-1.375-4.541-5.528-4.762
	c-4.145-0.229-6.823,1.879-8.212,3.347c-1.397,1.472-4.383,3.685-4.582,4.087c-0.195,0.411-2.119,2.498-0.994,3.808
	c1.122,1.314-1.594-0.21-2.904,2.331c-1.32,2.555-3.035-0.555-7.364,2.082c-2.256,1.389-5.251-1.453-11.621-2.123
	c0,0-9.967-2.295-11.289-2.563c-1.333-0.272-4.52-0.749-7.55-0.888C115.306,147.233,113.45,147.835,113.45,147.835z"/>
<polygon fill="#FFFFFF" stroke="#F8B334" points="199.13,131.674 201.487,137.642 211.593,131.792 204.424,141.327 209.72,144.95 
	203.376,145.921 205.167,153.644 199.13,147.965 194.418,154.968 194.885,145.921 188.542,144.95 193.836,141.327 191.962,137.087 
	196.776,137.642 "/>
<g>
	<path fill="#915E36" d="M294.818,147.628c-2.115-0.573-4.495-0.942-3.64-3.633c5.061-15.938,17.985-64.648,17.985-64.648
		c0.737-2.729,2.381-2.008,4.494-1.436l0,0c2.113,0.572,3.898,0.775,3.161,3.503c0,0-13.628,48.521-17.03,64.908
		C299.217,149.084,296.931,148.198,294.818,147.628L294.818,147.628z"/>
	<path fill="#9C9E9F" d="M307.403,81.979c-5.642-1.819-7.458-3.081-6.822-6.992l0,0c0.636-3.912,2.299-6.897,6.211-6.259
		l8.079,1.314c4.283,1.407,0.22-1.414,18.062,10.204l0,0c2.687,2.976-0.12,5.985-8.122,5.254
		C316.261,84.721,315.48,84.58,307.403,81.979z"/>
</g>
<path fill="#4D4D4D" d="M334.965,90.09c-1.396-0.63-3.223,0.432-4.056,2.358c-0.841,1.934-0.381,3.99,1.021,4.623
	c1.403,0.621,3.224-0.431,4.06-2.365C336.827,92.78,336.368,90.716,334.965,90.09z"/>
<path fill="#4D4D4D" d="M425.494,89.528c-9.486,5.833-18.778,9.641-25.503,10.444c-0.719,0.087-1.408-0.209-1.889-0.813
	c-3.232-4.045,1.841-39,8.354-57.54c4.694-13.397,13.365-25.261,22.625-30.954c5.161-3.176,10.259-4.262,14.733-3.142
	c5.095,1.274,9.575,5.101,12.604,10.778c5.354,10.017,5.707,24.493,0.923,37.788C453.327,67.233,441.42,79.735,425.494,89.528
	L425.494,89.528L425.494,89.528z M430.751,13.381c-8.675,5.336-16.839,16.565-21.308,29.313
	c-6.602,18.809-10.302,48.737-9.026,54.005c6.157-0.954,14.818-4.604,23.404-9.886l0.002-0.002
	c15.339-9.432,26.754-21.332,30.539-31.822c4.487-12.47,4.206-25.961-0.734-35.201c-2.638-4.936-6.289-8.11-10.56-9.179
	C439.439,9.701,435.177,10.661,430.751,13.381L430.751,13.381z"/>
<path fill="#4D4D4D" d="M345.186,34.408c-1.411,1.282-3.972,0.733-5.699-1.219c-1.729-1.958-1.981-4.56-0.568-5.848
	c1.416-1.271,3.968-0.733,5.699,1.225C346.344,30.519,346.599,33.133,345.186,34.408z"/>
<path fill="#4D4D4D" d="M367.375,33.609c-1.886,0.167-3.595-1.825-3.808-4.44c-0.207-2.604,1.145-4.855,3.036-5.02
	c1.887-0.154,3.604,1.826,3.811,4.436C370.626,31.203,369.259,33.444,367.375,33.609z"/>
<path fill="#4D4D4D" d="M368.831,32.526c0,0-1.635-0.224-2.644,0.696c3.612,10.003-5.298,26.204-9.754,33.368
	c1.479-26.177-15.948-36.49-11.681-33.806c0,0-1.474,0.745-1.797,1.973c12.149,7.567,11.283,32.327,11.122,35.431l-0.004,0.009
	c0,0-3.336,7.095,0.079,3.885C374.309,49.882,368.831,32.526,368.831,32.526z"/>
<path fill="#F8B334" d="M406.873,106.704c2.413-0.39,13.95,6.293,14.295,8.595c-1.707,10.155-6.557,29.204-29.923,43.653
	c-5.024,0.828-13.289-3.646-15.355-9.418C399.727,137.219,405.65,115.13,406.873,106.704z"/>
<path fill="#4D4D4D" d="M379.703,103.231c1.439-0.236,9.94-1.936,15.317-0.021c-1.023,6.104-5.859,26.526-27.737,35.873
	c-2.89-1.81-5.039-11.819-4.562-15.167C374.324,119.225,377.476,109.907,379.703,103.231z"/>
<path fill="#4D4D4D" d="M427.65,123.764c-2.417,18.137-26.015,41.274-25.527,37.93C412.494,166.361,447.164,157.196,427.65,123.764z
	"/>
<path fill="#4D4D4D" d="M374.837,86.921c-3.841-9.713-18.089-14.94-34.313-4.623c-14.044,8.934-24.356,20.586-22.716,28.148
	c0.74,3.438,3.723,6.285,7.943,8.315c0.964,0.462,16.171-14.415,17.677-17.438c0.778-1.561-12.834,19.272-11.902,19.517
	c7.907,2.058,17.807,1.901,25.888-1.325C372.82,113.328,378.652,96.581,374.837,86.921z M331.094,97.718
	c-4.265-2.623,0.337-7.436,2.042-8.984c0.834-0.76,4.2-2.945,4.2-2.945c7.108-4.121,8.906-2.125,9.018-1.533
	C346.354,84.255,340.857,101.845,331.094,97.718z"/>
<path fill="#4D4D4D" d="M358.446,130.55c0,0,2.141-0.492,2.46,1.07c0.317,1.566,0.252,3.019-1.19,3.557
	c-8.229,3.076-20.75,2.978-23.889,4.831c-3.149,1.852-12.303,3.976-12.754,5.858c-0.459,1.888-5.821-0.104-7.343-1.674
	c-1.517-1.568-3.033-3.038-5.603-2.775c-2.56,0.27-17.411-2.702-19.439-8.934c0,0,0.875-5.025,5.278-5.805
	c4.395-0.789,7.529,1.111,9.204,2.497c1.685,1.388,5.161,3.359,5.426,3.763c0.263,0.413,2.589,2.389,1.56,3.934
	c-1.025,1.551,1.675-0.432,3.405,2.109c1.743,2.555,3.168-0.99,8.134,1.258c2.59,1.188,5.415-2.238,12.128-3.786
	c0,0,10.34-3.755,11.715-4.215c1.389-0.468,4.727-1.392,7.944-1.937C356.385,130.151,358.446,130.55,358.446,130.55z"/>
<rect x="262.8" y="77.593" transform="matrix(-0.529 -0.8486 0.8486 -0.529 350.5756 352.8397)" fill="#9C9E9F" width="20.794" height="3.091"/>
<rect x="248.193" y="84.749" transform="matrix(0.8486 -0.529 0.529 0.8486 -6.0289 151.524)" fill="#9C9E9F" width="27.054" height="3.093"/>
<path fill="#9C9E9F" d="M278.576,15.897"/>
<path fill="#9C9E9F" d="M278.576,15.897"/>
<polyline fill="#9C9E9F" points="278.576,18.027 279.377,15.86 277.773,15.86 "/>
<path fill="#4D4D4D" d="M278.105,217.5c-1.352-0.562-3.069,0.501-3.813,2.368c-0.75,1.871-0.256,3.826,1.104,4.394
	c1.358,0.554,3.071-0.501,3.817-2.373C279.959,220.022,279.464,218.061,278.105,217.5z"/>
<path fill="#4D4D4D" d="M350.324,238.592c-10.275-2.818-19.008-6.823-23.965-10.997c-0.529-0.447-0.773-1.121-0.664-1.854
	c0.713-4.902,28.459-24.198,45.674-31.762c12.43-5.474,26.387-7.166,36.416-4.413c5.594,1.531,9.684,4.385,11.826,8.243
	c2.438,4.394,2.691,10.025,0.703,15.854c-3.502,10.287-13.389,19.993-25.807,25.339
	C384.093,243.476,367.576,243.324,350.324,238.592L350.324,238.592L350.324,238.592z M406.98,192.509
	c-9.398-2.577-22.582-0.943-34.412,4.263c-17.459,7.676-40.793,24.647-43.643,28.98c4.693,3.68,12.902,7.348,22.203,9.898h0.002
	c16.617,4.558,32.393,4.758,42.199,0.549c11.646-5.013,20.893-14.024,24.121-23.516c1.727-5.067,1.559-9.696-0.484-13.379
	C415.23,196.174,411.773,193.824,406.98,192.509L406.98,192.509z"/>
<g>
	<path fill="#4D4D4D" d="M253.641,199.551c0.858,1.793-0.457,4.189-2.926,5.33c-2.475,1.142-5.152,0.615-6.018-1.186
		c-0.842-1.795,0.46-4.186,2.936-5.328C250.101,197.228,252.791,197.756,253.641,199.551z"/>
	<path fill="#4D4D4D" d="M258.403,178.747c-0.366,1.773-2.662,2.793-5.116,2.271c-2.446-0.525-4.136-2.383-3.767-4.163
		c0.377-1.771,2.664-2.801,5.113-2.272C257.09,175.106,258.768,176.977,258.403,178.747z"/>
	<path fill="#4D4D4D" d="M257.809,177.116c0,0-0.654,1.436-0.089,2.614c10.16-0.561,22.559,12.059,27.9,18.111
		c-23.022-8.346-34.192,1.411-34.192,1.411s0.277,1.556,1.314,2.189c10.274-9.053,32.729-1.453,35.528-0.455l0.008,0.007
		c0,0,5.586,5.008,3.582,0.997C275.22,176.865,257.809,177.116,257.809,177.116z"/>
</g>
<path fill="#F8B334" d="M341.91,239.354c2.338-0.089,12.516,7.601,12.574,9.826c-2.803,9.446-9.627,26.973-33.501,37.973
	c-4.868,0.201-12.194-5.01-13.485-10.733C331.57,267.502,339.767,247.213,341.91,239.354z"/>
<path fill="#4D4D4D" d="M316.511,232.893c1.395-0.057,9.666-0.682,14.549,1.764c-1.684,5.678-8.652,24.509-30.52,30.838
	c-2.532-2.055-3.408-11.811-2.563-14.935C309.541,247.454,313.62,238.972,316.511,232.893z"/>
<path fill="#4D4D4D" d="M363.144,260.976c-4.408,16.941-29.514,36.167-28.66,33.047
	C343.789,299.664,377.781,294.997,363.144,260.976z"/>
<path fill="#4D4D4D" d="M311.988,215.23c-3.938-9.184-17.709-13.794-32.944-3.481c-13.185,8.93-22.729,20.354-20.954,27.544
	c0.801,3.267,3.733,5.909,7.825,7.735c0.934,0.415,14.243-10.902,16.676-11c3.755-0.149,2.439,1.316,0.219,4.648
	c-2.271,3.408-10.71,8.22-10.225,8.33c7.617,1.752,15.991,1.181,23.632-2.124C310.783,240.542,315.902,224.365,311.988,215.23z
	 M270.448,226.756c-4.15-2.393,0.119-7.121,1.706-8.649c0.78-0.75,3.938-2.932,3.938-2.932c6.685-4.138,8.458-2.276,8.581-1.713
	C284.673,213.462,279.899,230.435,270.448,226.756z"/>
<path fill="#4D4D4D" d="M289.746,255.151c0,0,1.405-1.564,2.514-0.518c1.111,1.05,1.859,2.223,1.025,3.438
	c-4.745,6.936-14.599,13.751-16.035,16.931c-1.446,3.182-7.44,9.882-6.758,11.605c0.681,1.729-4.613,3.122-6.669,2.731
	c-2.05-0.394-4.045-0.708-5.912,0.913c-1.855,1.618-15.111,7.466-20.131,3.706c0,0-2.083-4.413,0.937-7.448
	c3.006-3.034,6.504-3.274,8.577-3.111c2.083,0.158,5.888-0.212,6.319-0.042c0.432,0.18,3.34,0.444,3.386,2.22
	c0.048,1.778,1.072-1.259,3.826-0.224c2.771,1.041,1.934-2.517,7.057-3.492c2.682-0.495,3.006-4.731,7.406-9.639
	c0,0,6.025-8.631,6.85-9.745c0.829-1.131,2.935-3.692,5.151-5.89C287.915,255.972,289.746,255.151,289.746,255.151z"/>
</svg>
