<svg xmlns="http://www.w3.org/2000/svg" viewBox="0 0 969.2 432.26"><defs><style>.cls-1{fill:#f9b233;}.cls-2{fill:#1e323b;}.cls-3{fill:#108cbd;}.cls-4{fill:#3f4f58;}.cls-5{fill:#77757a;}.cls-6{fill:#000101;}.cls-7{fill:#de9357;}.cls-8{fill:#fff;}.cls-9{fill:#eba43e;}.cls-10{fill:#cc5378;}.cls-11{fill:#984640;}.cls-12{fill:#eba33e;}.cls-13{fill:#0c0700;}.cls-14{fill:#fefefe;}.cls-15{fill:#fcfcfc;}.cls-16{fill:#e8a23d;}.cls-17{fill:#e6a03d;}.cls-18{fill:#eeeeef;}.cls-19{fill:#dd9256;}.cls-20{fill:#eaa33e;}</style></defs><title>Element 1</title><g id="Ebene_2" data-name="Ebene 2"><g id="Ebene_1-2" data-name="Ebene 1"><path class="cls-1" d="M344,108.57l-10.84,18.72L348,112.1A8.52,8.52,0,0,1,344,108.57Z"/><path class="cls-2" d="M347.33,62.78h0c-13.1-.43-24.69-3.91-31-9.3C308.8,47.05,304,38.11,303.77,30.15c-.13-4.51,1.27-8.39,3.93-10.94C310,17,313.52,15.87,317.76,16c7.61.25,17,4.46,24.53,11,10.4,9,25.63,28.54,25.06,32.13a1.46,1.46,0,0,1-.87,1.15c-4.37,1.85-11.35,2.75-19.15,2.5ZM317.69,18.25c-3.64-.12-6.57.78-8.46,2.59C307,23,305.88,26.17,306,30.1c.2,7.34,4.72,15.65,11.78,21.69,5.94,5.07,17,8.35,29.64,8.77h0c7.06.23,13.6-.55,17.68-2.11C364,54.8,351.38,37.86,340.83,28.7c-7.15-6.21-16-10.21-23.15-10.44Z"/><path class="cls-2" d="M398.08,10.61c.75,1.11,2.58,1.15,4.08.11s2.1-2.78,1.35-3.89-2.58-1.15-4.09-.11S397.33,9.51,398.08,10.61Z"/><path class="cls-2" d="M383.09,6.41c1.26.42,2.75-.65,3.33-2.4s0-3.5-1.24-3.92-2.76.65-3.33,2.39S381.84,6,383.09,6.41Z"/><path class="cls-2" d="M382.28,5.44a2.54,2.54,0,0,1,1.69.91c-4.11,6.22-.71,18.73,1.15,24.34C388.35,13,398.65,9.58,398.65,9.58a2.63,2.63,0,0,1,.89,1.64c-9.52,3.16-13,20.17-13.41,22.31h0s1.1,5.38-.7,2.63C375.69,16.36,382.28,5.44,382.28,5.44Z"/><path class="cls-1" d="M356.55,70.08c-1.7.22-8.14,7-7.92,8.6,3.15,6.49,10.17,18.34,28.74,23.45,3.54-.44,8.21-5.08,8.47-9.37A40.83,40.83,0,0,1,356.55,70.08Z"/><path class="cls-2" d="M374.14,62.37c-1,.13-7.07.66-10.31,3,1.9,3.9,9.18,16.68,25.74,18.65,1.59-1.79,1.06-8.94.08-11.1C380.92,72.07,377,66.43,374.14,62.37Z"/><path class="cls-2" d="M343.79,88.23c5.2,11.72,25.64,22.62,24.65,20.47C362.39,113.88,337.26,114.57,343.79,88.23Z"/><path class="cls-2" d="M388,68.32c10.85,4.18,26.23.48,27.68-6.7,1.09-5.32-6.24-13.39-16.16-19.53-11.46-7.09-21.4-3.3-24,3.54S377.15,64.12,388,68.32Zm7.31-23.82c-.39-.47,3.64,5.66,7,.43.37-.48,2.4,1.62,2.4,1.62s4.48,4.4,1.51,6.28C399.45,55.8,395.31,44.5,395.31,44.5Z"/><path class="cls-3" d="M.83,106.56c0-4.45,2.31-7.92,7.76-7.92H37.13c35,0,52.13,27.06,52.13,58.07,0,35.14-18.64,59.39-50.15,59.39H8.59c-5.44,0-7.76-3.46-7.76-7.92Zm14.52,97H36.14c27.39,0,37.62-22.93,37.62-46.85,0-24.09-10.89-45.53-38.61-45.53H15.35Z"/><path class="cls-3" d="M113.19,177.88c0,15,9.57,26.73,25.9,26.73,19.3,0,24.25-11.88,29.7-11.88,2.64,0,5.28,2.31,5.28,6.43,0,7.09-18,18-35.14,18-28,0-40.26-21.61-40.26-44.87,0-23.76,14.85-44.87,39.43-44.87,23.92,0,37.78,21.61,37.78,42.73,0,5.11-1.81,7.75-8.08,7.75ZM161.36,167c0-12.54-7.26-27.06-23.26-27.06-18-.66-24.42,13.69-24.91,27.06Z"/><path class="cls-3" d="M182.5,140.05a17.2,17.2,0,0,1-1.49-5.94,6.44,6.44,0,0,1,6.13-6.75h.47c4.78,0,6.43,2.31,7.59,5.61l20,60.71h.33l20-60.71c1.16-3.3,2.81-5.61,7.59-5.61a6.45,6.45,0,0,1,6.61,6.29c0,.16,0,.31,0,.47a17,17,0,0,1-1.48,5.94L223,210.83c-1.49,4.29-3,6.27-7.59,6.27s-6.1-2-7.59-6.27Z"/><path class="cls-3" d="M373.89,135.1c0-4.78,2.8-7.75,7.26-7.75s7.26,3,7.26,7.75v4.29h.33c4.12-7.92,11.88-12,23.43-12,23.76,0,37.45,21.61,37.45,44.87s-13.69,44.87-37.45,44.87a28.66,28.66,0,0,1-23.43-11.88h-.33V244c0,4.78-2.81,7.75-7.26,7.75s-7.26-3-7.26-7.75ZM411,204.56c17.82,0,24.09-17.49,24.09-32.33s-6.26-32.35-24.09-32.35-24.09,17.49-24.09,32.34S393.2,204.56,411,204.56Z"/><path class="cls-3" d="M492.85,127.35c12,0,29.2,6.43,29.2,15.51,0,3.13-2.14,5.94-6.6,5.94-6.27,0-8.74-8.91-22.6-8.91-8.25,0-15.34,3.63-15.34,11.05,0,15.34,46.85,13.69,46.85,39.1,0,18.31-15.67,27.06-32,27.06-18.48,0-33-9.24-33-16.66,0-4,2.8-6.6,5.94-6.6,6.43,0,11.71,10.72,27.55,10.72,10.56,0,17-5.94,17-11.88,0-17.16-46.85-16.17-46.85-40.59C463,135.88,478.17,127.35,492.85,127.35Z"/><path class="cls-3" d="M346,119.88l-11,8.63c5.62,9,8,20.68,8,31.83,0,22.44-9.57,47.18-36,47.18s-36-24.75-36-47.18,9.57-47.18,36-47.18c10.62,0,18.51,4,24.16,10.26l7.65-11.25-.11-.11c-8.16-7.09-18.77-11.43-31.69-11.43-33.49,0-51.47,29.2-51.47,59.72s18,59.72,51.47,59.72,51.47-29.2,51.47-59.72C358.54,145.5,354.26,130.93,346,119.88Z"/><path class="cls-4" d="M66.69,342.88c-4.13,0-7.09-2.14-7.09-6.76s3-6.76,7.09-6.76H91.1c7.42,0,10.56,2.81,10.56,11.88,0,28.38-10.23,56.42-50.15,56.42C17.69,397.62,0,368.42,0,337.88s16.86-59.7,53.65-59.7c24.09,0,40.26,12.54,40.26,18.81a6.77,6.77,0,0,1-6.65,6.89H87c-7.26,0-13.2-13.2-34.32-13.2-26.4,0-37.12,24.75-37.12,47.18S26,385,53.34,385c22.77,0,33.82-19.47,33.82-35.31v-6.85Z"/><path class="cls-4" d="M187.13,390.53a6.73,6.73,0,0,1-6.36,7.08h-.4a6.63,6.63,0,0,1-6.77-6.5,5.81,5.81,0,0,1,0-.59v-6.1h-.33c-6.27,8.91-14.52,13.2-23.92,13.2-24.75,0-38.6-21.61-38.6-44.87s13.85-44.88,38.59-44.88c10.06,0,17.16,4.29,23.92,11.71h.33V315a6.64,6.64,0,0,1,6.76-7.09,6.73,6.73,0,0,1,6.77,6.69c0,.13,0,.27,0,.4Zm-37.78-5.44c17.82,0,24.09-17.49,24.09-32.33s-6.27-32.34-24.09-32.34-24.08,17.46-24.08,32.33S131.54,385.09,149.35,385.09Z"/><path class="cls-4" d="M210.9,289.88c0-4.78,2.8-7.75,7.26-7.75s7.26,3,7.26,7.75v19h5.94c4.78,0,7.26,2.31,7.26,6.27s-2.48,6.27-7.26,6.27h-5.94v68.46c0,4.78-2.8,7.75-7.26,7.75s-7.26-3-7.26-7.75V321.4H205c-4.78,0-7.26-2.31-7.26-6.27s2.44-6.25,7.26-6.25h5.94Z"/><path class="cls-4" d="M304.29,342c0-15.34-10.72-21.61-20.29-21.61s-20.29,6.27-20.29,21.61v47.85c0,4.78-2.8,7.75-7.26,7.75s-7.26-3-7.26-7.75V277c0-4.78,2.81-7.75,7.26-7.75s7.26,3,7.26,7.75V319.1l.33.33a30,30,0,0,1,24.24-11.55c13.53,0,30.52,8.58,30.52,33.33v48.67c0,4.78-2.81,7.75-7.26,7.75s-7.26-3-7.26-7.75Z"/><path class="cls-4" d="M347.19,358.36c0,15,9.57,26.73,25.9,26.73,19.3,0,24.25-11.88,29.7-11.88,2.64,0,5.28,2.31,5.28,6.44,0,7.09-18,18-35.14,18-28,0-40.26-21.61-40.26-44.87,0-23.76,14.85-44.87,39.43-44.87,23.92,0,37.78,21.61,37.78,42.73,0,5.11-1.81,7.75-8.08,7.75Zm48.17-10.89c0-12.54-7.26-27.06-23.26-27.06-18-.66-24.42,13.69-24.91,27.06Z"/><path class="cls-4" d="M423.75,315.63c0-4.78,2.8-7.75,7.26-7.75s7.26,3,7.26,7.75v7.42h.33c3.3-6.76,11.4-15.17,19.8-15.17,5.11,0,8.08,3.3,8.08,7.42s-3,6.76-9.07,7.92c-8.58,1.49-19.14,7.92-19.14,24.91v41.75c0,4.78-2.8,7.75-7.26,7.75s-7.26-3-7.26-7.75Z"/><path class="cls-4" d="M483,278.18a8.91,8.91,0,1,1-8.91,8.91h0a8.87,8.87,0,0,1,8.83-8.91Zm7.24,111.7c0,4.78-2.8,7.75-7.26,7.75s-7.26-3-7.26-7.75V315.63c0-4.78,2.81-7.75,7.26-7.75s7.26,3,7.26,7.75Z"/><path class="cls-4" d="M509.38,315.63c0-4.78,2.81-7.75,7.26-7.75s7.26,3,7.26,7.75v3.46l.33.33a30,30,0,0,1,24.25-11.54c13.52,0,30.52,8.57,30.52,33.32v48.68c0,4.78-2.81,7.75-7.26,7.75s-7.26-3-7.26-7.75V342c0-15.34-10.72-21.61-20.29-21.61S523.9,326.69,523.9,342v47.85c0,4.78-2.8,7.75-7.26,7.75s-7.26-3-7.26-7.75Z"/><path class="cls-4" d="M670.08,390.36c0,26.07-15.84,41.9-39.59,41.9-15,0-33.65-8.58-33.65-16,0-3,1.48-6.76,6.1-6.76,6.6,0,13,10.23,28.71,10.23,18.48,0,23.92-14.52,23.92-27.06v-7.59h-.33A25.17,25.17,0,0,1,633,397.62c-24.75,0-38.6-21.61-38.6-44.87s13.82-44.87,38.6-44.87c9.4,0,18.48,5.77,22.27,11.05h.33v-4c0-5.11,3.79-7.09,7.75-7.09a6.73,6.73,0,0,1,6.77,6.69c0,.13,0,.27,0,.4ZM633,385.09c17.82,0,24.09-17.49,24.09-32.33s-6.27-32.34-24.09-32.34-24.12,17.46-24.12,32.33S615.15,385.09,633,385.09Z"/><g id="DOG"><path class="cls-5" d="M969.2,184.64H969V183h.24Z"/><path class="cls-6" d="M733.44,395.19c.74-.84.25-2.12.79-3a43.7,43.7,0,0,1,7.13-9.06c9.43-9.16,20.7-12.49,32.58-14,2.47-.31,4.95-.26,7.67-.34l-.59-.56a96.11,96.11,0,0,1-16.31-19.11,102.94,102.94,0,0,1-9.92-18.51c-.38-.95-.81-1.13-1.6-.85a5.92,5.92,0,0,1-4.54-.28c-5.79-2.61-8.47-8.17-7.36-15.22.61-3.84,2.46-7.07,4-10.44a2.31,2.31,0,0,0,.39-1.57c-.5-2.68-1.08-5.35-1.32-8.09a4.77,4.77,0,0,0-.72-2,59.56,59.56,0,0,0-5.16-7.55,7.1,7.1,0,0,1-1.19-2.26c-1.91-5.22-2.28-14.14,1.18-18.91,2.26-3.13,10.19-13.24,11.62-16.84a112.79,112.79,0,0,1,13.18-23.66c4.05-5.71,12.58-16.21,13.31-18,2-6.62-.06-9.77-.82-11.83-.35-1-.46-1.22-1.2-1.24-1.46,0-9.39-2.26-15.52-13.21-2.89-5.16-5.86-10.23-7.13-16.41a36,36,0,0,1,.5-18.34c.83-2.65.78-3.32-1.27-4.83-.88-.65-3.71-6.07-3.85-8.1a47.26,47.26,0,0,1,.38-8.15c.31-3,.8-5.94,1.16-8.91.75-6.2,1.16-12.47,2.87-18.46.23-.81,2.18-5.3,3.31-6.13a15.89,15.89,0,0,1,1.86-1.3c4.2-2.24,8.71-3.27,13.18-4.42,3.37-.86,6.79-1.77,10.29-1,.59.13.83-.35,1.11-.72,4.15-5.39,8.15-11,13.33-15.12.19-.15.5-.36.39-.57-.57-1-2.4-5.51-2.56-5.8-1.14-2.06-1.13-4.53-1.85-6.74A46.24,46.24,0,0,0,786,44.17c-1.23-2.05-1.49-1.89.4-4a23.56,23.56,0,0,1,5.77-4.39c7.36-4.35,43.23-7.5,44.41-7.25,2,.45,4.16.46,6.23.76a13,13,0,0,1,2.44.82.51.51,0,0,1,.37.58c-.07.35-2.9,22.65-3.77,25.76-.14.51,0,.81.53.75s9.39-1.61,13.81-3.76c.67-.32,1.27-.77,2-1.07a1.84,1.84,0,0,1,2.32.78c1.14,1.41,1.56,6-.87,7.82h3a2.41,2.41,0,0,1,2.4,1.07,2.8,2.8,0,0,1-.42,2.91c-.69,1.06-.46,1.59.25,2.49a86.64,86.64,0,0,1,8.9,13.3,3.44,3.44,0,0,0,2.68,1.91,33.37,33.37,0,0,0,8.17.37c2.79-.07,5.58-.11,8.37-.07,5,.07,7.78,3.47,8,9.2a104.52,104.52,0,0,1-2.67,25.73c-.36,1.68-.86,3.31-1.3,5a3.11,3.11,0,0,0,.05,1.93,71.54,71.54,0,0,1,3.72,30.4,67,67,0,0,1-3.49,16.13,19.79,19.79,0,0,1-1.75,3.9c-6,5.32-9,10.36-12.84,17.59a2.93,2.93,0,0,0-.32,1.19c-.13,3.18-1,6.3.53,9.49a138.12,138.12,0,0,0,6.81,13.12c4.48,7.27,9.45,14.13,13.44,21.88a26.19,26.19,0,0,1,1.54-10.3,66,66,0,0,1,8.55-15.71c6.43-9.24,14.49-16.25,23-22.59a65.24,65.24,0,0,1,15.55-8.7,27.63,27.63,0,0,1,9.2-2c1.62,0,3.22-.77,4.86-.1s3.09,1.45,3,3.87a5.38,5.38,0,0,1,.1,1.55c.23,2.69-1.21,4.48-2.61,6.2a76.42,76.42,0,0,1-7,6.94,48.36,48.36,0,0,0-6.82,8.22,23.63,23.63,0,0,0-1.56,2.94c-.49,1-.44,1.48.72,1.77,4,1,5.49,5.2,3.5,9.28-1.73,3.54-4.39,6-7.05,8.57-2.19,2.07-4.62,3.81-6.55,6.26a10.57,10.57,0,0,0-1,1.47c-.52,1-.53,1.58.5,2.24a4.56,4.56,0,0,1,1.94,4.54,16.85,16.85,0,0,1-2.31,6.55,82.48,82.48,0,0,1-6.28,9.42c-2.24,3.06-3.79,6.76-6.48,9.41a2.17,2.17,0,0,0-.36.67c-2.29,5.47-4.8,10.84-6.55,16.59A70.73,70.73,0,0,0,918.24,301a38.52,38.52,0,0,1-1.6,9.77c-1,2.79-1,5.89-1.62,8.83a122.72,122.72,0,0,1-10.81,32.79A83.07,83.07,0,0,1,895.32,366c-1,1.21-1,1.22.38,1.8a24.55,24.55,0,0,1,11.74,9.76c2.53,4.11,3.5,12.54,2.39,17.56-.43,2-1.4,3.66-2,5.54a2.5,2.5,0,0,1-2.73,1.66H891.79c-4.44,0-9.14.2-13.71.39-5.7.24-11.4.8-17.11.86-3,0-3.81-1.22-3.93-4.67a85.76,85.76,0,0,1,1.15-12.29c.26-1.5,1.33-2.74,2-4.34a9.84,9.84,0,0,0-2.63.89c-5.92,2.51-30.57,4.87-31.19,2.52a18.67,18.67,0,0,1,.52,6,8.37,8.37,0,0,1-1.84,5c-2,2.25-4.29,4-7.32,4.06-3.33.08-6.61.93-9.93,1.31a75.11,75.11,0,0,1-8.21.54H773.11c-5.85,0-11.69.58-17.53.76a128,128,0,0,1-14.92,0,11.65,11.65,0,0,1-6.08-2.26c-.42-.31-.91-.54-1-1.22a12.23,12.23,0,0,0-.15-2.83v-1.91"/><path class="cls-3" d="M787.84,247c.43,6,2.42,11.3,7.46,14.09,4.08,2.26,8.24,1.6,12.09-.82,6.42-4,10.53-10.26,12.05-18.59a25.07,25.07,0,0,0-.13-10.35c-.11-.45-.46-1-.13-1.3s.76,0,1.13.13c8.16,2.43,45.47,12.28,47.91,12.25.33,0,12.71-12,16.59-15.41,1.2-1.05,4.93-3.21,5.66-3.73.92-.65,1,.7,1.37,1.22,3.73,5.67,7.11,11.64,10.3,17.71a100.66,100.66,0,0,1,10.16,27.85c.76,3.95,1.91,7.8,2,11.9a82.67,82.67,0,0,1-1.47,19.16c-.77,3.72-2,8.33-3.34,10.67-5.34,9-19.11,21.53-28.66,28.54-13,9.51-26.83,16.54-42,19.76-7.15,1.51-14.36,1.6-21.59,1.46a164,164,0,0,1-33.32-4.16,48.13,48.13,0,0,1-5.36-1.79,10.56,10.56,0,0,1-3.4-2.23c-5.2-4.6-8.43-11-12-17.15a115.53,115.53,0,0,1-6.4-14c-1-2.34-2.23-4.48-3.18-6.84-1.25-3.1-1.38-6.47-2.1-9.68-.9-4-.77-8.31-2-12.19A44,44,0,0,1,748,278.22c.38-8,.73-15.94,3-23.58a77.19,77.19,0,0,1,9.22-19.17c2.55,2,5.24,1.69,7.94,1,6.88-1.7,13.53-4.35,20.28-6.61a3.94,3.94,0,0,1,2.28-.47C790.3,230.24,787.48,242,787.84,247Z"/><path class="cls-7" d="M791.7,206.43a49.28,49.28,0,0,0-8.37-5.49c-1.17-.59-1-2-1.25-3a16.32,16.32,0,0,0-2.08-5.86,24,24,0,0,0,5.38-2c.29-.15,2.5-1.84,3.76,1,1.16,2.63,2.12,5.46,4.62,7.08,2.87,1.85,6.13,1.7,8.29-.92a5.82,5.82,0,0,0,1.25-4.8c-.25-1.54-.44-3.1-.67-4.79,2.53.68,4.84,1.75,7.29,2.22,11.61,2.22,28.07-25.6,25.47-43.23-1.46-9.93-8-18.12-15.22-20.46-.44-.14-.88-.28-1.31-.45-1.34-.54-13.2-2.14-16.42-1.72-3.41.44-6.82-.33-10.23-.2-4.67.18-9.38-.1-14,1.36-1.44.46-2.92-.38-4.46-.06a27.09,27.09,0,0,0-11.38,5.12c-.2.13-.4.25-.61.36a33.31,33.31,0,0,1,1.64-5.07c3.07-8.49,4.52-12,7.7-21a147.57,147.57,0,0,1,13-18.6c3.5-4.24,6.89-8.6,10.69-12.5a1,1,0,0,0,.19-.22c.38-.74.32-2,1.2-2.13s1.13,1,1.82,1.44c2.88,1.75,6,2,9.12,2.17,8,.36,15.3-2.09,22.21-6.53a60.28,60.28,0,0,0,7.07-4.76c.73-.63,4.51-3.44,6.24-3.28.61.06,13.44-2.9,15.62-4.57.44-.34.54.2.59.54a2.81,2.81,0,0,1-.85,2.75,7.49,7.49,0,0,0-2.24,2.51c-.3.73-.36,1.31.36,1.7,1.76,1,3.54,1.77,5.69,1.2-.41,1.14-1.08,1.91-1.21,3s.41,1.73,1.34,1.44c.29-.09.45-.52.82.1,3,4.81,5.71,9.77,8.37,14.81a9.19,9.19,0,0,1,.36,1c-1.48.35-2.93.06-4.34.35-1,.2-1.93.6-2.92.73-.5.06-.64.54-.85.93A15.34,15.34,0,0,0,861.87,92c-1,7.73-.85,15.51-.76,23.28s-.06,15.46,1,23.11c.49,3.44,1,6.9,3.09,9.68.86,1.15,7.74,5.91,9.94,7.5,1.11.8,5.89,3.94,7,3.25a8.4,8.4,0,0,0,2.79-3.78c3.4-7.34,6.16-15,9-22.66.22-.57.45-1.14.77-2a52.3,52.3,0,0,1,1.7,8.12,62.66,62.66,0,0,1-3.74,33.61c-.38,1-1.21,1.42-1.72,2.23a90.11,90.11,0,0,1-5.72,8c-1.25,1.59-5.05,7.07-5.39,8.39a3,3,0,0,1-1.89,2c-5.77,3-12,4.45-17.93,6.85s-12,5-18,7.29c-7.87,2.92-15.36,7-23.25,9.86-4.29,1.54-9.55,3.9-14,.34C802.3,215.08,793.43,207.79,791.7,206.43Z"/><path class="cls-7" d="M829.37,157.76a43.64,43.64,0,0,1-8.9,20.72c-1.1,1.47-2.41,2.74-3.59,4.14-2.63,3.1-5.77,3.61-9.26,2.52a37.37,37.37,0,0,1-6-2.57,5.34,5.34,0,0,0-3.32-.65,4.59,4.59,0,0,1-3.08-.49c-4.14-2.44-7.85-5.25-10.41-10.15-2.36-4.53-4.49-9.22-5.28-14.31-.25-1.61-1.46-7.54-1-8.39.35-.67,2.08-.6,2.6-1.07,3-2.69,4.87-6.27,6.87-9.86a28.39,28.39,0,0,1,8.52-9,2.1,2.1,0,0,1,1.42-.51c4.29.39,8.62,0,12.89.69,12.46,2.4,13.92,7.59,15.66,10.42C828.82,143,830.32,150.58,829.37,157.76Z"/><path class="cls-7" d="M917.12,284.05c-.44-2.5-.39-5-.9-7.5-.28-1.36-1.35-8.2-1.68-9.55a92.63,92.63,0,0,0-7.37-20.61c-1-2-.69-4.28-.65-6.42.12-7.76,3.61-13.92,7.48-19.78,9.46-14.35,21.8-24.48,35.8-32.07a64.92,64.92,0,0,1,13.22-5c.45-.13,1-.2,1.26.3s-.12,1-.38,1.37c-1.71,2.6-4,4.49-6.15,6.51a50.3,50.3,0,0,0-8.65,9.88,19.58,19.58,0,0,0-3.05,8,8.39,8.39,0,0,0,.31,3.38c0,.14.23.28.21.39-.5,2.76,1.1,2.53,2.61,2.5a1.57,1.57,0,0,1,1.57.75c.31.68-.33,1.14-.67,1.58-2.68,3.45-6,6-9.13,8.82A22.59,22.59,0,0,0,935.5,233a9,9,0,0,0-.06,7.58,2.45,2.45,0,0,0,3,1.69,44.47,44.47,0,0,1-3.62,6.55A75.94,75.94,0,0,0,928.63,259c-1.68,3.64-3.81,7-5.5,10.65A135.77,135.77,0,0,0,917.12,284.05Z"/><path class="cls-7" d="M783,362.59a11.63,11.63,0,0,1,4.19,1.26c14.56,5.72,29.59,6.44,44.7,5.24,14.64-1.16,28.34-6.44,41.44-14a107.66,107.66,0,0,0,29-24.42,47,47,0,0,0,3.46-4c.61-.91,4.08-4.61,4.55-6.31a5.75,5.75,0,0,1,1.21-2.64c-.81,4.08-1.66,7.92-2.73,11.68a107,107,0,0,1-7.76,20,76.19,76.19,0,0,1-11.93,16.83,1.59,1.59,0,0,1-1.26.46,30.19,30.19,0,0,0-11.07,2.56,63.47,63.47,0,0,0-11,6.52c-2.2,1.54-19,4.62-23.81,4.49-3.37-.09-6.69.86-10.08.93a65.37,65.37,0,0,1-12.42-.79c-6.52-1.12-13.21-2.12-19.11-5.87-3.82-2.43-8.16-3.73-11.54-7C787,365.73,785,364.29,783,362.59Z"/><path class="cls-7" d="M879.83,152.72c-2-2.2-7.48-7.46-9.66-9.46a2.35,2.35,0,0,1-.65-1.63c-1.57-10.74-1.35-21.6-1.7-32.43-.2-6.12-1.11-18.25-.23-18.76,2.29-1.34,7.51-1.84,10-2.4,1.88-.42,13-.89,16.51.07,2.79.75,2.12,8.26,2.07,9.73-.16,4.6-1,9.13-1.11,13.7-.1,3.6-1.6,6.54-2.37,9.81C890,133.05,881.29,154.3,879.83,152.72Z"/><path class="cls-7" d="M742.76,398c2.68-3.78,7.82-11.93,11.44-12.4.56-.28,1-.09.78-.87a1.52,1.52,0,0,0-1.47-1.35c-1.87-.14-3.39.91-4.8,2a42.06,42.06,0,0,0-9.59,10.28c-.25.37-.43.94-1,.81-1.09-.23-1.36-.91-.67-2a43.52,43.52,0,0,1,24.48-18.44c8-2.43,16-3,24.21-3.08a3.81,3.81,0,0,1,2.24,1.05,70.83,70.83,0,0,0,25.42,11.67c2,.48,4,.89,6.06,1.2.77.12,1.1.44,1.31,1.27a12.86,12.86,0,0,1,.17,4.24,1.56,1.56,0,0,1-.8,1.21c-1.92,1.31-3.86,2.59-5.8,3.87-.5.33-1.08.16-1.62.2-10.68.77-21.36-.05-32,0-9.73,0-19.44.52-29.16.84A43.1,43.1,0,0,1,742.76,398Z"/><path class="cls-7" d="M766,137c.42,4.25,2.41,7.57,4.82,10.6a3,3,0,0,0,3.17,1c.85-.22,1,.19,1.06.83.45,3.11-.41,15.08,9.77,28.73.87,1.17,2.17,1.74,3.23,2.64.37.32.88.58.16,1.1-4.22,3.07-8.56,5.64-13.79,5.24-1.06-.08-1.56-.89-2.3-1.41a25.75,25.75,0,0,1-8.44-8.86c-3.29-6.16-6.86-12.25-7.9-19.66-.22-1.58-1.57-12.79,5.32-18.63,1.56-1.33,2.71-3.28,4.38-4.53.69.06.39.68.43,1.07A14.7,14.7,0,0,0,766,137Z"/><path class="cls-3" d="M828.32,216.09c7.59-3.2,13.46-5.59,20.74-8.5q12.41-5,25-9.2a8.15,8.15,0,0,1,4.3.11c1.45,3.82,3.7,7.3,5,11.41-3.63,1.66-15,10.14-16.28,11.57-2.45,2.75-5.1,3.08-8.45,2.11-5.88-1.7-11.84-3.06-17.69-4.94C838.44,217.88,829.42,216.65,828.32,216.09Z"/><path class="cls-8" d="M842,33.21c.59,2.27.08,10.12-3.91,12.76-9,5.59-18.56,8.64-28.53,10.41a4,4,0,0,1-2,.19,24.64,24.64,0,0,0,1.91-9.88,23,23,0,0,0-3.26,6,11.91,11.91,0,0,1-4.68,5.3c-.14.1-.35.21-.48.16-.63-.26-1-3.87-.56-4.4a12.14,12.14,0,0,0,2.36-4.53,2.58,2.58,0,0,0-1.49-3.33l-.15,0a5.07,5.07,0,0,0-3.35-.1,5,5,0,0,0-3,6.34c.23.8.66,1.62,1.47,1.71,1.5.18,1.81,1.39,2,2.78a3.75,3.75,0,0,0,.23.92,7,7,0,0,1-4.18-3.13c-1.54-2.9-2.83-6-4.74-8.63-.9-1.26-.62-1.89.67-2.51,3.12-1.49,6.46-1.6,9.73-2,5.2-.72,10.39-1.55,15.57-2.39,5.9-1,11.82-1.76,17.67-3.11C835.79,35.09,840.47,33.4,842,33.21Z"/><path class="cls-7" d="M896.27,398c1.29-4.58,1.75-12.94.76-17.54V380c-.43-.86-.47-2.28-1.67-2.17s-.9,1.32-1.08,2.23c.4,8.16-.26,14-2.41,17.78-.1.6-.36.62-.73.65a102.41,102.41,0,0,1-10.94.61c-.8,0-1.17-.35-1.51-1.2a59.16,59.16,0,0,1-3.08-12.65c-.12-1.48.38-2.27.56-4.35.26-3.15-1.35-2.37-2.46-1.67a27.91,27.91,0,0,0,.41,19.56c-1.38-.14-2.62-.25-3.85-.4a29.25,29.25,0,0,0-6.41-.41c-1,.09-2.7.19-2.83-.94-1.06-9.7,12-24.28,23.35-23.73,3.53.17,7.14-.44,10.54,1.52,4.72,2.72,8.83,6.05,10.45,12.2,1.8,6.81-1.61,10.65-4.38,10.63C899.44,397.59,897.94,397.82,896.27,398Z"/><path class="cls-2" d="M888.13,218.53a7.34,7.34,0,0,1-.56.69c-3.77,3.76-16,15.66-18.36,17.66-2.18,1.86-4.07.78-6,.23-10.21-2.87-20.4-5.87-30.61-8.77a98.54,98.54,0,0,0-14.33-3.08,5.15,5.15,0,0,1-1.59-.44,2.26,2.26,0,0,1-1.28-1.72c-.07-.61.75-.58,1.18-.83s.91-.5,1.35-.77c1.88-1.15,3.73-2.53,5.94-1.64,1.26.51,37.2,8.4,39.42,9.39.42.19.72-.08,1-.3,6-4.6,12-9.23,17.71-14.19a10.59,10.59,0,0,0,1.7-1.58c.65-.87,1-.66,1.46.18.78,1.42,1.65,2.78,2.47,4.18Z"/><path class="cls-7" d="M755.25,137.88c-1.17-2.16-2.4-4.13-3.67-6a15.21,15.21,0,0,1-1.64-5.51c.14-4.07,1-8,1.4-12.07.54-6,3.2-19.77,4.36-20.48,1.64-1,18.18-4.58,20-4.07-.39.79-5.66,9-8.53,11.56a3.58,3.58,0,0,0-1,1.64c-3.36,10.42-6.59,20.88-9.24,31.58A7.81,7.81,0,0,1,755.25,137.88Z"/><path class="cls-2" d="M801,218.52c.47.06.31,1.39.1,2.08a2.87,2.87,0,0,1-2,1.74c-5.85,2.17-11.79,4.08-17.56,6.5-4.56,1.91-9.31,2.84-13.92,4.45-2,.7-4.78-.26-5.44-.44-.31-1,4-6.61,5.64-8.16C773.46,224.09,793.63,217.55,801,218.52Z"/><path class="cls-9" d="M810.2,252.64a14.34,14.34,0,0,1-8.05,5.32c-4.89,1.06-8.91-2-10.56-7.8a27.73,27.73,0,0,1-.74-9.12,3.55,3.55,0,0,0,2.61,2.69,5.13,5.13,0,0,0,3.34-.35c.35-.16.77-.42.72-.84s-.57-.45-.92-.42c-.91.08-1.81.26-2.72.29s-1.61-.15-1.72-1.33.79-1.13,1.48-1.34c1.44-.45,2.88.47,4.53-.09-.82-.66-.64-1.33-.36-2.14a7.42,7.42,0,0,1,4.12-4.69c.37,1.13-.24,2.23.13,3.57,1-2.49,1-5.07,2.33-7.35.37,1.49-.17,2.68-.26,3.91s-.62,2.41-.17,3.71c.81-.35.63-1.29,1-1.8,2,2.53,2.68,3.56,2,4.59,1.24,1.7,3-.35,4.46.81-.84,1.16-2,.92-3,1.1a5,5,0,0,1-.95,0c-.42,0-1.06-.34-1.17.31s.62.59,1,.82a1.32,1.32,0,0,1,.29.62c.11,2.41-2,6.18-4.19,6a2.51,2.51,0,0,0,1.94,0,1.56,1.56,0,0,1,2.09.7.54.54,0,0,1,.05.11C808.11,251.26,809.54,251.41,810.2,252.64Z"/><path class="cls-10" d="M796.28,61.88c1.91,1.25,5.46.26,7-.65s3.22-.57,4.82-.74a71.16,71.16,0,0,0,29-9.2c.27-.16,3.25-1.78,3.62-1.93a17.86,17.86,0,0,1-.68,4.42c-.12.45-3,2.19-3.4,2.38-7.09,3.69-14.24,7.2-21.85,9.24a55,55,0,0,1-15.56,1.39C797.94,66.75,796.48,63.07,796.28,61.88Z"/><path class="cls-3" d="M796.4,215.05c-8.24,1.78-17.31,2.34-26,6.28l-.19-.34,3-4.32a104.88,104.88,0,0,0,8.2-12.83c.26-.51.38-.71.89-.37a130.18,130.18,0,0,1,14,11.21C796.36,214.72,796.35,214.88,796.4,215.05Z"/><path class="cls-9" d="M807.31,243.17v-.68a7.64,7.64,0,0,0,3.78-.46c.8-.42,1.68-1,1.45-2.19-.19-1-1.08-1.11-1.86-1.21-.45-.06-.89-.21-1.34-.26s-.65-.66-.85-1.1c-.28-.62.18-.83.49-1.12a16.36,16.36,0,0,0,2.66-2.73c.58-.87,1.28-1.87.51-3s-1.73-.44-2.57,0a10.59,10.59,0,0,0-2.71,2.37c-.22.25-.27.9-.8.54a1.15,1.15,0,0,1-.57-1.41,9.63,9.63,0,0,0,.15-3.3c0-.56-.16-1.27-.7-1.4s-.91.3-1.25.77a9.3,9.3,0,0,0-1.28,3.45c-.07.29,0,.8-.39.65a2.69,2.69,0,0,0-2.48.41c-.52.27-.56-.39-.7-.71a10.37,10.37,0,0,0-2.71-3.89,6.44,6.44,0,0,1,2.29-1.23c5-2.14,9.85-1.49,14.64.91a3.42,3.42,0,0,1,1.64,1.79c2.24,5.07,1.84,10.19.15,15.3a27.47,27.47,0,0,1-4,7.35c-.6-.17-.43-.71-.38-1.14a4.39,4.39,0,0,0-1.21-3.66A4.12,4.12,0,0,1,808,244.4,1.47,1.47,0,0,0,807.31,243.17Z"/><path class="cls-3" d="M746,259.88l-1.12,7.9c-.17,1.19-1.51,12.39-1.28,14.48.16,1.47-.33,1.81-1.47,1.12a2.63,2.63,0,0,1-1.13-1.2,23.64,23.64,0,0,1-1.87-9.71c.19-4.27,2.58-6.81,4.6-9.73C744.46,261.77,745.22,260.88,746,259.88Z"/><path class="cls-7" d="M747.38,309.71a163.81,163.81,0,0,0,5.27,15.72C746.22,323.72,743.79,318.81,747.38,309.71Z"/><path class="cls-11" d="M797.51,185.27c1,.1,2.9,1.51,3,2.62.11,1.87.54,5-.43,6.78a3.3,3.3,0,0,1-3.42,2,2.29,2.29,0,0,1-2.56-2v0C793.48,187.42,797,185.21,797.51,185.27Z"/><path class="cls-12" d="M791.12,240.16a20.68,20.68,0,0,1,3.43-10.37c.57,1.39.52,3.23,1.56,4.08,1.75,1.41.14,3,.5,4.5.09.38-.41.27-.64.24a12.37,12.37,0,0,0-2.72,0A2.34,2.34,0,0,0,791.12,240.16Z"/><path class="cls-13" d="M807.31,243.17c1.13-.62,1,.63,1,1.1a3.16,3.16,0,0,0,1.11,2.64,4.4,4.4,0,0,1,1.23,4.51c-.08.27-.08.51.18.66l-.62.57a5.76,5.76,0,0,1-3.21-2.77c-.43-.72-.82-.74-1.45-.38a2.43,2.43,0,0,1-2.57-.13c1.1-1,3.06-1.13,3.14-2.57S808,244.77,807.31,243.17Z"/><path class="cls-14" d="M781.75,131.21a3.06,3.06,0,0,1,3,3.11,1.62,1.62,0,0,1,0,.22c-.09,1.9-.15,3.83-1.65,5.09-.43.36-.92.85-1.35-.22-.78-2-2.1-1.95-3.6-1.07-.51.3-1,1.4-1.73.22s-1.07-1.18-.18-3.1A7,7,0,0,1,781.75,131.21Z"/><path class="cls-15" d="M828.32,31.88c-3.66.66-16.68,2.85-20.34,3.52a75.84,75.84,0,0,0-14.52,3.86,17.74,17.74,0,0,0-4.26,2.8c-.24.19-.46,1.2-1,.28s.18-1,.55-1.25a28.21,28.21,0,0,1,7.52-4.25c6.37-2.25,22.24-4.33,28.87-4.93C826.18,31.8,827.2,31.41,828.32,31.88Z"/><path class="cls-15" d="M823.55,66.46c-.24,1.84-23.17,8.26-23.69,3,1.81-.38,12.77-.71,14.6-.92,3.91-.46,5-1.35,8.79-2.43C823.55,66,823.6,66.17,823.55,66.46Z"/><path class="cls-16" d="M807.83,235.71c-.36-.12-.47-.56-.7-.88s-.1-.57.12-.81a18.2,18.2,0,0,1,3.59-2.83c.37-.24.62-.16.68.33C811.63,232.37,808.61,235.8,807.83,235.71Z"/><path class="cls-17" d="M795.81,229.51a7.44,7.44,0,0,1,2.57,3.58c.17.46-.18.64-.39.89-.35.41-.59.06-.77-.22A9.61,9.61,0,0,1,795.81,229.51Z"/><path class="cls-18" d="M799.91,49.76c-.76.59-1.41,1-2.11.4-.25-.2-.11-.65.11-.83C798.67,48.69,799.17,49.53,799.91,49.76Z"/><path class="cls-6" d="M877.27,257.52c1.09-.49,1.71.29,2.34.83a13.06,13.06,0,0,1,4.14,14.13c-1.2,3.47-2.55,6.84-4,10.18a13.93,13.93,0,0,0-1.11,3.9c-.18,1.58.12,1.85,1.38,1.29.47-.21.91-.49,1.37-.72a6.58,6.58,0,0,1,6-.11c1.2.59,1.59,0,2.11-1.19,2.68-5.87,4.43-12.22,7.07-18.1a4.88,4.88,0,0,1,.49-1c2.48-3.29,1.9-6.84.6-10.39-.69-1.89-1.58-3.69-2.41-5.51a4.22,4.22,0,0,0-.79-1.09c-2.07-2.13-2.76-7.56-1.34-10.31.34-.65.74-1.13,1.37-1.12a1.61,1.61,0,0,1,1.38,1.33c.54,2,1.67,3.61,2.27,5.54.31,1,1.12,1.52,1.71,2.23,2.74,3.31,3.77,7.56,5.19,11.67,1.07,3.1.33,5.1-1.38,7.49s-2.77,5.33-4.13,8c-1.58,3.14-3.4,6.11-4.1,9.77-.52,2.74-2.23,4.91-2.92,7.62a53,53,0,0,0-.82,5.88c-.35,2.48,1.22,4,2.77,5.45,1.23,1.12,2.87,1.66,3.6,3.51a7.34,7.34,0,0,1,.62,4.23c-1,5-3.25,8.82-7.19,11.32-2.14,1.37-2.91,1.81-5.48,1.48-4.06-.52-12.19-11.47-13.27-15.88-.83-3.41-.52-6.68-.3-10,.49-7.56,3.15-14.44,5.19-21.5a67.25,67.25,0,0,0,1.54-7.44,2.53,2.53,0,0,0-.19-1.69,9,9,0,0,1-.93-5A16.29,16.29,0,0,0,877.27,257.52Z"/><path class="cls-6" d="M799.51,113.82c-.25.94.17,1.89-.11,3-.64-.53-1.4-.1-2-1.75-.47-5.63,1.34-9.66,4-13.95,3.24-5.31,8.81-7.65,12.7-6.19a14.15,14.15,0,0,1,8,7.38c2.09,5.19,1.14,19.81.43,20.07a3.79,3.79,0,0,1-2.1-3.12c.67-8.81-.19-18.88-9.26-20.16C803.39,98,799.26,114.15,799.51,113.82Z"/><path class="cls-6" d="M771.64,119.57c0,.36-.54,1.51-.91,1.16s-1-1.7-.35-6.5c2-14.57,15.29-20.75,19-12.25,1.39,3.06-2.13,16.44-3.49,15.33-.92-4.88,4-12.8-1.65-14.78-10.24,0-10.43,7.5-12.22,13.39A12.81,12.81,0,0,0,771.64,119.57Z"/><path class="cls-8" d="M799.09,113.82c.95-5.17,5.7-13.5,9.68-14.56a8.45,8.45,0,0,1,9.94,4.29c1.72,3.24,2,10.49,1.94,15.66C821.76,118.78,801.08,132.11,799.09,113.82Z"/><path class="cls-8" d="M771.81,117.53c-.82-7.08,6-18.88,12.79-15,3.1,1.74,3.23,3.75,1.31,14.83C785.21,121.32,773.11,128.8,771.81,117.53Z"/><path class="cls-6" d="M823.92,143.26c-.16.79-.52,1.15-1.11,1a1.29,1.29,0,0,1-1.12-1.59c.13-.73.22-1.58,1.12-1.42S823.55,142.66,823.92,143.26Z"/><path class="cls-6" d="M819.23,150.29a.69.69,0,0,1,.61.76.58.58,0,0,1,0,.18c-.17.65-.14,1.6-1,1.63-.5,0-.73-.42-.66-1S818.27,150.38,819.23,150.29Z"/><path class="cls-6" d="M823.63,162.13a.92.92,0,0,1-.92-.94v-.06c0-.57.3-1,.84-1a.9.9,0,0,1,.9.91s0,.06,0,.09A1,1,0,0,1,823.63,162.13Z"/><path class="cls-13" d="M799.41,254.56a7.68,7.68,0,0,0,1-4,9.5,9.5,0,0,1,.25-2.81c.09-.26.15-.51.43-.5s.39.25.4.52c.11,2.42.24,4.86-1,7-.27.46-.63.81-1.14.65s-.56-.73-.58-1.28a18.22,18.22,0,0,1,.28-3.46,1.1,1.1,0,0,0-.7-1.4h0c-.73-.32-.87.16-1.13.63a9,9,0,0,1-1.83,2.54c-.48.42-1,.94-1.72.43s-.63-1.27-.48-2.1a7.24,7.24,0,0,1,1.35-2.89c.74-1,1.86-1.81,1.06-3.69,1.78,1,1.79,4.13,4.31,3.69C799.87,249.82,799.25,252,799.41,254.56Z"/><path class="cls-13" d="M801.66,244.68a2.92,2.92,0,0,1-3-2.84v0c0-1.94,1.41-3.79,2.86-3.81,2.5,0,3.23.53,3.23,2.49C804.73,242.88,803.44,244.69,801.66,244.68Z"/><path class="cls-17" d="M809.83,251.71c-.83-1-1.64-2-2.5-3-.33-.37-.16-.65,0-.93s.47-.15.69,0C809.13,248.76,810.1,249.81,809.83,251.71Z"/><path class="cls-7" d="M888.58,309.41a4.23,4.23,0,0,1-2,0,2.82,2.82,0,0,1-1.6-2.75c.31-1.48,1.43-3.58,2.89-4,.5-.15.36.06.27-.41-.13-.7-.8-.47-1.29-.36-1.25.28-4.5-.74-4-1a19.55,19.55,0,0,1,3.82-1.15.9.9,0,0,0,.48-1.58c-.75-.69-.5-1.25-.35-2.05s.46-1.8-.38-2.43c-1.77-1.34-5.19-1-6.81.56a13.77,13.77,0,0,0-3.92,8.37,11.09,11.09,0,0,0,.91,6.4,27,27,0,0,0,7.17,9c1.23,1,2.6,2.56,4.1,2.21a7.77,7.77,0,0,0,4.51-2.41,13.75,13.75,0,0,0,3-9.49,1.17,1.17,0,0,0-.4-.94s-1.61-1.37-2.23-1.32C891.46,306.1,889.74,308.81,888.58,309.41Z"/><path class="cls-19" d="M887.68,307.88c-1.16-.09-1.25-.53-1.33-1.28s1.55-4.28,4.06-3c.92.49.63,1.63-.16,2.38S888.72,308.05,887.68,307.88Z"/><path class="cls-17" d="M794,252.07c0-2.09,1-3.31,1.92-4.58.19-.26.41-.42.66-.06a.83.83,0,0,1,.1,1A10.47,10.47,0,0,1,794,252.07Z"/><path class="cls-20" d="M802.34,239.25c.68.13,1.54,0,1.37,1.45-.14,1.24-1.19,2.51-2.18,2.35-.72-.12-1.46-.34-1.42-1.51a2.24,2.24,0,0,1,2.19-2.29Z"/><path class="cls-6" d="M892.48,309.33c-.35-1.48-1.57-1.93-2.6-1.13a2.08,2.08,0,0,0-.87,1.11c-.35.77,0,1.28.43,1.94a1.85,1.85,0,0,0,2.16.07C892,310.88,892.68,310.19,892.48,309.33Zm-1.82,1.6a1.2,1.2,0,0,1-.88-.39,1.15,1.15,0,0,1,.39-1.59l.09-.05c.52-.4,1.37-.4,1.54.34a1.39,1.39,0,0,1-1,1.68l-.11,0Z"/><path class="cls-6" d="M896.2,307.65c-.44-1.83-1.94-2.38-3.22-1.39a2.57,2.57,0,0,0-1.08,1.37c-.43.95,0,1.58.53,2.4a2.27,2.27,0,0,0,2.66.08C895.58,309.54,896.45,308.71,896.2,307.65Zm-2.25,2a1.5,1.5,0,0,1-1.09-.49,1.43,1.43,0,0,1,.51-2l.08,0c.64-.49,1.69-.5,1.91.42a1.73,1.73,0,0,1-1.33,2H894Z"/></g><g id="Auge_R" data-name="Auge R"><ellipse class="cls-6" cx="777.27" cy="111.99" rx="6.2" ry="7.18"/><ellipse class="cls-8" cx="776.55" cy="109.57" rx="2.48" ry="2.87"/></g><g id="Auge_L" data-name="Auge L"><ellipse class="cls-6" cx="804.86" cy="109.49" rx="6.2" ry="7.18"/><ellipse class="cls-8" cx="804.05" cy="106.9" rx="2.48" ry="2.87"/></g></g></g></svg>