<svg id="Ebene_1" data-name="Ebene 1" xmlns="http://www.w3.org/2000/svg" viewBox="0 0 182.03 104.11"><defs><style>.cls-1{fill:#f19300;}.cls-2{fill:#1a171b;}</style></defs><title>Logo_bee42_ORIGINAL</title><path class="cls-1" d="M42.88,104.66l-5.09,9.5,7.16-7.81A4.27,4.27,0,0,1,42.88,104.66Z" transform="translate(-11.25 -49.92)"/><path class="cls-2" d="M43.78,81.8h0c-6.53,0-12.36-1.54-15.59-4.12-3.86-3.08-6.4-7.45-6.64-11.41a7.12,7.12,0,0,1,1.78-5.51,6.74,6.74,0,0,1,5-1.76c3.8,0,8.55,1.94,12.4,5.07,5.33,4.32,13.24,13.8,13,15.59a.72.72,0,0,1-.41.59,24.4,24.4,0,0,1-9.5,1.56ZM28.28,60.1a5.69,5.69,0,0,0-4.17,1.43,6,6,0,0,0-1.46,4.66c.22,3.65,2.61,7.72,6.22,10.61,3,2.43,8.62,3.88,14.91,3.88h0a24.61,24.61,0,0,0,8.77-1.34c-.58-1.8-7.16-10-12.57-14.42-3.66-3-8.15-4.82-11.7-4.82Z" transform="translate(-11.25 -49.92)"/><path class="cls-2" d="M68.2,55a1.46,1.46,0,0,0,2,0,1.5,1.5,0,0,0,.61-2,1.47,1.47,0,0,0-2,0A1.5,1.5,0,0,0,68.2,55Z" transform="translate(-11.25 -49.92)"/><ellipse class="cls-2" cx="61.13" cy="51.55" rx="1.66" ry="1.2" transform="translate(-16.82 45.73) rotate(-73.61)"/><path class="cls-2" d="M60.24,52.66a1.27,1.27,0,0,1,.85.42c-1.94,3.17,0,9.34,1,12.1,1.32-8.84,6.39-10.74,6.39-10.74a1.32,1.32,0,0,1,.47.8C64.24,57,62.78,65.52,62.62,66.59h0s.64,2.66-.3,1.32C57.14,58.21,60.24,52.66,60.24,52.66Z" transform="translate(-11.25 -49.92)"/><path class="cls-1" d="M48.49,85.28c-.84.13-3.94,3.61-3.8,4.42,1.68,3.18,5.37,9,14.7,11.21a5.73,5.73,0,0,0,4.06-4.8A20.35,20.35,0,0,1,48.49,85.28Z" transform="translate(-11.25 -49.92)"/><path class="cls-2" d="M57.13,81.16c-.5.08-3.51.45-5.08,1.67a16.51,16.51,0,0,0,13.13,8.87c.76-.92.38-4.47-.15-5.53C60.66,85.88,58.59,83.13,57.13,81.16Z" transform="translate(-11.25 -49.92)"/><path class="cls-2" d="M42.43,94.54c2.79,5.75,13.14,10.85,12.62,9.79C52.12,107,39.61,107.76,42.43,94.54Z" transform="translate(-11.25 -49.92)"/><path class="cls-2" d="M64.13,83.89C69.6,85.8,77.2,83.7,77.8,80.1c.45-2.67-3.33-6.57-8.37-9.46-5.83-3.34-10.71-1.29-11.9,2.16S58.65,82,64.13,83.89Zm3.25-12c-.2-.23,1.9,2.76,3.51.1.17-.24,1.22.76,1.22.76s2.3,2.12.85,3.1C69.62,77.46,67.37,71.91,67.37,71.91Z" transform="translate(-11.25 -49.92)"/><path class="cls-2" d="M127.28,103.77c-2,0-2.57-.81-2.57-1.94a7,7,0,0,1,1.49-3.2l17-25.88a4.9,4.9,0,0,1,4.66-2.51c2.64,0,4.53,1.32,4.53,4.57V99h3a2.39,2.39,0,1,1,0,4.76h-3v8.9a3,3,0,0,1-6,0v-8.9ZM146.49,99V76.13h-.13L132.16,99Z" transform="translate(-11.25 -49.92)"/><path class="cls-2" d="M190.72,110.47a2.39,2.39,0,1,1,0,4.76H167.39c-2.5,0-3.25-1.31-3.25-2.26,0-.69.27-1.19,1.28-2.5l16.64-20.62c2-2.45,3.51-5.2,3.51-7.9,0-4.07-3.31-7-7.64-7-5.75,0-8.79,4.51-8.79,10.09a2.35,2.35,0,0,1-2.64,2.51c-1.9,0-2.91-1.06-2.91-3.38,0-7.39,5.41-14,15.35-14,8,0,13,5.33,13,11.09a12.8,12.8,0,0,1-3.31,9.21l-16.16,19.93Z" transform="translate(-11.25 -49.92)"/><path class="cls-1" d="M41.59,113.23c-2.46.3-4.21,2.94-3,6.46a23,23,0,0,1,3.3,11.9c0,7.42-3.13,16.17-12,16.17s-12-8.74-12-16.17,3.13-16.17,12-16.17a10.17,10.17,0,0,1,4.49.9c.25.12.5.25.74.39,3.22-3.7.87-6.53.87-6.53a14.74,14.74,0,0,0-5.53-1,14.34,14.34,0,0,0-11.71,5.94h-.17V93.73c0-2.39-1.4-3.88-3.63-3.88s-3.63,1.49-3.63,3.88c0,0-.09,35.34,0,40.87.52,7,1.86,9.77,4,12.75,2.69,3.71,7.77,6.72,15.11,6.67,11.88-.07,18.72-10.8,18.72-22.44C49.16,124.34,44.88,114,41.59,113.23Z" transform="translate(-11.25 -49.92)"/><path class="cls-1" d="M61.45,134.22c0,7.51,4.78,13.36,13,13.36,9.65,0,12.13-5.94,14.85-5.94,1.32,0,2.64,1.16,2.64,3.22,0,3.55-9,9-17.57,9-14,0-20.13-10.81-20.13-22.44,0-11.88,7.42-22.44,19.71-22.44,12,0,18.89,10.81,18.89,21.36,0,2.56-.91,3.88-4,3.88Zm24.09-5.44c0-6.27-3.63-13.53-11.63-13.53-9-.33-12.21,6.85-12.46,13.53Z" transform="translate(-11.25 -49.92)"/><path class="cls-2" d="M104.35,134.22c0,7.51,4.78,13.36,12.95,13.36,9.65,0,12.13-5.94,14.85-5.94,1.32,0,2.64,1.16,2.64,3.22,0,3.55-9,9-17.57,9-14,0-20.13-10.81-20.13-22.44,0-11.88,7.42-22.44,19.71-22.44,12,0,18.89,10.81,18.89,21.36,0,2.56-.91,3.88-4,3.88Zm24.09-5.44c0-6.27-3.63-13.53-11.63-13.53-9-.33-12.21,6.85-12.45,13.53Z" transform="translate(-11.25 -49.92)"/></svg>