<?xml version="1.0" encoding="UTF-8"?>
<svg width="74px" height="68px" viewBox="0 0 74 68" version="1.1" xmlns="http://www.w3.org/2000/svg" xmlns:xlink="http://www.w3.org/1999/xlink">
    <!-- Generator: Sketch 46.2 (44496) - http://www.bohemiancoding.com/sketch -->
    <title>Icon/74px/Bonus</title>
    <desc>Created with Sketch.</desc>
    <defs>
        <polygon id="path-1" points="27.0081479 3.96732043 49.9079238 9.67687582 39.2787705 52.3080813 0.46694145 42.6312055"></polygon>
        <polygon id="path-2" points="27.1002241 0.967320433 50 6.67687582 39.3708467 49.3080813 0.559017619 39.6312055"></polygon>
        <polygon id="path-3" points="17 9 57 9 57 59 17 59"></polygon>
    </defs>
    <g id="Symbols" stroke="none" stroke-width="1" fill="none" fill-rule="evenodd">
        <g id="Icon/74px/Bonus">
            <g id="Icon/74px/Products">
                <circle id="Oval" fill="#E9EBF8" cx="37" cy="34" r="34"></circle>
                <g id="Card-(right)" transform="translate(24.000000, 8.000000)">
                    <g id="Card-(top)">
                        <use fill="#FFFFFF" fill-rule="evenodd" xlink:href="#path-1"></use>
                        <path stroke="#3870DF" stroke-width="2" d="M27.4397451,5.10554332 L2.10670616,42.0094311 L38.5503967,51.0958637 L48.6957062,10.4052497 L27.4397451,5.10554332 Z"></path>
                    </g>
                    <path d="M40.6934533,9.39990234 C39.7581849,13.1510591 42.0409134,16.9501573 45.7920701,17.8854257 L47.4855234,11.0933556 L40.6934533,9.39990234 Z" id="Combined-Shape" fill="#D3D8EE"></path>
                    <path d="M31,48.1919724 C31.9352684,44.4408157 35.7343666,42.1580872 39.4855234,43.0933556 L37.7920701,49.8854257 L31,48.1919724 Z" id="Combined-Shape" fill="#D3D8EE"></path>
                    <path d="M38.6250202,6.87473719 L35.1936539,51.4824998 C35.0494415,51.4603504 34.9049821,51.4301079 34.7607942,51.3914729 L28,49.5799235 L28,4.02777161 L38.6250202,6.87473719 Z" id="Combined-Shape" fill-opacity="0.199756567" fill="#0C2B9E"></path>
                </g>
                <g id="Card-(left)" transform="translate(25.000000, 36.000000) scale(-1, 1) translate(-25.000000, -36.000000) translate(0.000000, 11.000000)">
                    <g id="Card-(top)">
                        <use fill="#FFFFFF" fill-rule="evenodd" xlink:href="#path-2"></use>
                        <path stroke="#3870DF" stroke-width="2" d="M27.5318213,2.10554332 L2.19878233,39.0094311 L38.6424728,48.0958637 L48.7877824,7.40524965 L27.5318213,2.10554332 Z"></path>
                    </g>
                    <path d="M40.9079421,6.39990234 C39.9726737,10.1510591 42.2554022,13.9501573 46.0065589,14.8854257 L47.7000122,8.09335561 L40.9079421,6.39990234 Z" id="Combined-Shape" fill="#D3D8EE"></path>
                    <path d="M31.2144889,45.1919724 C32.1497573,41.4408157 35.9488555,39.1580872 39.7000122,40.0933556 L38.0065589,46.8854257 L31.2144889,45.1919724 Z" id="Combined-Shape" fill="#D3D8EE"></path>
                    <path d="M38.6250202,3.87473719 L35.1936539,48.4824998 C35.0494415,48.4603504 34.9049821,48.4301079 34.7607942,48.3914729 L28,46.5799235 L28,1.02777161 L38.6250202,3.87473719 Z" id="Combined-Shape" fill-opacity="0.199756567" fill="#0C2B9E"></path>
                </g>
                <g id="Card-(top)">
                    <use fill="#FFFFFF" fill-rule="evenodd" xlink:href="#path-3"></use>
                    <path stroke="#3870DF" stroke-width="2" d="M18,10 L18,58 L56,58 L56,10 L18,10 Z"></path>
                </g>
                <ellipse id="Oval-14" stroke="#D3D8EE" stroke-width="2" cx="37" cy="34" rx="12" ry="15"></ellipse>
                <path d="M48,11 C48,14.8659932 51.1340068,18 55,18 L55,11 L48,11 Z" id="Combined-Shape" fill="#D3D8EE"></path>
                <path d="M26,11 C26,14.8659932 22.8659932,18 19,18 L19,11 L26,11 Z" id="Combined-Shape" fill="#D3D8EE"></path>
                <path d="M48,57 C48,53.1340068 51.1340068,50 55,50 L55,57 L48,57 Z" id="Combined-Shape" fill="#D3D8EE"></path>
                <path d="M26,57 C26,53.1340068 22.8659932,50 19,50 L19,57 L26,57 Z" id="Combined-Shape" fill="#D3D8EE"></path>
                <path d="M33,37.9085318 L34.1695431,36.4953338 C34.6189532,36.9285001 35.1143797,37.2560772 35.6558376,37.4780749 C36.1972954,37.7000727 36.7197944,37.8110699 37.2233503,37.8110699 C37.7214915,37.8110699 38.1235179,37.6973654 38.4294416,37.4699531 C38.7353653,37.2425408 38.8883249,36.9339144 38.8883249,36.5440648 C38.8883249,36.3220671 38.8477161,36.1284988 38.7664975,35.9633541 C38.6852788,35.7982095 38.5485627,35.6506644 38.3563452,35.5207145 C38.1641276,35.3907646 37.950255,35.2770602 37.7147208,35.1795978 C37.4791866,35.0821354 37.1664994,34.9738454 36.7766497,34.8547247 C36.4626042,34.7572623 36.2000011,34.6719839 35.9888325,34.5988871 C35.7776639,34.5257903 35.5380724,34.4323902 35.2700508,34.3186841 C35.0020291,34.2049779 34.7800347,34.0926271 34.6040609,33.9816282 C34.4280871,33.8706294 34.2467014,33.7325597 34.0598985,33.567415 C33.8730955,33.4022704 33.7255505,33.2290065 33.6172589,33.0476181 C33.5089673,32.8662297 33.4209817,32.652357 33.3532995,32.4059937 C33.2856173,32.1596304 33.2517766,31.8929664 33.2517766,31.6059937 C33.2517766,30.7559049 33.5265624,30.0466057 34.0761421,29.4780749 C34.6257219,28.9095442 35.3878124,28.5819671 36.3624365,28.4953338 L36.3624365,26.3999023 L37.8649746,26.3999023 L37.8649746,28.5765521 C38.3793596,28.6794291 38.8883224,28.8432176 39.3918782,29.0679226 C39.895434,29.2926277 40.331301,29.5538772 40.6994924,29.851679 L39.5705584,31.264877 C39.1319775,30.9508314 38.679867,30.7139471 38.2142132,30.5542171 C37.7485594,30.394487 37.3153996,30.3146232 36.9147208,30.3146232 C36.4274087,30.3146232 36.0429794,30.416145 35.7614213,30.6191917 C35.4798632,30.8222384 35.3390863,31.1078531 35.3390863,31.4760445 C35.3390863,31.8334067 35.4961067,32.1190214 35.8101523,32.3328973 C36.1241978,32.5467731 36.6331606,32.7674139 37.3370558,32.9948262 C37.6131994,33.0814595 37.8460227,33.1559088 38.035533,33.2181765 C38.2250432,33.2804441 38.4362086,33.3548935 38.6690355,33.4415267 C38.9018624,33.52816 39.0954307,33.6107311 39.2497462,33.6892424 C39.4040617,33.7677538 39.5705575,33.8625075 39.7492386,33.9735064 C39.9279197,34.0845053 40.0741111,34.1955025 40.1878173,34.3065013 C40.3015234,34.4175002 40.4152279,34.5474481 40.528934,34.696349 C40.6426402,34.84525 40.7306257,35.003624 40.7928934,35.1714759 C40.8551611,35.3393279 40.9052452,35.526128 40.9431472,35.731882 C40.9810493,35.937636 41,36.1596304 41,36.3978719 C41,37.2750336 40.7211534,37.9965154 40.1634518,38.5623389 C39.6057502,39.1281624 38.8395988,39.4706293 37.8649746,39.5897501 L37.8649746,41.5795978 L36.3624365,41.5795978 L36.3624365,39.5816282 C35.0737668,39.4029471 33.9529658,38.8452539 33,37.9085318 Z" id="$" fill="#3870DF"></path>
            </g>
        </g>
    </g>
</svg>