<svg xmlns="http://www.w3.org/2000/svg" viewBox="0 0 92.7 83.2"><path fill="none" stroke="#e3677c" stroke-linecap="round" stroke-linejoin="round" stroke-width="6" d="M69 65.5H7l-4-37h70l-4 37z"/><path fill="none" stroke="#e3677c" stroke-linecap="round" stroke-miterlimit="10" stroke-width="4" d="M38 2v15M52 5l-2 6M24 5l2 6"/><path fill="none" stroke="#e3677c" stroke-linecap="round" stroke-linejoin="round" stroke-width="4" d="M69 73.5H7"/><path fill="none" stroke="#e3677c" stroke-linecap="round" stroke-linejoin="round" stroke-width="6" d="M76.4 5.9L69 65.5m7.7-59.6h13"/><path d="M9.7 83.2a4.9 4.9 0 1 1 4.9-4.9 4.9 4.9 0 0 1-4.9 4.9zm0-6.8a1.9 1.9 0 1 0 1.9 1.9 1.9 1.9 0 0 0-1.9-1.9zm56.4 6.8a4.9 4.9 0 1 1 4.9-4.9 4.9 4.9 0 0 1-4.9 4.9zm0-6.8a1.9 1.9 0 1 0 1.9 1.9 1.9 1.9 0 0 0-1.9-1.9z" fill="#e3677c"/></svg>