<?xml version="1.0" encoding="UTF-8"?>
<svg width="86px" height="74px" viewBox="0 0 86 74" version="1.1" xmlns="http://www.w3.org/2000/svg" xmlns:xlink="http://www.w3.org/1999/xlink">
    <!-- Generator: Sketch 51.3 (57544) - http://www.bohemiancoding.com/sketch -->
    <title>container (2)</title>
    <desc>Created with Sketch.</desc>
    <defs></defs>
    <g id="Page-1" stroke="none" stroke-width="1" fill="none" fill-rule="evenodd">
        <g id="Website" transform="translate(-737.000000, -872.000000)" fill-rule="nonzero">
            <g id="container-(2)" transform="translate(780.000000, 909.000000) scale(-1, 1) translate(-780.000000, -909.000000) translate(737.000000, 872.000000)">
                <polygon id="Shape" fill="#FF5974" points="64 74 86 74 86 49 64 49"></polygon>
                <polygon id="Shape" fill="#FF3051" points="43 49 43 74 65 74 65 49"></polygon>
                <polygon id="Shape" fill="#FF5023" points="0 49 0 74 22 74 22 49"></polygon>
                <polygon id="Shape" fill="#FF734F" points="22 49 22 74 44 74 44 49"></polygon>
                <polygon id="Shape" fill="#FF6243" points="22 25 0 25 0 50 22 50"></polygon>
                <polygon id="Shape" fill="#FF8169" points="22 50 44 50 44 25 22 25"></polygon>
                <polygon id="Shape" fill="#D75533" points="64 25 64 50 86 50 86 25"></polygon>
                <polygon id="Shape" fill="#CD2A00" points="65 50 65 25 43 25 43 50"></polygon>
                <polygon id="Shape" fill="#FF9478" points="44 25 44 0 22 0 22 25"></polygon>
                <polygon id="Shape" fill="#F19300" points="22 0 0 0 0 25 22 25"></polygon>
                <g id="Group" transform="translate(6.000000, 3.000000)" fill="#E0E0E2">
                    <path d="M20.0859021,67.9274968 C19.2364524,67.9274968 18.5479581,67.23674 18.5479581,66.3851583 L18.5479581,50.9578164 C18.5479581,50.1055754 19.2364524,49.4148186 20.0859021,49.4148186 C20.9346945,49.4148186 21.6231888,50.1055754 21.6231888,50.9578164 L21.6231888,66.3851583 C21.6231888,67.23674 20.9346945,67.9274968 20.0859021,67.9274968 Z" id="Shape"></path>
                    <path d="M29.3115944,67.9274968 C28.4628018,67.9274968 27.7743075,67.23674 27.7743075,66.3851583 L27.7743075,50.9578164 C27.7743075,50.1055754 28.4628018,49.4148186 29.3115944,49.4148186 C30.1610441,49.4148186 30.8495384,50.1055754 30.8495384,50.9578164 L30.8495384,66.3851583 C30.8495384,67.23674 30.1610441,67.9274968 29.3115944,67.9274968 Z" id="Shape"></path>
                    <path d="M1.63386013,67.9274968 C0.784410427,67.9274968 0.0959161091,67.23674 0.0959161091,66.3851583 L0.0959161091,50.9578164 C0.0959161091,50.1055754 0.784410427,49.4148186 1.63386013,49.4148186 C2.48265274,49.4148186 3.17114706,50.1055754 3.17114706,50.9578164 L3.17114706,66.3851583 C3.17114706,67.23674 2.48265274,67.9274968 1.63386013,67.9274968 Z" id="Shape"></path>
                    <path d="M10.8595525,67.9274968 C10.01076,67.9274968 9.32226571,67.23674 9.32226571,66.3851583 L9.32226571,50.9578164 C9.32226571,50.1055754 10.01076,49.4148186 10.8595525,49.4148186 C11.7090022,49.4148186 12.3974965,50.1055754 12.3974965,50.9578164 L12.3974965,66.3851583 C12.3974965,67.23674 11.7090022,67.9274968 10.8595525,67.9274968 Z" id="Shape"></path>
                    <path d="M63.1404475,67.9274968 C62.2909978,67.9274968 61.6025035,67.23674 61.6025035,66.3851583 L61.6025035,50.9578164 C61.6025035,50.1055754 62.2909978,49.4148186 63.1404475,49.4148186 C63.98924,49.4148186 64.6777343,50.1055754 64.6777343,50.9578164 L64.6777343,66.3851583 C64.6777343,67.23674 63.98924,67.9274968 63.1404475,67.9274968 Z" id="Shape"></path>
                    <path d="M72.3661399,67.9274968 C71.5173473,67.9274968 70.8288529,67.23674 70.8288529,66.3851583 L70.8288529,50.9578164 C70.8288529,50.1055754 71.5173473,49.4148186 72.3661399,49.4148186 C73.2155896,49.4148186 73.9040839,50.1055754 73.9040839,50.9578164 L73.9040839,66.3851583 C73.9040839,67.23674 73.2155896,67.9274968 72.3661399,67.9274968 Z" id="Shape"></path>
                    <path d="M44.6884056,67.9274968 C43.8389559,67.9274968 43.1504616,67.23674 43.1504616,66.3851583 L43.1504616,50.9578164 C43.1504616,50.1055754 43.8389559,49.4148186 44.6884056,49.4148186 C45.5371982,49.4148186 46.2256925,50.1055754 46.2256925,50.9578164 L46.2256925,66.3851583 C46.2256925,67.23674 45.5371982,67.9274968 44.6884056,67.9274968 Z" id="Shape"></path>
                    <path d="M53.9140979,67.9274968 C53.0653055,67.9274968 52.3768112,67.23674 52.3768112,66.3851583 L52.3768112,50.9578164 C52.3768112,50.1055754 53.0653055,49.4148186 53.9140979,49.4148186 C54.7635476,49.4148186 55.4520419,50.1055754 55.4520419,50.9578164 L55.4520419,66.3851583 C55.4520419,67.23674 54.7635476,67.9274968 53.9140979,67.9274968 Z" id="Shape"></path>
                    <path d="M63.1404475,43.2441454 C62.2909978,43.2441454 61.6025035,42.5533886 61.6025035,41.7018067 L61.6025035,26.274465 C61.6025035,25.4222239 62.2909978,24.731467 63.1404475,24.731467 C63.98924,24.731467 64.6777343,25.4222239 64.6777343,26.274465 L64.6777343,41.7018067 C64.6777343,42.5533886 63.98924,43.2441454 63.1404475,43.2441454 Z" id="Shape"></path>
                    <path d="M72.3661399,43.2441454 C71.5173473,43.2441454 70.8288529,42.5533886 70.8288529,41.7018067 L70.8288529,26.274465 C70.8288529,25.4222239 71.5173473,24.731467 72.3661399,24.731467 C73.2155896,24.731467 73.9040839,25.4222239 73.9040839,26.274465 L73.9040839,41.7018067 C73.9040839,42.5533886 73.2155896,43.2441454 72.3661399,43.2441454 Z" id="Shape"></path>
                    <path d="M44.6884056,43.2441454 C43.8389559,43.2441454 43.1504616,42.5533886 43.1504616,41.7018067 L43.1504616,26.274465 C43.1504616,25.4222239 43.8389559,24.731467 44.6884056,24.731467 C45.5371982,24.731467 46.2256925,25.4222239 46.2256925,26.274465 L46.2256925,41.7018067 C46.2256925,42.5533886 45.5371982,43.2441454 44.6884056,43.2441454 Z" id="Shape"></path>
                    <path d="M53.9140979,43.2441454 C53.0653055,43.2441454 52.3768112,42.5533886 52.3768112,41.7018067 L52.3768112,26.274465 C52.3768112,25.4222239 53.0653055,24.731467 53.9140979,24.731467 C54.7635476,24.731467 55.4520419,25.4222239 55.4520419,26.274465 L55.4520419,41.7018067 C55.4520419,42.5533886 54.7635476,43.2441454 53.9140979,43.2441454 Z" id="Shape"></path>
                    <path d="M20.0859021,43.2441454 C19.2364524,43.2441454 18.5479581,42.5533886 18.5479581,41.7018067 L18.5479581,26.274465 C18.5479581,25.4222239 19.2364524,24.731467 20.0859021,24.731467 C20.9346945,24.731467 21.6231888,25.4222239 21.6231888,26.274465 L21.6231888,41.7018067 C21.6231888,42.5533886 20.9346945,43.2441454 20.0859021,43.2441454 Z" id="Shape"></path>
                    <path d="M29.3115944,43.2441454 C28.4628018,43.2441454 27.7743075,42.5533886 27.7743075,41.7018067 L27.7743075,26.274465 C27.7743075,25.4222239 28.4628018,24.731467 29.3115944,24.731467 C30.1610441,24.731467 30.8495384,25.4222239 30.8495384,26.274465 L30.8495384,41.7018067 C30.8495384,42.5533886 30.1610441,43.2441454 29.3115944,43.2441454 Z" id="Shape"></path>
                    <path d="M1.63386013,43.2441454 C0.784410427,43.2441454 0.0959161091,42.5533886 0.0959161091,41.7018067 L0.0959161091,26.274465 C0.0959161091,25.4222239 0.784410427,24.731467 1.63386013,24.731467 C2.48265274,24.731467 3.17114706,25.4222239 3.17114706,26.274465 L3.17114706,41.7018067 C3.17114706,42.5533886 2.48265274,43.2441454 1.63386013,43.2441454 Z" id="Shape"></path>
                    <path d="M10.8595525,43.2441454 C10.01076,43.2441454 9.32226571,42.5533886 9.32226571,41.7018067 L9.32226571,26.274465 C9.32226571,25.4222239 10.01076,24.731467 10.8595525,24.731467 C11.7090022,24.731467 12.3974965,25.4222239 12.3974965,26.274465 L12.3974965,41.7018067 C12.3974965,42.5533886 11.7090022,43.2441454 10.8595525,43.2441454 Z" id="Shape"></path>
                    <path d="M20.0859021,18.560794 C19.2364524,18.560794 18.5479581,17.8700372 18.5479581,17.0177963 L18.5479581,1.59111361 C18.5479581,0.738872476 19.2364524,0.0481156526 20.0859021,0.0481156526 C20.9346945,0.0481156526 21.6231888,0.738872476 21.6231888,1.59111361 L21.6231888,17.0177963 C21.6231888,17.8700372 20.9346945,18.560794 20.0859021,18.560794 Z" id="Shape"></path>
                    <path d="M29.3115944,18.560794 C28.4628018,18.560794 27.7743075,17.8700372 27.7743075,17.0177963 L27.7743075,1.59111361 C27.7743075,0.738872476 28.4628018,0.0481156526 29.3115944,0.0481156526 C30.1610441,0.0481156526 30.8495384,0.738872476 30.8495384,1.59111361 L30.8495384,17.0177963 C30.8495384,17.8700372 30.1610441,18.560794 29.3115944,18.560794 Z" id="Shape"></path>
                    <path d="M1.63386013,18.560794 C0.784410427,18.560794 0.0959161091,17.8700372 0.0959161091,17.0177963 L0.0959161091,1.59111361 C0.0959161091,0.738872476 0.784410427,0.0481156526 1.63386013,0.0481156526 C2.48265274,0.0481156526 3.17114706,0.738872476 3.17114706,1.59111361 L3.17114706,17.0177963 C3.17114706,17.8700372 2.48265274,18.560794 1.63386013,18.560794 Z" id="Shape"></path>
                    <path d="M10.8595525,18.560794 C10.01076,18.560794 9.32226571,17.8700372 9.32226571,17.0177963 L9.32226571,1.59111361 C9.32226571,0.738872476 10.01076,0.0481156526 10.8595525,0.0481156526 C11.7090022,0.0481156526 12.3974965,0.738872476 12.3974965,1.59111361 L12.3974965,17.0177963 C12.3974965,17.8700372 11.7090022,18.560794 10.8595525,18.560794 Z" id="Shape"></path>
                </g>
            </g>
        </g>
    </g>
</svg>