<?xml version="1.0" encoding="utf-8"?>
<!-- Generator: Adobe Illustrator 22.1.0, SVG Export Plug-In . SVG Version: 6.00 Build 0)  -->
<svg version="1.1" id="Ebene_1" xmlns="http://www.w3.org/2000/svg" xmlns:xlink="http://www.w3.org/1999/xlink" x="0px" y="0px"
	 viewBox="0 0 61 40.5" style="enable-background:new 0 0 61 40.5;" xml:space="preserve">
<style type="text/css">
	.st0{fill:#3D4D57;}
	.st1{fill:#FBB03B;}
	.st2{fill:#754C24;}
	.st3{opacity:0.5;fill:#754C24;enable-background:new    ;}
	.st4{opacity:0.25;fill:#754C24;enable-background:new    ;}
	.st5{opacity:0.25;}
	.st6{opacity:0.5;}
	.st7{opacity:0.2;enable-background:new    ;}
	.st8{fill:none;}
	.st9{fill:#F15A24;}
</style>
<title>Element 2</title>
<g>
	<g id="Ebene_2_1_">
		<g id="Ebene_1-2">
			<path class="st0" d="M0.1,29.7h1.3c0.4-0.2,0.9-0.4,1.3-0.5L30,18.3l-0.3-0.6L0.1,29.7z"/>
			<g>
				<path class="st0" d="M29.1,18.6c-0.2,0.2-0.5,0.3-0.8,0.3c-0.5,0-0.8-0.2-0.9-0.4c-0.1-0.5,0-1,0.3-1.3c0.1-0.1,0.1-0.2,0.1-0.3
					c0-0.1,0,0-0.1,0c-0.2,0-0.3,0.1-0.5,0.2l0,0h0c-0.7,0.3-1.2,1-1.2,1.8c0,0.6,0.4,1.1,1,1.3c0.5,0.2,1.1,0.4,1.6,0.4h3.3
					c0.6,0,1.1-0.1,1.6-0.4c0.6-0.2,0.9-0.7,1-1.3c0-0.8-0.5-1.5-1.2-1.8h0l0,0c-0.1-0.1-0.3-0.2-0.5-0.2c-0.1,0-0.1,0-0.1,0
					s0,0.2,0.1,0.3c0.3,0.4,0.4,0.9,0.3,1.3c-0.1,0.2-0.3,0.4-0.9,0.4c-0.3,0-0.6-0.1-0.8-0.3c-0.2-0.2-0.3-0.5-0.3-0.8V15h-1.8v2.8
					C29.4,18.1,29.3,18.4,29.1,18.6z"/>
				<path class="st0" d="M28.3,6c0.2-0.1,0.4-0.2,0.7-0.2h0.2l0,0l0,0h0l0,0h0l0,0h0l0,0h0h0l0,0h0h0h0h0l0,0h0h0.1h0h0.8h0h0.1h0
					l0,0h0h0h0h0l0,0h0h0h0h0l0,0h0l0,0h0.3h0l0,0h0.2c0.2,0,0.5,0.1,0.7,0.2l0.8,0.7v0c-0.5-1.5-2.1-2.3-3.6-1.8
					c-0.8,0.3-1.5,0.9-1.8,1.8v0L28.3,6z"/>
				<path class="st0" d="M33,6.7L33,6.7L33,6.7L33,6.7z"/>
				<path class="st0" d="M27.5,6.6C27.5,6.7,27.5,6.7,27.5,6.6L27.5,6.6L27.5,6.6z"/>
				<path class="st0" d="M31.1,5.7L31.1,5.7L31.1,5.7L31.1,5.7L31.1,5.7h-0.1l0,0h-0.1l0,0h0h-0.1h0l0,0h-0.1h-0.7h-0.1l0,0h0h-0.1
					h0l0,0h-0.1l0,0h0l0,0h0l0,0h0l0,0h1.7H31.1z"/>
				<path class="st0" d="M31.1,5.7"/>
				<path class="st0" d="M30.7,5.6L30.7,5.6L30.7,5.6z"/>
				<path class="st0" d="M31,5.7L31,5.7L31,5.7z"/>
				<path class="st0" d="M30.5,5.6L30.5,5.6z"/>
				<path class="st0" d="M30.4,5.6L30.4,5.6z"/>
				<path class="st0" d="M30.7,5.6L30.7,5.6z"/>
				<path class="st0" d="M30.3,5.6L30.3,5.6z"/>
				<path class="st0" d="M31,5.7L31,5.7L31,5.7z"/>
				<path class="st0" d="M30.9,5.7L30.9,5.7L30.9,5.7z"/>
				<path class="st0" d="M30.8,5.6L30.8,5.6L30.8,5.6z"/>
				<path class="st0" d="M30.8,5.6L30.8,5.6L30.8,5.6z"/>
				<path class="st0" d="M30.6,5.6L30.6,5.6L30.6,5.6z"/>
				<path class="st0" d="M29.6,5.7L29.6,5.7L29.6,5.7z"/>
				<path class="st0" d="M29.5,5.7L29.5,5.7L29.5,5.7z"/>
				<path class="st0" d="M29.7,5.6L29.7,5.6L29.7,5.6z"/>
				<path class="st0" d="M29.4,5.7"/>
				<path class="st0" d="M29.5,5.7L29.5,5.7L29.5,5.7z"/>
				<path class="st0" d="M29.7,5.6L29.7,5.6z"/>
				<path class="st0" d="M30.2,5.6L30.2,5.6z"/>
				<path class="st0" d="M29.4,5.7L29.4,5.7L29.4,5.7z"/>
				<path class="st0" d="M30,5.6L30,5.6z"/>
				<path class="st0" d="M30.1,5.6L30.1,5.6z"/>
				<path class="st0" d="M30.2,5.6L30.2,5.6z"/>
				<path class="st0" d="M29.8,5.6L29.8,5.6L29.8,5.6z"/>
				<path class="st0" d="M29.8,5.6L29.8,5.6L29.8,5.6z"/>
				<path class="st0" d="M30,5.6L30,5.6z"/>
				<path class="st0" d="M29.9,5.6L29.9,5.6z"/>
				<path class="st0" d="M30.5,5.6L30.5,5.6z"/>
				<path class="st0" d="M31.9,14.6l1.7-4.7c0.1-0.2,0.1-0.5,0.1-0.7V7.9c0-0.2-0.1-0.4-0.2-0.5l-1.5-1.3c-0.2-0.1-0.4-0.2-0.6-0.2
					H29c-0.2,0-0.4,0.1-0.6,0.2l-1.5,1.3c-0.1,0.1-0.2,0.3-0.2,0.5v1.3c0,0.2,0.1,0.5,0.1,0.7l1.7,4.7c0.1,0.2,0.2,0.3,0.4,0.3h2.5
					C31.7,14.9,31.8,14.8,31.9,14.6z M28.9,8.6V8h0.9c-0.1-0.1-0.1-0.3-0.1-0.4c0-0.4,0.3-0.7,0.7-0.7c0.4,0,0.7,0.3,0.7,0.7
					c0,0.1-0.1,0.3-0.1,0.4h0.9v0.7L28.9,8.6L28.9,8.6z M30.9,13.2c0,0.4-0.3,0.7-0.7,0.7s-0.7-0.3-0.7-0.7c0-0.1,0.1-0.3,0.1-0.4
					h-0.9v-0.7h2.8v0.7h-0.9C30.9,12.9,30.9,13,30.9,13.2L30.9,13.2z"/>
				<path class="st0" d="M29.7,13.2c0,0.3,0.2,0.6,0.5,0.6c0.3,0,0.6-0.2,0.6-0.5c0,0,0-0.1,0-0.1c0-0.2-0.1-0.3-0.2-0.4h-0.8
					C29.7,12.9,29.7,13,29.7,13.2z"/>
				<path class="st0" d="M29.9,12.6h0.7l0,0h0.1h0.9v-0.5H29v0.5H29.9L29.9,12.6L29.9,12.6z M31,12.3h0.2l0.1,0.2l-0.1,0.2H31
					l-0.1-0.2L31,12.3z M29.5,12.7h-0.2l-0.1-0.2l0.1-0.2h0.2l0.1,0.2L29.5,12.7z"/>
				<path class="st0" d="M30.6,12.7L30.6,12.7L30.6,12.7L30.6,12.7h-0.7l0,0h-0.1H30.6z"/>
				<polygon class="st0" points="30.6,12.7 30.6,12.7 30.6,12.7 29.9,12.7 29.9,12.7 29.9,12.7 				"/>
				<polygon class="st0" points="29.2,12.3 29.2,12.4 29.2,12.6 29.4,12.6 29.5,12.4 29.4,12.3 				"/>
				<polygon class="st0" points="31.2,12.6 31.3,12.4 31.2,12.3 31,12.3 31,12.4 31,12.6 				"/>
				<path class="st0" d="M30.8,7.6c0-0.3-0.2-0.6-0.6-0.6c-0.3,0-0.6,0.2-0.6,0.6c0,0.2,0.1,0.3,0.2,0.4h0.8
					C30.7,7.9,30.8,7.8,30.8,7.6z"/>
				<path class="st0" d="M30.6,8.2h-0.7l-0.1,0H29v0.5h2.6V8.1L30.6,8.2L30.6,8.2L30.6,8.2z M29.5,8.6h-0.2l-0.1-0.2l0.1-0.2h0.2
					l0.1,0.2L29.5,8.6z M31,8.2h0.2l0.1,0.2l-0.1,0.2H31l-0.1-0.2L31,8.2z"/>
				<path class="st0" d="M29.8,8.1L29.8,8.1l0.8,0l0.1,0H29.8z"/>
				<polygon class="st0" points="29.2,8.2 29.2,8.4 29.2,8.5 29.4,8.5 29.5,8.4 29.4,8.2 				"/>
				<polygon class="st0" points="31.2,8.5 31.3,8.4 31.2,8.2 31,8.2 31,8.4 31,8.5 				"/>
				<path class="st0" d="M32.9,8.4c0.1,0.1,0.1,0.3,0.1,0.4L33.3,9V0h-0.4V8.4z"/>
				<path class="st0" d="M27.1,9l0.2-0.2c0-0.2,0.1-0.3,0.1-0.4V0h-0.4L27.1,9z"/>
			</g>
			<path class="st0" d="M59.6,29.7h-1.2c-0.4-0.2-0.9-0.4-1.3-0.5L30.3,18.3l0.3-0.6L59.6,29.7z"/>
			<path class="st1" d="M30.5,27.4C30.5,27.3,30.5,27.3,30.5,27.4H0.1c0,0-0.1,0-0.1,0c0,0,0,0,0,0.1v12.9c0,0,0,0.1,0,0.1
				c0,0,0.1,0,0.1,0h30.3c0.1,0,0.1,0,0.1-0.1c0,0,0,0,0,0L30.5,27.4C30.5,27.4,30.5,27.4,30.5,27.4z"/>
			<path class="st2" d="M1.3,40.5H0.2c0,0-0.1,0-0.1,0c0,0,0-0.1,0-0.1v-0.8l0,0h1.2l0,0V40.5L1.3,40.5z"/>
			<path class="st3" d="M0,39.4v0.8c0,0,0,0.1,0,0.1c0,0,0.1,0,0.1,0h1.1l0,0h-1c0,0-0.1,0-0.1,0c0,0,0-0.1,0-0.1L0,39.4L0,39.4
				L0,39.4L0,39.4z"/>
			<path class="st4" d="M1.3,40.4v-1H0l0,0h1.3l0,0V40.4L1.3,40.4z"/>
			<g class="st5">
				<path class="st2" d="M0.9,40v-0.2c0-0.1-0.1-0.3-0.3-0.3s-0.3,0.1-0.3,0.3V40c0,0.1,0.1,0.3,0.3,0.3S0.9,40.2,0.9,40z M0.9,40
					c0,0.1-0.1,0.2-0.2,0.2c-0.1,0-0.2-0.1-0.2-0.2v-0.2c0-0.1,0.1-0.2,0.2-0.2c0.1,0,0.2,0.1,0.2,0.2V40z"/>
			</g>
			<g class="st6">
				<path class="st2" d="M0.9,40v-0.2c0-0.1-0.1-0.3-0.3-0.3s-0.3,0.1-0.3,0.3V40c0,0.1,0.1,0.3,0.3,0.3S0.9,40.2,0.9,40z M0.9,40
					c0,0.1-0.1,0.2-0.2,0.2c-0.1,0-0.2-0.1-0.2-0.2v-0.2c0-0.1,0.1-0.2,0.2-0.2c0.1,0,0.2,0.1,0.2,0.2V40z"/>
			</g>
			<path class="st2" d="M0.7,39.6c-0.1,0-0.2,0.1-0.2,0.2l0,0V40c0,0.1,0.1,0.2,0.2,0.2c0.1,0,0.2-0.1,0.2-0.2v-0.2
				C0.9,39.7,0.8,39.6,0.7,39.6C0.7,39.6,0.7,39.6,0.7,39.6z"/>
			<path class="st2" d="M29.3,40.5h1.1c0,0,0.1,0,0.1,0c0,0,0.1-0.1,0.1-0.1v-0.8 M30.5,39.5h-1.2l0,0v1L30.5,39.5z"/>
			<path class="st3" d="M30.5,39.4v0.8c0,0,0,0.1,0,0.1c0,0-0.1,0-0.1,0h-1.1l0,0h1.1c0,0,0.1,0,0.1,0c0,0,0.1-0.1,0.1-0.1v-0.8l0,0
				l0,0L30.5,39.4z"/>
			<path class="st4" d="M29.3,40.4v-1h1.2l0,0l0,0h-1.2l0,0V40.4L29.3,40.4z"/>
			<g class="st5">
				<path class="st2" d="M29.9,40.3c0.1,0,0.3-0.1,0.3-0.3l0,0v-0.2c0-0.1-0.1-0.3-0.2-0.3c-0.1,0-0.3,0.1-0.3,0.2c0,0,0,0.1,0,0.1
					V40C29.6,40.2,29.7,40.3,29.9,40.3z M29.7,39.8c0-0.1,0.1-0.2,0.2-0.2l0,0c0.1,0,0.2,0.1,0.2,0.2l0,0V40c0,0.1-0.1,0.2-0.2,0.2
					l0,0c-0.1,0-0.2-0.1-0.2-0.2l0,0V39.8z"/>
			</g>
			<g class="st6">
				<path class="st2" d="M29.9,40.3c0.1,0,0.3-0.1,0.3-0.3l0,0v-0.2c0-0.1-0.1-0.3-0.2-0.3c-0.1,0-0.3,0.1-0.3,0.2c0,0,0,0.1,0,0.1
					V40C29.6,40.2,29.7,40.3,29.9,40.3z M29.7,39.8c0-0.1,0.1-0.2,0.2-0.2l0,0c0.1,0,0.2,0.1,0.2,0.2l0,0V40c0,0.1-0.1,0.2-0.2,0.2
					l0,0c-0.1,0-0.2-0.1-0.2-0.2l0,0V39.8z"/>
			</g>
			<path class="st2" d="M29.9,39.6c0.1,0,0.2,0.1,0.2,0.2l0,0V40c0,0.1-0.1,0.2-0.2,0.2l0,0c-0.1,0-0.2-0.1-0.2-0.2l0,0v-0.2
				C29.7,39.7,29.8,39.6,29.9,39.6L29.9,39.6z"/>
			<path class="st2" d="M1.3,27.3H0.2c0,0-0.1,0-0.1,0C0,27.4,0,27.4,0,27.5v0.8l0,0h1.3l0,0V27.3L1.3,27.3z"/>
			<path class="st3" d="M0,28.3v-0.8c0,0,0-0.1,0-0.1c0,0,0.1,0,0.1,0h1.1l0,0h-1c0,0-0.1,0-0.1,0c0,0,0,0.1-0.1,0.1V28.3L0,28.3
				L0,28.3L0,28.3z"/>
			<path class="st4" d="M1.3,27.4v1H0l0,0h1.3l0,0V27.4z"/>
			<g class="st5">
				<path class="st2" d="M0.7,27.5c-0.1,0-0.3,0.1-0.3,0.3l0,0V28c0,0.1,0.1,0.3,0.3,0.3s0.3-0.1,0.3-0.3v-0.2
					C0.9,27.6,0.8,27.5,0.7,27.5C0.7,27.5,0.7,27.5,0.7,27.5z M0.9,28c0,0.1-0.1,0.2-0.2,0.2S0.4,28.1,0.4,28c0,0,0,0,0,0v-0.2
					c0-0.1,0.1-0.2,0.2-0.2c0.1,0,0.2,0.1,0.2,0.2V28z"/>
			</g>
			<g class="st6">
				<path class="st2" d="M0.7,27.5c-0.1,0-0.3,0.1-0.3,0.3l0,0V28c0,0.1,0.1,0.3,0.3,0.3s0.3-0.1,0.3-0.3v-0.2
					C0.9,27.6,0.8,27.5,0.7,27.5C0.7,27.5,0.7,27.5,0.7,27.5z M0.9,28c0,0.1-0.1,0.2-0.2,0.2S0.4,28.1,0.4,28c0,0,0,0,0,0v-0.2
					c0-0.1,0.1-0.2,0.2-0.2c0.1,0,0.2,0.1,0.2,0.2V28z"/>
			</g>
			<path class="st2" d="M0.7,28.2c-0.1,0-0.2-0.1-0.2-0.2l0,0v-0.2c0-0.1,0.1-0.2,0.2-0.2c0.1,0,0.2,0.1,0.2,0.2v0.2
				C0.9,28.1,0.8,28.2,0.7,28.2C0.7,28.2,0.7,28.2,0.7,28.2z"/>
			<path class="st2" d="M29.3,27.3h1.1c0,0,0.1,0,0.1,0c0,0,0.1,0.1,0.1,0.1v0.8 M30.5,28.3h-1.2l0,0v-1L30.5,28.3z"/>
			<path class="st3" d="M30.5,28.3v-0.8c0,0,0-0.1,0-0.1c0,0-0.1,0-0.1,0h-1.1l0,0h1.1c0,0,0.1,0,0.1,0c0,0,0.1,0.1,0.1,0.1v0.8l0,0
				l0,0L30.5,28.3z"/>
			<path class="st4" d="M29.3,27.4v1h1.2l0,0h-1.2l0,0V27.4L29.3,27.4z"/>
			<g class="st5">
				<path class="st2" d="M29.6,27.8v0.2c0,0.1,0.2,0.2,0.3,0.2c0.1,0,0.2-0.1,0.2-0.2v-0.2c0-0.1-0.1-0.3-0.2-0.3
					c-0.1,0-0.3,0.1-0.3,0.2C29.6,27.7,29.6,27.7,29.6,27.8z M29.7,27.8c0-0.1,0.1-0.2,0.2-0.2l0,0c0.1,0,0.2,0.1,0.2,0.2l0,0v0.2
					c0,0.1-0.1,0.2-0.2,0.2l0,0c-0.1,0-0.2-0.1-0.2-0.2l0,0V27.8z"/>
			</g>
			<g class="st6">
				<path class="st2" d="M29.6,27.8v0.2c0,0.1,0.2,0.2,0.3,0.2c0.1,0,0.2-0.1,0.2-0.2v-0.2c0-0.1-0.1-0.3-0.2-0.3
					c-0.1,0-0.3,0.1-0.3,0.2C29.6,27.7,29.6,27.7,29.6,27.8z M29.7,27.8c0-0.1,0.1-0.2,0.2-0.2l0,0c0.1,0,0.2,0.1,0.2,0.2l0,0v0.2
					c0,0.1-0.1,0.2-0.2,0.2l0,0c-0.1,0-0.2-0.1-0.2-0.2l0,0V27.8z"/>
			</g>
			<path class="st2" d="M29.9,28.2c0.1,0,0.2-0.1,0.2-0.2l0,0v-0.2c0-0.1-0.1-0.2-0.2-0.2l0,0c-0.1,0-0.2,0.1-0.2,0.2l0,0v0.2
				C29.7,28.1,29.8,28.2,29.9,28.2L29.9,28.2z"/>
			<g class="st5">
				<g>
					<rect x="2.1" y="27.9" width="1.9" height="11.9"/>
					<rect x="2.1" y="27.9" width="1.9" height="11.9"/>
					<g>
						<path d="M2.6,28.2l-0.6-0.2h1.9l-0.6,0.2H2.6z"/>
						<path d="M2.6,28.2l-0.6-0.2h1.9l-0.6,0.2H2.6z"/>
						<path d="M2.6,28.2l-0.6-0.2h1.9l-0.6,0.2H2.6z"/>
						<path d="M2.6,28.2L2.1,28h1.9l-0.6,0.2H2.6z"/>
						<path d="M2.6,28.1l-0.6-0.2h1.9l-0.6,0.2H2.6z"/>
						<path d="M2.6,28.1L2.1,28h1.9l-0.6,0.2H2.6z"/>
						<path d="M2.6,28.1l-0.6-0.2h1.9l-0.6,0.2H2.6z"/>
						<path d="M2.6,28.1L2.1,28h1.9l-0.6,0.2H2.6z"/>
						<path d="M2.6,28.1l-0.6-0.2h1.9l-0.6,0.2H2.6z"/>
						<path d="M2.6,28.1l-0.6-0.2h1.9l-0.6,0.2H2.6z"/>
						<path d="M2.6,28.1L2.1,28h1.9l-0.6,0.1H2.6z"/>
						<path d="M2.6,28.1l-0.6-0.1h1.9l-0.6,0.1H2.6z"/>
					</g>
					<g class="st6">
						<path d="M2.6,39.6l-0.6,0.2h1.9l-0.6-0.2H2.6z"/>
						<path d="M2.6,39.6l-0.6,0.2h1.9l-0.6-0.2H2.6z"/>
						<path d="M2.6,39.6l-0.6,0.2h1.9l-0.6-0.2H2.6z"/>
						<path d="M2.6,39.6l-0.6,0.2h1.9l-0.6-0.2H2.6z"/>
						<path d="M2.6,39.7l-0.6,0.2h1.9l-0.6-0.2H2.6z"/>
						<path d="M2.6,39.7l-0.6,0.1h1.9l-0.6-0.1H2.6z"/>
						<path d="M2.6,39.7l-0.6,0.1h1.9l-0.6-0.1H2.6z"/>
						<path d="M2.6,39.7l-0.6,0.1h1.9l-0.6-0.1H2.6z"/>
						<path d="M2.6,39.7l-0.6,0.1h1.9l-0.6-0.1H2.6z"/>
						<path d="M2.6,39.8l-0.6,0.1h1.9l-0.6-0.1H2.6z"/>
						<path d="M2.6,39.8H2.1h1.9H3.4H2.6z"/>
						<path d="M2.6,39.8L2.6,39.8z"/>
					</g>
				</g>
				<g>
					<rect x="5.2" y="27.9" width="1.9" height="11.9"/>
					<rect x="5.2" y="27.9" width="1.9" height="11.9"/>
					<g>
						<path d="M5.7,28.2l-0.6-0.2H7l-0.6,0.2H5.7z"/>
						<path d="M5.7,28.2l-0.6-0.2H7l-0.6,0.2H5.7z"/>
						<path d="M5.7,28.2l-0.6-0.2H7l-0.6,0.2H5.7z"/>
						<path d="M5.7,28.2L5.2,28H7l-0.6,0.2H5.7z"/>
						<path d="M5.7,28.1l-0.6-0.2H7l-0.6,0.2H5.7z"/>
						<path d="M5.7,28.1L5.2,28H7l-0.6,0.2H5.7z"/>
						<path d="M5.7,28.1l-0.6-0.2H7l-0.6,0.2H5.7z"/>
						<path d="M5.7,28.1L5.2,28H7l-0.6,0.2H5.7z"/>
						<path d="M5.7,28.1l-0.6-0.2H7l-0.6,0.2H5.7z"/>
						<path d="M5.7,28.1l-0.6-0.2H7l-0.6,0.2H5.7z"/>
						<path d="M5.7,28.1L5.2,28H7l-0.6,0.1H5.7z"/>
						<path d="M5.7,28.1l-0.6-0.1H7l-0.6,0.1H5.7z"/>
					</g>
					<g class="st6">
						<path d="M5.7,39.6l-0.6,0.2H7l-0.6-0.2H5.7z"/>
						<path d="M5.7,39.6l-0.6,0.2H7l-0.6-0.2H5.7z"/>
						<path d="M5.7,39.6l-0.6,0.2H7l-0.6-0.2H5.7z"/>
						<path d="M5.7,39.6l-0.6,0.2H7l-0.6-0.2H5.7z"/>
						<path d="M5.7,39.7l-0.6,0.2H7l-0.6-0.2H5.7z"/>
						<path d="M5.7,39.7l-0.6,0.1H7l-0.6-0.1H5.7z"/>
						<path d="M5.7,39.7l-0.6,0.1H7l-0.6-0.1H5.7z"/>
						<path d="M5.7,39.7l-0.6,0.1H7l-0.6-0.1H5.7z"/>
						<path d="M5.7,39.7l-0.6,0.1H7l-0.6-0.1H5.7z"/>
						<path d="M5.7,39.8l-0.6,0.1H7l-0.6-0.1H5.7z"/>
						<path d="M5.7,39.8H5.2H7H6.4H5.7z"/>
						<path d="M5.7,39.8L5.7,39.8z"/>
					</g>
				</g>
				<g>
					<rect x="8.3" y="27.9" width="1.9" height="11.9"/>
					<rect x="8.3" y="27.9" width="1.9" height="11.9"/>
					<g>
						<path d="M8.9,28.2l-0.6-0.2h1.9l-0.6,0.2H8.9z"/>
						<path d="M8.9,28.2l-0.6-0.2h1.9l-0.6,0.2H8.9z"/>
						<path d="M8.9,28.2l-0.6-0.2h1.9l-0.6,0.2H8.9z"/>
						<path d="M8.9,28.2L8.3,28h1.9l-0.6,0.2H8.9z"/>
						<path d="M8.9,28.1l-0.6-0.2h1.9l-0.6,0.2H8.9z"/>
						<path d="M8.9,28.1L8.3,28h1.9l-0.6,0.2H8.9z"/>
						<path d="M8.9,28.1l-0.6-0.2h1.9l-0.6,0.2H8.9z"/>
						<path d="M8.9,28.1L8.3,28h1.9l-0.6,0.2H8.9z"/>
						<path d="M8.9,28.1l-0.6-0.2h1.9l-0.6,0.2H8.9z"/>
						<path d="M8.9,28.1l-0.6-0.2h1.9l-0.6,0.2H8.9z"/>
						<path d="M8.9,28.1L8.3,28h1.9l-0.6,0.1H8.9z"/>
						<path d="M8.9,28.1l-0.6-0.1h1.9l-0.6,0.1H8.9z"/>
					</g>
					<g class="st6">
						<path d="M8.9,39.6l-0.6,0.2h1.9l-0.6-0.2H8.9z"/>
						<path d="M8.9,39.6l-0.6,0.2h1.9l-0.6-0.2H8.9z"/>
						<path d="M8.9,39.6l-0.6,0.2h1.9l-0.6-0.2H8.9z"/>
						<path d="M8.9,39.6l-0.6,0.2h1.9l-0.6-0.2H8.9z"/>
						<path d="M8.9,39.7l-0.6,0.2h1.9l-0.6-0.2H8.9z"/>
						<path d="M8.9,39.7l-0.6,0.1h1.9l-0.6-0.1H8.9z"/>
						<path d="M8.9,39.7l-0.6,0.1h1.9l-0.6-0.1H8.9z"/>
						<path d="M8.9,39.7l-0.6,0.1h1.9l-0.6-0.1H8.9z"/>
						<path d="M8.9,39.7l-0.6,0.1h1.9l-0.6-0.1H8.9z"/>
						<path d="M8.9,39.8l-0.6,0.1h1.9l-0.6-0.1H8.9z"/>
						<path d="M8.9,39.8H8.3h1.9H9.6H8.9z"/>
						<path d="M8.9,39.8L8.9,39.8z"/>
					</g>
				</g>
				<g>
					<rect x="11.4" y="27.9" width="1.9" height="11.9"/>
					<rect x="11.4" y="27.9" width="1.9" height="11.9"/>
					<g>
						<path d="M12,28.2l-0.6-0.2h1.9l-0.6,0.2H12z"/>
						<path d="M12,28.2l-0.6-0.2h1.9l-0.6,0.2H12z"/>
						<path d="M12,28.2l-0.6-0.2h1.9l-0.6,0.2H12z"/>
						<path d="M12,28.2L11.4,28h1.9l-0.6,0.2H12z"/>
						<path d="M12,28.1l-0.6-0.2h1.9l-0.6,0.2H12z"/>
						<path d="M12,28.1L11.4,28h1.9l-0.6,0.2H12z"/>
						<path d="M12,28.1l-0.6-0.2h1.9l-0.6,0.2H12z"/>
						<path d="M12,28.1L11.4,28h1.9l-0.6,0.2H12z"/>
						<path d="M12,28.1l-0.6-0.2h1.9l-0.6,0.2H12z"/>
						<path d="M12,28.1l-0.6-0.2h1.9l-0.6,0.2H12z"/>
						<path d="M12,28.1L11.4,28h1.9l-0.6,0.1H12z"/>
						<path d="M12,28.1l-0.6-0.1h1.9l-0.6,0.1H12z"/>
					</g>
					<g class="st6">
						<path d="M12,39.6l-0.6,0.2h1.9l-0.6-0.2H12z"/>
						<path d="M12,39.6l-0.6,0.2h1.9l-0.6-0.2H12z"/>
						<path d="M12,39.6l-0.6,0.2h1.9l-0.6-0.2H12z"/>
						<path d="M12,39.6l-0.6,0.2h1.9l-0.6-0.2H12z"/>
						<path d="M12,39.7l-0.6,0.2h1.9l-0.6-0.2H12z"/>
						<path d="M12,39.7l-0.6,0.1h1.9l-0.6-0.1H12z"/>
						<path d="M12,39.7l-0.6,0.1h1.9l-0.6-0.1H12z"/>
						<path d="M12,39.7l-0.6,0.1h1.9l-0.6-0.1H12z"/>
						<path d="M12,39.7l-0.6,0.1h1.9l-0.6-0.1H12z"/>
						<path d="M12,39.8l-0.6,0.1h1.9l-0.6-0.1H12z"/>
						<path d="M12,39.8h-0.6h1.9h-0.6H12z"/>
						<path d="M12,39.8L12,39.8z"/>
					</g>
				</g>
				<g>
					<rect x="14.5" y="27.9" width="1.9" height="11.9"/>
					<rect x="14.5" y="27.9" width="1.9" height="11.9"/>
					<g>
						<path d="M15.1,28.2l-0.6-0.2h1.9l-0.6,0.2C15.8,28.2,15.1,28.2,15.1,28.2z"/>
						<path d="M15.1,28.2l-0.6-0.2h1.9l-0.6,0.2C15.8,28.2,15.1,28.2,15.1,28.2z"/>
						<path d="M15.1,28.2l-0.6-0.2h1.9l-0.6,0.2C15.8,28.2,15.1,28.2,15.1,28.2z"/>
						<path d="M15.1,28.2L14.5,28h1.9l-0.6,0.2C15.8,28.2,15.1,28.2,15.1,28.2z"/>
						<path d="M15.1,28.1l-0.6-0.2h1.9l-0.6,0.2C15.8,28.1,15.1,28.1,15.1,28.1z"/>
						<path d="M15.1,28.1L14.5,28h1.9l-0.6,0.2C15.8,28.1,15.1,28.1,15.1,28.1z"/>
						<path d="M15.1,28.1l-0.6-0.2h1.9l-0.6,0.2C15.8,28.1,15.1,28.1,15.1,28.1z"/>
						<path d="M15.1,28.1L14.5,28h1.9l-0.6,0.2C15.8,28.1,15.1,28.1,15.1,28.1z"/>
						<path d="M15.1,28.1l-0.6-0.2h1.9l-0.6,0.2C15.8,28.1,15.1,28.1,15.1,28.1z"/>
						<path d="M15.1,28.1l-0.6-0.2h1.9l-0.6,0.2C15.8,28.1,15.1,28.1,15.1,28.1z"/>
						<path d="M15.1,28.1L14.5,28h1.9l-0.6,0.1C15.8,28.1,15.1,28.1,15.1,28.1z"/>
						<path d="M15.1,28.1l-0.6-0.1h1.9l-0.6,0.1C15.8,28.1,15.1,28.1,15.1,28.1z"/>
					</g>
					<g class="st6">
						<path d="M15.1,39.6l-0.6,0.2h1.9l-0.6-0.2C15.8,39.6,15.1,39.6,15.1,39.6z"/>
						<path d="M15.1,39.6l-0.6,0.2h1.9l-0.6-0.2C15.8,39.6,15.1,39.6,15.1,39.6z"/>
						<path d="M15.1,39.6l-0.6,0.2h1.9l-0.6-0.2C15.8,39.6,15.1,39.6,15.1,39.6z"/>
						<path d="M15.1,39.6l-0.6,0.2h1.9l-0.6-0.2C15.8,39.6,15.1,39.6,15.1,39.6z"/>
						<path d="M15.1,39.7l-0.6,0.2h1.9l-0.6-0.2C15.8,39.7,15.1,39.7,15.1,39.7z"/>
						<path d="M15.1,39.7l-0.6,0.1h1.9l-0.6-0.1C15.8,39.7,15.1,39.7,15.1,39.7z"/>
						<path d="M15.1,39.7l-0.6,0.1h1.9l-0.6-0.1C15.8,39.7,15.1,39.7,15.1,39.7z"/>
						<path d="M15.1,39.7l-0.6,0.1h1.9l-0.6-0.1C15.8,39.7,15.1,39.7,15.1,39.7z"/>
						<path d="M15.1,39.7l-0.6,0.1h1.9l-0.6-0.1C15.8,39.7,15.1,39.7,15.1,39.7z"/>
						<path d="M15.1,39.8l-0.6,0.1h1.9l-0.6-0.1C15.8,39.8,15.1,39.8,15.1,39.8z"/>
						<path d="M15.1,39.8h-0.6h1.9h-0.6C15.8,39.8,15.1,39.8,15.1,39.8z"/>
						<path d="M15.1,39.8L15.1,39.8z"/>
					</g>
				</g>
				<g>
					<rect x="17.6" y="27.9" width="1.9" height="11.9"/>
					<rect x="17.6" y="27.9" width="1.9" height="11.9"/>
					<g>
						<path d="M18.1,28.2l-0.6-0.2h1.9l-0.6,0.2C18.9,28.2,18.2,28.2,18.1,28.2z"/>
						<path d="M18.1,28.2l-0.6-0.2h1.9l-0.6,0.2C18.9,28.2,18.2,28.2,18.1,28.2z"/>
						<path d="M18.1,28.2l-0.6-0.2h1.9l-0.6,0.2C18.9,28.2,18.2,28.2,18.1,28.2z"/>
						<path d="M18.1,28.2L17.6,28h1.9l-0.6,0.2C18.9,28.2,18.2,28.2,18.1,28.2z"/>
						<path d="M18.1,28.1l-0.6-0.2h1.9l-0.6,0.2C18.9,28.1,18.2,28.1,18.1,28.1z"/>
						<path d="M18.1,28.1L17.6,28h1.9l-0.6,0.2C18.9,28.1,18.2,28.1,18.1,28.1z"/>
						<path d="M18.1,28.1l-0.6-0.2h1.9l-0.6,0.2C18.9,28.1,18.2,28.1,18.1,28.1z"/>
						<path d="M18.1,28.1L17.6,28h1.9l-0.6,0.2C18.9,28.1,18.2,28.1,18.1,28.1z"/>
						<path d="M18.1,28.1l-0.6-0.2h1.9l-0.6,0.2C18.9,28.1,18.2,28.1,18.1,28.1z"/>
						<path d="M18.1,28.1l-0.6-0.2h1.9l-0.6,0.2C18.9,28.1,18.2,28.1,18.1,28.1z"/>
						<path d="M18.1,28.1L17.6,28h1.9l-0.6,0.1C18.9,28.1,18.2,28.1,18.1,28.1z"/>
						<path d="M18.1,28.1l-0.6-0.1h1.9l-0.6,0.1C18.9,28.1,18.2,28.1,18.1,28.1z"/>
					</g>
					<g class="st6">
						<path d="M18.1,39.6l-0.6,0.2h1.9l-0.6-0.2C18.9,39.6,18.2,39.6,18.1,39.6z"/>
						<path d="M18.1,39.6l-0.6,0.2h1.9l-0.6-0.2C18.9,39.6,18.2,39.6,18.1,39.6z"/>
						<path d="M18.1,39.6l-0.6,0.2h1.9l-0.6-0.2C18.9,39.6,18.2,39.6,18.1,39.6z"/>
						<path d="M18.1,39.6l-0.6,0.2h1.9l-0.6-0.2C18.9,39.6,18.2,39.6,18.1,39.6z"/>
						<path d="M18.1,39.7l-0.6,0.2h1.9l-0.6-0.2C18.9,39.7,18.2,39.7,18.1,39.7z"/>
						<path d="M18.1,39.7l-0.6,0.1h1.9l-0.6-0.1C18.9,39.7,18.2,39.7,18.1,39.7z"/>
						<path d="M18.1,39.7l-0.6,0.1h1.9l-0.6-0.1C18.9,39.7,18.2,39.7,18.1,39.7z"/>
						<path d="M18.1,39.7l-0.6,0.1h1.9l-0.6-0.1C18.9,39.7,18.2,39.7,18.1,39.7z"/>
						<path d="M18.1,39.7l-0.6,0.1h1.9l-0.6-0.1C18.9,39.7,18.2,39.7,18.1,39.7z"/>
						<path d="M18.1,39.8l-0.6,0.1h1.9l-0.6-0.1C18.9,39.8,18.2,39.8,18.1,39.8z"/>
						<path d="M18.1,39.8h-0.6h1.9h-0.6C18.9,39.8,18.2,39.8,18.1,39.8z"/>
						<path d="M18.1,39.8L18.1,39.8z"/>
					</g>
				</g>
				<g>
					<rect x="20.7" y="27.9" width="1.9" height="11.9"/>
					<rect x="20.7" y="27.9" width="1.9" height="11.9"/>
					<g>
						<path d="M21.3,28.2l-0.6-0.2h1.9L22,28.2C22,28.2,21.3,28.2,21.3,28.2z"/>
						<path d="M21.3,28.2l-0.6-0.2h1.9L22,28.2C22,28.2,21.3,28.2,21.3,28.2z"/>
						<path d="M21.3,28.2l-0.6-0.2h1.9L22,28.2C22,28.2,21.3,28.2,21.3,28.2z"/>
						<path d="M21.3,28.2L20.7,28h1.9L22,28.2C22,28.2,21.3,28.2,21.3,28.2z"/>
						<path d="M21.3,28.1l-0.6-0.2h1.9L22,28.1C22,28.1,21.3,28.1,21.3,28.1z"/>
						<path d="M21.3,28.1L20.7,28h1.9L22,28.1C22,28.1,21.3,28.1,21.3,28.1z"/>
						<path d="M21.3,28.1l-0.6-0.2h1.9L22,28.1C22,28.1,21.3,28.1,21.3,28.1z"/>
						<path d="M21.3,28.1L20.7,28h1.9L22,28.1C22,28.1,21.3,28.1,21.3,28.1z"/>
						<path d="M21.3,28.1l-0.6-0.2h1.9L22,28.1H21.3L21.3,28.1z"/>
						<path d="M21.3,28.1l-0.6-0.2h1.9L22,28.1C22,28.1,21.3,28.1,21.3,28.1z"/>
						<path d="M21.3,28.1L20.7,28h1.9L22,28.1C22,28.1,21.3,28.1,21.3,28.1z"/>
						<path d="M21.3,28.1l-0.6-0.1h1.9L22,28.1C22,28.1,21.3,28.1,21.3,28.1z"/>
					</g>
					<g class="st6">
						<path d="M21.3,39.6l-0.6,0.2h1.9L22,39.6H21.3L21.3,39.6z"/>
						<path d="M21.3,39.6l-0.6,0.2h1.9L22,39.6H21.3L21.3,39.6z"/>
						<path d="M21.3,39.6l-0.6,0.2h1.9L22,39.6C22,39.6,21.3,39.6,21.3,39.6z"/>
						<path d="M21.3,39.6l-0.6,0.2h1.9L22,39.6H21.3L21.3,39.6z"/>
						<path d="M21.3,39.7l-0.6,0.2h1.9L22,39.7H21.3L21.3,39.7z"/>
						<path d="M21.3,39.7l-0.6,0.1h1.9L22,39.7H21.3L21.3,39.7z"/>
						<path d="M21.3,39.7l-0.6,0.1h1.9L22,39.7H21.3L21.3,39.7z"/>
						<path d="M21.3,39.7l-0.6,0.1h1.9L22,39.7C22,39.7,21.3,39.7,21.3,39.7z"/>
						<path d="M21.3,39.7l-0.6,0.1h1.9L22,39.7H21.3L21.3,39.7z"/>
						<path d="M21.3,39.8l-0.6,0.1h1.9L22,39.8H21.3L21.3,39.8z"/>
						<path d="M21.3,39.8h-0.6h1.9H22C22,39.8,21.3,39.8,21.3,39.8z"/>
						<path d="M21.3,39.8L21.3,39.8z"/>
					</g>
				</g>
				<g>
					<rect x="23.8" y="27.9" width="1.9" height="11.9"/>
					<rect x="23.8" y="27.9" width="1.9" height="11.9"/>
					<g>
						<path d="M24.4,28.2l-0.6-0.2h1.9l-0.6,0.2C25.1,28.2,24.4,28.2,24.4,28.2z"/>
						<path d="M24.4,28.2l-0.6-0.2h1.9l-0.6,0.2C25.1,28.2,24.4,28.2,24.4,28.2z"/>
						<path d="M24.4,28.2l-0.6-0.2h1.9l-0.6,0.2C25.1,28.2,24.4,28.2,24.4,28.2z"/>
						<path d="M24.4,28.2L23.8,28h1.9l-0.6,0.2C25.1,28.2,24.4,28.2,24.4,28.2z"/>
						<path d="M24.4,28.1l-0.6-0.2h1.9l-0.6,0.2C25.1,28.1,24.4,28.1,24.4,28.1z"/>
						<path d="M24.4,28.1L23.8,28h1.9l-0.6,0.2C25.1,28.1,24.4,28.1,24.4,28.1z"/>
						<path d="M24.4,28.1l-0.6-0.2h1.9l-0.6,0.2C25.1,28.1,24.4,28.1,24.4,28.1z"/>
						<path d="M24.4,28.1L23.8,28h1.9l-0.6,0.2C25.1,28.1,24.4,28.1,24.4,28.1z"/>
						<path d="M24.4,28.1l-0.6-0.2h1.9l-0.6,0.2C25.1,28.1,24.4,28.1,24.4,28.1z"/>
						<path d="M24.4,28.1l-0.6-0.2h1.9l-0.6,0.2C25.1,28.1,24.4,28.1,24.4,28.1z"/>
						<path d="M24.4,28.1L23.8,28h1.9l-0.6,0.1C25.1,28.1,24.4,28.1,24.4,28.1z"/>
						<path d="M24.4,28.1l-0.6-0.1h1.9l-0.6,0.1C25.1,28.1,24.4,28.1,24.4,28.1z"/>
					</g>
					<g class="st6">
						<path d="M24.4,39.6l-0.6,0.2h1.9l-0.6-0.2C25.1,39.6,24.4,39.6,24.4,39.6z"/>
						<path d="M24.4,39.6l-0.6,0.2h1.9l-0.6-0.2C25.1,39.6,24.4,39.6,24.4,39.6z"/>
						<path d="M24.4,39.6l-0.6,0.2h1.9l-0.6-0.2C25.1,39.6,24.4,39.6,24.4,39.6z"/>
						<path d="M24.4,39.6l-0.6,0.2h1.9l-0.6-0.2C25.1,39.6,24.4,39.6,24.4,39.6z"/>
						<path d="M24.4,39.7l-0.6,0.2h1.9l-0.6-0.2C25.1,39.7,24.4,39.7,24.4,39.7z"/>
						<path d="M24.4,39.7l-0.6,0.1h1.9l-0.6-0.1C25.1,39.7,24.4,39.7,24.4,39.7z"/>
						<path d="M24.4,39.7l-0.6,0.1h1.9l-0.6-0.1C25.1,39.7,24.4,39.7,24.4,39.7z"/>
						<path d="M24.4,39.7l-0.6,0.1h1.9l-0.6-0.1C25.1,39.7,24.4,39.7,24.4,39.7z"/>
						<path d="M24.4,39.7l-0.6,0.1h1.9l-0.6-0.1C25.1,39.7,24.4,39.7,24.4,39.7z"/>
						<path d="M24.4,39.8l-0.6,0.1h1.9l-0.6-0.1C25.1,39.8,24.4,39.8,24.4,39.8z"/>
						<path d="M24.4,39.8h-0.6h1.9h-0.6C25.1,39.8,24.4,39.8,24.4,39.8z"/>
						<path d="M24.4,39.8L24.4,39.8z"/>
					</g>
				</g>
				<rect x="26.6" y="27.9" width="1.9" height="11.9"/>
				<rect x="26.6" y="27.9" class="st7" width="1.9" height="11.9"/>
				<g>
					<path d="M27.1,28.2l-0.6-0.2h1.9l-0.6,0.2C27.9,28.2,27.1,28.2,27.1,28.2z"/>
					<path d="M27.1,28.2l-0.6-0.2h1.9l-0.6,0.2C27.9,28.2,27.1,28.2,27.1,28.2z"/>
					<path d="M27.1,28.2l-0.6-0.2h1.9l-0.6,0.2C27.9,28.2,27.1,28.2,27.1,28.2z"/>
					<path d="M27.1,28.2L26.6,28h1.9l-0.6,0.2C27.9,28.2,27.1,28.2,27.1,28.2z"/>
					<path d="M27.1,28.1l-0.6-0.2h1.9l-0.6,0.2C27.9,28.1,27.1,28.1,27.1,28.1z"/>
					<path d="M27.1,28.1L26.6,28h1.9l-0.6,0.2C27.9,28.1,27.1,28.1,27.1,28.1z"/>
					<path d="M27.1,28.1l-0.6-0.2h1.9l-0.6,0.2C27.9,28.1,27.1,28.1,27.1,28.1z"/>
					<path d="M27.1,28.1L26.6,28h1.9l-0.6,0.2C27.9,28.1,27.1,28.1,27.1,28.1z"/>
					<path d="M27.1,28.1l-0.6-0.2h1.9l-0.6,0.2C27.9,28.1,27.1,28.1,27.1,28.1z"/>
					<path d="M27.1,28.1l-0.6-0.2h1.9l-0.6,0.2C27.9,28.1,27.1,28.1,27.1,28.1z"/>
					<path d="M27.1,28.1L26.6,28h1.9l-0.6,0.1C27.9,28.1,27.1,28.1,27.1,28.1z"/>
					<path d="M27.1,28.1l-0.6-0.1h1.9l-0.6,0.1C27.9,28.1,27.1,28.1,27.1,28.1z"/>
				</g>
				<g class="st6">
					<path d="M27.1,39.6l-0.6,0.2h1.9l-0.6-0.2C27.9,39.6,27.1,39.6,27.1,39.6z"/>
					<path d="M27.1,39.6l-0.6,0.2h1.9l-0.6-0.2C27.9,39.6,27.1,39.6,27.1,39.6z"/>
					<path d="M27.1,39.6l-0.6,0.2h1.9l-0.6-0.2C27.9,39.6,27.1,39.6,27.1,39.6z"/>
					<path d="M27.1,39.6l-0.6,0.2h1.9l-0.6-0.2C27.9,39.6,27.1,39.6,27.1,39.6z"/>
					<path d="M27.1,39.7l-0.6,0.2h1.9l-0.6-0.2C27.9,39.7,27.1,39.7,27.1,39.7z"/>
					<path d="M27.1,39.7l-0.6,0.1h1.9l-0.6-0.1C27.9,39.7,27.1,39.7,27.1,39.7z"/>
					<path d="M27.1,39.7l-0.6,0.1h1.9l-0.6-0.1C27.9,39.7,27.1,39.7,27.1,39.7z"/>
					<path d="M27.1,39.7l-0.6,0.1h1.9l-0.6-0.1C27.9,39.7,27.1,39.7,27.1,39.7z"/>
					<path d="M27.1,39.7l-0.6,0.1h1.9l-0.6-0.1C27.9,39.7,27.1,39.7,27.1,39.7z"/>
					<path d="M27.1,39.8l-0.6,0.1h1.9l-0.6-0.1C27.9,39.8,27.1,39.8,27.1,39.8z"/>
					<path d="M27.1,39.8h-0.6h1.9h-0.6C27.9,39.8,27.1,39.8,27.1,39.8z"/>
					<path d="M27.1,39.8L27.1,39.8z"/>
				</g>
			</g>
			<path class="st8" d="M0,28.3v-0.8c0,0,0-0.1,0-0.1c0,0,0.1,0,0.1,0h1.1l0,0h-1c0,0-0.1,0-0.1,0c0,0,0,0.1-0.1,0.1V28.3L0,28.3
				L0,28.3L0,28.3z"/>
			<path class="st8" d="M1.3,27.4v1H0l0,0h1.3l0,0V27.4z"/>
			<path class="st9" d="M61,27.4C61,27.3,60.9,27.3,61,27.4H30.6c0,0-0.1,0-0.1,0c0,0,0,0,0,0.1v12.9c0,0.1,0,0.1,0.1,0.1
				c0,0,0,0,0,0h30.3c0.1,0,0.1,0,0.1-0.1c0,0,0,0,0,0L61,27.4C61,27.4,61,27.4,61,27.4z"/>
			<path class="st2" d="M31.8,40.5h-1.1c-0.1,0-0.2-0.1-0.2-0.2c0,0,0,0,0,0v-0.8l0,0h1.2l0,0L31.8,40.5L31.8,40.5z"/>
			<path class="st3" d="M30.5,39.4v0.8c0,0,0,0.1,0,0.1c0,0,0.1,0,0.1,0h1.1l0,0h-1.1c-0.1,0-0.2-0.1-0.2-0.2c0,0,0,0,0,0L30.5,39.4
				L30.5,39.4L30.5,39.4L30.5,39.4z"/>
			<path class="st4" d="M31.8,40.4v-1h-1.2l0,0h1.3l0,0L31.8,40.4L31.8,40.4L31.8,40.4z"/>
			<g class="st5">
				<path class="st2" d="M31.4,40v-0.2c0-0.1-0.1-0.3-0.3-0.3c-0.1,0-0.3,0.1-0.3,0.3l0,0V40c0,0.1,0.1,0.3,0.3,0.3
					S31.4,40.2,31.4,40z M31.4,40c0,0.1-0.1,0.2-0.2,0.2c-0.1,0-0.2-0.1-0.2-0.2v-0.2c0-0.1,0.1-0.2,0.2-0.2c0.1,0,0.2,0.1,0.2,0.2
					V40z"/>
			</g>
			<g class="st6">
				<path class="st2" d="M31.4,40v-0.2c0-0.1-0.1-0.3-0.3-0.3c-0.1,0-0.3,0.1-0.3,0.3l0,0V40c0,0.1,0.1,0.3,0.3,0.3
					S31.4,40.2,31.4,40z M31.4,40c0,0.1-0.1,0.2-0.2,0.2c-0.1,0-0.2-0.1-0.2-0.2v-0.2c0-0.1,0.1-0.2,0.2-0.2c0.1,0,0.2,0.1,0.2,0.2
					V40z"/>
			</g>
			<path class="st2" d="M31.2,39.6c-0.1,0-0.2,0.1-0.2,0.2l0,0V40c0,0.1,0.1,0.2,0.2,0.2c0.1,0,0.2-0.1,0.2-0.2v-0.2
				C31.4,39.7,31.3,39.6,31.2,39.6C31.2,39.6,31.2,39.6,31.2,39.6z"/>
			<path class="st2" d="M59.8,40.5h1.1c0,0,0.1,0,0.1,0c0,0,0.1-0.1,0.1-0.1v-0.8l0,0h-1.3l0,0V40.5L59.8,40.5z"/>
			<path class="st3" d="M61,39.4v0.8c0,0,0,0.1,0,0.1c0,0-0.1,0-0.1,0h-1.1l0,0h1.1c0,0,0.1,0,0.1,0c0,0,0.1-0.1,0.1-0.1v-0.8l0,0
				l0,0L61,39.4z"/>
			<path class="st4" d="M59.8,40.4v-1H61l0,0l0,0h-1.2l0,0V40.4L59.8,40.4z"/>
			<g class="st5">
				<path class="st2" d="M60.4,40.3c0.1,0,0.3-0.1,0.3-0.3l0,0v-0.2c0-0.1-0.1-0.3-0.2-0.3c-0.1,0-0.3,0.1-0.3,0.2c0,0,0,0.1,0,0.1
					V40C60.1,40.2,60.2,40.3,60.4,40.3z M60.2,39.8c0-0.1,0.1-0.2,0.2-0.2c0,0,0,0,0,0c0.1,0,0.2,0.1,0.2,0.2l0,0V40
					c0,0.1-0.1,0.2-0.2,0.2c0,0,0,0,0,0c-0.1,0-0.2-0.1-0.2-0.2l0,0V39.8z"/>
			</g>
			<g class="st6">
				<path class="st2" d="M60.4,40.3c0.1,0,0.3-0.1,0.3-0.3l0,0v-0.2c0-0.1-0.1-0.3-0.2-0.3c-0.1,0-0.3,0.1-0.3,0.2c0,0,0,0.1,0,0.1
					V40C60.1,40.2,60.2,40.3,60.4,40.3z M60.2,39.8c0-0.1,0.1-0.2,0.2-0.2c0,0,0,0,0,0c0.1,0,0.2,0.1,0.2,0.2l0,0V40
					c0,0.1-0.1,0.2-0.2,0.2c0,0,0,0,0,0c-0.1,0-0.2-0.1-0.2-0.2l0,0V39.8z"/>
			</g>
			<path class="st2" d="M60.4,39.6c0.1,0,0.2,0.1,0.2,0.2l0,0V40c0,0.1-0.1,0.2-0.2,0.2c0,0,0,0,0,0c-0.1,0-0.2-0.1-0.2-0.2l0,0
				v-0.2C60.2,39.7,60.3,39.6,60.4,39.6C60.4,39.6,60.4,39.6,60.4,39.6z"/>
			<path class="st2" d="M31.8,27.3h-1.1c0,0-0.1,0-0.1,0c0,0,0,0.1,0,0.1v0.8l0,0h1.2l0,0L31.8,27.3L31.8,27.3z"/>
			<path class="st3" d="M30.5,28.3v-0.8c0,0,0-0.1,0-0.1c0,0,0.1,0,0.1,0h1.1l0,0h-1.1c0,0-0.1,0-0.1,0c0,0,0,0.1,0,0.1L30.5,28.3
				L30.5,28.3L30.5,28.3L30.5,28.3z"/>
			<path class="st4" d="M31.8,27.4v1h-1.2l0,0h1.3l0,0L31.8,27.4L31.8,27.4z"/>
			<g class="st5">
				<path class="st2" d="M31.2,27.5c-0.1,0-0.3,0.1-0.3,0.3l0,0V28c0,0.1,0.1,0.3,0.3,0.3s0.3-0.1,0.3-0.3v-0.2
					C31.4,27.6,31.3,27.5,31.2,27.5L31.2,27.5z M31.4,28c0,0.1-0.1,0.2-0.2,0.2c-0.1,0-0.2-0.1-0.2-0.2v-0.2c0-0.1,0.1-0.2,0.2-0.2
					c0.1,0,0.2,0.1,0.2,0.2V28z"/>
			</g>
			<g class="st6">
				<path class="st2" d="M31.2,27.5c-0.1,0-0.3,0.1-0.3,0.3l0,0V28c0,0.1,0.1,0.3,0.3,0.3s0.3-0.1,0.3-0.3v-0.2
					C31.4,27.6,31.3,27.5,31.2,27.5L31.2,27.5z M31.4,28c0,0.1-0.1,0.2-0.2,0.2c-0.1,0-0.2-0.1-0.2-0.2v-0.2c0-0.1,0.1-0.2,0.2-0.2
					c0.1,0,0.2,0.1,0.2,0.2V28z"/>
			</g>
			<path class="st2" d="M31.2,28.2c-0.1,0-0.2-0.1-0.2-0.2l0,0v-0.2c0-0.1,0.1-0.2,0.2-0.2c0.1,0,0.2,0.1,0.2,0.2v0.2
				C31.4,28.1,31.3,28.2,31.2,28.2C31.2,28.2,31.2,28.2,31.2,28.2z"/>
			<path class="st2" d="M59.8,27.3h1.1c0,0,0.1,0,0.1,0c0,0.1,0.1,0.1,0,0.2v0.8l0,0h-1.2l0,0V27.3L59.8,27.3z"/>
			<path class="st3" d="M61,28.3v-0.8c0,0,0-0.1,0-0.1c0,0-0.1,0-0.1,0h-1.1l0,0h1.1c0,0,0.1,0,0.1,0c0,0,0,0.1-0.1,0.1V28.3
				L61,28.3L61,28.3L61,28.3z"/>
			<path class="st4" d="M59.8,27.4v1H61l0,0h-1.2l0,0V27.4L59.8,27.4z"/>
			<g class="st5">
				<path class="st2" d="M60.1,27.8v0.2c0,0.1,0.2,0.2,0.3,0.2c0.1,0,0.2-0.1,0.2-0.2v-0.2c0-0.1-0.1-0.3-0.2-0.3s-0.3,0.1-0.3,0.2
					C60.1,27.7,60.1,27.7,60.1,27.8z M60.1,27.8c0-0.1,0.1-0.2,0.2-0.2c0,0,0,0,0,0c0.1,0,0.2,0.1,0.2,0.2c0,0,0,0,0,0v0.2
					c0,0.1-0.1,0.2-0.2,0.2c0,0,0,0,0,0c-0.1,0-0.2-0.1-0.2-0.2c0,0,0,0,0,0V27.8z"/>
			</g>
			<g class="st6">
				<path class="st2" d="M60.1,27.8v0.2c0,0.1,0.2,0.2,0.3,0.2c0.1,0,0.2-0.1,0.2-0.2v-0.2c0-0.1-0.1-0.3-0.2-0.3s-0.3,0.1-0.3,0.2
					C60.1,27.7,60.1,27.7,60.1,27.8z M60.1,27.8c0-0.1,0.1-0.2,0.2-0.2c0,0,0,0,0,0c0.1,0,0.2,0.1,0.2,0.2c0,0,0,0,0,0v0.2
					c0,0.1-0.1,0.2-0.2,0.2c0,0,0,0,0,0c-0.1,0-0.2-0.1-0.2-0.2c0,0,0,0,0,0V27.8z"/>
			</g>
			<path class="st2" d="M60.4,28.2c0.1,0,0.2-0.1,0.2-0.2c0,0,0,0,0,0v-0.2c0-0.1-0.1-0.2-0.2-0.2c0,0,0,0,0,0
				c-0.1,0-0.2,0.1-0.2,0.2c0,0,0,0,0,0v0.2C60.2,28.1,60.3,28.2,60.4,28.2C60.4,28.2,60.4,28.2,60.4,28.2z"/>
			<g class="st5">
				<g>
					<rect x="32.6" y="27.9" width="1.9" height="11.9"/>
					<rect x="32.6" y="27.9" width="1.9" height="11.9"/>
					<g>
						<path d="M33.1,28.2l-0.6-0.2h1.9l-0.6,0.2H33.1z"/>
						<path d="M33.1,28.2l-0.6-0.2h1.9l-0.6,0.2H33.1z"/>
						<path d="M33.1,28.2l-0.6-0.2h1.9l-0.6,0.2H33.1z"/>
						<path d="M33.1,28.2L32.6,28h1.9l-0.6,0.2H33.1z"/>
						<path d="M33.1,28.1l-0.6-0.2h1.9l-0.6,0.2H33.1z"/>
						<path d="M33.1,28.1L32.6,28h1.9l-0.6,0.2H33.1z"/>
						<path d="M33.1,28.1l-0.6-0.2h1.9l-0.6,0.2H33.1z"/>
						<path d="M33.1,28.1L32.6,28h1.9l-0.6,0.2H33.1z"/>
						<path d="M33.1,28.1l-0.6-0.2h1.9l-0.6,0.2H33.1z"/>
						<path d="M33.1,28.1l-0.6-0.2h1.9l-0.6,0.2H33.1z"/>
						<path d="M33.1,28.1L32.6,28h1.9l-0.6,0.1H33.1z"/>
						<path d="M33.1,28.1l-0.6-0.1h1.9l-0.6,0.1H33.1z"/>
					</g>
					<g class="st6">
						<path d="M33.1,39.6l-0.6,0.2h1.9l-0.6-0.2H33.1z"/>
						<path d="M33.1,39.6l-0.6,0.2h1.9l-0.6-0.2H33.1z"/>
						<path d="M33.1,39.6l-0.6,0.2h1.9l-0.6-0.2H33.1z"/>
						<path d="M33.1,39.6l-0.6,0.2h1.9l-0.6-0.2H33.1z"/>
						<path d="M33.1,39.7l-0.6,0.2h1.9l-0.6-0.2H33.1z"/>
						<path d="M33.1,39.7l-0.6,0.1h1.9l-0.6-0.1H33.1z"/>
						<path d="M33.1,39.7l-0.6,0.1h1.9l-0.6-0.1H33.1z"/>
						<path d="M33.1,39.7l-0.6,0.1h1.9l-0.6-0.1H33.1z"/>
						<path d="M33.1,39.7l-0.6,0.1h1.9l-0.6-0.1H33.1z"/>
						<path d="M33.1,39.8l-0.6,0.1h1.9l-0.6-0.1H33.1z"/>
						<path d="M33.1,39.8h-0.6h1.9h-0.6H33.1z"/>
						<path d="M33.1,39.8L33.1,39.8z"/>
					</g>
				</g>
				<g>
					<rect x="35.7" y="27.9" width="1.9" height="11.9"/>
					<rect x="35.7" y="27.9" width="1.9" height="11.9"/>
					<g>
						<path d="M36.2,28.2l-0.6-0.2h1.9L37,28.2C37,28.2,36.2,28.2,36.2,28.2z"/>
						<path d="M36.2,28.2l-0.6-0.2h1.9L37,28.2C37,28.2,36.2,28.2,36.2,28.2z"/>
						<path d="M36.2,28.2l-0.6-0.2h1.9L37,28.2C37,28.2,36.2,28.2,36.2,28.2z"/>
						<path d="M36.2,28.2L35.7,28h1.9L37,28.2C37,28.2,36.2,28.2,36.2,28.2z"/>
						<path d="M36.2,28.1l-0.6-0.2h1.9L37,28.1C37,28.1,36.2,28.1,36.2,28.1z"/>
						<path d="M36.2,28.1L35.7,28h1.9L37,28.1C37,28.1,36.2,28.1,36.2,28.1z"/>
						<path d="M36.2,28.1l-0.6-0.2h1.9L37,28.1C37,28.1,36.2,28.1,36.2,28.1z"/>
						<path d="M36.2,28.1L35.7,28h1.9L37,28.1C37,28.1,36.2,28.1,36.2,28.1z"/>
						<path d="M36.2,28.1l-0.6-0.2h1.9L37,28.1H36.2L36.2,28.1z"/>
						<path d="M36.2,28.1l-0.6-0.2h1.9L37,28.1C37,28.1,36.2,28.1,36.2,28.1z"/>
						<path d="M36.2,28.1L35.7,28h1.9L37,28.1C37,28.1,36.2,28.1,36.2,28.1z"/>
						<path d="M36.2,28.1l-0.6-0.1h1.9L37,28.1C37,28.1,36.2,28.1,36.2,28.1z"/>
					</g>
					<g class="st6">
						<path d="M36.2,39.6l-0.6,0.2h1.9L37,39.6H36.2L36.2,39.6z"/>
						<path d="M36.2,39.6l-0.6,0.2h1.9L37,39.6H36.2L36.2,39.6z"/>
						<path d="M36.2,39.6l-0.6,0.2h1.9L37,39.6C37,39.6,36.2,39.6,36.2,39.6z"/>
						<path d="M36.2,39.6l-0.6,0.2h1.9L37,39.6H36.2L36.2,39.6z"/>
						<path d="M36.2,39.7l-0.6,0.2h1.9L37,39.7H36.2L36.2,39.7z"/>
						<path d="M36.2,39.7l-0.6,0.1h1.9L37,39.7H36.2L36.2,39.7z"/>
						<path d="M36.2,39.7l-0.6,0.1h1.9L37,39.7H36.2L36.2,39.7z"/>
						<path d="M36.2,39.7l-0.6,0.1h1.9L37,39.7C37,39.7,36.2,39.7,36.2,39.7z"/>
						<path d="M36.2,39.7l-0.6,0.1h1.9L37,39.7H36.2L36.2,39.7z"/>
						<path d="M36.2,39.8l-0.6,0.1h1.9L37,39.8H36.2L36.2,39.8z"/>
						<path d="M36.2,39.8h-0.6h1.9H37C37,39.8,36.2,39.8,36.2,39.8z"/>
						<path d="M36.2,39.8L36.2,39.8z"/>
					</g>
				</g>
				<g>
					<rect x="38.8" y="27.9" width="1.9" height="11.9"/>
					<rect x="38.8" y="27.9" width="1.9" height="11.9"/>
					<g>
						<path d="M39.3,28.2l-0.6-0.2h1.9l-0.6,0.2H39.3z"/>
						<path d="M39.3,28.2l-0.6-0.2h1.9l-0.6,0.2H39.3z"/>
						<path d="M39.3,28.2l-0.6-0.2h1.9l-0.6,0.2H39.3z"/>
						<path d="M39.3,28.2L38.8,28h1.9l-0.6,0.2H39.3z"/>
						<path d="M39.3,28.1l-0.6-0.2h1.9l-0.6,0.2H39.3z"/>
						<path d="M39.3,28.1L38.8,28h1.9l-0.6,0.2H39.3z"/>
						<path d="M39.3,28.1l-0.6-0.2h1.9l-0.6,0.2H39.3z"/>
						<path d="M39.3,28.1L38.8,28h1.9l-0.6,0.2H39.3z"/>
						<path d="M39.3,28.1l-0.6-0.2h1.9l-0.6,0.2H39.3z"/>
						<path d="M39.3,28.1l-0.6-0.2h1.9l-0.6,0.2H39.3z"/>
						<path d="M39.3,28.1L38.8,28h1.9l-0.6,0.1H39.3z"/>
						<path d="M39.3,28.1l-0.6-0.1h1.9l-0.6,0.1H39.3z"/>
					</g>
					<g class="st6">
						<path d="M39.3,39.6l-0.6,0.2h1.9l-0.6-0.2H39.3z"/>
						<path d="M39.3,39.6l-0.6,0.2h1.9l-0.6-0.2H39.3z"/>
						<path d="M39.3,39.6l-0.6,0.2h1.9l-0.6-0.2H39.3z"/>
						<path d="M39.3,39.6l-0.6,0.2h1.9l-0.6-0.2H39.3z"/>
						<path d="M39.3,39.7l-0.6,0.2h1.9l-0.6-0.2H39.3z"/>
						<path d="M39.3,39.7l-0.6,0.1h1.9l-0.6-0.1H39.3z"/>
						<path d="M39.3,39.7l-0.6,0.1h1.9l-0.6-0.1H39.3z"/>
						<path d="M39.3,39.7l-0.6,0.1h1.9l-0.6-0.1H39.3z"/>
						<path d="M39.3,39.7l-0.6,0.1h1.9l-0.6-0.1H39.3z"/>
						<path d="M39.3,39.8l-0.6,0.1h1.9l-0.6-0.1H39.3z"/>
						<path d="M39.3,39.8h-0.6h1.9h-0.6H39.3z"/>
						<path d="M39.3,39.8L39.3,39.8z"/>
					</g>
				</g>
				<g>
					<rect x="41.9" y="27.9" width="1.9" height="11.9"/>
					<rect x="41.9" y="27.9" width="1.9" height="11.9"/>
					<g>
						<path d="M42.5,28.2l-0.6-0.2h1.9l-0.6,0.2H42.5z"/>
						<path d="M42.5,28.2l-0.6-0.2h1.9l-0.6,0.2H42.5z"/>
						<path d="M42.5,28.2l-0.6-0.2h1.9l-0.6,0.2H42.5z"/>
						<path d="M42.5,28.2L41.9,28h1.9l-0.6,0.2H42.5z"/>
						<path d="M42.5,28.1l-0.6-0.2h1.9l-0.6,0.2H42.5z"/>
						<path d="M42.5,28.1L41.9,28h1.9l-0.6,0.2H42.5z"/>
						<path d="M42.5,28.1l-0.6-0.2h1.9l-0.6,0.2H42.5z"/>
						<path d="M42.5,28.1L41.9,28h1.9l-0.6,0.2H42.5z"/>
						<path d="M42.5,28.1l-0.6-0.2h1.9l-0.6,0.2H42.5z"/>
						<path d="M42.5,28.1l-0.6-0.2h1.9l-0.6,0.2H42.5z"/>
						<path d="M42.5,28.1L41.9,28h1.9l-0.6,0.1H42.5z"/>
						<path d="M42.5,28.1l-0.6-0.1h1.9l-0.6,0.1H42.5z"/>
					</g>
					<g class="st6">
						<path d="M42.5,39.6l-0.6,0.2h1.9l-0.6-0.2H42.5z"/>
						<path d="M42.5,39.6l-0.6,0.2h1.9l-0.6-0.2H42.5z"/>
						<path d="M42.5,39.6l-0.6,0.2h1.9l-0.6-0.2H42.5z"/>
						<path d="M42.5,39.6l-0.6,0.2h1.9l-0.6-0.2H42.5z"/>
						<path d="M42.5,39.7l-0.6,0.2h1.9l-0.6-0.2H42.5z"/>
						<path d="M42.5,39.7l-0.6,0.1h1.9l-0.6-0.1H42.5z"/>
						<path d="M42.5,39.7l-0.6,0.1h1.9l-0.6-0.1H42.5z"/>
						<path d="M42.5,39.7l-0.6,0.1h1.9l-0.6-0.1H42.5z"/>
						<path d="M42.5,39.7l-0.6,0.1h1.9l-0.6-0.1H42.5z"/>
						<path d="M42.5,39.8l-0.6,0.1h1.9l-0.6-0.1H42.5z"/>
						<path d="M42.5,39.8h-0.6h1.9h-0.6H42.5z"/>
						<path d="M42.5,39.8L42.5,39.8z"/>
					</g>
				</g>
				<g>
					<rect x="45" y="27.9" width="1.9" height="11.9"/>
					<rect x="45" y="27.9" width="1.9" height="11.9"/>
					<g>
						<path d="M45.5,28.2L45,27.9h1.9l-0.6,0.2H45.5L45.5,28.2z"/>
						<path d="M45.5,28.2L45,27.9h1.9l-0.6,0.2H45.5L45.5,28.2z"/>
						<path d="M45.5,28.2L45,27.9h1.9l-0.6,0.2H45.5L45.5,28.2z"/>
						<path d="M45.5,28.2L45,27.9h1.9l-0.6,0.2L45.5,28.2L45.5,28.2z"/>
						<path d="M45.5,28.1L45,27.9h1.9l-0.6,0.2H45.5z"/>
						<path d="M45.5,28.1L45,27.9h1.9l-0.6,0.2L45.5,28.1L45.5,28.1z"/>
						<path d="M45.5,28.1L45,27.9h1.9l-0.6,0.2H45.5L45.5,28.1z"/>
						<path d="M45.5,28.1L45,27.9h1.9l-0.6,0.2L45.5,28.1L45.5,28.1z"/>
						<path d="M45.5,28.1L45,27.9h1.9l-0.6,0.2H45.5L45.5,28.1z"/>
						<path d="M45.5,28.1L45,27.9h1.9l-0.6,0.2H45.5L45.5,28.1z"/>
						<path d="M45.5,28.1L45,27.9h1.9l-0.6,0.1L45.5,28.1L45.5,28.1z"/>
						<path d="M45.5,28.1L45,27.9h1.9l-0.6,0.1H45.5L45.5,28.1z"/>
					</g>
					<g class="st6">
						<path d="M45.5,39.6L45,39.8h1.9l-0.6-0.2H45.5z"/>
						<path d="M45.5,39.6L45,39.8h1.9l-0.6-0.2H45.5z"/>
						<path d="M45.5,39.6L45,39.8h1.9l-0.6-0.2H45.5z"/>
						<path d="M45.5,39.6L45,39.8h1.9l-0.6-0.2H45.5z"/>
						<path d="M45.5,39.7L45,39.8h1.9l-0.6-0.2H45.5z"/>
						<path d="M45.5,39.7L45,39.8h1.9l-0.6-0.1H45.5z"/>
						<path d="M45.5,39.7L45,39.8h1.9l-0.6-0.1H45.5z"/>
						<path d="M45.5,39.7L45,39.8h1.9l-0.6-0.1H45.5z"/>
						<path d="M45.5,39.7L45,39.8h1.9l-0.6-0.1H45.5z"/>
						<path d="M45.5,39.8L45,39.8h1.9l-0.6-0.1H45.5z"/>
						<path d="M45.5,39.8H45h1.9h-0.6H45.5z"/>
						<path d="M45.5,39.8L45.5,39.8z"/>
					</g>
				</g>
				<g>
					<rect x="48.1" y="27.9" width="1.9" height="11.9"/>
					<rect x="48.1" y="27.9" width="1.9" height="11.9"/>
					<g>
						<path d="M48.7,28.2l-0.6-0.2H50l-0.6,0.2H48.7L48.7,28.2z"/>
						<path d="M48.7,28.2l-0.6-0.2H50l-0.6,0.2H48.7L48.7,28.2z"/>
						<path d="M48.7,28.2l-0.6-0.2H50l-0.6,0.2H48.7L48.7,28.2z"/>
						<path d="M48.7,28.2L48.1,28H50l-0.6,0.2H48.7L48.7,28.2z"/>
						<path d="M48.7,28.1l-0.6-0.2H50l-0.6,0.2H48.7L48.7,28.1z"/>
						<path d="M48.7,28.1L48.1,28H50l-0.6,0.2H48.7L48.7,28.1z"/>
						<path d="M48.7,28.1l-0.6-0.2H50l-0.6,0.2H48.7L48.7,28.1z"/>
						<path d="M48.7,28.1L48.1,28H50l-0.6,0.2H48.7L48.7,28.1z"/>
						<path d="M48.7,28.1l-0.6-0.2H50l-0.6,0.2H48.7L48.7,28.1z"/>
						<path d="M48.7,28.1l-0.6-0.2H50l-0.6,0.2H48.7L48.7,28.1z"/>
						<path d="M48.7,28.1L48.1,28H50l-0.6,0.1H48.7L48.7,28.1z"/>
						<path d="M48.7,28.1l-0.6-0.1H50l-0.6,0.1H48.7L48.7,28.1z"/>
					</g>
					<g class="st6">
						<path d="M48.7,39.6l-0.6,0.2H50l-0.6-0.2H48.7L48.7,39.6z"/>
						<path d="M48.7,39.6l-0.6,0.2H50l-0.6-0.2H48.7L48.7,39.6z"/>
						<path d="M48.7,39.6l-0.6,0.2H50l-0.6-0.2H48.7L48.7,39.6z"/>
						<path d="M48.7,39.6l-0.6,0.2H50l-0.6-0.2H48.7L48.7,39.6z"/>
						<path d="M48.7,39.7l-0.6,0.2H50l-0.6-0.2H48.7L48.7,39.7z"/>
						<path d="M48.7,39.7l-0.6,0.1H50l-0.6-0.1H48.7L48.7,39.7z"/>
						<path d="M48.7,39.7l-0.6,0.1H50l-0.6-0.1H48.7L48.7,39.7z"/>
						<path d="M48.7,39.7l-0.6,0.1H50l-0.6-0.1H48.7L48.7,39.7z"/>
						<path d="M48.7,39.7l-0.6,0.1H50l-0.6-0.1H48.7L48.7,39.7z"/>
						<path d="M48.7,39.8l-0.6,0.1H50l-0.6-0.1H48.7L48.7,39.8z"/>
						<path d="M48.7,39.8h-0.6H50h-0.6H48.7L48.7,39.8z"/>
						<path d="M48.7,39.8L48.7,39.8z"/>
					</g>
				</g>
				<g>
					<rect x="51.2" y="27.9" width="1.9" height="11.9"/>
					<rect x="51.2" y="27.9" width="1.9" height="11.9"/>
					<g>
						<path d="M51.8,28.2l-0.6-0.2h1.9l-0.6,0.2H51.8z"/>
						<path d="M51.8,28.2l-0.6-0.2h1.9l-0.6,0.2H51.8z"/>
						<path d="M51.8,28.2l-0.6-0.2h1.9l-0.6,0.2H51.8z"/>
						<path d="M51.8,28.2L51.2,28h1.9l-0.6,0.2H51.8z"/>
						<path d="M51.8,28.1l-0.6-0.2h1.9l-0.6,0.2H51.8z"/>
						<path d="M51.8,28.1L51.2,28h1.9l-0.6,0.2H51.8z"/>
						<path d="M51.8,28.1l-0.6-0.2h1.9l-0.6,0.2H51.8z"/>
						<path d="M51.8,28.1L51.2,28h1.9l-0.6,0.2H51.8z"/>
						<path d="M51.8,28.1l-0.6-0.2h1.9l-0.6,0.2H51.8z"/>
						<path d="M51.8,28.1l-0.6-0.2h1.9l-0.6,0.2H51.8z"/>
						<path d="M51.8,28.1L51.2,28h1.9l-0.6,0.1H51.8z"/>
						<path d="M51.8,28.1l-0.6-0.1h1.9l-0.6,0.1H51.8z"/>
					</g>
					<g class="st6">
						<path d="M51.8,39.6l-0.6,0.2h1.9l-0.6-0.2H51.8z"/>
						<path d="M51.8,39.6l-0.6,0.2h1.9l-0.6-0.2H51.8z"/>
						<path d="M51.8,39.6l-0.6,0.2h1.9l-0.6-0.2H51.8z"/>
						<path d="M51.8,39.6l-0.6,0.2h1.9l-0.6-0.2H51.8z"/>
						<path d="M51.8,39.7l-0.6,0.2h1.9l-0.6-0.2H51.8z"/>
						<path d="M51.8,39.7l-0.6,0.1h1.9l-0.6-0.1H51.8z"/>
						<path d="M51.8,39.7l-0.6,0.1h1.9l-0.6-0.1H51.8z"/>
						<path d="M51.8,39.7l-0.6,0.1h1.9l-0.6-0.1H51.8z"/>
						<path d="M51.8,39.7l-0.6,0.1h1.9l-0.6-0.1H51.8z"/>
						<path d="M51.8,39.8l-0.6,0.1h1.9l-0.6-0.1H51.8z"/>
						<path d="M51.8,39.8h-0.6h1.9h-0.6H51.8z"/>
						<path d="M51.8,39.8L51.8,39.8z"/>
					</g>
				</g>
				<g>
					<rect x="54.3" y="27.9" width="1.9" height="11.9"/>
					<rect x="54.3" y="27.9" width="1.9" height="11.9"/>
					<g>
						<path d="M54.9,28.2l-0.6-0.2h1.9l-0.6,0.2H54.9z"/>
						<path d="M54.9,28.2l-0.6-0.2h1.9l-0.6,0.2H54.9z"/>
						<path d="M54.9,28.2l-0.6-0.2h1.9l-0.6,0.2H54.9z"/>
						<path d="M54.9,28.2L54.3,28h1.9l-0.6,0.2H54.9z"/>
						<path d="M54.9,28.1l-0.6-0.2h1.9l-0.6,0.2H54.9z"/>
						<path d="M54.9,28.1L54.3,28h1.9l-0.6,0.2H54.9z"/>
						<path d="M54.9,28.1l-0.6-0.2h1.9l-0.6,0.2H54.9z"/>
						<path d="M54.9,28.1L54.3,28h1.9l-0.6,0.2H54.9z"/>
						<path d="M54.9,28.1l-0.6-0.2h1.9l-0.6,0.2H54.9z"/>
						<path d="M54.9,28.1l-0.6-0.2h1.9l-0.6,0.2H54.9z"/>
						<path d="M54.9,28.1L54.3,28h1.9l-0.6,0.1H54.9z"/>
						<path d="M54.9,28.1l-0.6-0.1h1.9l-0.6,0.1H54.9z"/>
					</g>
					<g class="st6">
						<path d="M54.9,39.6l-0.6,0.2h1.9l-0.6-0.2H54.9z"/>
						<path d="M54.9,39.6l-0.6,0.2h1.9l-0.6-0.2H54.9z"/>
						<path d="M54.9,39.6l-0.6,0.2h1.9l-0.6-0.2H54.9z"/>
						<path d="M54.9,39.6l-0.6,0.2h1.9l-0.6-0.2H54.9z"/>
						<path d="M54.9,39.7l-0.6,0.2h1.9l-0.6-0.2H54.9z"/>
						<path d="M54.9,39.7l-0.6,0.1h1.9l-0.6-0.1H54.9z"/>
						<path d="M54.9,39.7l-0.6,0.1h1.9l-0.6-0.1H54.9z"/>
						<path d="M54.9,39.7l-0.6,0.1h1.9l-0.6-0.1H54.9z"/>
						<path d="M54.9,39.7l-0.6,0.1h1.9l-0.6-0.1H54.9z"/>
						<path d="M54.9,39.8l-0.6,0.1h1.9l-0.6-0.1H54.9z"/>
						<path d="M54.9,39.8h-0.6h1.9h-0.6H54.9z"/>
						<path d="M54.9,39.8L54.9,39.8z"/>
					</g>
				</g>
				<rect x="57.1" y="27.9" width="1.9" height="11.9"/>
				<rect x="57.1" y="27.9" class="st7" width="1.9" height="11.9"/>
				<g>
					<path d="M57.6,28.2l-0.6-0.2h1.9l-0.6,0.2H57.6z"/>
					<path d="M57.6,28.2l-0.6-0.2h1.9l-0.6,0.2H57.6z"/>
					<path d="M57.6,28.2l-0.6-0.2h1.9l-0.6,0.2H57.6z"/>
					<path d="M57.6,28.2L57.1,28h1.9l-0.6,0.2H57.6z"/>
					<path d="M57.6,28.1l-0.6-0.2h1.9l-0.6,0.2H57.6z"/>
					<path d="M57.6,28.1L57.1,28h1.9l-0.6,0.2H57.6z"/>
					<path d="M57.6,28.1l-0.6-0.2h1.9l-0.6,0.2H57.6z"/>
					<path d="M57.6,28.1L57.1,28h1.9l-0.6,0.2H57.6z"/>
					<path d="M57.6,28.1l-0.6-0.2h1.9l-0.6,0.2H57.6z"/>
					<path d="M57.6,28.1l-0.6-0.2h1.9l-0.6,0.2H57.6z"/>
					<path d="M57.6,28.1L57.1,28h1.9l-0.6,0.1H57.6z"/>
					<path d="M57.6,28.1l-0.6-0.1h1.9l-0.6,0.1H57.6z"/>
				</g>
				<g class="st6">
					<path d="M57.6,39.6l-0.6,0.2h1.9l-0.6-0.2H57.6z"/>
					<path d="M57.6,39.6l-0.6,0.2h1.9l-0.6-0.2H57.6z"/>
					<path d="M57.6,39.6l-0.6,0.2h1.9l-0.6-0.2H57.6z"/>
					<path d="M57.6,39.6l-0.6,0.2h1.9l-0.6-0.2H57.6z"/>
					<path d="M57.6,39.7l-0.6,0.2h1.9l-0.6-0.2H57.6z"/>
					<path d="M57.6,39.7l-0.6,0.1h1.9l-0.6-0.1H57.6z"/>
					<path d="M57.6,39.7l-0.6,0.1h1.9l-0.6-0.1H57.6z"/>
					<path d="M57.6,39.7l-0.6,0.1h1.9l-0.6-0.1H57.6z"/>
					<path d="M57.6,39.7l-0.6,0.1h1.9l-0.6-0.1H57.6z"/>
					<path d="M57.6,39.8l-0.6,0.1h1.9l-0.6-0.1H57.6z"/>
					<path d="M57.6,39.8h-0.6h1.9h-0.6H57.6z"/>
					<path d="M57.6,39.8L57.6,39.8z"/>
				</g>
			</g>
			<path class="st8" d="M30.5,28.3v-0.8c0,0,0-0.1,0-0.1c0,0,0.1,0,0.1,0h1.1l0,0h-1.1c0,0-0.1,0-0.1,0c0,0,0,0.1,0,0.1L30.5,28.3
				L30.5,28.3L30.5,28.3L30.5,28.3z"/>
			<path class="st8" d="M31.8,27.4v1h-1.2l0,0h1.3l0,0L31.8,27.4L31.8,27.4z"/>
		</g>
	</g>
</g>
</svg>
