<?xml version="1.0" encoding="UTF-8"?>
<svg width="90px" height="90px" viewBox="0 0 90 90" version="1.1" xmlns="http://www.w3.org/2000/svg" xmlns:xlink="http://www.w3.org/1999/xlink">
    <!-- Generator: Sketch 51.3 (57544) - http://www.bohemiancoding.com/sketch -->
    <title>container</title>
    <desc>Created with Sketch.</desc>
    <defs></defs>
    <g id="Page-1" stroke="none" stroke-width="1" fill="none" fill-rule="evenodd">
        <g id="Website" transform="translate(-137.000000, -856.000000)" fill-rule="nonzero">
            <g id="container" transform="translate(137.000000, 856.000000)">
                <path d="M1.52669979,49.9824728 C0.6844071,49.9838223 0.000687887975,49.3137233 1.46683707e-06,48.4857156 C-0.000684954301,47.9978187 0.239577733,47.5402888 0.645278634,47.2588878 L43.2054267,17.2758338 C43.7340047,16.9080554 44.4403774,16.9080554 44.9689554,17.2758338 L87.3293421,47.2588878 C88.0267906,47.7224909 88.2100768,48.6544214 87.7377888,49.3407162 C87.2661873,50.0263362 86.3181791,50.206514 85.6207305,49.7422358 C85.6008231,49.7294142 85.5822885,49.7159177 85.5630675,49.7024212 L44.0854748,20.3368302 L2.40537508,49.7084946 C2.14795063,49.8866478 1.8417873,49.9824728 1.52669979,49.9824728 Z" id="Shape" fill="#57565C"></path>
                <polygon id="Shape" fill="#FFB440" points="3.24586734 48 0 48 0 90 45 90 45 48"></polygon>
                <polygon id="Shape" fill="#F19300" points="90 48 45 48 45 90 90 90"></polygon>
                <path d="M43.9962692,19.999997 C40.6850277,19.999997 38,17.2451498 38,13.8462582 C38,12.9965355 38.6714257,12.3074774 39.4994046,12.3074774 C40.3267091,12.3074774 40.9981347,12.9965355 40.9981347,13.8462582 C40.9981347,15.545704 42.3403111,16.9231276 43.9962692,16.9231276 C45.6522276,16.9231276 46.994404,15.545704 46.994404,13.8462582 C46.994404,12.1468126 45.6522276,10.769389 43.9962692,10.769389 C43.1682903,10.769389 42.4975394,10.0803309 42.4975394,9.23060798 L42.4975394,1.53878102 C42.4975394,0.689058112 43.1682903,0 43.9962692,0 C44.8242484,0 45.4956741,0.689058112 45.4956741,1.53878102 L45.4956741,7.8864254 C48.7029966,8.73268557 50.6342731,12.0872559 49.8096679,15.3788066 C49.1281204,18.1011052 46.7352809,20.0027671 43.9962692,19.999997 Z" id="Shape" fill="#57565C"></path>
                <path d="M54.4997045,3 L33.4996201,3 C32.6711493,3 32,2.32815662 32,1.50033767 C32,0.671843383 32.6711493,0 33.4996201,0 L54.4997045,0 C55.3281755,0 56,0.671843383 56,1.50033767 C56,2.32815662 55.3281755,3 54.4997045,3 Z" id="Shape" fill="#57565C"></path>
                <g id="Group" transform="translate(12.000000, 52.000000)" fill="#E0E0E2">
                    <path d="M38.7099208,32.9939259 C37.857074,32.9939259 37.1649186,32.3230734 37.1649186,31.4949688 L37.1649186,1.50840564 C37.1649186,0.680301047 37.857074,0.00877368063 38.7099208,0.00877368063 C39.5634631,0.00877368063 40.2556185,0.680301047 40.2556185,1.50840564 L40.2556185,31.4949688 C40.2556185,32.3230734 39.5634631,32.9939259 38.7099208,32.9939259 Z" id="Shape"></path>
                    <path d="M51.0734161,32.9939259 C50.2198737,32.9939259 49.5277184,32.3230734 49.5277184,31.4949688 L49.5277184,1.50840564 C49.5277184,0.680301047 50.2198737,0.00877368063 51.0734161,0.00877368063 C51.9269585,0.00877368063 52.6184182,0.680301047 52.6184182,1.50840564 L52.6184182,31.4949688 C52.6184182,32.3230734 51.9269585,32.9939259 51.0734161,32.9939259 Z" id="Shape"></path>
                    <path d="M63.4362158,32.9939259 C62.5833691,32.9939259 61.8912137,32.3230734 61.8912137,31.4949688 L61.8912137,1.50840564 C61.8912137,0.680301047 62.5833691,0.00877368063 63.4362158,0.00877368063 C64.2897582,0.00877368063 64.9819136,0.680301047 64.9819136,1.50840564 L64.9819136,31.4949688 C64.9819136,32.3230734 64.2897582,32.9939259 63.4362158,32.9939259 Z" id="Shape"></path>
                    <path d="M1.62082611,32.9939259 C0.767283863,32.9939259 0.0751284247,32.3230734 0.0751284247,31.4949688 L0.0751284247,1.50840564 C0.0751284247,0.680301047 0.767283863,0.00877368063 1.62082611,0.00877368063 C2.47436853,0.00877368063 3.16652397,0.680301047 3.16652397,1.50840564 L3.16652397,31.4949688 C3.16652397,32.3230734 2.47436853,32.9939259 1.62082611,32.9939259 Z" id="Shape"></path>
                    <path d="M13.9843215,32.9939259 C13.1307791,32.9939259 12.4386237,32.3230734 12.4386237,31.4949688 L12.4386237,1.50840564 C12.4386237,0.680301047 13.1307791,0.00877368063 13.9843215,0.00877368063 C14.8371682,0.00877368063 15.5293236,0.680301047 15.5293236,1.50840564 L15.5293236,31.4949688 C15.5293236,32.3230734 14.8371682,32.9939259 13.9843215,32.9939259 Z" id="Shape"></path>
                    <path d="M26.3471212,32.9939259 C25.4935788,32.9939259 24.8014233,32.3230734 24.8014233,31.4949688 L24.8014233,1.50840564 C24.8014233,0.680301047 25.4935788,0.00877368063 26.3471212,0.00877368063 C27.2006636,0.00877368063 27.8928189,0.680301047 27.8928189,1.50840564 L27.8928189,31.4949688 C27.8928189,32.3230734 27.2006636,32.9939259 26.3471212,32.9939259 Z" id="Shape"></path>
                </g>
            </g>
        </g>
    </g>
</svg>