<svg xmlns="http://www.w3.org/2000/svg" viewBox="0 0 61.04 66.94"><defs><style>.cls-1{isolation:isolate;}.cls-2{fill:#3d4d57;}.cls-3{fill:#fbb03b;}.cls-4,.cls-5,.cls-6,.cls-9{fill:#754c24;}.cls-13,.cls-15,.cls-5,.cls-8{opacity:0.5;}.cls-12,.cls-15,.cls-5,.cls-8{mix-blend-mode:screen;}.cls-10,.cls-16,.cls-6,.cls-7{opacity:0.25;}.cls-11,.cls-13,.cls-14,.cls-7,.cls-9{mix-blend-mode:multiply;}.cls-14{opacity:0.2;}.cls-15,.cls-16{fill:none;}.cls-17{fill:#f15a24;}</style></defs><title>Element 2</title><g class="cls-1"><g id="Ebene_2" data-name="Ebene 2"><g id="Ebene_1-2" data-name="Ebene 1"><path class="cls-2" d="M.08,54l1.24,0c.44-.19.89-.36,1.32-.5L29.37,42.65l-.32-.56Z"/><path class="cls-2" d="M28.73,42.75a1.56,1.56,0,0,1-1.18.45c-.84,0-1.18-.33-1.33-.61a2.15,2.15,0,0,1,.47-2.05c.13-.17.18-.34.13-.43s-.07-.06-.15-.06a1.55,1.55,0,0,0-.75.3h0l-.07,0A2.91,2.91,0,0,0,24,43.09a2.28,2.28,0,0,0,1.5,2,6.38,6.38,0,0,0,2.51.56h5.09a6.42,6.42,0,0,0,2.51-.56,2.3,2.3,0,0,0,1.5-2,2.92,2.92,0,0,0-1.9-2.71l-.07,0h0a1.58,1.58,0,0,0-.75-.3c-.08,0-.14,0-.15.06s0,.26.12.43a2.12,2.12,0,0,1,.47,2.05c-.14.28-.49.61-1.33.61a1.52,1.52,0,0,1-1.17-.45,1.91,1.91,0,0,1-.46-1.28V37.19H29.18v4.28A1.83,1.83,0,0,1,28.73,42.75Z"/><path class="cls-2" d="M27.58,23.38a1.86,1.86,0,0,1,1-.38h.27l0,0,0,0,.05,0,0,0,.05,0,0,0,.06,0,0,0,.05,0,.05,0,0,0,.05,0,.05,0h.05l.06,0h0l.06,0h.1l.05,0h1.28l.05,0h.11l.05,0h0l.05,0h.05l.05,0,.05,0,0,0,.05,0,.05,0,.05,0,.05,0,0,0,.05,0s0,0,0,0L32,23l.05,0a.05.05,0,0,0,0,0h.26a1.8,1.8,0,0,1,1,.38l1.23,1.05v-.06a4.38,4.38,0,0,0-8.3,0v.06Z"/><path class="cls-2" d="M34.68,24.45l0-.08v.06Z"/><path class="cls-2" d="M26.35,24.37a.11.11,0,0,1,0,.08l0,0Z"/><path class="cls-2" d="M31.78,23l-.06,0h0l-.06,0h0l-.07,0h0l-.09,0h0l-.07,0H31.2l-.06,0h0l-.08,0H30l-.08,0h0l-.07,0h-.12l-.07,0h0l-.09,0h0l-.07,0h0l-.05,0h0l-.06,0,0,0h2.61Z"/><path class="cls-2" d="M31.82,23Z"/><path class="cls-2" d="M31.14,22.77l.06,0Z"/><path class="cls-2" d="M31.72,23l.06,0Z"/><path class="cls-2" d="M30.83,22.73h0Z"/><path class="cls-2" d="M30.73,22.72h0Z"/><path class="cls-2" d="M31.24,22.8h0Z"/><path class="cls-2" d="M30.63,22.71h0Z"/><path class="cls-2" d="M31.63,22.92l.06,0Z"/><path class="cls-2" d="M31.53,22.88l.07,0Z"/><path class="cls-2" d="M31.33,22.82l.07,0Z"/><path class="cls-2" d="M31.42,22.85l.09,0Z"/><path class="cls-2" d="M31,22.75l.08,0Z"/><path class="cls-2" d="M29.5,22.88l.09,0Z"/><path class="cls-2" d="M29.41,22.91l.07,0Z"/><path class="cls-2" d="M29.61,22.84l.07,0Z"/><path class="cls-2" d="M29.19,23Z"/><path class="cls-2" d="M29.32,23l.05,0Z"/><path class="cls-2" d="M29.71,22.81h0Z"/><path class="cls-2" d="M30.5,22.71h0Z"/><path class="cls-2" d="M29.23,23l.06,0Z"/><path class="cls-2" d="M30.21,22.72h0Z"/><path class="cls-2" d="M30.31,22.71h0Z"/><path class="cls-2" d="M30.41,22.71h0Z"/><path class="cls-2" d="M29.8,22.79l.07,0Z"/><path class="cls-2" d="M29.9,22.77l.08,0Z"/><path class="cls-2" d="M30.11,22.73h0Z"/><path class="cls-2" d="M30,22.75h0Z"/><path class="cls-2" d="M30.92,22.74h0Z"/><path class="cls-2" d="M33.08,36.57l2.68-7.27a3.73,3.73,0,0,0,.18-1.05v-2a1.26,1.26,0,0,0-.35-.83l-2.26-1.93a1.76,1.76,0,0,0-.94-.34H28.61a1.7,1.7,0,0,0-.93.34l-2.26,1.93a1.27,1.27,0,0,0-.36.83v2a3.74,3.74,0,0,0,.19,1.05l2.68,7.27a.75.75,0,0,0,.65.47h3.84A.78.78,0,0,0,33.08,36.57Zm-4.69-9.15v-.93h1.32a.93.93,0,0,1-.22-.63,1,1,0,1,1,2,0,1,1,0,0,1-.22.63h1.31v1.07H28.39Zm3.13,7a1,1,0,1,1-2,0,1,1,0,0,1,.22-.63H28.39V32.73h4.22V33.8H31.3A1,1,0,0,1,31.52,34.43Z"/><path class="cls-2" d="M29.63,34.43a.88.88,0,1,0,1.75,0,.86.86,0,0,0-.28-.63H29.9A.89.89,0,0,0,29.63,34.43Z"/><path class="cls-2" d="M29.94,33.58h1.12l0,0,.08,0h1.31v-.77H28.54v.77h1.31l.08,0ZM31.7,33h.36l.19.31-.19.32H31.7l-.18-.32Zm-2.39.63h-.37l-.18-.32.18-.31h.37l.18.31Z"/><path class="cls-2" d="M31,33.65h.12l-.08,0,0,0H29.94v0l-.08,0H31Z"/><polygon class="cls-2" points="31.04 33.65 31.04 33.65 31.04 33.65 29.97 33.65 29.97 33.65 29.97 33.65 31.04 33.65"/><polygon class="cls-2" points="28.98 33.02 28.84 33.26 28.98 33.51 29.27 33.51 29.4 33.26 29.27 33.02 28.98 33.02"/><polygon class="cls-2" points="32.02 33.51 32.16 33.26 32.02 33.02 31.74 33.02 31.6 33.26 31.74 33.51 32.02 33.51"/><path class="cls-2" d="M31.38,25.86a.88.88,0,1,0-1.48.63h1.2A.84.84,0,0,0,31.38,25.86Z"/><path class="cls-2" d="M31.06,26.71H29.93l-.08-.06H28.54v.78h3.93v-.78H31.16l-.08.06Zm-1.75.64h-.37L28.76,27l.18-.32h.37l.18.32Zm2.39-.64h.36l.19.32-.19.32H31.7L31.52,27Z"/><path class="cls-2" d="M29.85,26.64l.08.06h1.15l.08-.06H29.85Z"/><polygon class="cls-2" points="28.98 26.78 28.84 27.03 28.98 27.27 29.27 27.27 29.4 27.03 29.27 26.78 28.98 26.78"/><polygon class="cls-2" points="32.02 27.27 32.16 27.03 32.02 26.78 31.74 26.78 31.6 27.03 31.74 27.27 32.02 27.27"/><path class="cls-2" d="M34.65,23.1c.09.4.17.81.23,1.24l.38.61V0h-.61Z"/><path class="cls-2" d="M25.75,25l.38-.61c.06-.43.14-.84.22-1.24V0h-.6Z"/><path class="cls-2" d="M61,54l-1.25,0c-.44-.19-.89-.36-1.32-.5L31.67,42.65l.31-.56Z"/><path class="cls-3" d="M30.51,53.84a.11.11,0,0,0-.08,0H.11a.11.11,0,0,0-.08,0,.11.11,0,0,0,0,.07V66.83a.11.11,0,0,0,0,.08.11.11,0,0,0,.08,0H30.43a.1.1,0,0,0,.11-.11V53.91A.11.11,0,0,0,30.51,53.84Z"/><path class="cls-4" d="M1.28,66.94H.18a.21.21,0,0,1-.13,0,.21.21,0,0,1,0-.13v-.84a0,0,0,0,1,0,0H1.28a0,0,0,0,1,0,0v1A0,0,0,0,1,1.28,66.94Z"/><path class="cls-5" d="M0,65.92v.84a.18.18,0,0,0,0,.1.17.17,0,0,0,.1,0h1.1l0,0H.18a.21.21,0,0,1-.13,0,.21.21,0,0,1,0-.13v-.84a0,0,0,0,1,0,0l0,0Z"/><path class="cls-6" d="M1.28,66.89v-1H0l0,0H1.28a0,0,0,0,1,0,0v1s0,0,0,0Z"/><g class="cls-7"><path class="cls-4" d="M.93,66.5v-.18a.27.27,0,0,0-.54,0v.18a.27.27,0,0,0,.54,0Zm-.05,0a.22.22,0,0,1-.44,0v-.18a.22.22,0,0,1,.44,0Z"/></g><g class="cls-8"><path class="cls-4" d="M.93,66.5v-.18a.27.27,0,0,0-.54,0v.18a.27.27,0,0,0,.54,0Zm-.05,0a.22.22,0,0,1-.44,0v-.18a.22.22,0,0,1,.44,0Z"/></g><path class="cls-9" d="M.66,66.1a.22.22,0,0,0-.22.22v.18a.22.22,0,0,0,.44,0v-.18a.22.22,0,0,0-.22-.22Z"/><path class="cls-4" d="M29.26,66.94h1.1a.18.18,0,0,0,.12,0,.18.18,0,0,0,.06-.13v-.84a0,0,0,0,0-.05,0H29.26a0,0,0,0,0,0,0v1A0,0,0,0,0,29.26,66.94Z"/><path class="cls-5" d="M30.49,65.92v.84a.13.13,0,0,1,0,.1.14.14,0,0,1-.09,0h-1.1l0,0h1.13a.18.18,0,0,0,.12,0,.18.18,0,0,0,.06-.13v-.84s0,0,0,0l0,0Z"/><path class="cls-6" d="M29.26,66.89v-1h1.23l0,0s0,0,0,0H29.26a0,0,0,0,0,0,0v1s0,0,0,0Z"/><g class="cls-7"><path class="cls-4" d="M29.88,66.76a.26.26,0,0,0,.26-.26v-.18a.27.27,0,1,0-.53,0v.18A.27.27,0,0,0,29.88,66.76Zm-.22-.44a.22.22,0,0,1,.22-.22.22.22,0,0,1,.22.22v.18a.22.22,0,0,1-.22.22.22.22,0,0,1-.22-.22Z"/></g><g class="cls-8"><path class="cls-4" d="M29.88,66.76a.26.26,0,0,0,.26-.26v-.18a.27.27,0,1,0-.53,0v.18A.27.27,0,0,0,29.88,66.76Zm-.22-.44a.22.22,0,0,1,.22-.22.22.22,0,0,1,.22.22v.18a.22.22,0,0,1-.22.22.22.22,0,0,1-.22-.22Z"/></g><path class="cls-9" d="M29.88,66.1a.22.22,0,0,1,.22.22v.18a.22.22,0,0,1-.22.22.22.22,0,0,1-.22-.22v-.18a.22.22,0,0,1,.22-.22Z"/><path class="cls-4" d="M1.28,53.81H.18a.21.21,0,0,0-.13,0A.18.18,0,0,0,0,54v.84a0,0,0,0,0,0,0H1.28a0,0,0,0,0,0,0v-1A0,0,0,0,0,1.28,53.81Z"/><path class="cls-5" d="M0,54.82V54a.18.18,0,0,1,0-.09.18.18,0,0,1,.1,0h1.1l0,0H.18a.21.21,0,0,0-.13,0A.18.18,0,0,0,0,54v.84s0,0,0,0l0,0Z"/><path class="cls-6" d="M1.28,53.85v1H0l0,0H1.28a0,0,0,0,0,0,0v-1Z"/><g class="cls-7"><path class="cls-4" d="M.66,54a.27.27,0,0,0-.27.27v.18a.27.27,0,0,0,.54,0v-.18A.27.27,0,0,0,.66,54Zm.22.45a.22.22,0,1,1-.44,0v-.18a.22.22,0,0,1,.44,0Z"/></g><g class="cls-8"><path class="cls-4" d="M.66,54a.27.27,0,0,0-.27.27v.18a.27.27,0,0,0,.54,0v-.18A.27.27,0,0,0,.66,54Zm.22.45a.22.22,0,1,1-.44,0v-.18a.22.22,0,0,1,.44,0Z"/></g><path class="cls-9" d="M.66,54.65a.22.22,0,0,1-.22-.22v-.18a.22.22,0,0,1,.44,0v.18a.22.22,0,0,1-.22.22Z"/><path class="cls-4" d="M29.26,53.81h1.1a.18.18,0,0,1,.12,0,.16.16,0,0,1,.06.12v.84a0,0,0,0,1-.05,0H29.26a0,0,0,0,1,0,0v-1A0,0,0,0,1,29.26,53.81Z"/><path class="cls-5" d="M30.49,54.82V54a.12.12,0,0,0,0-.09.15.15,0,0,0-.09,0h-1.1l0,0h1.13a.18.18,0,0,1,.12,0,.16.16,0,0,1,.06.12v.84a.05.05,0,0,1,0,0l0,0Z"/><path class="cls-6" d="M29.26,53.85v1h1.23l0,0H29.26a0,0,0,0,1,0,0v-1a0,0,0,0,1,0,0Z"/><g class="cls-7"><path class="cls-4" d="M29.61,54.25v.18a.27.27,0,0,0,.53,0v-.18a.27.27,0,1,0-.53,0Zm.05,0a.22.22,0,0,1,.22-.22.22.22,0,0,1,.22.22v.18a.22.22,0,0,1-.22.22.22.22,0,0,1-.22-.22Z"/></g><g class="cls-8"><path class="cls-4" d="M29.61,54.25v.18a.27.27,0,0,0,.53,0v-.18a.27.27,0,1,0-.53,0Zm.05,0a.22.22,0,0,1,.22-.22.22.22,0,0,1,.22.22v.18a.22.22,0,0,1-.22.22.22.22,0,0,1-.22-.22Z"/></g><path class="cls-9" d="M29.88,54.65a.22.22,0,0,0,.22-.22v-.18a.22.22,0,0,0-.22-.22.22.22,0,0,0-.22.22v.18a.22.22,0,0,0,.22.22Z"/><g class="cls-10"><g class="cls-11"><rect class="cls-12" x="2.07" y="54.44" width="1.89" height="11.86"/><rect class="cls-11" x="2.07" y="54.44" width="1.89" height="11.86"/><g class="cls-11"><path d="M2.64,54.68l-.57-.24H3.94l-.57.24H2.64Z"/><path d="M2.64,54.67l-.57-.23H3.94l-.57.23H2.64Z"/><path d="M2.64,54.66l-.57-.22H3.94l-.57.22H2.64Z"/><path d="M2.64,54.65l-.57-.21H3.94l-.57.21H2.64Z"/><path d="M2.64,54.64l-.57-.2H3.94l-.57.2H2.64Z"/><path d="M2.64,54.63l-.57-.19H3.94l-.57.19H2.64Z"/><path d="M2.64,54.62l-.57-.18H3.94l-.57.18H2.64Z"/><path d="M2.64,54.61l-.57-.17H3.94l-.57.17H2.64Z"/><path d="M2.64,54.6l-.57-.16H3.94l-.57.16H2.64Z"/><path d="M2.64,54.59l-.57-.15H3.94l-.57.15H2.64Z"/><path d="M2.64,54.58l-.57-.14H3.94l-.57.14H2.64Z"/><path d="M2.64,54.57l-.57-.13H3.94l-.57.13H2.64Z"/></g><g class="cls-13"><path d="M2.64,66.06l-.57.25H3.94l-.57-.25H2.64Z"/><path d="M2.64,66.08l-.57.23H3.94l-.57-.23H2.64Z"/><path d="M2.64,66.11l-.57.2H3.94l-.57-.2H2.64Z"/><path d="M2.64,66.13l-.57.18H3.94l-.57-.18H2.64Z"/><path d="M2.64,66.15l-.57.16H3.94l-.57-.16H2.64Z"/><path d="M2.64,66.17l-.57.14H3.94l-.57-.14H2.64Z"/><path d="M2.64,66.19l-.57.12H3.94l-.57-.12H2.64Z"/><path d="M2.64,66.21l-.57.1H3.94l-.57-.1H2.64Z"/><path d="M2.64,66.23l-.57.08H3.94l-.57-.08H2.64Z"/><path d="M2.64,66.25l-.57.06H3.94l-.57-.06H2.64Z"/><path d="M2.64,66.28l-.57,0H3.94l-.57,0H2.64Z"/><path d="M2.64,66.3h0Z"/></g></g><g class="cls-11"><rect class="cls-12" x="5.18" y="54.44" width="1.89" height="11.86"/><rect class="cls-11" x="5.18" y="54.44" width="1.89" height="11.86"/><g class="cls-11"><path d="M5.74,54.68l-.56-.24H7l-.56.24H5.74Z"/><path d="M5.74,54.67l-.56-.23H7l-.56.23H5.74Z"/><path d="M5.74,54.66l-.56-.22H7l-.56.22H5.74Z"/><path d="M5.74,54.65l-.56-.21H7l-.56.21H5.74Z"/><path d="M5.74,54.64l-.56-.2H7l-.56.2H5.74Z"/><path d="M5.74,54.63l-.56-.19H7l-.56.19H5.74Z"/><path d="M5.74,54.62l-.56-.18H7l-.56.18H5.74Z"/><path d="M5.74,54.61l-.56-.17H7l-.56.17H5.74Z"/><path d="M5.74,54.6l-.56-.16H7l-.56.16H5.74Z"/><path d="M5.74,54.59l-.56-.15H7l-.56.15H5.74Z"/><path d="M5.74,54.58l-.56-.14H7l-.56.14H5.74Z"/><path d="M5.74,54.57l-.56-.13H7l-.56.13H5.74Z"/></g><g class="cls-13"><path d="M5.74,66.06l-.56.25H7l-.56-.25H5.74Z"/><path d="M5.74,66.08l-.56.23H7l-.56-.23H5.74Z"/><path d="M5.74,66.11l-.56.2H7l-.56-.2H5.74Z"/><path d="M5.74,66.13l-.56.18H7l-.56-.18H5.74Z"/><path d="M5.74,66.15l-.56.16H7l-.56-.16H5.74Z"/><path d="M5.74,66.17l-.56.14H7l-.56-.14H5.74Z"/><path d="M5.74,66.19l-.56.12H7l-.56-.12H5.74Z"/><path d="M5.74,66.21l-.56.1H7l-.56-.1H5.74Z"/><path d="M5.74,66.23l-.56.08H7l-.56-.08H5.74Z"/><path d="M5.74,66.25l-.56.06H7l-.56-.06H5.74Z"/><path d="M5.74,66.28l-.56,0H7l-.56,0H5.74Z"/><path d="M5.74,66.3h0Z"/></g></g><g class="cls-11"><rect class="cls-12" x="8.28" y="54.44" width="1.89" height="11.86"/><rect class="cls-11" x="8.28" y="54.44" width="1.89" height="11.86"/><g class="cls-11"><path d="M8.85,54.68l-.57-.24h1.87l-.57.24H8.85Z"/><path d="M8.85,54.67l-.57-.23h1.87l-.57.23H8.85Z"/><path d="M8.85,54.66l-.57-.22h1.87l-.57.22H8.85Z"/><path d="M8.85,54.65l-.57-.21h1.87l-.57.21H8.85Z"/><path d="M8.85,54.64l-.57-.2h1.87l-.57.2H8.85Z"/><path d="M8.85,54.63l-.57-.19h1.87l-.57.19H8.85Z"/><path d="M8.85,54.62l-.57-.18h1.87l-.57.18H8.85Z"/><path d="M8.85,54.61l-.57-.17h1.87l-.57.17H8.85Z"/><path d="M8.85,54.6l-.57-.16h1.87l-.57.16H8.85Z"/><path d="M8.85,54.59l-.57-.15h1.87l-.57.15H8.85Z"/><path d="M8.85,54.58l-.57-.14h1.87l-.57.14H8.85Z"/><path d="M8.85,54.57l-.57-.13h1.87l-.57.13H8.85Z"/></g><g class="cls-13"><path d="M8.85,66.06l-.57.25h1.87l-.57-.25H8.85Z"/><path d="M8.85,66.08l-.57.23h1.87l-.57-.23H8.85Z"/><path d="M8.85,66.11l-.57.2h1.87l-.57-.2H8.85Z"/><path d="M8.85,66.13l-.57.18h1.87l-.57-.18H8.85Z"/><path d="M8.85,66.15l-.57.16h1.87l-.57-.16H8.85Z"/><path d="M8.85,66.17l-.57.14h1.87l-.57-.14H8.85Z"/><path d="M8.85,66.19l-.57.12h1.87l-.57-.12H8.85Z"/><path d="M8.85,66.21l-.57.1h1.87l-.57-.1H8.85Z"/><path d="M8.85,66.23l-.57.08h1.87l-.57-.08H8.85Z"/><path d="M8.85,66.25l-.57.06h1.87l-.57-.06H8.85Z"/><path d="M8.85,66.28l-.57,0h1.87l-.57,0H8.85Z"/><path d="M8.85,66.3h0Z"/></g></g><g class="cls-11"><rect class="cls-12" x="11.38" y="54.44" width="1.89" height="11.86"/><rect class="cls-11" x="11.38" y="54.44" width="1.89" height="11.86"/><g class="cls-11"><path d="M12,54.68l-.57-.24h1.87l-.57.24H12Z"/><path d="M12,54.67l-.57-.23h1.87l-.57.23H12Z"/><path d="M12,54.66l-.57-.22h1.87l-.57.22H12Z"/><path d="M12,54.65l-.57-.21h1.87l-.57.21H12Z"/><path d="M12,54.64l-.57-.2h1.87l-.57.2H12Z"/><path d="M12,54.63l-.57-.19h1.87l-.57.19H12Z"/><path d="M12,54.62l-.57-.18h1.87l-.57.18H12Z"/><path d="M12,54.61l-.57-.17h1.87l-.57.17H12Z"/><path d="M12,54.6l-.57-.16h1.87l-.57.16H12Z"/><path d="M12,54.59l-.57-.15h1.87l-.57.15H12Z"/><path d="M12,54.58l-.57-.14h1.87l-.57.14H12Z"/><path d="M12,54.57l-.57-.13h1.87l-.57.13H12Z"/></g><g class="cls-13"><path d="M12,66.06l-.57.25h1.87l-.57-.25H12Z"/><path d="M12,66.08l-.57.23h1.87l-.57-.23H12Z"/><path d="M12,66.11l-.57.2h1.87l-.57-.2H12Z"/><path d="M12,66.13l-.57.18h1.87l-.57-.18H12Z"/><path d="M12,66.15l-.57.16h1.87l-.57-.16H12Z"/><path d="M12,66.17l-.57.14h1.87l-.57-.14H12Z"/><path d="M12,66.19l-.57.12h1.87l-.57-.12H12Z"/><path d="M12,66.21l-.57.1h1.87l-.57-.1H12Z"/><path d="M12,66.23l-.57.08h1.87l-.57-.08H12Z"/><path d="M12,66.25l-.57.06h1.87l-.57-.06H12Z"/><path d="M12,66.28l-.57,0h1.87l-.57,0H12Z"/><path d="M12,66.3h0Z"/></g></g><g class="cls-11"><rect class="cls-12" x="14.48" y="54.44" width="1.89" height="11.86"/><rect class="cls-11" x="14.48" y="54.44" width="1.89" height="11.86"/><g class="cls-11"><path d="M15.05,54.68l-.57-.24h1.87l-.57.24h-.73Z"/><path d="M15.05,54.67l-.57-.23h1.87l-.57.23h-.73Z"/><path d="M15.05,54.66l-.57-.22h1.87l-.57.22h-.73Z"/><path d="M15.05,54.65l-.57-.21h1.87l-.57.21h-.73Z"/><path d="M15.05,54.64l-.57-.2h1.87l-.57.2h-.73Z"/><path d="M15.05,54.63l-.57-.19h1.87l-.57.19h-.73Z"/><path d="M15.05,54.62l-.57-.18h1.87l-.57.18h-.73Z"/><path d="M15.05,54.61l-.57-.17h1.87l-.57.17h-.73Z"/><path d="M15.05,54.6l-.57-.16h1.87l-.57.16h-.73Z"/><path d="M15.05,54.59l-.57-.15h1.87l-.57.15h-.73Z"/><path d="M15.05,54.58l-.57-.14h1.87l-.57.14h-.73Z"/><path d="M15.05,54.57l-.57-.13h1.87l-.57.13h-.73Z"/></g><g class="cls-13"><path d="M15.05,66.06l-.57.25h1.87l-.57-.25h-.73Z"/><path d="M15.05,66.08l-.57.23h1.87l-.57-.23h-.73Z"/><path d="M15.05,66.11l-.57.2h1.87l-.57-.2h-.73Z"/><path d="M15.05,66.13l-.57.18h1.87l-.57-.18h-.73Z"/><path d="M15.05,66.15l-.57.16h1.87l-.57-.16h-.73Z"/><path d="M15.05,66.17l-.57.14h1.87l-.57-.14h-.73Z"/><path d="M15.05,66.19l-.57.12h1.87l-.57-.12h-.73Z"/><path d="M15.05,66.21l-.57.1h1.87l-.57-.1h-.73Z"/><path d="M15.05,66.23l-.57.08h1.87l-.57-.08h-.73Z"/><path d="M15.05,66.25l-.57.06h1.87l-.57-.06h-.73Z"/><path d="M15.05,66.28l-.57,0h1.87l-.57,0h-.73Z"/><path d="M15.05,66.3h0Z"/></g></g><g class="cls-11"><rect class="cls-12" x="17.59" y="54.44" width="1.89" height="11.86"/><rect class="cls-11" x="17.59" y="54.44" width="1.89" height="11.86"/><g class="cls-11"><path d="M18.15,54.68l-.56-.24h1.86l-.56.24h-.74Z"/><path d="M18.15,54.67l-.56-.23h1.86l-.56.23h-.74Z"/><path d="M18.15,54.66l-.56-.22h1.86l-.56.22h-.74Z"/><path d="M18.15,54.65l-.56-.21h1.86l-.56.21h-.74Z"/><path d="M18.15,54.64l-.56-.2h1.86l-.56.2h-.74Z"/><path d="M18.15,54.63l-.56-.19h1.86l-.56.19h-.74Z"/><path d="M18.15,54.62l-.56-.18h1.86l-.56.18h-.74Z"/><path d="M18.15,54.61l-.56-.17h1.86l-.56.17h-.74Z"/><path d="M18.15,54.6l-.56-.16h1.86l-.56.16h-.74Z"/><path d="M18.15,54.59l-.56-.15h1.86l-.56.15h-.74Z"/><path d="M18.15,54.58l-.56-.14h1.86l-.56.14h-.74Z"/><path d="M18.15,54.57l-.56-.13h1.86l-.56.13h-.74Z"/></g><g class="cls-13"><path d="M18.15,66.06l-.56.25h1.86l-.56-.25h-.74Z"/><path d="M18.15,66.08l-.56.23h1.86l-.56-.23h-.74Z"/><path d="M18.15,66.11l-.56.2h1.86l-.56-.2h-.74Z"/><path d="M18.15,66.13l-.56.18h1.86l-.56-.18h-.74Z"/><path d="M18.15,66.15l-.56.16h1.86l-.56-.16h-.74Z"/><path d="M18.15,66.17l-.56.14h1.86l-.56-.14h-.74Z"/><path d="M18.15,66.19l-.56.12h1.86l-.56-.12h-.74Z"/><path d="M18.15,66.21l-.56.1h1.86l-.56-.1h-.74Z"/><path d="M18.15,66.23l-.56.08h1.86l-.56-.08h-.74Z"/><path d="M18.15,66.25l-.56.06h1.86l-.56-.06h-.74Z"/><path d="M18.15,66.28l-.56,0h1.86l-.56,0h-.74Z"/><path d="M18.15,66.3h0Z"/></g></g><g class="cls-11"><rect class="cls-12" x="20.69" y="54.44" width="1.89" height="11.86"/><rect class="cls-11" x="20.69" y="54.44" width="1.89" height="11.86"/><g class="cls-11"><path d="M21.26,54.68l-.57-.24h1.87l-.57.24h-.73Z"/><path d="M21.26,54.67l-.57-.23h1.87l-.57.23h-.73Z"/><path d="M21.26,54.66l-.57-.22h1.87l-.57.22h-.73Z"/><path d="M21.26,54.65l-.57-.21h1.87l-.57.21h-.73Z"/><path d="M21.26,54.64l-.57-.2h1.87l-.57.2h-.73Z"/><path d="M21.26,54.63l-.57-.19h1.87l-.57.19h-.73Z"/><path d="M21.26,54.62l-.57-.18h1.87l-.57.18h-.73Z"/><path d="M21.26,54.61l-.57-.17h1.87l-.57.17h-.73Z"/><path d="M21.26,54.6l-.57-.16h1.87L22,54.6h-.73Z"/><path d="M21.26,54.59l-.57-.15h1.87l-.57.15h-.73Z"/><path d="M21.26,54.58l-.57-.14h1.87l-.57.14h-.73Z"/><path d="M21.26,54.57l-.57-.13h1.87l-.57.13h-.73Z"/></g><g class="cls-13"><path d="M21.26,66.06l-.57.25h1.87L22,66.06h-.73Z"/><path d="M21.26,66.08l-.57.23h1.87L22,66.08h-.73Z"/><path d="M21.26,66.11l-.57.2h1.87l-.57-.2h-.73Z"/><path d="M21.26,66.13l-.57.18h1.87L22,66.13h-.73Z"/><path d="M21.26,66.15l-.57.16h1.87L22,66.15h-.73Z"/><path d="M21.26,66.17l-.57.14h1.87L22,66.17h-.73Z"/><path d="M21.26,66.19l-.57.12h1.87L22,66.19h-.73Z"/><path d="M21.26,66.21l-.57.1h1.87l-.57-.1h-.73Z"/><path d="M21.26,66.23l-.57.08h1.87L22,66.23h-.73Z"/><path d="M21.26,66.25l-.57.06h1.87L22,66.25h-.73Z"/><path d="M21.26,66.28l-.57,0h1.87l-.57,0h-.73Z"/><path d="M21.26,66.3h0Z"/></g></g><g class="cls-11"><rect class="cls-12" x="23.79" y="54.44" width="1.89" height="11.86"/><rect class="cls-11" x="23.79" y="54.44" width="1.89" height="11.86"/><g class="cls-11"><path d="M24.36,54.68l-.57-.24h1.87l-.57.24h-.73Z"/><path d="M24.36,54.67l-.57-.23h1.87l-.57.23h-.73Z"/><path d="M24.36,54.66l-.57-.22h1.87l-.57.22h-.73Z"/><path d="M24.36,54.65l-.57-.21h1.87l-.57.21h-.73Z"/><path d="M24.36,54.64l-.57-.2h1.87l-.57.2h-.73Z"/><path d="M24.36,54.63l-.57-.19h1.87l-.57.19h-.73Z"/><path d="M24.36,54.62l-.57-.18h1.87l-.57.18h-.73Z"/><path d="M24.36,54.61l-.57-.17h1.87l-.57.17h-.73Z"/><path d="M24.36,54.6l-.57-.16h1.87l-.57.16h-.73Z"/><path d="M24.36,54.59l-.57-.15h1.87l-.57.15h-.73Z"/><path d="M24.36,54.58l-.57-.14h1.87l-.57.14h-.73Z"/><path d="M24.36,54.57l-.57-.13h1.87l-.57.13h-.73Z"/></g><g class="cls-13"><path d="M24.36,66.06l-.57.25h1.87l-.57-.25h-.73Z"/><path d="M24.36,66.08l-.57.23h1.87l-.57-.23h-.73Z"/><path d="M24.36,66.11l-.57.2h1.87l-.57-.2h-.73Z"/><path d="M24.36,66.13l-.57.18h1.87l-.57-.18h-.73Z"/><path d="M24.36,66.15l-.57.16h1.87l-.57-.16h-.73Z"/><path d="M24.36,66.17l-.57.14h1.87l-.57-.14h-.73Z"/><path d="M24.36,66.19l-.57.12h1.87l-.57-.12h-.73Z"/><path d="M24.36,66.21l-.57.1h1.87l-.57-.1h-.73Z"/><path d="M24.36,66.23l-.57.08h1.87l-.57-.08h-.73Z"/><path d="M24.36,66.25l-.57.06h1.87l-.57-.06h-.73Z"/><path d="M24.36,66.28l-.57,0h1.87l-.57,0h-.73Z"/><path d="M24.36,66.3h0Z"/></g></g><rect class="cls-11" x="26.57" y="54.44" width="1.89" height="11.86"/><rect class="cls-14" x="26.57" y="54.44" width="1.89" height="11.86"/><g class="cls-11"><path d="M27.14,54.68l-.57-.24h1.87l-.57.24h-.73Z"/><path d="M27.14,54.67l-.57-.23h1.87l-.57.23h-.73Z"/><path d="M27.14,54.66l-.57-.22h1.87l-.57.22h-.73Z"/><path d="M27.14,54.65l-.57-.21h1.87l-.57.21h-.73Z"/><path d="M27.14,54.64l-.57-.2h1.87l-.57.2h-.73Z"/><path d="M27.14,54.63l-.57-.19h1.87l-.57.19h-.73Z"/><path d="M27.14,54.62l-.57-.18h1.87l-.57.18h-.73Z"/><path d="M27.14,54.61l-.57-.17h1.87l-.57.17h-.73Z"/><path d="M27.14,54.6l-.57-.16h1.87l-.57.16h-.73Z"/><path d="M27.14,54.59l-.57-.15h1.87l-.57.15h-.73Z"/><path d="M27.14,54.58l-.57-.14h1.87l-.57.14h-.73Z"/><path d="M27.14,54.57l-.57-.13h1.87l-.57.13h-.73Z"/></g><g class="cls-13"><path d="M27.14,66.06l-.57.25h1.87l-.57-.25h-.73Z"/><path d="M27.14,66.08l-.57.23h1.87l-.57-.23h-.73Z"/><path d="M27.14,66.11l-.57.2h1.87l-.57-.2h-.73Z"/><path d="M27.14,66.13l-.57.18h1.87l-.57-.18h-.73Z"/><path d="M27.14,66.15l-.57.16h1.87l-.57-.16h-.73Z"/><path d="M27.14,66.17l-.57.14h1.87l-.57-.14h-.73Z"/><path d="M27.14,66.19l-.57.12h1.87l-.57-.12h-.73Z"/><path d="M27.14,66.21l-.57.1h1.87l-.57-.1h-.73Z"/><path d="M27.14,66.23l-.57.08h1.87l-.57-.08h-.73Z"/><path d="M27.14,66.25l-.57.06h1.87l-.57-.06h-.73Z"/><path d="M27.14,66.28l-.57,0h1.87l-.57,0h-.73Z"/><path d="M27.14,66.3h0Z"/></g></g><path class="cls-15" d="M0,54.82V54a.18.18,0,0,1,0-.09.18.18,0,0,1,.1,0h1.1l0,0H.18a.21.21,0,0,0-.13,0A.18.18,0,0,0,0,54v.84s0,0,0,0l0,0Z"/><path class="cls-16" d="M1.28,53.85v1H0l0,0H1.28a0,0,0,0,0,0,0v-1Z"/><path class="cls-17" d="M61,53.84a.11.11,0,0,0-.08,0H30.61a.11.11,0,0,0-.08,0,.11.11,0,0,0,0,.07V66.83a.1.1,0,0,0,.11.11H60.93a.1.1,0,0,0,.11-.11V53.91A.11.11,0,0,0,61,53.84Z"/><path class="cls-4" d="M31.78,66.94h-1.1a.17.17,0,0,1-.18-.18v-.84a0,0,0,0,1,0,0h1.24a0,0,0,0,1,0,0v1A0,0,0,0,1,31.78,66.94Z"/><path class="cls-5" d="M30.54,65.92v.84a.18.18,0,0,0,0,.1.17.17,0,0,0,.1,0h1.1l0,0H30.68a.17.17,0,0,1-.18-.18v-.84a0,0,0,0,1,0,0l0,0Z"/><path class="cls-6" d="M31.78,66.89v-1H30.54l0,0h1.27a0,0,0,0,1,0,0v1s0,0,0,0Z"/><g class="cls-7"><path class="cls-4" d="M31.43,66.5v-.18a.27.27,0,0,0-.54,0v.18a.27.27,0,0,0,.54,0Zm-.05,0a.22.22,0,0,1-.44,0v-.18a.22.22,0,0,1,.44,0Z"/></g><g class="cls-8"><path class="cls-4" d="M31.43,66.5v-.18a.27.27,0,0,0-.54,0v.18a.27.27,0,0,0,.54,0Zm-.05,0a.22.22,0,0,1-.44,0v-.18a.22.22,0,0,1,.44,0Z"/></g><path class="cls-9" d="M31.16,66.1a.22.22,0,0,0-.22.22v.18a.22.22,0,0,0,.44,0v-.18a.22.22,0,0,0-.22-.22Z"/><path class="cls-4" d="M59.76,66.94h1.1a.18.18,0,0,0,.12,0,.18.18,0,0,0,.06-.13v-.84a0,0,0,0,0,0,0H59.76a0,0,0,0,0,0,0v1A0,0,0,0,0,59.76,66.94Z"/><path class="cls-5" d="M61,65.92v.84a.13.13,0,0,1,0,.1.14.14,0,0,1-.09,0h-1.1l0,0h1.13a.18.18,0,0,0,.12,0,.18.18,0,0,0,.06-.13v-.84s0,0,0,0l0,0Z"/><path class="cls-6" d="M59.76,66.89v-1H61l0,0s0,0,0,0H59.76a0,0,0,0,0,0,0v1s0,0,0,0Z"/><g class="cls-7"><path class="cls-4" d="M60.38,66.76a.26.26,0,0,0,.26-.26v-.18a.27.27,0,1,0-.53,0v.18A.27.27,0,0,0,60.38,66.76Zm-.22-.44a.22.22,0,0,1,.22-.22.22.22,0,0,1,.22.22v.18a.22.22,0,0,1-.22.22.22.22,0,0,1-.22-.22Z"/></g><g class="cls-8"><path class="cls-4" d="M60.38,66.76a.26.26,0,0,0,.26-.26v-.18a.27.27,0,1,0-.53,0v.18A.27.27,0,0,0,60.38,66.76Zm-.22-.44a.22.22,0,0,1,.22-.22.22.22,0,0,1,.22.22v.18a.22.22,0,0,1-.22.22.22.22,0,0,1-.22-.22Z"/></g><path class="cls-9" d="M60.38,66.1a.22.22,0,0,1,.22.22v.18a.22.22,0,0,1-.22.22.22.22,0,0,1-.22-.22v-.18a.22.22,0,0,1,.22-.22Z"/><path class="cls-4" d="M31.78,53.81h-1.1a.21.21,0,0,0-.13,0,.18.18,0,0,0-.05.12v.84a0,0,0,0,0,0,0h1.24a0,0,0,0,0,0,0v-1A0,0,0,0,0,31.78,53.81Z"/><path class="cls-5" d="M30.54,54.82V54a.18.18,0,0,1,0-.09.18.18,0,0,1,.1,0h1.1l0,0H30.68a.21.21,0,0,0-.13,0,.18.18,0,0,0-.05.12v.84s0,0,0,0l0,0Z"/><path class="cls-6" d="M31.78,53.85v1H30.54l0,0h1.27a0,0,0,0,0,0,0v-1Z"/><g class="cls-7"><path class="cls-4" d="M31.16,54a.27.27,0,0,0-.27.27v.18a.27.27,0,0,0,.54,0v-.18A.27.27,0,0,0,31.16,54Zm.22.45a.22.22,0,0,1-.44,0v-.18a.22.22,0,0,1,.44,0Z"/></g><g class="cls-8"><path class="cls-4" d="M31.16,54a.27.27,0,0,0-.27.27v.18a.27.27,0,0,0,.54,0v-.18A.27.27,0,0,0,31.16,54Zm.22.45a.22.22,0,0,1-.44,0v-.18a.22.22,0,0,1,.44,0Z"/></g><path class="cls-9" d="M31.16,54.65a.22.22,0,0,1-.22-.22v-.18a.22.22,0,0,1,.44,0v.18a.22.22,0,0,1-.22.22Z"/><path class="cls-4" d="M59.76,53.81h1.1a.18.18,0,0,1,.12,0A.16.16,0,0,1,61,54v.84a0,0,0,0,1,0,0H59.76a0,0,0,0,1,0,0v-1A0,0,0,0,1,59.76,53.81Z"/><path class="cls-5" d="M61,54.82V54a.12.12,0,0,0,0-.09.15.15,0,0,0-.09,0h-1.1l0,0h1.13a.18.18,0,0,1,.12,0A.16.16,0,0,1,61,54v.84a.05.05,0,0,1,0,0l0,0Z"/><path class="cls-6" d="M59.76,53.85v1H61l0,0H59.76a0,0,0,0,1,0,0v-1a0,0,0,0,1,0,0Z"/><g class="cls-7"><path class="cls-4" d="M60.11,54.25v.18a.27.27,0,0,0,.53,0v-.18a.27.27,0,1,0-.53,0Zm0,0a.22.22,0,0,1,.22-.22.22.22,0,0,1,.22.22v.18a.22.22,0,0,1-.22.22.22.22,0,0,1-.22-.22Z"/></g><g class="cls-8"><path class="cls-4" d="M60.11,54.25v.18a.27.27,0,0,0,.53,0v-.18a.27.27,0,1,0-.53,0Zm0,0a.22.22,0,0,1,.22-.22.22.22,0,0,1,.22.22v.18a.22.22,0,0,1-.22.22.22.22,0,0,1-.22-.22Z"/></g><path class="cls-9" d="M60.38,54.65a.22.22,0,0,0,.22-.22v-.18a.22.22,0,0,0-.22-.22.22.22,0,0,0-.22.22v.18a.22.22,0,0,0,.22.22Z"/><g class="cls-10"><g class="cls-11"><rect class="cls-12" x="32.57" y="54.44" width="1.89" height="11.86"/><rect class="cls-11" x="32.57" y="54.44" width="1.89" height="11.86"/><g class="cls-11"><path d="M33.14,54.68l-.57-.24h1.87l-.57.24h-.73Z"/><path d="M33.14,54.67l-.57-.23h1.87l-.57.23h-.73Z"/><path d="M33.14,54.66l-.57-.22h1.87l-.57.22h-.73Z"/><path d="M33.14,54.65l-.57-.21h1.87l-.57.21h-.73Z"/><path d="M33.14,54.64l-.57-.2h1.87l-.57.2h-.73Z"/><path d="M33.14,54.63l-.57-.19h1.87l-.57.19h-.73Z"/><path d="M33.14,54.62l-.57-.18h1.87l-.57.18h-.73Z"/><path d="M33.14,54.61l-.57-.17h1.87l-.57.17h-.73Z"/><path d="M33.14,54.6l-.57-.16h1.87l-.57.16h-.73Z"/><path d="M33.14,54.59l-.57-.15h1.87l-.57.15h-.73Z"/><path d="M33.14,54.58l-.57-.14h1.87l-.57.14h-.73Z"/><path d="M33.14,54.57l-.57-.13h1.87l-.57.13h-.73Z"/></g><g class="cls-13"><path d="M33.14,66.06l-.57.25h1.87l-.57-.25h-.73Z"/><path d="M33.14,66.08l-.57.23h1.87l-.57-.23h-.73Z"/><path d="M33.14,66.11l-.57.2h1.87l-.57-.2h-.73Z"/><path d="M33.14,66.13l-.57.18h1.87l-.57-.18h-.73Z"/><path d="M33.14,66.15l-.57.16h1.87l-.57-.16h-.73Z"/><path d="M33.14,66.17l-.57.14h1.87l-.57-.14h-.73Z"/><path d="M33.14,66.19l-.57.12h1.87l-.57-.12h-.73Z"/><path d="M33.14,66.21l-.57.1h1.87l-.57-.1h-.73Z"/><path d="M33.14,66.23l-.57.08h1.87l-.57-.08h-.73Z"/><path d="M33.14,66.25l-.57.06h1.87l-.57-.06h-.73Z"/><path d="M33.14,66.28l-.57,0h1.87l-.57,0h-.73Z"/><path d="M33.14,66.3h0Z"/></g></g><g class="cls-11"><rect class="cls-12" x="35.68" y="54.44" width="1.89" height="11.86"/><rect class="cls-11" x="35.68" y="54.44" width="1.89" height="11.86"/><g class="cls-11"><path d="M36.24,54.68l-.56-.24h1.86l-.56.24h-.74Z"/><path d="M36.24,54.67l-.56-.23h1.86l-.56.23h-.74Z"/><path d="M36.24,54.66l-.56-.22h1.86l-.56.22h-.74Z"/><path d="M36.24,54.65l-.56-.21h1.86l-.56.21h-.74Z"/><path d="M36.24,54.64l-.56-.2h1.86l-.56.2h-.74Z"/><path d="M36.24,54.63l-.56-.19h1.86l-.56.19h-.74Z"/><path d="M36.24,54.62l-.56-.18h1.86l-.56.18h-.74Z"/><path d="M36.24,54.61l-.56-.17h1.86l-.56.17h-.74Z"/><path d="M36.24,54.6l-.56-.16h1.86L37,54.6h-.74Z"/><path d="M36.24,54.59l-.56-.15h1.86l-.56.15h-.74Z"/><path d="M36.24,54.58l-.56-.14h1.86l-.56.14h-.74Z"/><path d="M36.24,54.57l-.56-.13h1.86l-.56.13h-.74Z"/></g><g class="cls-13"><path d="M36.24,66.06l-.56.25h1.86L37,66.06h-.74Z"/><path d="M36.24,66.08l-.56.23h1.86L37,66.08h-.74Z"/><path d="M36.24,66.11l-.56.2h1.86l-.56-.2h-.74Z"/><path d="M36.24,66.13l-.56.18h1.86L37,66.13h-.74Z"/><path d="M36.24,66.15l-.56.16h1.86L37,66.15h-.74Z"/><path d="M36.24,66.17l-.56.14h1.86L37,66.17h-.74Z"/><path d="M36.24,66.19l-.56.12h1.86L37,66.19h-.74Z"/><path d="M36.24,66.21l-.56.1h1.86l-.56-.1h-.74Z"/><path d="M36.24,66.23l-.56.08h1.86L37,66.23h-.74Z"/><path d="M36.24,66.25l-.56.06h1.86L37,66.25h-.74Z"/><path d="M36.24,66.28l-.56,0h1.86l-.56,0h-.74Z"/><path d="M36.24,66.3h0Z"/></g></g><g class="cls-11"><rect class="cls-12" x="38.78" y="54.44" width="1.89" height="11.86"/><rect class="cls-11" x="38.78" y="54.44" width="1.89" height="11.86"/><g class="cls-11"><path d="M39.35,54.68l-.57-.24h1.87l-.57.24h-.73Z"/><path d="M39.35,54.67l-.57-.23h1.87l-.57.23h-.73Z"/><path d="M39.35,54.66l-.57-.22h1.87l-.57.22h-.73Z"/><path d="M39.35,54.65l-.57-.21h1.87l-.57.21h-.73Z"/><path d="M39.35,54.64l-.57-.2h1.87l-.57.2h-.73Z"/><path d="M39.35,54.63l-.57-.19h1.87l-.57.19h-.73Z"/><path d="M39.35,54.62l-.57-.18h1.87l-.57.18h-.73Z"/><path d="M39.35,54.61l-.57-.17h1.87l-.57.17h-.73Z"/><path d="M39.35,54.6l-.57-.16h1.87l-.57.16h-.73Z"/><path d="M39.35,54.59l-.57-.15h1.87l-.57.15h-.73Z"/><path d="M39.35,54.58l-.57-.14h1.87l-.57.14h-.73Z"/><path d="M39.35,54.57l-.57-.13h1.87l-.57.13h-.73Z"/></g><g class="cls-13"><path d="M39.35,66.06l-.57.25h1.87l-.57-.25h-.73Z"/><path d="M39.35,66.08l-.57.23h1.87l-.57-.23h-.73Z"/><path d="M39.35,66.11l-.57.2h1.87l-.57-.2h-.73Z"/><path d="M39.35,66.13l-.57.18h1.87l-.57-.18h-.73Z"/><path d="M39.35,66.15l-.57.16h1.87l-.57-.16h-.73Z"/><path d="M39.35,66.17l-.57.14h1.87l-.57-.14h-.73Z"/><path d="M39.35,66.19l-.57.12h1.87l-.57-.12h-.73Z"/><path d="M39.35,66.21l-.57.1h1.87l-.57-.1h-.73Z"/><path d="M39.35,66.23l-.57.08h1.87l-.57-.08h-.73Z"/><path d="M39.35,66.25l-.57.06h1.87l-.57-.06h-.73Z"/><path d="M39.35,66.28l-.57,0h1.87l-.57,0h-.73Z"/><path d="M39.35,66.3h0Z"/></g></g><g class="cls-11"><rect class="cls-12" x="41.88" y="54.44" width="1.89" height="11.86"/><rect class="cls-11" x="41.88" y="54.44" width="1.89" height="11.86"/><g class="cls-11"><path d="M42.45,54.68l-.57-.24h1.87l-.57.24h-.73Z"/><path d="M42.45,54.67l-.57-.23h1.87l-.57.23h-.73Z"/><path d="M42.45,54.66l-.57-.22h1.87l-.57.22h-.73Z"/><path d="M42.45,54.65l-.57-.21h1.87l-.57.21h-.73Z"/><path d="M42.45,54.64l-.57-.2h1.87l-.57.2h-.73Z"/><path d="M42.45,54.63l-.57-.19h1.87l-.57.19h-.73Z"/><path d="M42.45,54.62l-.57-.18h1.87l-.57.18h-.73Z"/><path d="M42.45,54.61l-.57-.17h1.87l-.57.17h-.73Z"/><path d="M42.45,54.6l-.57-.16h1.87l-.57.16h-.73Z"/><path d="M42.45,54.59l-.57-.15h1.87l-.57.15h-.73Z"/><path d="M42.45,54.58l-.57-.14h1.87l-.57.14h-.73Z"/><path d="M42.45,54.57l-.57-.13h1.87l-.57.13h-.73Z"/></g><g class="cls-13"><path d="M42.45,66.06l-.57.25h1.87l-.57-.25h-.73Z"/><path d="M42.45,66.08l-.57.23h1.87l-.57-.23h-.73Z"/><path d="M42.45,66.11l-.57.2h1.87l-.57-.2h-.73Z"/><path d="M42.45,66.13l-.57.18h1.87l-.57-.18h-.73Z"/><path d="M42.45,66.15l-.57.16h1.87l-.57-.16h-.73Z"/><path d="M42.45,66.17l-.57.14h1.87l-.57-.14h-.73Z"/><path d="M42.45,66.19l-.57.12h1.87l-.57-.12h-.73Z"/><path d="M42.45,66.21l-.57.1h1.87l-.57-.1h-.73Z"/><path d="M42.45,66.23l-.57.08h1.87l-.57-.08h-.73Z"/><path d="M42.45,66.25l-.57.06h1.87l-.57-.06h-.73Z"/><path d="M42.45,66.28l-.57,0h1.87l-.57,0h-.73Z"/><path d="M42.45,66.3h0Z"/></g></g><g class="cls-11"><rect class="cls-12" x="44.98" y="54.44" width="1.89" height="11.86"/><rect class="cls-11" x="44.98" y="54.44" width="1.89" height="11.86"/><g class="cls-11"><path d="M45.55,54.68,45,54.44h1.87l-.57.24h-.73Z"/><path d="M45.55,54.67,45,54.44h1.87l-.57.23h-.73Z"/><path d="M45.55,54.66,45,54.44h1.87l-.57.22h-.73Z"/><path d="M45.55,54.65,45,54.44h1.87l-.57.21h-.73Z"/><path d="M45.55,54.64l-.57-.2h1.87l-.57.2h-.73Z"/><path d="M45.55,54.63,45,54.44h1.87l-.57.19h-.73Z"/><path d="M45.55,54.62,45,54.44h1.87l-.57.18h-.73Z"/><path d="M45.55,54.61,45,54.44h1.87l-.57.17h-.73Z"/><path d="M45.55,54.6,45,54.44h1.87l-.57.16h-.73Z"/><path d="M45.55,54.59,45,54.44h1.87l-.57.15h-.73Z"/><path d="M45.55,54.58,45,54.44h1.87l-.57.14h-.73Z"/><path d="M45.55,54.57,45,54.44h1.87l-.57.13h-.73Z"/></g><g class="cls-13"><path d="M45.55,66.06l-.57.25h1.87l-.57-.25h-.73Z"/><path d="M45.55,66.08l-.57.23h1.87l-.57-.23h-.73Z"/><path d="M45.55,66.11l-.57.2h1.87l-.57-.2h-.73Z"/><path d="M45.55,66.13l-.57.18h1.87l-.57-.18h-.73Z"/><path d="M45.55,66.15l-.57.16h1.87l-.57-.16h-.73Z"/><path d="M45.55,66.17l-.57.14h1.87l-.57-.14h-.73Z"/><path d="M45.55,66.19l-.57.12h1.87l-.57-.12h-.73Z"/><path d="M45.55,66.21l-.57.1h1.87l-.57-.1h-.73Z"/><path d="M45.55,66.23l-.57.08h1.87l-.57-.08h-.73Z"/><path d="M45.55,66.25l-.57.06h1.87l-.57-.06h-.73Z"/><path d="M45.55,66.28l-.57,0h1.87l-.57,0h-.73Z"/><path d="M45.55,66.3h0Z"/></g></g><g class="cls-11"><rect class="cls-12" x="48.09" y="54.44" width="1.89" height="11.86"/><rect class="cls-11" x="48.09" y="54.44" width="1.89" height="11.86"/><g class="cls-11"><path d="M48.65,54.68l-.56-.24H50l-.56.24h-.74Z"/><path d="M48.65,54.67l-.56-.23H50l-.56.23h-.74Z"/><path d="M48.65,54.66l-.56-.22H50l-.56.22h-.74Z"/><path d="M48.65,54.65l-.56-.21H50l-.56.21h-.74Z"/><path d="M48.65,54.64l-.56-.2H50l-.56.2h-.74Z"/><path d="M48.65,54.63l-.56-.19H50l-.56.19h-.74Z"/><path d="M48.65,54.62l-.56-.18H50l-.56.18h-.74Z"/><path d="M48.65,54.61l-.56-.17H50l-.56.17h-.74Z"/><path d="M48.65,54.6l-.56-.16H50l-.56.16h-.74Z"/><path d="M48.65,54.59l-.56-.15H50l-.56.15h-.74Z"/><path d="M48.65,54.58l-.56-.14H50l-.56.14h-.74Z"/><path d="M48.65,54.57l-.56-.13H50l-.56.13h-.74Z"/></g><g class="cls-13"><path d="M48.65,66.06l-.56.25H50l-.56-.25h-.74Z"/><path d="M48.65,66.08l-.56.23H50l-.56-.23h-.74Z"/><path d="M48.65,66.11l-.56.2H50l-.56-.2h-.74Z"/><path d="M48.65,66.13l-.56.18H50l-.56-.18h-.74Z"/><path d="M48.65,66.15l-.56.16H50l-.56-.16h-.74Z"/><path d="M48.65,66.17l-.56.14H50l-.56-.14h-.74Z"/><path d="M48.65,66.19l-.56.12H50l-.56-.12h-.74Z"/><path d="M48.65,66.21l-.56.1H50l-.56-.1h-.74Z"/><path d="M48.65,66.23l-.56.08H50l-.56-.08h-.74Z"/><path d="M48.65,66.25l-.56.06H50l-.56-.06h-.74Z"/><path d="M48.65,66.28l-.56,0H50l-.56,0h-.74Z"/><path d="M48.65,66.3h0Z"/></g></g><g class="cls-11"><rect class="cls-12" x="51.19" y="54.44" width="1.89" height="11.86"/><rect class="cls-11" x="51.19" y="54.44" width="1.89" height="11.86"/><g class="cls-11"><path d="M51.76,54.68l-.57-.24h1.87l-.57.24h-.73Z"/><path d="M51.76,54.67l-.57-.23h1.87l-.57.23h-.73Z"/><path d="M51.76,54.66l-.57-.22h1.87l-.57.22h-.73Z"/><path d="M51.76,54.65l-.57-.21h1.87l-.57.21h-.73Z"/><path d="M51.76,54.64l-.57-.2h1.87l-.57.2h-.73Z"/><path d="M51.76,54.63l-.57-.19h1.87l-.57.19h-.73Z"/><path d="M51.76,54.62l-.57-.18h1.87l-.57.18h-.73Z"/><path d="M51.76,54.61l-.57-.17h1.87l-.57.17h-.73Z"/><path d="M51.76,54.6l-.57-.16h1.87l-.57.16h-.73Z"/><path d="M51.76,54.59l-.57-.15h1.87l-.57.15h-.73Z"/><path d="M51.76,54.58l-.57-.14h1.87l-.57.14h-.73Z"/><path d="M51.76,54.57l-.57-.13h1.87l-.57.13h-.73Z"/></g><g class="cls-13"><path d="M51.76,66.06l-.57.25h1.87l-.57-.25h-.73Z"/><path d="M51.76,66.08l-.57.23h1.87l-.57-.23h-.73Z"/><path d="M51.76,66.11l-.57.2h1.87l-.57-.2h-.73Z"/><path d="M51.76,66.13l-.57.18h1.87l-.57-.18h-.73Z"/><path d="M51.76,66.15l-.57.16h1.87l-.57-.16h-.73Z"/><path d="M51.76,66.17l-.57.14h1.87l-.57-.14h-.73Z"/><path d="M51.76,66.19l-.57.12h1.87l-.57-.12h-.73Z"/><path d="M51.76,66.21l-.57.1h1.87l-.57-.1h-.73Z"/><path d="M51.76,66.23l-.57.08h1.87l-.57-.08h-.73Z"/><path d="M51.76,66.25l-.57.06h1.87l-.57-.06h-.73Z"/><path d="M51.76,66.28l-.57,0h1.87l-.57,0h-.73Z"/><path d="M51.76,66.3h0Z"/></g></g><g class="cls-11"><rect class="cls-12" x="54.29" y="54.44" width="1.89" height="11.86"/><rect class="cls-11" x="54.29" y="54.44" width="1.89" height="11.86"/><g class="cls-11"><path d="M54.86,54.68l-.57-.24h1.87l-.57.24h-.73Z"/><path d="M54.86,54.67l-.57-.23h1.87l-.57.23h-.73Z"/><path d="M54.86,54.66l-.57-.22h1.87l-.57.22h-.73Z"/><path d="M54.86,54.65l-.57-.21h1.87l-.57.21h-.73Z"/><path d="M54.86,54.64l-.57-.2h1.87l-.57.2h-.73Z"/><path d="M54.86,54.63l-.57-.19h1.87l-.57.19h-.73Z"/><path d="M54.86,54.62l-.57-.18h1.87l-.57.18h-.73Z"/><path d="M54.86,54.61l-.57-.17h1.87l-.57.17h-.73Z"/><path d="M54.86,54.6l-.57-.16h1.87l-.57.16h-.73Z"/><path d="M54.86,54.59l-.57-.15h1.87l-.57.15h-.73Z"/><path d="M54.86,54.58l-.57-.14h1.87l-.57.14h-.73Z"/><path d="M54.86,54.57l-.57-.13h1.87l-.57.13h-.73Z"/></g><g class="cls-13"><path d="M54.86,66.06l-.57.25h1.87l-.57-.25h-.73Z"/><path d="M54.86,66.08l-.57.23h1.87l-.57-.23h-.73Z"/><path d="M54.86,66.11l-.57.2h1.87l-.57-.2h-.73Z"/><path d="M54.86,66.13l-.57.18h1.87l-.57-.18h-.73Z"/><path d="M54.86,66.15l-.57.16h1.87l-.57-.16h-.73Z"/><path d="M54.86,66.17l-.57.14h1.87l-.57-.14h-.73Z"/><path d="M54.86,66.19l-.57.12h1.87l-.57-.12h-.73Z"/><path d="M54.86,66.21l-.57.1h1.87l-.57-.1h-.73Z"/><path d="M54.86,66.23l-.57.08h1.87l-.57-.08h-.73Z"/><path d="M54.86,66.25l-.57.06h1.87l-.57-.06h-.73Z"/><path d="M54.86,66.28l-.57,0h1.87l-.57,0h-.73Z"/><path d="M54.86,66.3h0Z"/></g></g><rect class="cls-11" x="57.07" y="54.44" width="1.89" height="11.86"/><rect class="cls-14" x="57.07" y="54.44" width="1.89" height="11.86"/><g class="cls-11"><path d="M57.64,54.68l-.57-.24h1.87l-.57.24h-.73Z"/><path d="M57.64,54.67l-.57-.23h1.87l-.57.23h-.73Z"/><path d="M57.64,54.66l-.57-.22h1.87l-.57.22h-.73Z"/><path d="M57.64,54.65l-.57-.21h1.87l-.57.21h-.73Z"/><path d="M57.64,54.64l-.57-.2h1.87l-.57.2h-.73Z"/><path d="M57.64,54.63l-.57-.19h1.87l-.57.19h-.73Z"/><path d="M57.64,54.62l-.57-.18h1.87l-.57.18h-.73Z"/><path d="M57.64,54.61l-.57-.17h1.87l-.57.17h-.73Z"/><path d="M57.64,54.6l-.57-.16h1.87l-.57.16h-.73Z"/><path d="M57.64,54.59l-.57-.15h1.87l-.57.15h-.73Z"/><path d="M57.64,54.58l-.57-.14h1.87l-.57.14h-.73Z"/><path d="M57.64,54.57l-.57-.13h1.87l-.57.13h-.73Z"/></g><g class="cls-13"><path d="M57.64,66.06l-.57.25h1.87l-.57-.25h-.73Z"/><path d="M57.64,66.08l-.57.23h1.87l-.57-.23h-.73Z"/><path d="M57.64,66.11l-.57.2h1.87l-.57-.2h-.73Z"/><path d="M57.64,66.13l-.57.18h1.87l-.57-.18h-.73Z"/><path d="M57.64,66.15l-.57.16h1.87l-.57-.16h-.73Z"/><path d="M57.64,66.17l-.57.14h1.87l-.57-.14h-.73Z"/><path d="M57.64,66.19l-.57.12h1.87l-.57-.12h-.73Z"/><path d="M57.64,66.21l-.57.1h1.87l-.57-.1h-.73Z"/><path d="M57.64,66.23l-.57.08h1.87l-.57-.08h-.73Z"/><path d="M57.64,66.25l-.57.06h1.87l-.57-.06h-.73Z"/><path d="M57.64,66.28l-.57,0h1.87l-.57,0h-.73Z"/><path d="M57.64,66.3h0Z"/></g></g><path class="cls-15" d="M30.54,54.82V54a.18.18,0,0,1,0-.09.18.18,0,0,1,.1,0h1.1l0,0H30.68a.21.21,0,0,0-.13,0,.18.18,0,0,0-.05.12v.84s0,0,0,0l0,0Z"/><path class="cls-16" d="M31.78,53.85v1H30.54l0,0h1.27a0,0,0,0,0,0,0v-1Z"/></g></g></g></svg>