<svg xmlns="http://www.w3.org/2000/svg" viewBox="0 0 61.04 39.43"><defs><style>.cls-1{isolation:isolate;}.cls-2{fill:#fbb03b;}.cls-3,.cls-4,.cls-5,.cls-8{fill:#754c24;}.cls-12,.cls-14,.cls-4,.cls-7{opacity:0.5;}.cls-11,.cls-14,.cls-4,.cls-7{mix-blend-mode:screen;}.cls-15,.cls-5,.cls-6,.cls-9{opacity:0.25;}.cls-10,.cls-12,.cls-13,.cls-6,.cls-8{mix-blend-mode:multiply;}.cls-13{opacity:0.2;}.cls-14,.cls-15{fill:none;}.cls-16{fill:#f15a24;}.cls-17{fill:#ed1c24;}.cls-18{fill:#fcee21;}</style></defs><title>Element 1</title><g class="cls-1"><g id="Ebene_2" data-name="Ebene 2"><g id="Ebene_1-2" data-name="Ebene 1"><path class="cls-2" d="M30.51,26.33a.11.11,0,0,0-.08,0H.11a.11.11,0,0,0-.08,0,.11.11,0,0,0,0,.07V39.32a.11.11,0,0,0,0,.08.11.11,0,0,0,.08,0H30.43a.1.1,0,0,0,.11-.11V26.4A.11.11,0,0,0,30.51,26.33Z"/><path class="cls-3" d="M1.28,39.43H.18a.21.21,0,0,1-.13,0,.21.21,0,0,1,0-.13v-.84a0,0,0,0,1,0,0H1.28a0,0,0,0,1,0,0v1A0,0,0,0,1,1.28,39.43Z"/><path class="cls-4" d="M0,38.41v.84a.18.18,0,0,0,0,.1.18.18,0,0,0,.1,0h1.1l0,0H.18a.21.21,0,0,1-.13,0,.21.21,0,0,1,0-.13v-.84a0,0,0,0,1,0,0l0,0Z"/><path class="cls-5" d="M1.28,39.39v-1H0l0,0H1.28a0,0,0,0,1,0,0v1s0,0,0,0Z"/><g class="cls-6"><path class="cls-3" d="M.93,39v-.18a.26.26,0,0,0-.27-.26.26.26,0,0,0-.27.26V39a.27.27,0,0,0,.54,0ZM.88,39a.22.22,0,0,1-.44,0v-.18a.22.22,0,1,1,.44,0Z"/></g><g class="cls-7"><path class="cls-3" d="M.93,39v-.18a.26.26,0,0,0-.27-.26.26.26,0,0,0-.27.26V39a.27.27,0,0,0,.54,0ZM.88,39a.22.22,0,0,1-.44,0v-.18a.22.22,0,1,1,.44,0Z"/></g><path class="cls-8" d="M.66,38.59a.22.22,0,0,0-.22.22V39a.22.22,0,0,0,.44,0v-.18a.22.22,0,0,0-.22-.22Z"/><path class="cls-3" d="M29.26,39.43h1.1a.18.18,0,0,0,.12,0,.18.18,0,0,0,.06-.13v-.84a0,0,0,0,0-.05,0H29.26a0,0,0,0,0,0,0v1A0,0,0,0,0,29.26,39.43Z"/><path class="cls-4" d="M30.49,38.41v.84a.13.13,0,0,1,0,.1.15.15,0,0,1-.09,0h-1.1l0,0h1.13a.18.18,0,0,0,.12,0,.18.18,0,0,0,.06-.13v-.84l0,0,0,0Z"/><path class="cls-5" d="M29.26,39.39v-1h1.23l0,0s0,0,0,0H29.26a0,0,0,0,0,0,0v1a0,0,0,0,0,0,0Z"/><g class="cls-6"><path class="cls-3" d="M29.88,39.25a.26.26,0,0,0,.26-.26v-.18a.27.27,0,0,0-.53,0V39A.27.27,0,0,0,29.88,39.25Zm-.22-.44a.22.22,0,0,1,.22-.22.22.22,0,0,1,.22.22V39a.22.22,0,0,1-.22.22.22.22,0,0,1-.22-.22Z"/></g><g class="cls-7"><path class="cls-3" d="M29.88,39.25a.26.26,0,0,0,.26-.26v-.18a.27.27,0,0,0-.53,0V39A.27.27,0,0,0,29.88,39.25Zm-.22-.44a.22.22,0,0,1,.22-.22.22.22,0,0,1,.22.22V39a.22.22,0,0,1-.22.22.22.22,0,0,1-.22-.22Z"/></g><path class="cls-8" d="M29.88,38.59a.22.22,0,0,1,.22.22V39a.22.22,0,0,1-.22.22.22.22,0,0,1-.22-.22v-.18a.22.22,0,0,1,.22-.22Z"/><path class="cls-3" d="M1.28,26.3H.18a.21.21,0,0,0-.13.05.19.19,0,0,0,0,.13v.84a0,0,0,0,0,0,0H1.28a0,0,0,0,0,0,0v-1A0,0,0,0,0,1.28,26.3Z"/><path class="cls-4" d="M0,27.32v-.84a.18.18,0,0,1,0-.1.18.18,0,0,1,.1,0h1.1l0,0H.18a.21.21,0,0,0-.13.05.19.19,0,0,0,0,.13v.84a0,0,0,0,0,0,0l0,0Z"/><path class="cls-5" d="M1.28,26.34v1H0l0,0H1.28a0,0,0,0,0,0,0v-1s0,0,0,0Z"/><g class="cls-6"><path class="cls-3" d="M.66,26.48a.26.26,0,0,0-.27.26v.18a.27.27,0,0,0,.54,0v-.18A.26.26,0,0,0,.66,26.48Zm.22.44a.22.22,0,0,1-.44,0v-.18a.22.22,0,0,1,.44,0Z"/></g><g class="cls-7"><path class="cls-3" d="M.66,26.48a.26.26,0,0,0-.27.26v.18a.27.27,0,0,0,.54,0v-.18A.26.26,0,0,0,.66,26.48Zm.22.44a.22.22,0,0,1-.44,0v-.18a.22.22,0,0,1,.44,0Z"/></g><path class="cls-8" d="M.66,27.14a.22.22,0,0,1-.22-.22v-.18a.22.22,0,0,1,.44,0v.18a.22.22,0,0,1-.22.22Z"/><path class="cls-3" d="M29.26,26.3h1.1a.18.18,0,0,1,.12.05.16.16,0,0,1,.06.13v.84a0,0,0,0,1-.05,0H29.26a0,0,0,0,1,0,0v-1A0,0,0,0,1,29.26,26.3Z"/><path class="cls-4" d="M30.49,27.32v-.84a.13.13,0,0,0,0-.1.15.15,0,0,0-.09,0h-1.1l0,0h1.13a.18.18,0,0,1,.12.05.16.16,0,0,1,.06.13v.84l0,0,0,0Z"/><path class="cls-5" d="M29.26,26.34v1h1.23l0,0H29.26a0,0,0,0,1,0,0v-1a0,0,0,0,1,0,0Z"/><g class="cls-6"><path class="cls-3" d="M29.61,26.74v.18a.27.27,0,0,0,.53,0v-.18a.27.27,0,0,0-.53,0Zm.05,0a.22.22,0,0,1,.22-.22.22.22,0,0,1,.22.22v.18a.22.22,0,0,1-.22.22.22.22,0,0,1-.22-.22Z"/></g><g class="cls-7"><path class="cls-3" d="M29.61,26.74v.18a.27.27,0,0,0,.53,0v-.18a.27.27,0,0,0-.53,0Zm.05,0a.22.22,0,0,1,.22-.22.22.22,0,0,1,.22.22v.18a.22.22,0,0,1-.22.22.22.22,0,0,1-.22-.22Z"/></g><path class="cls-8" d="M29.88,27.14a.22.22,0,0,0,.22-.22v-.18a.22.22,0,0,0-.22-.22.22.22,0,0,0-.22.22v.18a.22.22,0,0,0,.22.22Z"/><g class="cls-9"><g class="cls-10"><rect class="cls-11" x="2.07" y="26.93" width="1.89" height="11.86"/><rect class="cls-10" x="2.07" y="26.93" width="1.89" height="11.86"/><g class="cls-10"><path d="M2.64,27.17l-.57-.24H3.94l-.57.24H2.64Z"/><path d="M2.64,27.16l-.57-.23H3.94l-.57.23H2.64Z"/><path d="M2.64,27.15l-.57-.22H3.94l-.57.22H2.64Z"/><path d="M2.64,27.14l-.57-.21H3.94l-.57.21H2.64Z"/><path d="M2.64,27.13l-.57-.2H3.94l-.57.2H2.64Z"/><path d="M2.64,27.12l-.57-.19H3.94l-.57.19H2.64Z"/><path d="M2.64,27.11l-.57-.18H3.94l-.57.18H2.64Z"/><path d="M2.64,27.1l-.57-.17H3.94l-.57.17H2.64Z"/><path d="M2.64,27.09l-.57-.16H3.94l-.57.16H2.64Z"/><path d="M2.64,27.08l-.57-.15H3.94l-.57.15H2.64Z"/><path d="M2.64,27.07l-.57-.14H3.94l-.57.14H2.64Z"/><path d="M2.64,27.06l-.57-.13H3.94l-.57.13H2.64Z"/></g><g class="cls-12"><path d="M2.64,38.55l-.57.25H3.94l-.57-.25H2.64Z"/><path d="M2.64,38.57l-.57.23H3.94l-.57-.23H2.64Z"/><path d="M2.64,38.6l-.57.2H3.94l-.57-.2H2.64Z"/><path d="M2.64,38.62l-.57.18H3.94l-.57-.18H2.64Z"/><path d="M2.64,38.64l-.57.16H3.94l-.57-.16H2.64Z"/><path d="M2.64,38.66l-.57.14H3.94l-.57-.14H2.64Z"/><path d="M2.64,38.68l-.57.12H3.94l-.57-.12H2.64Z"/><path d="M2.64,38.7l-.57.1H3.94l-.57-.1H2.64Z"/><path d="M2.64,38.72l-.57.08H3.94l-.57-.08H2.64Z"/><path d="M2.64,38.75l-.57,0H3.94l-.57,0H2.64Z"/><path d="M2.64,38.77l-.57,0H3.94l-.57,0H2.64Z"/><path d="M2.64,38.79h0Z"/></g></g><g class="cls-10"><rect class="cls-11" x="5.18" y="26.93" width="1.89" height="11.86"/><rect class="cls-10" x="5.18" y="26.93" width="1.89" height="11.86"/><g class="cls-10"><path d="M5.74,27.17l-.56-.24H7l-.56.24H5.74Z"/><path d="M5.74,27.16l-.56-.23H7l-.56.23H5.74Z"/><path d="M5.74,27.15l-.56-.22H7l-.56.22H5.74Z"/><path d="M5.74,27.14l-.56-.21H7l-.56.21H5.74Z"/><path d="M5.74,27.13l-.56-.2H7l-.56.2H5.74Z"/><path d="M5.74,27.12l-.56-.19H7l-.56.19H5.74Z"/><path d="M5.74,27.11l-.56-.18H7l-.56.18H5.74Z"/><path d="M5.74,27.1l-.56-.17H7l-.56.17H5.74Z"/><path d="M5.74,27.09l-.56-.16H7l-.56.16H5.74Z"/><path d="M5.74,27.08l-.56-.15H7l-.56.15H5.74Z"/><path d="M5.74,27.07l-.56-.14H7l-.56.14H5.74Z"/><path d="M5.74,27.06l-.56-.13H7l-.56.13H5.74Z"/></g><g class="cls-12"><path d="M5.74,38.55l-.56.25H7l-.56-.25H5.74Z"/><path d="M5.74,38.57l-.56.23H7l-.56-.23H5.74Z"/><path d="M5.74,38.6l-.56.2H7l-.56-.2H5.74Z"/><path d="M5.74,38.62l-.56.18H7l-.56-.18H5.74Z"/><path d="M5.74,38.64l-.56.16H7l-.56-.16H5.74Z"/><path d="M5.74,38.66l-.56.14H7l-.56-.14H5.74Z"/><path d="M5.74,38.68l-.56.12H7l-.56-.12H5.74Z"/><path d="M5.74,38.7l-.56.1H7l-.56-.1H5.74Z"/><path d="M5.74,38.72l-.56.08H7l-.56-.08H5.74Z"/><path d="M5.74,38.75l-.56,0H7l-.56,0H5.74Z"/><path d="M5.74,38.77l-.56,0H7l-.56,0H5.74Z"/><path d="M5.74,38.79h0Z"/></g></g><g class="cls-10"><rect class="cls-11" x="8.28" y="26.93" width="1.89" height="11.86"/><rect class="cls-10" x="8.28" y="26.93" width="1.89" height="11.86"/><g class="cls-10"><path d="M8.85,27.17l-.57-.24h1.87l-.57.24H8.85Z"/><path d="M8.85,27.16l-.57-.23h1.87l-.57.23H8.85Z"/><path d="M8.85,27.15l-.57-.22h1.87l-.57.22H8.85Z"/><path d="M8.85,27.14l-.57-.21h1.87l-.57.21H8.85Z"/><path d="M8.85,27.13l-.57-.2h1.87l-.57.2H8.85Z"/><path d="M8.85,27.12l-.57-.19h1.87l-.57.19H8.85Z"/><path d="M8.85,27.11l-.57-.18h1.87l-.57.18H8.85Z"/><path d="M8.85,27.1l-.57-.17h1.87l-.57.17H8.85Z"/><path d="M8.85,27.09l-.57-.16h1.87l-.57.16H8.85Z"/><path d="M8.85,27.08l-.57-.15h1.87l-.57.15H8.85Z"/><path d="M8.85,27.07l-.57-.14h1.87l-.57.14H8.85Z"/><path d="M8.85,27.06l-.57-.13h1.87l-.57.13H8.85Z"/></g><g class="cls-12"><path d="M8.85,38.55l-.57.25h1.87l-.57-.25H8.85Z"/><path d="M8.85,38.57l-.57.23h1.87l-.57-.23H8.85Z"/><path d="M8.85,38.6l-.57.2h1.87l-.57-.2H8.85Z"/><path d="M8.85,38.62l-.57.18h1.87l-.57-.18H8.85Z"/><path d="M8.85,38.64l-.57.16h1.87l-.57-.16H8.85Z"/><path d="M8.85,38.66l-.57.14h1.87l-.57-.14H8.85Z"/><path d="M8.85,38.68l-.57.12h1.87l-.57-.12H8.85Z"/><path d="M8.85,38.7l-.57.1h1.87l-.57-.1H8.85Z"/><path d="M8.85,38.72l-.57.08h1.87l-.57-.08H8.85Z"/><path d="M8.85,38.75l-.57,0h1.87l-.57,0H8.85Z"/><path d="M8.85,38.77l-.57,0h1.87l-.57,0H8.85Z"/><path d="M8.85,38.79h0Z"/></g></g><g class="cls-10"><rect class="cls-11" x="11.38" y="26.93" width="1.89" height="11.86"/><rect class="cls-10" x="11.38" y="26.93" width="1.89" height="11.86"/><g class="cls-10"><path d="M12,27.17l-.57-.24h1.87l-.57.24H12Z"/><path d="M12,27.16l-.57-.23h1.87l-.57.23H12Z"/><path d="M12,27.15l-.57-.22h1.87l-.57.22H12Z"/><path d="M12,27.14l-.57-.21h1.87l-.57.21H12Z"/><path d="M12,27.13l-.57-.2h1.87l-.57.2H12Z"/><path d="M12,27.12l-.57-.19h1.87l-.57.19H12Z"/><path d="M12,27.11l-.57-.18h1.87l-.57.18H12Z"/><path d="M12,27.1l-.57-.17h1.87l-.57.17H12Z"/><path d="M12,27.09l-.57-.16h1.87l-.57.16H12Z"/><path d="M12,27.08l-.57-.15h1.87l-.57.15H12Z"/><path d="M12,27.07l-.57-.14h1.87l-.57.14H12Z"/><path d="M12,27.06l-.57-.13h1.87l-.57.13H12Z"/></g><g class="cls-12"><path d="M12,38.55l-.57.25h1.87l-.57-.25H12Z"/><path d="M12,38.57l-.57.23h1.87l-.57-.23H12Z"/><path d="M12,38.6l-.57.2h1.87l-.57-.2H12Z"/><path d="M12,38.62l-.57.18h1.87l-.57-.18H12Z"/><path d="M12,38.64l-.57.16h1.87l-.57-.16H12Z"/><path d="M12,38.66l-.57.14h1.87l-.57-.14H12Z"/><path d="M12,38.68l-.57.12h1.87l-.57-.12H12Z"/><path d="M12,38.7l-.57.1h1.87l-.57-.1H12Z"/><path d="M12,38.72l-.57.08h1.87l-.57-.08H12Z"/><path d="M12,38.75l-.57,0h1.87l-.57,0H12Z"/><path d="M12,38.77l-.57,0h1.87l-.57,0H12Z"/><path d="M12,38.79h0Z"/></g></g><g class="cls-10"><rect class="cls-11" x="14.48" y="26.93" width="1.89" height="11.86"/><rect class="cls-10" x="14.48" y="26.93" width="1.89" height="11.86"/><g class="cls-10"><path d="M15.05,27.17l-.57-.24h1.87l-.57.24h-.73Z"/><path d="M15.05,27.16l-.57-.23h1.87l-.57.23h-.73Z"/><path d="M15.05,27.15l-.57-.22h1.87l-.57.22h-.73Z"/><path d="M15.05,27.14l-.57-.21h1.87l-.57.21h-.73Z"/><path d="M15.05,27.13l-.57-.2h1.87l-.57.2h-.73Z"/><path d="M15.05,27.12l-.57-.19h1.87l-.57.19h-.73Z"/><path d="M15.05,27.11l-.57-.18h1.87l-.57.18h-.73Z"/><path d="M15.05,27.1l-.57-.17h1.87l-.57.17h-.73Z"/><path d="M15.05,27.09l-.57-.16h1.87l-.57.16h-.73Z"/><path d="M15.05,27.08l-.57-.15h1.87l-.57.15h-.73Z"/><path d="M15.05,27.07l-.57-.14h1.87l-.57.14h-.73Z"/><path d="M15.05,27.06l-.57-.13h1.87l-.57.13h-.73Z"/></g><g class="cls-12"><path d="M15.05,38.55l-.57.25h1.87l-.57-.25h-.73Z"/><path d="M15.05,38.57l-.57.23h1.87l-.57-.23h-.73Z"/><path d="M15.05,38.6l-.57.2h1.87l-.57-.2h-.73Z"/><path d="M15.05,38.62l-.57.18h1.87l-.57-.18h-.73Z"/><path d="M15.05,38.64l-.57.16h1.87l-.57-.16h-.73Z"/><path d="M15.05,38.66l-.57.14h1.87l-.57-.14h-.73Z"/><path d="M15.05,38.68l-.57.12h1.87l-.57-.12h-.73Z"/><path d="M15.05,38.7l-.57.1h1.87l-.57-.1h-.73Z"/><path d="M15.05,38.72l-.57.08h1.87l-.57-.08h-.73Z"/><path d="M15.05,38.75l-.57,0h1.87l-.57,0h-.73Z"/><path d="M15.05,38.77l-.57,0h1.87l-.57,0h-.73Z"/><path d="M15.05,38.79h0Z"/></g></g><g class="cls-10"><rect class="cls-11" x="17.59" y="26.93" width="1.89" height="11.86"/><rect class="cls-10" x="17.59" y="26.93" width="1.89" height="11.86"/><g class="cls-10"><path d="M18.15,27.17l-.56-.24h1.86l-.56.24h-.74Z"/><path d="M18.15,27.16l-.56-.23h1.86l-.56.23h-.74Z"/><path d="M18.15,27.15l-.56-.22h1.86l-.56.22h-.74Z"/><path d="M18.15,27.14l-.56-.21h1.86l-.56.21h-.74Z"/><path d="M18.15,27.13l-.56-.2h1.86l-.56.2h-.74Z"/><path d="M18.15,27.12l-.56-.19h1.86l-.56.19h-.74Z"/><path d="M18.15,27.11l-.56-.18h1.86l-.56.18h-.74Z"/><path d="M18.15,27.1l-.56-.17h1.86l-.56.17h-.74Z"/><path d="M18.15,27.09l-.56-.16h1.86l-.56.16h-.74Z"/><path d="M18.15,27.08l-.56-.15h1.86l-.56.15h-.74Z"/><path d="M18.15,27.07l-.56-.14h1.86l-.56.14h-.74Z"/><path d="M18.15,27.06l-.56-.13h1.86l-.56.13h-.74Z"/></g><g class="cls-12"><path d="M18.15,38.55l-.56.25h1.86l-.56-.25h-.74Z"/><path d="M18.15,38.57l-.56.23h1.86l-.56-.23h-.74Z"/><path d="M18.15,38.6l-.56.2h1.86l-.56-.2h-.74Z"/><path d="M18.15,38.62l-.56.18h1.86l-.56-.18h-.74Z"/><path d="M18.15,38.64l-.56.16h1.86l-.56-.16h-.74Z"/><path d="M18.15,38.66l-.56.14h1.86l-.56-.14h-.74Z"/><path d="M18.15,38.68l-.56.12h1.86l-.56-.12h-.74Z"/><path d="M18.15,38.7l-.56.1h1.86l-.56-.1h-.74Z"/><path d="M18.15,38.72l-.56.08h1.86l-.56-.08h-.74Z"/><path d="M18.15,38.75l-.56,0h1.86l-.56,0h-.74Z"/><path d="M18.15,38.77l-.56,0h1.86l-.56,0h-.74Z"/><path d="M18.15,38.79h0Z"/></g></g><g class="cls-10"><rect class="cls-11" x="20.69" y="26.93" width="1.89" height="11.86"/><rect class="cls-10" x="20.69" y="26.93" width="1.89" height="11.86"/><g class="cls-10"><path d="M21.26,27.17l-.57-.24h1.87l-.57.24h-.73Z"/><path d="M21.26,27.16l-.57-.23h1.87l-.57.23h-.73Z"/><path d="M21.26,27.15l-.57-.22h1.87l-.57.22h-.73Z"/><path d="M21.26,27.14l-.57-.21h1.87l-.57.21h-.73Z"/><path d="M21.26,27.13l-.57-.2h1.87l-.57.2h-.73Z"/><path d="M21.26,27.12l-.57-.19h1.87l-.57.19h-.73Z"/><path d="M21.26,27.11l-.57-.18h1.87l-.57.18h-.73Z"/><path d="M21.26,27.1l-.57-.17h1.87L22,27.1h-.73Z"/><path d="M21.26,27.09l-.57-.16h1.87l-.57.16h-.73Z"/><path d="M21.26,27.08l-.57-.15h1.87l-.57.15h-.73Z"/><path d="M21.26,27.07l-.57-.14h1.87l-.57.14h-.73Z"/><path d="M21.26,27.06l-.57-.13h1.87l-.57.13h-.73Z"/></g><g class="cls-12"><path d="M21.26,38.55l-.57.25h1.87L22,38.55h-.73Z"/><path d="M21.26,38.57l-.57.23h1.87L22,38.57h-.73Z"/><path d="M21.26,38.6l-.57.2h1.87L22,38.6h-.73Z"/><path d="M21.26,38.62l-.57.18h1.87L22,38.62h-.73Z"/><path d="M21.26,38.64l-.57.16h1.87L22,38.64h-.73Z"/><path d="M21.26,38.66l-.57.14h1.87L22,38.66h-.73Z"/><path d="M21.26,38.68l-.57.12h1.87L22,38.68h-.73Z"/><path d="M21.26,38.7l-.57.1h1.87L22,38.7h-.73Z"/><path d="M21.26,38.72l-.57.08h1.87L22,38.72h-.73Z"/><path d="M21.26,38.75l-.57,0h1.87l-.57,0h-.73Z"/><path d="M21.26,38.77l-.57,0h1.87l-.57,0h-.73Z"/><path d="M21.26,38.79h0Z"/></g></g><g class="cls-10"><rect class="cls-11" x="23.79" y="26.93" width="1.89" height="11.86"/><rect class="cls-10" x="23.79" y="26.93" width="1.89" height="11.86"/><g class="cls-10"><path d="M24.36,27.17l-.57-.24h1.87l-.57.24h-.73Z"/><path d="M24.36,27.16l-.57-.23h1.87l-.57.23h-.73Z"/><path d="M24.36,27.15l-.57-.22h1.87l-.57.22h-.73Z"/><path d="M24.36,27.14l-.57-.21h1.87l-.57.21h-.73Z"/><path d="M24.36,27.13l-.57-.2h1.87l-.57.2h-.73Z"/><path d="M24.36,27.12l-.57-.19h1.87l-.57.19h-.73Z"/><path d="M24.36,27.11l-.57-.18h1.87l-.57.18h-.73Z"/><path d="M24.36,27.1l-.57-.17h1.87l-.57.17h-.73Z"/><path d="M24.36,27.09l-.57-.16h1.87l-.57.16h-.73Z"/><path d="M24.36,27.08l-.57-.15h1.87l-.57.15h-.73Z"/><path d="M24.36,27.07l-.57-.14h1.87l-.57.14h-.73Z"/><path d="M24.36,27.06l-.57-.13h1.87l-.57.13h-.73Z"/></g><g class="cls-12"><path d="M24.36,38.55l-.57.25h1.87l-.57-.25h-.73Z"/><path d="M24.36,38.57l-.57.23h1.87l-.57-.23h-.73Z"/><path d="M24.36,38.6l-.57.2h1.87l-.57-.2h-.73Z"/><path d="M24.36,38.62l-.57.18h1.87l-.57-.18h-.73Z"/><path d="M24.36,38.64l-.57.16h1.87l-.57-.16h-.73Z"/><path d="M24.36,38.66l-.57.14h1.87l-.57-.14h-.73Z"/><path d="M24.36,38.68l-.57.12h1.87l-.57-.12h-.73Z"/><path d="M24.36,38.7l-.57.1h1.87l-.57-.1h-.73Z"/><path d="M24.36,38.72l-.57.08h1.87l-.57-.08h-.73Z"/><path d="M24.36,38.75l-.57,0h1.87l-.57,0h-.73Z"/><path d="M24.36,38.77l-.57,0h1.87l-.57,0h-.73Z"/><path d="M24.36,38.79h0Z"/></g></g><rect class="cls-10" x="26.57" y="26.93" width="1.89" height="11.86"/><rect class="cls-13" x="26.57" y="26.93" width="1.89" height="11.86"/><g class="cls-10"><path d="M27.14,27.17l-.57-.24h1.87l-.57.24h-.73Z"/><path d="M27.14,27.16l-.57-.23h1.87l-.57.23h-.73Z"/><path d="M27.14,27.15l-.57-.22h1.87l-.57.22h-.73Z"/><path d="M27.14,27.14l-.57-.21h1.87l-.57.21h-.73Z"/><path d="M27.14,27.13l-.57-.2h1.87l-.57.2h-.73Z"/><path d="M27.14,27.12l-.57-.19h1.87l-.57.19h-.73Z"/><path d="M27.14,27.11l-.57-.18h1.87l-.57.18h-.73Z"/><path d="M27.14,27.1l-.57-.17h1.87l-.57.17h-.73Z"/><path d="M27.14,27.09l-.57-.16h1.87l-.57.16h-.73Z"/><path d="M27.14,27.08l-.57-.15h1.87l-.57.15h-.73Z"/><path d="M27.14,27.07l-.57-.14h1.87l-.57.14h-.73Z"/><path d="M27.14,27.06l-.57-.13h1.87l-.57.13h-.73Z"/></g><g class="cls-12"><path d="M27.14,38.55l-.57.25h1.87l-.57-.25h-.73Z"/><path d="M27.14,38.57l-.57.23h1.87l-.57-.23h-.73Z"/><path d="M27.14,38.6l-.57.2h1.87l-.57-.2h-.73Z"/><path d="M27.14,38.62l-.57.18h1.87l-.57-.18h-.73Z"/><path d="M27.14,38.64l-.57.16h1.87l-.57-.16h-.73Z"/><path d="M27.14,38.66l-.57.14h1.87l-.57-.14h-.73Z"/><path d="M27.14,38.68l-.57.12h1.87l-.57-.12h-.73Z"/><path d="M27.14,38.7l-.57.1h1.87l-.57-.1h-.73Z"/><path d="M27.14,38.72l-.57.08h1.87l-.57-.08h-.73Z"/><path d="M27.14,38.75l-.57,0h1.87l-.57,0h-.73Z"/><path d="M27.14,38.77l-.57,0h1.87l-.57,0h-.73Z"/><path d="M27.14,38.79h0Z"/></g></g><path class="cls-14" d="M0,27.32v-.84a.18.18,0,0,1,0-.1.18.18,0,0,1,.1,0h1.1l0,0H.18a.21.21,0,0,0-.13.05.19.19,0,0,0,0,.13v.84a0,0,0,0,0,0,0l0,0Z"/><path class="cls-15" d="M1.28,26.34v1H0l0,0H1.28a0,0,0,0,0,0,0v-1s0,0,0,0Z"/><path class="cls-16" d="M61,26.33a.11.11,0,0,0-.08,0H30.61a.11.11,0,0,0-.08,0,.11.11,0,0,0,0,.07V39.32a.1.1,0,0,0,.11.11H60.93a.1.1,0,0,0,.11-.11V26.4A.11.11,0,0,0,61,26.33Z"/><path class="cls-3" d="M31.78,39.43h-1.1a.17.17,0,0,1-.18-.18v-.84a0,0,0,0,1,0,0h1.24a0,0,0,0,1,0,0v1A0,0,0,0,1,31.78,39.43Z"/><path class="cls-4" d="M30.54,38.41v.84a.14.14,0,0,0,.14.14h1.1l0,0H30.68a.17.17,0,0,1-.18-.18v-.84a0,0,0,0,1,0,0l0,0Z"/><path class="cls-5" d="M31.78,39.39v-1H30.54l0,0h1.27a0,0,0,0,1,0,0v1s0,0,0,0Z"/><g class="cls-6"><path class="cls-3" d="M31.43,39v-.18a.27.27,0,0,0-.54,0V39a.27.27,0,0,0,.54,0Zm-.05,0a.22.22,0,0,1-.44,0v-.18a.22.22,0,0,1,.44,0Z"/></g><g class="cls-7"><path class="cls-3" d="M31.43,39v-.18a.27.27,0,0,0-.54,0V39a.27.27,0,0,0,.54,0Zm-.05,0a.22.22,0,0,1-.44,0v-.18a.22.22,0,0,1,.44,0Z"/></g><path class="cls-8" d="M31.16,38.59a.22.22,0,0,0-.22.22V39a.22.22,0,0,0,.44,0v-.18a.22.22,0,0,0-.22-.22Z"/><path class="cls-3" d="M59.76,39.43h1.1a.18.18,0,0,0,.12,0,.18.18,0,0,0,.06-.13v-.84a0,0,0,0,0,0,0H59.76a0,0,0,0,0,0,0v1A0,0,0,0,0,59.76,39.43Z"/><path class="cls-4" d="M61,38.41v.84a.13.13,0,0,1,0,.1.15.15,0,0,1-.09,0h-1.1l0,0h1.13a.18.18,0,0,0,.12,0,.18.18,0,0,0,.06-.13v-.84l0,0,0,0Z"/><path class="cls-5" d="M59.76,39.39v-1H61l0,0s0,0,0,0H59.76a0,0,0,0,0,0,0v1a0,0,0,0,0,0,0Z"/><g class="cls-6"><path class="cls-3" d="M60.38,39.25a.26.26,0,0,0,.26-.26v-.18a.27.27,0,0,0-.53,0V39A.27.27,0,0,0,60.38,39.25Zm-.22-.44a.22.22,0,0,1,.22-.22.22.22,0,0,1,.22.22V39a.22.22,0,0,1-.22.22.22.22,0,0,1-.22-.22Z"/></g><g class="cls-7"><path class="cls-3" d="M60.38,39.25a.26.26,0,0,0,.26-.26v-.18a.27.27,0,0,0-.53,0V39A.27.27,0,0,0,60.38,39.25Zm-.22-.44a.22.22,0,0,1,.22-.22.22.22,0,0,1,.22.22V39a.22.22,0,0,1-.22.22.22.22,0,0,1-.22-.22Z"/></g><path class="cls-8" d="M60.38,38.59a.22.22,0,0,1,.22.22V39a.22.22,0,0,1-.22.22.22.22,0,0,1-.22-.22v-.18a.22.22,0,0,1,.22-.22Z"/><path class="cls-3" d="M31.78,26.3h-1.1a.21.21,0,0,0-.13.05.19.19,0,0,0-.05.13v.84a0,0,0,0,0,0,0h1.24a0,0,0,0,0,0,0v-1A0,0,0,0,0,31.78,26.3Z"/><path class="cls-4" d="M30.54,27.32v-.84a.14.14,0,0,1,.14-.14h1.1l0,0H30.68a.21.21,0,0,0-.13.05.19.19,0,0,0-.05.13v.84a0,0,0,0,0,0,0l0,0Z"/><path class="cls-5" d="M31.78,26.34v1H30.54l0,0h1.27a0,0,0,0,0,0,0v-1s0,0,0,0Z"/><g class="cls-6"><path class="cls-3" d="M31.16,26.48a.26.26,0,0,0-.27.26v.18a.27.27,0,0,0,.54,0v-.18A.26.26,0,0,0,31.16,26.48Zm.22.44a.22.22,0,0,1-.44,0v-.18a.22.22,0,0,1,.44,0Z"/></g><g class="cls-7"><path class="cls-3" d="M31.16,26.48a.26.26,0,0,0-.27.26v.18a.27.27,0,0,0,.54,0v-.18A.26.26,0,0,0,31.16,26.48Zm.22.44a.22.22,0,0,1-.44,0v-.18a.22.22,0,0,1,.44,0Z"/></g><path class="cls-8" d="M31.16,27.14a.22.22,0,0,1-.22-.22v-.18a.22.22,0,0,1,.44,0v.18a.22.22,0,0,1-.22.22Z"/><path class="cls-3" d="M59.76,26.3h1.1a.18.18,0,0,1,.12.05.16.16,0,0,1,.06.13v.84a0,0,0,0,1,0,0H59.76a0,0,0,0,1,0,0v-1A0,0,0,0,1,59.76,26.3Z"/><path class="cls-4" d="M61,27.32v-.84a.13.13,0,0,0,0-.1.15.15,0,0,0-.09,0h-1.1l0,0h1.13a.18.18,0,0,1,.12.05.16.16,0,0,1,.06.13v.84l0,0,0,0Z"/><path class="cls-5" d="M59.76,26.34v1H61l0,0H59.76a0,0,0,0,1,0,0v-1a0,0,0,0,1,0,0Z"/><g class="cls-6"><path class="cls-3" d="M60.11,26.74v.18a.27.27,0,0,0,.53,0v-.18a.27.27,0,0,0-.53,0Zm0,0a.22.22,0,0,1,.22-.22.22.22,0,0,1,.22.22v.18a.22.22,0,0,1-.22.22.22.22,0,0,1-.22-.22Z"/></g><g class="cls-7"><path class="cls-3" d="M60.11,26.74v.18a.27.27,0,0,0,.53,0v-.18a.27.27,0,0,0-.53,0Zm0,0a.22.22,0,0,1,.22-.22.22.22,0,0,1,.22.22v.18a.22.22,0,0,1-.22.22.22.22,0,0,1-.22-.22Z"/></g><path class="cls-8" d="M60.38,27.14a.22.22,0,0,0,.22-.22v-.18a.22.22,0,0,0-.22-.22.22.22,0,0,0-.22.22v.18a.22.22,0,0,0,.22.22Z"/><g class="cls-9"><g class="cls-10"><rect class="cls-11" x="32.57" y="26.93" width="1.89" height="11.86"/><rect class="cls-10" x="32.57" y="26.93" width="1.89" height="11.86"/><g class="cls-10"><path d="M33.14,27.17l-.57-.24h1.87l-.57.24h-.73Z"/><path d="M33.14,27.16l-.57-.23h1.87l-.57.23h-.73Z"/><path d="M33.14,27.15l-.57-.22h1.87l-.57.22h-.73Z"/><path d="M33.14,27.14l-.57-.21h1.87l-.57.21h-.73Z"/><path d="M33.14,27.13l-.57-.2h1.87l-.57.2h-.73Z"/><path d="M33.14,27.12l-.57-.19h1.87l-.57.19h-.73Z"/><path d="M33.14,27.11l-.57-.18h1.87l-.57.18h-.73Z"/><path d="M33.14,27.1l-.57-.17h1.87l-.57.17h-.73Z"/><path d="M33.14,27.09l-.57-.16h1.87l-.57.16h-.73Z"/><path d="M33.14,27.08l-.57-.15h1.87l-.57.15h-.73Z"/><path d="M33.14,27.07l-.57-.14h1.87l-.57.14h-.73Z"/><path d="M33.14,27.06l-.57-.13h1.87l-.57.13h-.73Z"/></g><g class="cls-12"><path d="M33.14,38.55l-.57.25h1.87l-.57-.25h-.73Z"/><path d="M33.14,38.57l-.57.23h1.87l-.57-.23h-.73Z"/><path d="M33.14,38.6l-.57.2h1.87l-.57-.2h-.73Z"/><path d="M33.14,38.62l-.57.18h1.87l-.57-.18h-.73Z"/><path d="M33.14,38.64l-.57.16h1.87l-.57-.16h-.73Z"/><path d="M33.14,38.66l-.57.14h1.87l-.57-.14h-.73Z"/><path d="M33.14,38.68l-.57.12h1.87l-.57-.12h-.73Z"/><path d="M33.14,38.7l-.57.1h1.87l-.57-.1h-.73Z"/><path d="M33.14,38.72l-.57.08h1.87l-.57-.08h-.73Z"/><path d="M33.14,38.75l-.57,0h1.87l-.57,0h-.73Z"/><path d="M33.14,38.77l-.57,0h1.87l-.57,0h-.73Z"/><path d="M33.14,38.79h0Z"/></g></g><g class="cls-10"><rect class="cls-11" x="35.68" y="26.93" width="1.89" height="11.86"/><rect class="cls-10" x="35.68" y="26.93" width="1.89" height="11.86"/><g class="cls-10"><path d="M36.24,27.17l-.56-.24h1.86l-.56.24h-.74Z"/><path d="M36.24,27.16l-.56-.23h1.86l-.56.23h-.74Z"/><path d="M36.24,27.15l-.56-.22h1.86l-.56.22h-.74Z"/><path d="M36.24,27.14l-.56-.21h1.86l-.56.21h-.74Z"/><path d="M36.24,27.13l-.56-.2h1.86l-.56.2h-.74Z"/><path d="M36.24,27.12l-.56-.19h1.86l-.56.19h-.74Z"/><path d="M36.24,27.11l-.56-.18h1.86l-.56.18h-.74Z"/><path d="M36.24,27.1l-.56-.17h1.86L37,27.1h-.74Z"/><path d="M36.24,27.09l-.56-.16h1.86l-.56.16h-.74Z"/><path d="M36.24,27.08l-.56-.15h1.86l-.56.15h-.74Z"/><path d="M36.24,27.07l-.56-.14h1.86l-.56.14h-.74Z"/><path d="M36.24,27.06l-.56-.13h1.86l-.56.13h-.74Z"/></g><g class="cls-12"><path d="M36.24,38.55l-.56.25h1.86L37,38.55h-.74Z"/><path d="M36.24,38.57l-.56.23h1.86L37,38.57h-.74Z"/><path d="M36.24,38.6l-.56.2h1.86L37,38.6h-.74Z"/><path d="M36.24,38.62l-.56.18h1.86L37,38.62h-.74Z"/><path d="M36.24,38.64l-.56.16h1.86L37,38.64h-.74Z"/><path d="M36.24,38.66l-.56.14h1.86L37,38.66h-.74Z"/><path d="M36.24,38.68l-.56.12h1.86L37,38.68h-.74Z"/><path d="M36.24,38.7l-.56.1h1.86L37,38.7h-.74Z"/><path d="M36.24,38.72l-.56.08h1.86L37,38.72h-.74Z"/><path d="M36.24,38.75l-.56,0h1.86l-.56,0h-.74Z"/><path d="M36.24,38.77l-.56,0h1.86l-.56,0h-.74Z"/><path d="M36.24,38.79h0Z"/></g></g><g class="cls-10"><rect class="cls-11" x="38.78" y="26.93" width="1.89" height="11.86"/><rect class="cls-10" x="38.78" y="26.93" width="1.89" height="11.86"/><g class="cls-10"><path d="M39.35,27.17l-.57-.24h1.87l-.57.24h-.73Z"/><path d="M39.35,27.16l-.57-.23h1.87l-.57.23h-.73Z"/><path d="M39.35,27.15l-.57-.22h1.87l-.57.22h-.73Z"/><path d="M39.35,27.14l-.57-.21h1.87l-.57.21h-.73Z"/><path d="M39.35,27.13l-.57-.2h1.87l-.57.2h-.73Z"/><path d="M39.35,27.12l-.57-.19h1.87l-.57.19h-.73Z"/><path d="M39.35,27.11l-.57-.18h1.87l-.57.18h-.73Z"/><path d="M39.35,27.1l-.57-.17h1.87l-.57.17h-.73Z"/><path d="M39.35,27.09l-.57-.16h1.87l-.57.16h-.73Z"/><path d="M39.35,27.08l-.57-.15h1.87l-.57.15h-.73Z"/><path d="M39.35,27.07l-.57-.14h1.87l-.57.14h-.73Z"/><path d="M39.35,27.06l-.57-.13h1.87l-.57.13h-.73Z"/></g><g class="cls-12"><path d="M39.35,38.55l-.57.25h1.87l-.57-.25h-.73Z"/><path d="M39.35,38.57l-.57.23h1.87l-.57-.23h-.73Z"/><path d="M39.35,38.6l-.57.2h1.87l-.57-.2h-.73Z"/><path d="M39.35,38.62l-.57.18h1.87l-.57-.18h-.73Z"/><path d="M39.35,38.64l-.57.16h1.87l-.57-.16h-.73Z"/><path d="M39.35,38.66l-.57.14h1.87l-.57-.14h-.73Z"/><path d="M39.35,38.68l-.57.12h1.87l-.57-.12h-.73Z"/><path d="M39.35,38.7l-.57.1h1.87l-.57-.1h-.73Z"/><path d="M39.35,38.72l-.57.08h1.87l-.57-.08h-.73Z"/><path d="M39.35,38.75l-.57,0h1.87l-.57,0h-.73Z"/><path d="M39.35,38.77l-.57,0h1.87l-.57,0h-.73Z"/><path d="M39.35,38.79h0Z"/></g></g><g class="cls-10"><rect class="cls-11" x="41.88" y="26.93" width="1.89" height="11.86"/><rect class="cls-10" x="41.88" y="26.93" width="1.89" height="11.86"/><g class="cls-10"><path d="M42.45,27.17l-.57-.24h1.87l-.57.24h-.73Z"/><path d="M42.45,27.16l-.57-.23h1.87l-.57.23h-.73Z"/><path d="M42.45,27.15l-.57-.22h1.87l-.57.22h-.73Z"/><path d="M42.45,27.14l-.57-.21h1.87l-.57.21h-.73Z"/><path d="M42.45,27.13l-.57-.2h1.87l-.57.2h-.73Z"/><path d="M42.45,27.12l-.57-.19h1.87l-.57.19h-.73Z"/><path d="M42.45,27.11l-.57-.18h1.87l-.57.18h-.73Z"/><path d="M42.45,27.1l-.57-.17h1.87l-.57.17h-.73Z"/><path d="M42.45,27.09l-.57-.16h1.87l-.57.16h-.73Z"/><path d="M42.45,27.08l-.57-.15h1.87l-.57.15h-.73Z"/><path d="M42.45,27.07l-.57-.14h1.87l-.57.14h-.73Z"/><path d="M42.45,27.06l-.57-.13h1.87l-.57.13h-.73Z"/></g><g class="cls-12"><path d="M42.45,38.55l-.57.25h1.87l-.57-.25h-.73Z"/><path d="M42.45,38.57l-.57.23h1.87l-.57-.23h-.73Z"/><path d="M42.45,38.6l-.57.2h1.87l-.57-.2h-.73Z"/><path d="M42.45,38.62l-.57.18h1.87l-.57-.18h-.73Z"/><path d="M42.45,38.64l-.57.16h1.87l-.57-.16h-.73Z"/><path d="M42.45,38.66l-.57.14h1.87l-.57-.14h-.73Z"/><path d="M42.45,38.68l-.57.12h1.87l-.57-.12h-.73Z"/><path d="M42.45,38.7l-.57.1h1.87l-.57-.1h-.73Z"/><path d="M42.45,38.72l-.57.08h1.87l-.57-.08h-.73Z"/><path d="M42.45,38.75l-.57,0h1.87l-.57,0h-.73Z"/><path d="M42.45,38.77l-.57,0h1.87l-.57,0h-.73Z"/><path d="M42.45,38.79h0Z"/></g></g><g class="cls-10"><rect class="cls-11" x="44.98" y="26.93" width="1.89" height="11.86"/><rect class="cls-10" x="44.98" y="26.93" width="1.89" height="11.86"/><g class="cls-10"><path d="M45.55,27.17,45,26.93h1.87l-.57.24h-.73Z"/><path d="M45.55,27.16,45,26.93h1.87l-.57.23h-.73Z"/><path d="M45.55,27.15,45,26.93h1.87l-.57.22h-.73Z"/><path d="M45.55,27.14,45,26.93h1.87l-.57.21h-.73Z"/><path d="M45.55,27.13l-.57-.2h1.87l-.57.2h-.73Z"/><path d="M45.55,27.12,45,26.93h1.87l-.57.19h-.73Z"/><path d="M45.55,27.11,45,26.93h1.87l-.57.18h-.73Z"/><path d="M45.55,27.1,45,26.93h1.87l-.57.17h-.73Z"/><path d="M45.55,27.09,45,26.93h1.87l-.57.16h-.73Z"/><path d="M45.55,27.08,45,26.93h1.87l-.57.15h-.73Z"/><path d="M45.55,27.07,45,26.93h1.87l-.57.14h-.73Z"/><path d="M45.55,27.06,45,26.93h1.87l-.57.13h-.73Z"/></g><g class="cls-12"><path d="M45.55,38.55,45,38.8h1.87l-.57-.25h-.73Z"/><path d="M45.55,38.57,45,38.8h1.87l-.57-.23h-.73Z"/><path d="M45.55,38.6l-.57.2h1.87l-.57-.2h-.73Z"/><path d="M45.55,38.62,45,38.8h1.87l-.57-.18h-.73Z"/><path d="M45.55,38.64,45,38.8h1.87l-.57-.16h-.73Z"/><path d="M45.55,38.66,45,38.8h1.87l-.57-.14h-.73Z"/><path d="M45.55,38.68,45,38.8h1.87l-.57-.12h-.73Z"/><path d="M45.55,38.7l-.57.1h1.87l-.57-.1h-.73Z"/><path d="M45.55,38.72,45,38.8h1.87l-.57-.08h-.73Z"/><path d="M45.55,38.75l-.57,0h1.87l-.57,0h-.73Z"/><path d="M45.55,38.77l-.57,0h1.87l-.57,0h-.73Z"/><path d="M45.55,38.79h0Z"/></g></g><g class="cls-10"><rect class="cls-11" x="48.09" y="26.93" width="1.89" height="11.86"/><rect class="cls-10" x="48.09" y="26.93" width="1.89" height="11.86"/><g class="cls-10"><path d="M48.65,27.17l-.56-.24H50l-.56.24h-.74Z"/><path d="M48.65,27.16l-.56-.23H50l-.56.23h-.74Z"/><path d="M48.65,27.15l-.56-.22H50l-.56.22h-.74Z"/><path d="M48.65,27.14l-.56-.21H50l-.56.21h-.74Z"/><path d="M48.65,27.13l-.56-.2H50l-.56.2h-.74Z"/><path d="M48.65,27.12l-.56-.19H50l-.56.19h-.74Z"/><path d="M48.65,27.11l-.56-.18H50l-.56.18h-.74Z"/><path d="M48.65,27.1l-.56-.17H50l-.56.17h-.74Z"/><path d="M48.65,27.09l-.56-.16H50l-.56.16h-.74Z"/><path d="M48.65,27.08l-.56-.15H50l-.56.15h-.74Z"/><path d="M48.65,27.07l-.56-.14H50l-.56.14h-.74Z"/><path d="M48.65,27.06l-.56-.13H50l-.56.13h-.74Z"/></g><g class="cls-12"><path d="M48.65,38.55l-.56.25H50l-.56-.25h-.74Z"/><path d="M48.65,38.57l-.56.23H50l-.56-.23h-.74Z"/><path d="M48.65,38.6l-.56.2H50l-.56-.2h-.74Z"/><path d="M48.65,38.62l-.56.18H50l-.56-.18h-.74Z"/><path d="M48.65,38.64l-.56.16H50l-.56-.16h-.74Z"/><path d="M48.65,38.66l-.56.14H50l-.56-.14h-.74Z"/><path d="M48.65,38.68l-.56.12H50l-.56-.12h-.74Z"/><path d="M48.65,38.7l-.56.1H50l-.56-.1h-.74Z"/><path d="M48.65,38.72l-.56.08H50l-.56-.08h-.74Z"/><path d="M48.65,38.75l-.56,0H50l-.56,0h-.74Z"/><path d="M48.65,38.77l-.56,0H50l-.56,0h-.74Z"/><path d="M48.65,38.79h0Z"/></g></g><g class="cls-10"><rect class="cls-11" x="51.19" y="26.93" width="1.89" height="11.86"/><rect class="cls-10" x="51.19" y="26.93" width="1.89" height="11.86"/><g class="cls-10"><path d="M51.76,27.17l-.57-.24h1.87l-.57.24h-.73Z"/><path d="M51.76,27.16l-.57-.23h1.87l-.57.23h-.73Z"/><path d="M51.76,27.15l-.57-.22h1.87l-.57.22h-.73Z"/><path d="M51.76,27.14l-.57-.21h1.87l-.57.21h-.73Z"/><path d="M51.76,27.13l-.57-.2h1.87l-.57.2h-.73Z"/><path d="M51.76,27.12l-.57-.19h1.87l-.57.19h-.73Z"/><path d="M51.76,27.11l-.57-.18h1.87l-.57.18h-.73Z"/><path d="M51.76,27.1l-.57-.17h1.87l-.57.17h-.73Z"/><path d="M51.76,27.09l-.57-.16h1.87l-.57.16h-.73Z"/><path d="M51.76,27.08l-.57-.15h1.87l-.57.15h-.73Z"/><path d="M51.76,27.07l-.57-.14h1.87l-.57.14h-.73Z"/><path d="M51.76,27.06l-.57-.13h1.87l-.57.13h-.73Z"/></g><g class="cls-12"><path d="M51.76,38.55l-.57.25h1.87l-.57-.25h-.73Z"/><path d="M51.76,38.57l-.57.23h1.87l-.57-.23h-.73Z"/><path d="M51.76,38.6l-.57.2h1.87l-.57-.2h-.73Z"/><path d="M51.76,38.62l-.57.18h1.87l-.57-.18h-.73Z"/><path d="M51.76,38.64l-.57.16h1.87l-.57-.16h-.73Z"/><path d="M51.76,38.66l-.57.14h1.87l-.57-.14h-.73Z"/><path d="M51.76,38.68l-.57.12h1.87l-.57-.12h-.73Z"/><path d="M51.76,38.7l-.57.1h1.87l-.57-.1h-.73Z"/><path d="M51.76,38.72l-.57.08h1.87l-.57-.08h-.73Z"/><path d="M51.76,38.75l-.57,0h1.87l-.57,0h-.73Z"/><path d="M51.76,38.77l-.57,0h1.87l-.57,0h-.73Z"/><path d="M51.76,38.79h0Z"/></g></g><g class="cls-10"><rect class="cls-11" x="54.29" y="26.93" width="1.89" height="11.86"/><rect class="cls-10" x="54.29" y="26.93" width="1.89" height="11.86"/><g class="cls-10"><path d="M54.86,27.17l-.57-.24h1.87l-.57.24h-.73Z"/><path d="M54.86,27.16l-.57-.23h1.87l-.57.23h-.73Z"/><path d="M54.86,27.15l-.57-.22h1.87l-.57.22h-.73Z"/><path d="M54.86,27.14l-.57-.21h1.87l-.57.21h-.73Z"/><path d="M54.86,27.13l-.57-.2h1.87l-.57.2h-.73Z"/><path d="M54.86,27.12l-.57-.19h1.87l-.57.19h-.73Z"/><path d="M54.86,27.11l-.57-.18h1.87l-.57.18h-.73Z"/><path d="M54.86,27.1l-.57-.17h1.87l-.57.17h-.73Z"/><path d="M54.86,27.09l-.57-.16h1.87l-.57.16h-.73Z"/><path d="M54.86,27.08l-.57-.15h1.87l-.57.15h-.73Z"/><path d="M54.86,27.07l-.57-.14h1.87l-.57.14h-.73Z"/><path d="M54.86,27.06l-.57-.13h1.87l-.57.13h-.73Z"/></g><g class="cls-12"><path d="M54.86,38.55l-.57.25h1.87l-.57-.25h-.73Z"/><path d="M54.86,38.57l-.57.23h1.87l-.57-.23h-.73Z"/><path d="M54.86,38.6l-.57.2h1.87l-.57-.2h-.73Z"/><path d="M54.86,38.62l-.57.18h1.87l-.57-.18h-.73Z"/><path d="M54.86,38.64l-.57.16h1.87l-.57-.16h-.73Z"/><path d="M54.86,38.66l-.57.14h1.87l-.57-.14h-.73Z"/><path d="M54.86,38.68l-.57.12h1.87l-.57-.12h-.73Z"/><path d="M54.86,38.7l-.57.1h1.87l-.57-.1h-.73Z"/><path d="M54.86,38.72l-.57.08h1.87l-.57-.08h-.73Z"/><path d="M54.86,38.75l-.57,0h1.87l-.57,0h-.73Z"/><path d="M54.86,38.77l-.57,0h1.87l-.57,0h-.73Z"/><path d="M54.86,38.79h0Z"/></g></g><rect class="cls-10" x="57.07" y="26.93" width="1.89" height="11.86"/><rect class="cls-13" x="57.07" y="26.93" width="1.89" height="11.86"/><g class="cls-10"><path d="M57.64,27.17l-.57-.24h1.87l-.57.24h-.73Z"/><path d="M57.64,27.16l-.57-.23h1.87l-.57.23h-.73Z"/><path d="M57.64,27.15l-.57-.22h1.87l-.57.22h-.73Z"/><path d="M57.64,27.14l-.57-.21h1.87l-.57.21h-.73Z"/><path d="M57.64,27.13l-.57-.2h1.87l-.57.2h-.73Z"/><path d="M57.64,27.12l-.57-.19h1.87l-.57.19h-.73Z"/><path d="M57.64,27.11l-.57-.18h1.87l-.57.18h-.73Z"/><path d="M57.64,27.1l-.57-.17h1.87l-.57.17h-.73Z"/><path d="M57.64,27.09l-.57-.16h1.87l-.57.16h-.73Z"/><path d="M57.64,27.08l-.57-.15h1.87l-.57.15h-.73Z"/><path d="M57.64,27.07l-.57-.14h1.87l-.57.14h-.73Z"/><path d="M57.64,27.06l-.57-.13h1.87l-.57.13h-.73Z"/></g><g class="cls-12"><path d="M57.64,38.55l-.57.25h1.87l-.57-.25h-.73Z"/><path d="M57.64,38.57l-.57.23h1.87l-.57-.23h-.73Z"/><path d="M57.64,38.6l-.57.2h1.87l-.57-.2h-.73Z"/><path d="M57.64,38.62l-.57.18h1.87l-.57-.18h-.73Z"/><path d="M57.64,38.64l-.57.16h1.87l-.57-.16h-.73Z"/><path d="M57.64,38.66l-.57.14h1.87l-.57-.14h-.73Z"/><path d="M57.64,38.68l-.57.12h1.87l-.57-.12h-.73Z"/><path d="M57.64,38.7l-.57.1h1.87l-.57-.1h-.73Z"/><path d="M57.64,38.72l-.57.08h1.87l-.57-.08h-.73Z"/><path d="M57.64,38.75l-.57,0h1.87l-.57,0h-.73Z"/><path d="M57.64,38.77l-.57,0h1.87l-.57,0h-.73Z"/><path d="M57.64,38.79h0Z"/></g></g><path class="cls-14" d="M30.54,27.32v-.84a.14.14,0,0,1,.14-.14h1.1l0,0H30.68a.21.21,0,0,0-.13.05.19.19,0,0,0-.05.13v.84a0,0,0,0,0,0,0l0,0Z"/><path class="cls-15" d="M31.78,26.34v1H30.54l0,0h1.27a0,0,0,0,0,0,0v-1s0,0,0,0Z"/><path class="cls-17" d="M30.51,13.21a.11.11,0,0,0-.08,0H.11a.11.11,0,0,0-.08,0,.09.09,0,0,0,0,.07V26.2a.09.09,0,0,0,0,.07.09.09,0,0,0,.08,0H30.43a.12.12,0,0,0,.11-.11V13.28A.09.09,0,0,0,30.51,13.21Z"/><path class="cls-3" d="M1.28,26.31H.18a.18.18,0,0,1-.13-.06.18.18,0,0,1,0-.12v-.84s0-.05,0-.05H1.28s0,0,0,.05v1A0,0,0,0,1,1.28,26.31Z"/><path class="cls-4" d="M0,25.29v.84a.15.15,0,0,0,0,.09.13.13,0,0,0,.1,0h1.1l0,0,0,0H.18a.18.18,0,0,1-.13-.06.18.18,0,0,1,0-.12v-.84a0,0,0,0,1,0,0l0,0Z"/><path class="cls-5" d="M1.28,26.26v-1H0l0,0,0,0H1.28s0,0,0,.05v1Z"/><g class="cls-6"><path class="cls-3" d="M.93,25.86v-.17a.27.27,0,1,0-.54,0v.17a.27.27,0,0,0,.54,0Zm-.05,0a.22.22,0,0,1-.22.22.22.22,0,0,1-.22-.22v-.17a.22.22,0,1,1,.44,0Z"/></g><g class="cls-7"><path class="cls-3" d="M.93,25.86v-.17a.27.27,0,1,0-.54,0v.17a.27.27,0,0,0,.54,0Zm-.05,0a.22.22,0,0,1-.22.22.22.22,0,0,1-.22-.22v-.17a.22.22,0,1,1,.44,0Z"/></g><path class="cls-8" d="M.66,25.47a.22.22,0,0,0-.22.22v.17a.22.22,0,0,0,.22.22.22.22,0,0,0,.22-.22v-.17a.22.22,0,0,0-.22-.22Z"/><path class="cls-3" d="M29.26,26.31h1.1a.21.21,0,0,0,.18-.18v-.84a.05.05,0,0,0-.05-.05H29.26s0,0,0,.05v1A0,0,0,0,0,29.26,26.31Z"/><path class="cls-4" d="M30.49,25.29v.84a.14.14,0,0,1-.13.13h-1.1l0,0,0,0h1.1a.21.21,0,0,0,.18-.18v-.84l0,0,0,0Z"/><path class="cls-5" d="M29.26,26.26v-1h1.23l0,0s0,0,0,0H29.26s0,0,0,.05v1s0,0,0,0Z"/><g class="cls-6"><path class="cls-3" d="M29.88,26.13a.27.27,0,0,0,.26-.27v-.17a.27.27,0,1,0-.53,0v.17A.27.27,0,0,0,29.88,26.13Zm-.22-.44a.22.22,0,0,1,.22-.22.22.22,0,0,1,.22.22v.17a.22.22,0,0,1-.22.22.21.21,0,0,1-.22-.22Z"/></g><g class="cls-7"><path class="cls-3" d="M29.88,26.13a.27.27,0,0,0,.26-.27v-.17a.27.27,0,1,0-.53,0v.17A.27.27,0,0,0,29.88,26.13Zm-.22-.44a.22.22,0,0,1,.22-.22.22.22,0,0,1,.22.22v.17a.22.22,0,0,1-.22.22.21.21,0,0,1-.22-.22Z"/></g><path class="cls-8" d="M29.88,25.47a.22.22,0,0,1,.22.22v.17a.22.22,0,0,1-.22.22.21.21,0,0,1-.22-.22v-.17a.22.22,0,0,1,.22-.22Z"/><path class="cls-3" d="M1.28,13.18H.18a.17.17,0,0,0-.13.05.18.18,0,0,0,0,.12v.84a0,0,0,0,0,0,.05H1.28a0,0,0,0,0,0-.05v-1A0,0,0,0,0,1.28,13.18Z"/><path class="cls-4" d="M0,14.19v-.84a.15.15,0,0,1,0-.09.13.13,0,0,1,.1,0h1.1l0,0H.18a.17.17,0,0,0-.13.05.18.18,0,0,0,0,.12v.84s0,0,0,0l0,0Z"/><path class="cls-5" d="M1.28,13.22v1H0l0,0,0,0H1.28a0,0,0,0,0,0-.05v-1Z"/><g class="cls-6"><path class="cls-3" d="M.66,13.35a.27.27,0,0,0-.27.27v.17a.27.27,0,1,0,.54,0v-.17A.27.27,0,0,0,.66,13.35Zm.22.44A.22.22,0,0,1,.66,14a.22.22,0,0,1-.22-.22v-.17a.22.22,0,0,1,.22-.22.22.22,0,0,1,.22.22Z"/></g><g class="cls-7"><path class="cls-3" d="M.66,13.35a.27.27,0,0,0-.27.27v.17a.27.27,0,1,0,.54,0v-.17A.27.27,0,0,0,.66,13.35Zm.22.44A.22.22,0,0,1,.66,14a.22.22,0,0,1-.22-.22v-.17a.22.22,0,0,1,.22-.22.22.22,0,0,1,.22.22Z"/></g><path class="cls-8" d="M.66,14a.22.22,0,0,1-.22-.22v-.17a.22.22,0,0,1,.22-.22.22.22,0,0,1,.22.22v.17A.22.22,0,0,1,.66,14Z"/><path class="cls-3" d="M29.26,13.18h1.1a.15.15,0,0,1,.12.05.16.16,0,0,1,.06.12v.84a0,0,0,0,1-.05.05H29.26a0,0,0,0,1,0-.05v-1A0,0,0,0,1,29.26,13.18Z"/><path class="cls-4" d="M30.49,14.19v-.84a.14.14,0,0,0-.13-.13h-1.1l0,0h1.13a.15.15,0,0,1,.12.05.16.16,0,0,1,.06.12v.84s0,0,0,0l0,0Z"/><path class="cls-5" d="M29.26,13.22v1h1.23l0,0,0,0H29.26a0,0,0,0,1,0-.05v-1a0,0,0,0,1,0,0Z"/><g class="cls-6"><path class="cls-3" d="M29.61,13.62v.17a.27.27,0,1,0,.53,0v-.17a.27.27,0,1,0-.53,0Zm.05,0a.21.21,0,0,1,.22-.22.22.22,0,0,1,.22.22v.17a.22.22,0,0,1-.22.22.21.21,0,0,1-.22-.22Z"/></g><g class="cls-7"><path class="cls-3" d="M29.61,13.62v.17a.27.27,0,1,0,.53,0v-.17a.27.27,0,1,0-.53,0Zm.05,0a.21.21,0,0,1,.22-.22.22.22,0,0,1,.22.22v.17a.22.22,0,0,1-.22.22.21.21,0,0,1-.22-.22Z"/></g><path class="cls-8" d="M29.88,14a.22.22,0,0,0,.22-.22v-.17a.22.22,0,0,0-.22-.22.21.21,0,0,0-.22.22v.17a.21.21,0,0,0,.22.22Z"/><g class="cls-9"><g class="cls-10"><rect class="cls-11" x="2.07" y="13.81" width="1.89" height="11.86"/><rect class="cls-10" x="2.07" y="13.81" width="1.89" height="11.86"/><g class="cls-10"><path d="M2.64,14.05l-.57-.24H3.94l-.57.24H2.64Z"/><path d="M2.64,14l-.57-.23H3.94L3.37,14H2.64Z"/><path d="M2.64,14l-.57-.22H3.94L3.37,14H2.64Z"/><path d="M2.64,14l-.57-.21H3.94L3.37,14H2.64Z"/><path d="M2.64,14l-.57-.2H3.94l-.57.2H2.64Z"/><path d="M2.64,14l-.57-.19H3.94L3.37,14H2.64Z"/><path d="M2.64,14l-.57-.18H3.94L3.37,14H2.64Z"/><path d="M2.64,14l-.57-.17H3.94L3.37,14H2.64Z"/><path d="M2.64,14l-.57-.16H3.94L3.37,14H2.64Z"/><path d="M2.64,14l-.57-.15H3.94L3.37,14H2.64Z"/><path d="M2.64,14l-.57-.14H3.94L3.37,14H2.64Z"/><path d="M2.64,13.93l-.57-.12H3.94l-.57.12H2.64Z"/></g><g class="cls-12"><path d="M2.64,25.43l-.57.24H3.94l-.57-.24H2.64Z"/><path d="M2.64,25.45l-.57.22H3.94l-.57-.22H2.64Z"/><path d="M2.64,25.47l-.57.2H3.94l-.57-.2H2.64Z"/><path d="M2.64,25.49l-.57.18H3.94l-.57-.18H2.64Z"/><path d="M2.64,25.51l-.57.16H3.94l-.57-.16H2.64Z"/><path d="M2.64,25.54l-.57.13H3.94l-.57-.13H2.64Z"/><path d="M2.64,25.56l-.57.11H3.94l-.57-.11H2.64Z"/><path d="M2.64,25.58l-.57.09H3.94l-.57-.09H2.64Z"/><path d="M2.64,25.6l-.57.07H3.94l-.57-.07H2.64Z"/><path d="M2.64,25.62l-.57.05H3.94l-.57-.05H2.64Z"/><path d="M2.64,25.64l-.57,0H3.94l-.57,0H2.64Z"/><path d="M2.64,25.66h0Z"/></g></g><g class="cls-10"><rect class="cls-11" x="5.18" y="13.81" width="1.89" height="11.86"/><rect class="cls-10" x="5.18" y="13.81" width="1.89" height="11.86"/><g class="cls-10"><path d="M5.74,14.05l-.56-.24H7l-.56.24H5.74Z"/><path d="M5.74,14l-.56-.23H7L6.48,14H5.74Z"/><path d="M5.74,14l-.56-.22H7L6.48,14H5.74Z"/><path d="M5.74,14l-.56-.21H7L6.48,14H5.74Z"/><path d="M5.74,14l-.56-.2H7l-.56.2H5.74Z"/><path d="M5.74,14l-.56-.19H7L6.48,14H5.74Z"/><path d="M5.74,14l-.56-.18H7L6.48,14H5.74Z"/><path d="M5.74,14l-.56-.17H7L6.48,14H5.74Z"/><path d="M5.74,14l-.56-.16H7L6.48,14H5.74Z"/><path d="M5.74,14l-.56-.15H7L6.48,14H5.74Z"/><path d="M5.74,14l-.56-.14H7L6.48,14H5.74Z"/><path d="M5.74,13.93l-.56-.12H7l-.56.12H5.74Z"/></g><g class="cls-12"><path d="M5.74,25.43l-.56.24H7l-.56-.24H5.74Z"/><path d="M5.74,25.45l-.56.22H7l-.56-.22H5.74Z"/><path d="M5.74,25.47l-.56.2H7l-.56-.2H5.74Z"/><path d="M5.74,25.49l-.56.18H7l-.56-.18H5.74Z"/><path d="M5.74,25.51l-.56.16H7l-.56-.16H5.74Z"/><path d="M5.74,25.54l-.56.13H7l-.56-.13H5.74Z"/><path d="M5.74,25.56l-.56.11H7l-.56-.11H5.74Z"/><path d="M5.74,25.58l-.56.09H7l-.56-.09H5.74Z"/><path d="M5.74,25.6l-.56.07H7l-.56-.07H5.74Z"/><path d="M5.74,25.62l-.56.05H7l-.56-.05H5.74Z"/><path d="M5.74,25.64l-.56,0H7l-.56,0H5.74Z"/><path d="M5.74,25.66h0Z"/></g></g><g class="cls-10"><rect class="cls-11" x="8.28" y="13.81" width="1.89" height="11.86"/><rect class="cls-10" x="8.28" y="13.81" width="1.89" height="11.86"/><g class="cls-10"><path d="M8.85,14.05l-.57-.24h1.87l-.57.24H8.85Z"/><path d="M8.85,14l-.57-.23h1.87L9.58,14H8.85Z"/><path d="M8.85,14l-.57-.22h1.87L9.58,14H8.85Z"/><path d="M8.85,14l-.57-.21h1.87L9.58,14H8.85Z"/><path d="M8.85,14l-.57-.2h1.87l-.57.2H8.85Z"/><path d="M8.85,14l-.57-.19h1.87L9.58,14H8.85Z"/><path d="M8.85,14l-.57-.18h1.87L9.58,14H8.85Z"/><path d="M8.85,14l-.57-.17h1.87L9.58,14H8.85Z"/><path d="M8.85,14l-.57-.16h1.87L9.58,14H8.85Z"/><path d="M8.85,14l-.57-.15h1.87L9.58,14H8.85Z"/><path d="M8.85,14l-.57-.14h1.87L9.58,14H8.85Z"/><path d="M8.85,13.93l-.57-.12h1.87l-.57.12H8.85Z"/></g><g class="cls-12"><path d="M8.85,25.43l-.57.24h1.87l-.57-.24H8.85Z"/><path d="M8.85,25.45l-.57.22h1.87l-.57-.22H8.85Z"/><path d="M8.85,25.47l-.57.2h1.87l-.57-.2H8.85Z"/><path d="M8.85,25.49l-.57.18h1.87l-.57-.18H8.85Z"/><path d="M8.85,25.51l-.57.16h1.87l-.57-.16H8.85Z"/><path d="M8.85,25.54l-.57.13h1.87l-.57-.13H8.85Z"/><path d="M8.85,25.56l-.57.11h1.87l-.57-.11H8.85Z"/><path d="M8.85,25.58l-.57.09h1.87l-.57-.09H8.85Z"/><path d="M8.85,25.6l-.57.07h1.87l-.57-.07H8.85Z"/><path d="M8.85,25.62l-.57.05h1.87l-.57-.05H8.85Z"/><path d="M8.85,25.64l-.57,0h1.87l-.57,0H8.85Z"/><path d="M8.85,25.66h0Z"/></g></g><g class="cls-10"><rect class="cls-11" x="11.38" y="13.81" width="1.89" height="11.86"/><rect class="cls-10" x="11.38" y="13.81" width="1.89" height="11.86"/><g class="cls-10"><path d="M12,14.05l-.57-.24h1.87l-.57.24H12Z"/><path d="M12,14l-.57-.23h1.87l-.57.23H12Z"/><path d="M12,14l-.57-.22h1.87l-.57.22H12Z"/><path d="M12,14l-.57-.21h1.87l-.57.21H12Z"/><path d="M12,14l-.57-.2h1.87l-.57.2H12Z"/><path d="M12,14l-.57-.19h1.87l-.57.19H12Z"/><path d="M12,14l-.57-.18h1.87l-.57.18H12Z"/><path d="M12,14l-.57-.17h1.87l-.57.17H12Z"/><path d="M12,14l-.57-.16h1.87l-.57.16H12Z"/><path d="M12,14l-.57-.15h1.87l-.57.15H12Z"/><path d="M12,14l-.57-.14h1.87l-.57.14H12Z"/><path d="M12,13.93l-.57-.12h1.87l-.57.12H12Z"/></g><g class="cls-12"><path d="M12,25.43l-.57.24h1.87l-.57-.24H12Z"/><path d="M12,25.45l-.57.22h1.87l-.57-.22H12Z"/><path d="M12,25.47l-.57.2h1.87l-.57-.2H12Z"/><path d="M12,25.49l-.57.18h1.87l-.57-.18H12Z"/><path d="M12,25.51l-.57.16h1.87l-.57-.16H12Z"/><path d="M12,25.54l-.57.13h1.87l-.57-.13H12Z"/><path d="M12,25.56l-.57.11h1.87l-.57-.11H12Z"/><path d="M12,25.58l-.57.09h1.87l-.57-.09H12Z"/><path d="M12,25.6l-.57.07h1.87l-.57-.07H12Z"/><path d="M12,25.62l-.57.05h1.87l-.57-.05H12Z"/><path d="M12,25.64l-.57,0h1.87l-.57,0H12Z"/><path d="M12,25.66h0Z"/></g></g><g class="cls-10"><rect class="cls-11" x="14.48" y="13.81" width="1.89" height="11.86"/><rect class="cls-10" x="14.48" y="13.81" width="1.89" height="11.86"/><g class="cls-10"><path d="M15.05,14.05l-.57-.24h1.87l-.57.24h-.73Z"/><path d="M15.05,14l-.57-.23h1.87l-.57.23h-.73Z"/><path d="M15.05,14l-.57-.22h1.87l-.57.22h-.73Z"/><path d="M15.05,14l-.57-.21h1.87l-.57.21h-.73Z"/><path d="M15.05,14l-.57-.2h1.87l-.57.2h-.73Z"/><path d="M15.05,14l-.57-.19h1.87l-.57.19h-.73Z"/><path d="M15.05,14l-.57-.18h1.87l-.57.18h-.73Z"/><path d="M15.05,14l-.57-.17h1.87l-.57.17h-.73Z"/><path d="M15.05,14l-.57-.16h1.87l-.57.16h-.73Z"/><path d="M15.05,14l-.57-.15h1.87l-.57.15h-.73Z"/><path d="M15.05,14l-.57-.14h1.87l-.57.14h-.73Z"/><path d="M15.05,13.93l-.57-.12h1.87l-.57.12h-.73Z"/></g><g class="cls-12"><path d="M15.05,25.43l-.57.24h1.87l-.57-.24h-.73Z"/><path d="M15.05,25.45l-.57.22h1.87l-.57-.22h-.73Z"/><path d="M15.05,25.47l-.57.2h1.87l-.57-.2h-.73Z"/><path d="M15.05,25.49l-.57.18h1.87l-.57-.18h-.73Z"/><path d="M15.05,25.51l-.57.16h1.87l-.57-.16h-.73Z"/><path d="M15.05,25.54l-.57.13h1.87l-.57-.13h-.73Z"/><path d="M15.05,25.56l-.57.11h1.87l-.57-.11h-.73Z"/><path d="M15.05,25.58l-.57.09h1.87l-.57-.09h-.73Z"/><path d="M15.05,25.6l-.57.07h1.87l-.57-.07h-.73Z"/><path d="M15.05,25.62l-.57.05h1.87l-.57-.05h-.73Z"/><path d="M15.05,25.64l-.57,0h1.87l-.57,0h-.73Z"/><path d="M15.05,25.66h0Z"/></g></g><g class="cls-10"><rect class="cls-11" x="17.59" y="13.81" width="1.89" height="11.86"/><rect class="cls-10" x="17.59" y="13.81" width="1.89" height="11.86"/><g class="cls-10"><path d="M18.15,14.05l-.56-.24h1.86l-.56.24h-.74Z"/><path d="M18.15,14l-.56-.23h1.86l-.56.23h-.74Z"/><path d="M18.15,14l-.56-.22h1.86l-.56.22h-.74Z"/><path d="M18.15,14l-.56-.21h1.86l-.56.21h-.74Z"/><path d="M18.15,14l-.56-.2h1.86l-.56.2h-.74Z"/><path d="M18.15,14l-.56-.19h1.86l-.56.19h-.74Z"/><path d="M18.15,14l-.56-.18h1.86l-.56.18h-.74Z"/><path d="M18.15,14l-.56-.17h1.86l-.56.17h-.74Z"/><path d="M18.15,14l-.56-.16h1.86l-.56.16h-.74Z"/><path d="M18.15,14l-.56-.15h1.86l-.56.15h-.74Z"/><path d="M18.15,14l-.56-.14h1.86l-.56.14h-.74Z"/><path d="M18.15,13.93l-.56-.12h1.86l-.56.12h-.74Z"/></g><g class="cls-12"><path d="M18.15,25.43l-.56.24h1.86l-.56-.24h-.74Z"/><path d="M18.15,25.45l-.56.22h1.86l-.56-.22h-.74Z"/><path d="M18.15,25.47l-.56.2h1.86l-.56-.2h-.74Z"/><path d="M18.15,25.49l-.56.18h1.86l-.56-.18h-.74Z"/><path d="M18.15,25.51l-.56.16h1.86l-.56-.16h-.74Z"/><path d="M18.15,25.54l-.56.13h1.86l-.56-.13h-.74Z"/><path d="M18.15,25.56l-.56.11h1.86l-.56-.11h-.74Z"/><path d="M18.15,25.58l-.56.09h1.86l-.56-.09h-.74Z"/><path d="M18.15,25.6l-.56.07h1.86l-.56-.07h-.74Z"/><path d="M18.15,25.62l-.56.05h1.86l-.56-.05h-.74Z"/><path d="M18.15,25.64l-.56,0h1.86l-.56,0h-.74Z"/><path d="M18.15,25.66h0Z"/></g></g><g class="cls-10"><rect class="cls-11" x="20.69" y="13.81" width="1.89" height="11.86"/><rect class="cls-10" x="20.69" y="13.81" width="1.89" height="11.86"/><g class="cls-10"><path d="M21.26,14.05l-.57-.24h1.87l-.57.24h-.73Z"/><path d="M21.26,14l-.57-.23h1.87L22,14h-.73Z"/><path d="M21.26,14l-.57-.22h1.87L22,14h-.73Z"/><path d="M21.26,14l-.57-.21h1.87L22,14h-.73Z"/><path d="M21.26,14l-.57-.2h1.87L22,14h-.73Z"/><path d="M21.26,14l-.57-.19h1.87L22,14h-.73Z"/><path d="M21.26,14l-.57-.18h1.87L22,14h-.73Z"/><path d="M21.26,14l-.57-.17h1.87L22,14h-.73Z"/><path d="M21.26,14l-.57-.16h1.87L22,14h-.73Z"/><path d="M21.26,14l-.57-.15h1.87L22,14h-.73Z"/><path d="M21.26,14l-.57-.14h1.87L22,14h-.73Z"/><path d="M21.26,13.93l-.57-.12h1.87l-.57.12h-.73Z"/></g><g class="cls-12"><path d="M21.26,25.43l-.57.24h1.87L22,25.43h-.73Z"/><path d="M21.26,25.45l-.57.22h1.87L22,25.45h-.73Z"/><path d="M21.26,25.47l-.57.2h1.87l-.57-.2h-.73Z"/><path d="M21.26,25.49l-.57.18h1.87L22,25.49h-.73Z"/><path d="M21.26,25.51l-.57.16h1.87L22,25.51h-.73Z"/><path d="M21.26,25.54l-.57.13h1.87L22,25.54h-.73Z"/><path d="M21.26,25.56l-.57.11h1.87L22,25.56h-.73Z"/><path d="M21.26,25.58l-.57.09h1.87L22,25.58h-.73Z"/><path d="M21.26,25.6l-.57.07h1.87L22,25.6h-.73Z"/><path d="M21.26,25.62l-.57.05h1.87L22,25.62h-.73Z"/><path d="M21.26,25.64l-.57,0h1.87l-.57,0h-.73Z"/><path d="M21.26,25.66h0Z"/></g></g><g class="cls-10"><rect class="cls-11" x="23.79" y="13.81" width="1.89" height="11.86"/><rect class="cls-10" x="23.79" y="13.81" width="1.89" height="11.86"/><g class="cls-10"><path d="M24.36,14.05l-.57-.24h1.87l-.57.24h-.73Z"/><path d="M24.36,14l-.57-.23h1.87l-.57.23h-.73Z"/><path d="M24.36,14l-.57-.22h1.87l-.57.22h-.73Z"/><path d="M24.36,14l-.57-.21h1.87l-.57.21h-.73Z"/><path d="M24.36,14l-.57-.2h1.87l-.57.2h-.73Z"/><path d="M24.36,14l-.57-.19h1.87l-.57.19h-.73Z"/><path d="M24.36,14l-.57-.18h1.87l-.57.18h-.73Z"/><path d="M24.36,14l-.57-.17h1.87l-.57.17h-.73Z"/><path d="M24.36,14l-.57-.16h1.87l-.57.16h-.73Z"/><path d="M24.36,14l-.57-.15h1.87l-.57.15h-.73Z"/><path d="M24.36,14l-.57-.14h1.87l-.57.14h-.73Z"/><path d="M24.36,13.93l-.57-.12h1.87l-.57.12h-.73Z"/></g><g class="cls-12"><path d="M24.36,25.43l-.57.24h1.87l-.57-.24h-.73Z"/><path d="M24.36,25.45l-.57.22h1.87l-.57-.22h-.73Z"/><path d="M24.36,25.47l-.57.2h1.87l-.57-.2h-.73Z"/><path d="M24.36,25.49l-.57.18h1.87l-.57-.18h-.73Z"/><path d="M24.36,25.51l-.57.16h1.87l-.57-.16h-.73Z"/><path d="M24.36,25.54l-.57.13h1.87l-.57-.13h-.73Z"/><path d="M24.36,25.56l-.57.11h1.87l-.57-.11h-.73Z"/><path d="M24.36,25.58l-.57.09h1.87l-.57-.09h-.73Z"/><path d="M24.36,25.6l-.57.07h1.87l-.57-.07h-.73Z"/><path d="M24.36,25.62l-.57.05h1.87l-.57-.05h-.73Z"/><path d="M24.36,25.64l-.57,0h1.87l-.57,0h-.73Z"/><path d="M24.36,25.66h0Z"/></g></g><rect class="cls-10" x="26.57" y="13.81" width="1.89" height="11.86"/><rect class="cls-13" x="26.57" y="13.81" width="1.89" height="11.86"/><g class="cls-10"><path d="M27.14,14.05l-.57-.24h1.87l-.57.24h-.73Z"/><path d="M27.14,14l-.57-.23h1.87l-.57.23h-.73Z"/><path d="M27.14,14l-.57-.22h1.87l-.57.22h-.73Z"/><path d="M27.14,14l-.57-.21h1.87l-.57.21h-.73Z"/><path d="M27.14,14l-.57-.2h1.87l-.57.2h-.73Z"/><path d="M27.14,14l-.57-.19h1.87l-.57.19h-.73Z"/><path d="M27.14,14l-.57-.18h1.87l-.57.18h-.73Z"/><path d="M27.14,14l-.57-.17h1.87l-.57.17h-.73Z"/><path d="M27.14,14l-.57-.16h1.87l-.57.16h-.73Z"/><path d="M27.14,14l-.57-.15h1.87l-.57.15h-.73Z"/><path d="M27.14,14l-.57-.14h1.87l-.57.14h-.73Z"/><path d="M27.14,13.93l-.57-.12h1.87l-.57.12h-.73Z"/></g><g class="cls-12"><path d="M27.14,25.43l-.57.24h1.87l-.57-.24h-.73Z"/><path d="M27.14,25.45l-.57.22h1.87l-.57-.22h-.73Z"/><path d="M27.14,25.47l-.57.2h1.87l-.57-.2h-.73Z"/><path d="M27.14,25.49l-.57.18h1.87l-.57-.18h-.73Z"/><path d="M27.14,25.51l-.57.16h1.87l-.57-.16h-.73Z"/><path d="M27.14,25.54l-.57.13h1.87l-.57-.13h-.73Z"/><path d="M27.14,25.56l-.57.11h1.87l-.57-.11h-.73Z"/><path d="M27.14,25.58l-.57.09h1.87l-.57-.09h-.73Z"/><path d="M27.14,25.6l-.57.07h1.87l-.57-.07h-.73Z"/><path d="M27.14,25.62l-.57.05h1.87l-.57-.05h-.73Z"/><path d="M27.14,25.64l-.57,0h1.87l-.57,0h-.73Z"/><path d="M27.14,25.66h0Z"/></g></g><path class="cls-14" d="M0,14.19v-.84a.15.15,0,0,1,0-.09.13.13,0,0,1,.1,0h1.1l0,0H.18a.17.17,0,0,0-.13.05.18.18,0,0,0,0,.12v.84s0,0,0,0l0,0Z"/><path class="cls-15" d="M1.28,13.22v1H0l0,0,0,0H1.28a0,0,0,0,0,0-.05v-1Z"/><path class="cls-18" d="M61,13.21a.11.11,0,0,0-.08,0H30.61a.11.11,0,0,0-.08,0,.09.09,0,0,0,0,.07V26.2a.12.12,0,0,0,.11.11H60.93A.12.12,0,0,0,61,26.2V13.28A.09.09,0,0,0,61,13.21Z"/><path class="cls-3" d="M31.78,26.31h-1.1a.18.18,0,0,1-.13-.06.18.18,0,0,1-.05-.12v-.84s0-.05,0-.05h1.24s0,0,0,.05v1A0,0,0,0,1,31.78,26.31Z"/><path class="cls-4" d="M30.54,25.29v.84a.15.15,0,0,0,0,.09.13.13,0,0,0,.1,0h1.1l0,0,0,0h-1.1a.18.18,0,0,1-.13-.06.18.18,0,0,1-.05-.12v-.84a0,0,0,0,1,0,0l0,0Z"/><path class="cls-5" d="M31.78,26.26v-1H30.54l0,0,0,0h1.24s0,0,0,.05v1Z"/><g class="cls-6"><path class="cls-3" d="M31.43,25.86v-.17a.27.27,0,0,0-.54,0v.17a.27.27,0,0,0,.54,0Zm-.05,0a.22.22,0,0,1-.44,0v-.17a.22.22,0,1,1,.44,0Z"/></g><g class="cls-7"><path class="cls-3" d="M31.43,25.86v-.17a.27.27,0,0,0-.54,0v.17a.27.27,0,0,0,.54,0Zm-.05,0a.22.22,0,0,1-.44,0v-.17a.22.22,0,1,1,.44,0Z"/></g><path class="cls-8" d="M31.16,25.47a.22.22,0,0,0-.22.22v.17a.22.22,0,0,0,.44,0v-.17a.22.22,0,0,0-.22-.22Z"/><path class="cls-3" d="M59.76,26.31h1.1a.21.21,0,0,0,.18-.18v-.84a.05.05,0,0,0,0-.05H59.76s0,0,0,.05v1A0,0,0,0,0,59.76,26.31Z"/><path class="cls-4" d="M61,25.29v.84a.14.14,0,0,1-.13.13h-1.1l0,0,0,0h1.1a.21.21,0,0,0,.18-.18v-.84l0,0,0,0Z"/><path class="cls-5" d="M59.76,26.26v-1H61l0,0s0,0,0,0H59.76s0,0,0,.05v1s0,0,0,0Z"/><g class="cls-6"><path class="cls-3" d="M60.38,26.13a.27.27,0,0,0,.26-.27v-.17a.27.27,0,1,0-.53,0v.17A.27.27,0,0,0,60.38,26.13Zm-.22-.44a.22.22,0,0,1,.22-.22.22.22,0,0,1,.22.22v.17a.22.22,0,0,1-.22.22.21.21,0,0,1-.22-.22Z"/></g><g class="cls-7"><path class="cls-3" d="M60.38,26.13a.27.27,0,0,0,.26-.27v-.17a.27.27,0,1,0-.53,0v.17A.27.27,0,0,0,60.38,26.13Zm-.22-.44a.22.22,0,0,1,.22-.22.22.22,0,0,1,.22.22v.17a.22.22,0,0,1-.22.22.21.21,0,0,1-.22-.22Z"/></g><path class="cls-8" d="M60.38,25.47a.22.22,0,0,1,.22.22v.17a.22.22,0,0,1-.22.22.21.21,0,0,1-.22-.22v-.17a.22.22,0,0,1,.22-.22Z"/><path class="cls-3" d="M31.78,13.18h-1.1a.17.17,0,0,0-.13.05.18.18,0,0,0-.05.12v.84a0,0,0,0,0,0,.05h1.24a0,0,0,0,0,0-.05v-1A0,0,0,0,0,31.78,13.18Z"/><path class="cls-4" d="M30.54,14.19v-.84a.15.15,0,0,1,0-.09.13.13,0,0,1,.1,0h1.1l0,0H30.68a.17.17,0,0,0-.13.05.18.18,0,0,0-.05.12v.84s0,0,0,0l0,0Z"/><path class="cls-5" d="M31.78,13.22v1H30.54l0,0,0,0h1.24a0,0,0,0,0,0-.05v-1Z"/><g class="cls-6"><path class="cls-3" d="M31.16,13.35a.27.27,0,0,0-.27.27v.17a.27.27,0,1,0,.54,0v-.17A.27.27,0,0,0,31.16,13.35Zm.22.44a.22.22,0,0,1-.44,0v-.17a.22.22,0,0,1,.44,0Z"/></g><g class="cls-7"><path class="cls-3" d="M31.16,13.35a.27.27,0,0,0-.27.27v.17a.27.27,0,1,0,.54,0v-.17A.27.27,0,0,0,31.16,13.35Zm.22.44a.22.22,0,0,1-.44,0v-.17a.22.22,0,0,1,.44,0Z"/></g><path class="cls-8" d="M31.16,14a.22.22,0,0,1-.22-.22v-.17a.22.22,0,0,1,.44,0v.17a.22.22,0,0,1-.22.22Z"/><path class="cls-3" d="M59.76,13.18h1.1a.15.15,0,0,1,.12.05.16.16,0,0,1,.06.12v.84a0,0,0,0,1,0,.05H59.76a0,0,0,0,1,0-.05v-1A0,0,0,0,1,59.76,13.18Z"/><path class="cls-4" d="M61,14.19v-.84a.14.14,0,0,0-.13-.13h-1.1l0,0h1.13a.15.15,0,0,1,.12.05.16.16,0,0,1,.06.12v.84s0,0,0,0l0,0Z"/><path class="cls-5" d="M59.76,13.22v1H61l0,0,0,0H59.76a0,0,0,0,1,0-.05v-1a0,0,0,0,1,0,0Z"/><g class="cls-6"><path class="cls-3" d="M60.11,13.62v.17a.27.27,0,1,0,.53,0v-.17a.27.27,0,1,0-.53,0Zm0,0a.21.21,0,0,1,.22-.22.22.22,0,0,1,.22.22v.17a.22.22,0,0,1-.22.22.21.21,0,0,1-.22-.22Z"/></g><g class="cls-7"><path class="cls-3" d="M60.11,13.62v.17a.27.27,0,1,0,.53,0v-.17a.27.27,0,1,0-.53,0Zm0,0a.21.21,0,0,1,.22-.22.22.22,0,0,1,.22.22v.17a.22.22,0,0,1-.22.22.21.21,0,0,1-.22-.22Z"/></g><path class="cls-8" d="M60.38,14a.22.22,0,0,0,.22-.22v-.17a.22.22,0,0,0-.22-.22.21.21,0,0,0-.22.22v.17a.21.21,0,0,0,.22.22Z"/><g class="cls-9"><g class="cls-10"><rect class="cls-11" x="32.57" y="13.81" width="1.89" height="11.86"/><rect class="cls-10" x="32.57" y="13.81" width="1.89" height="11.86"/><g class="cls-10"><path d="M33.14,14.05l-.57-.24h1.87l-.57.24h-.73Z"/><path d="M33.14,14l-.57-.23h1.87l-.57.23h-.73Z"/><path d="M33.14,14l-.57-.22h1.87l-.57.22h-.73Z"/><path d="M33.14,14l-.57-.21h1.87l-.57.21h-.73Z"/><path d="M33.14,14l-.57-.2h1.87l-.57.2h-.73Z"/><path d="M33.14,14l-.57-.19h1.87l-.57.19h-.73Z"/><path d="M33.14,14l-.57-.18h1.87l-.57.18h-.73Z"/><path d="M33.14,14l-.57-.17h1.87l-.57.17h-.73Z"/><path d="M33.14,14l-.57-.16h1.87l-.57.16h-.73Z"/><path d="M33.14,14l-.57-.15h1.87l-.57.15h-.73Z"/><path d="M33.14,14l-.57-.14h1.87l-.57.14h-.73Z"/><path d="M33.14,13.93l-.57-.12h1.87l-.57.12h-.73Z"/></g><g class="cls-12"><path d="M33.14,25.43l-.57.24h1.87l-.57-.24h-.73Z"/><path d="M33.14,25.45l-.57.22h1.87l-.57-.22h-.73Z"/><path d="M33.14,25.47l-.57.2h1.87l-.57-.2h-.73Z"/><path d="M33.14,25.49l-.57.18h1.87l-.57-.18h-.73Z"/><path d="M33.14,25.51l-.57.16h1.87l-.57-.16h-.73Z"/><path d="M33.14,25.54l-.57.13h1.87l-.57-.13h-.73Z"/><path d="M33.14,25.56l-.57.11h1.87l-.57-.11h-.73Z"/><path d="M33.14,25.58l-.57.09h1.87l-.57-.09h-.73Z"/><path d="M33.14,25.6l-.57.07h1.87l-.57-.07h-.73Z"/><path d="M33.14,25.62l-.57.05h1.87l-.57-.05h-.73Z"/><path d="M33.14,25.64l-.57,0h1.87l-.57,0h-.73Z"/><path d="M33.14,25.66h0Z"/></g></g><g class="cls-10"><rect class="cls-11" x="35.68" y="13.81" width="1.89" height="11.86"/><rect class="cls-10" x="35.68" y="13.81" width="1.89" height="11.86"/><g class="cls-10"><path d="M36.24,14.05l-.56-.24h1.86l-.56.24h-.74Z"/><path d="M36.24,14l-.56-.23h1.86L37,14h-.74Z"/><path d="M36.24,14l-.56-.22h1.86L37,14h-.74Z"/><path d="M36.24,14l-.56-.21h1.86L37,14h-.74Z"/><path d="M36.24,14l-.56-.2h1.86L37,14h-.74Z"/><path d="M36.24,14l-.56-.19h1.86L37,14h-.74Z"/><path d="M36.24,14l-.56-.18h1.86L37,14h-.74Z"/><path d="M36.24,14l-.56-.17h1.86L37,14h-.74Z"/><path d="M36.24,14l-.56-.16h1.86L37,14h-.74Z"/><path d="M36.24,14l-.56-.15h1.86L37,14h-.74Z"/><path d="M36.24,14l-.56-.14h1.86L37,14h-.74Z"/><path d="M36.24,13.93l-.56-.12h1.86l-.56.12h-.74Z"/></g><g class="cls-12"><path d="M36.24,25.43l-.56.24h1.86L37,25.43h-.74Z"/><path d="M36.24,25.45l-.56.22h1.86L37,25.45h-.74Z"/><path d="M36.24,25.47l-.56.2h1.86l-.56-.2h-.74Z"/><path d="M36.24,25.49l-.56.18h1.86L37,25.49h-.74Z"/><path d="M36.24,25.51l-.56.16h1.86L37,25.51h-.74Z"/><path d="M36.24,25.54l-.56.13h1.86L37,25.54h-.74Z"/><path d="M36.24,25.56l-.56.11h1.86L37,25.56h-.74Z"/><path d="M36.24,25.58l-.56.09h1.86L37,25.58h-.74Z"/><path d="M36.24,25.6l-.56.07h1.86L37,25.6h-.74Z"/><path d="M36.24,25.62l-.56.05h1.86L37,25.62h-.74Z"/><path d="M36.24,25.64l-.56,0h1.86l-.56,0h-.74Z"/><path d="M36.24,25.66h0Z"/></g></g><g class="cls-10"><rect class="cls-11" x="38.78" y="13.81" width="1.89" height="11.86"/><rect class="cls-10" x="38.78" y="13.81" width="1.89" height="11.86"/><g class="cls-10"><path d="M39.35,14.05l-.57-.24h1.87l-.57.24h-.73Z"/><path d="M39.35,14l-.57-.23h1.87l-.57.23h-.73Z"/><path d="M39.35,14l-.57-.22h1.87l-.57.22h-.73Z"/><path d="M39.35,14l-.57-.21h1.87l-.57.21h-.73Z"/><path d="M39.35,14l-.57-.2h1.87l-.57.2h-.73Z"/><path d="M39.35,14l-.57-.19h1.87l-.57.19h-.73Z"/><path d="M39.35,14l-.57-.18h1.87l-.57.18h-.73Z"/><path d="M39.35,14l-.57-.17h1.87l-.57.17h-.73Z"/><path d="M39.35,14l-.57-.16h1.87l-.57.16h-.73Z"/><path d="M39.35,14l-.57-.15h1.87l-.57.15h-.73Z"/><path d="M39.35,14l-.57-.14h1.87l-.57.14h-.73Z"/><path d="M39.35,13.93l-.57-.12h1.87l-.57.12h-.73Z"/></g><g class="cls-12"><path d="M39.35,25.43l-.57.24h1.87l-.57-.24h-.73Z"/><path d="M39.35,25.45l-.57.22h1.87l-.57-.22h-.73Z"/><path d="M39.35,25.47l-.57.2h1.87l-.57-.2h-.73Z"/><path d="M39.35,25.49l-.57.18h1.87l-.57-.18h-.73Z"/><path d="M39.35,25.51l-.57.16h1.87l-.57-.16h-.73Z"/><path d="M39.35,25.54l-.57.13h1.87l-.57-.13h-.73Z"/><path d="M39.35,25.56l-.57.11h1.87l-.57-.11h-.73Z"/><path d="M39.35,25.58l-.57.09h1.87l-.57-.09h-.73Z"/><path d="M39.35,25.6l-.57.07h1.87l-.57-.07h-.73Z"/><path d="M39.35,25.62l-.57.05h1.87l-.57-.05h-.73Z"/><path d="M39.35,25.64l-.57,0h1.87l-.57,0h-.73Z"/><path d="M39.35,25.66h0Z"/></g></g><g class="cls-10"><rect class="cls-11" x="41.88" y="13.81" width="1.89" height="11.86"/><rect class="cls-10" x="41.88" y="13.81" width="1.89" height="11.86"/><g class="cls-10"><path d="M42.45,14.05l-.57-.24h1.87l-.57.24h-.73Z"/><path d="M42.45,14l-.57-.23h1.87l-.57.23h-.73Z"/><path d="M42.45,14l-.57-.22h1.87l-.57.22h-.73Z"/><path d="M42.45,14l-.57-.21h1.87l-.57.21h-.73Z"/><path d="M42.45,14l-.57-.2h1.87l-.57.2h-.73Z"/><path d="M42.45,14l-.57-.19h1.87l-.57.19h-.73Z"/><path d="M42.45,14l-.57-.18h1.87l-.57.18h-.73Z"/><path d="M42.45,14l-.57-.17h1.87l-.57.17h-.73Z"/><path d="M42.45,14l-.57-.16h1.87l-.57.16h-.73Z"/><path d="M42.45,14l-.57-.15h1.87l-.57.15h-.73Z"/><path d="M42.45,14l-.57-.14h1.87l-.57.14h-.73Z"/><path d="M42.45,13.93l-.57-.12h1.87l-.57.12h-.73Z"/></g><g class="cls-12"><path d="M42.45,25.43l-.57.24h1.87l-.57-.24h-.73Z"/><path d="M42.45,25.45l-.57.22h1.87l-.57-.22h-.73Z"/><path d="M42.45,25.47l-.57.2h1.87l-.57-.2h-.73Z"/><path d="M42.45,25.49l-.57.18h1.87l-.57-.18h-.73Z"/><path d="M42.45,25.51l-.57.16h1.87l-.57-.16h-.73Z"/><path d="M42.45,25.54l-.57.13h1.87l-.57-.13h-.73Z"/><path d="M42.45,25.56l-.57.11h1.87l-.57-.11h-.73Z"/><path d="M42.45,25.58l-.57.09h1.87l-.57-.09h-.73Z"/><path d="M42.45,25.6l-.57.07h1.87l-.57-.07h-.73Z"/><path d="M42.45,25.62l-.57.05h1.87l-.57-.05h-.73Z"/><path d="M42.45,25.64l-.57,0h1.87l-.57,0h-.73Z"/><path d="M42.45,25.66h0Z"/></g></g><g class="cls-10"><rect class="cls-11" x="44.98" y="13.81" width="1.89" height="11.86"/><rect class="cls-10" x="44.98" y="13.81" width="1.89" height="11.86"/><g class="cls-10"><path d="M45.55,14.05,45,13.81h1.87l-.57.24h-.73Z"/><path d="M45.55,14,45,13.81h1.87l-.57.23h-.73Z"/><path d="M45.55,14,45,13.81h1.87l-.57.22h-.73Z"/><path d="M45.55,14,45,13.81h1.87l-.57.21h-.73Z"/><path d="M45.55,14l-.57-.2h1.87l-.57.2h-.73Z"/><path d="M45.55,14,45,13.81h1.87l-.57.19h-.73Z"/><path d="M45.55,14,45,13.81h1.87l-.57.18h-.73Z"/><path d="M45.55,14,45,13.81h1.87l-.57.17h-.73Z"/><path d="M45.55,14,45,13.81h1.87l-.57.16h-.73Z"/><path d="M45.55,14,45,13.81h1.87l-.57.15h-.73Z"/><path d="M45.55,14,45,13.81h1.87l-.57.14h-.73Z"/><path d="M45.55,13.93,45,13.81h1.87l-.57.12h-.73Z"/></g><g class="cls-12"><path d="M45.55,25.43l-.57.24h1.87l-.57-.24h-.73Z"/><path d="M45.55,25.45l-.57.22h1.87l-.57-.22h-.73Z"/><path d="M45.55,25.47l-.57.2h1.87l-.57-.2h-.73Z"/><path d="M45.55,25.49l-.57.18h1.87l-.57-.18h-.73Z"/><path d="M45.55,25.51l-.57.16h1.87l-.57-.16h-.73Z"/><path d="M45.55,25.54l-.57.13h1.87l-.57-.13h-.73Z"/><path d="M45.55,25.56l-.57.11h1.87l-.57-.11h-.73Z"/><path d="M45.55,25.58l-.57.09h1.87l-.57-.09h-.73Z"/><path d="M45.55,25.6l-.57.07h1.87l-.57-.07h-.73Z"/><path d="M45.55,25.62l-.57.05h1.87l-.57-.05h-.73Z"/><path d="M45.55,25.64l-.57,0h1.87l-.57,0h-.73Z"/><path d="M45.55,25.66h0Z"/></g></g><g class="cls-10"><rect class="cls-11" x="48.09" y="13.81" width="1.89" height="11.86"/><rect class="cls-10" x="48.09" y="13.81" width="1.89" height="11.86"/><g class="cls-10"><path d="M48.65,14.05l-.56-.24H50l-.56.24h-.74Z"/><path d="M48.65,14l-.56-.23H50l-.56.23h-.74Z"/><path d="M48.65,14l-.56-.22H50l-.56.22h-.74Z"/><path d="M48.65,14l-.56-.21H50l-.56.21h-.74Z"/><path d="M48.65,14l-.56-.2H50l-.56.2h-.74Z"/><path d="M48.65,14l-.56-.19H50l-.56.19h-.74Z"/><path d="M48.65,14l-.56-.18H50l-.56.18h-.74Z"/><path d="M48.65,14l-.56-.17H50l-.56.17h-.74Z"/><path d="M48.65,14l-.56-.16H50l-.56.16h-.74Z"/><path d="M48.65,14l-.56-.15H50l-.56.15h-.74Z"/><path d="M48.65,14l-.56-.14H50l-.56.14h-.74Z"/><path d="M48.65,13.93l-.56-.12H50l-.56.12h-.74Z"/></g><g class="cls-12"><path d="M48.65,25.43l-.56.24H50l-.56-.24h-.74Z"/><path d="M48.65,25.45l-.56.22H50l-.56-.22h-.74Z"/><path d="M48.65,25.47l-.56.2H50l-.56-.2h-.74Z"/><path d="M48.65,25.49l-.56.18H50l-.56-.18h-.74Z"/><path d="M48.65,25.51l-.56.16H50l-.56-.16h-.74Z"/><path d="M48.65,25.54l-.56.13H50l-.56-.13h-.74Z"/><path d="M48.65,25.56l-.56.11H50l-.56-.11h-.74Z"/><path d="M48.65,25.58l-.56.09H50l-.56-.09h-.74Z"/><path d="M48.65,25.6l-.56.07H50l-.56-.07h-.74Z"/><path d="M48.65,25.62l-.56.05H50l-.56-.05h-.74Z"/><path d="M48.65,25.64l-.56,0H50l-.56,0h-.74Z"/><path d="M48.65,25.66h0Z"/></g></g><g class="cls-10"><rect class="cls-11" x="51.19" y="13.81" width="1.89" height="11.86"/><rect class="cls-10" x="51.19" y="13.81" width="1.89" height="11.86"/><g class="cls-10"><path d="M51.76,14.05l-.57-.24h1.87l-.57.24h-.73Z"/><path d="M51.76,14l-.57-.23h1.87l-.57.23h-.73Z"/><path d="M51.76,14l-.57-.22h1.87l-.57.22h-.73Z"/><path d="M51.76,14l-.57-.21h1.87l-.57.21h-.73Z"/><path d="M51.76,14l-.57-.2h1.87l-.57.2h-.73Z"/><path d="M51.76,14l-.57-.19h1.87l-.57.19h-.73Z"/><path d="M51.76,14l-.57-.18h1.87l-.57.18h-.73Z"/><path d="M51.76,14l-.57-.17h1.87l-.57.17h-.73Z"/><path d="M51.76,14l-.57-.16h1.87l-.57.16h-.73Z"/><path d="M51.76,14l-.57-.15h1.87l-.57.15h-.73Z"/><path d="M51.76,14l-.57-.14h1.87l-.57.14h-.73Z"/><path d="M51.76,13.93l-.57-.12h1.87l-.57.12h-.73Z"/></g><g class="cls-12"><path d="M51.76,25.43l-.57.24h1.87l-.57-.24h-.73Z"/><path d="M51.76,25.45l-.57.22h1.87l-.57-.22h-.73Z"/><path d="M51.76,25.47l-.57.2h1.87l-.57-.2h-.73Z"/><path d="M51.76,25.49l-.57.18h1.87l-.57-.18h-.73Z"/><path d="M51.76,25.51l-.57.16h1.87l-.57-.16h-.73Z"/><path d="M51.76,25.54l-.57.13h1.87l-.57-.13h-.73Z"/><path d="M51.76,25.56l-.57.11h1.87l-.57-.11h-.73Z"/><path d="M51.76,25.58l-.57.09h1.87l-.57-.09h-.73Z"/><path d="M51.76,25.6l-.57.07h1.87l-.57-.07h-.73Z"/><path d="M51.76,25.62l-.57.05h1.87l-.57-.05h-.73Z"/><path d="M51.76,25.64l-.57,0h1.87l-.57,0h-.73Z"/><path d="M51.76,25.66h0Z"/></g></g><g class="cls-10"><rect class="cls-11" x="54.29" y="13.81" width="1.89" height="11.86"/><rect class="cls-10" x="54.29" y="13.81" width="1.89" height="11.86"/><g class="cls-10"><path d="M54.86,14.05l-.57-.24h1.87l-.57.24h-.73Z"/><path d="M54.86,14l-.57-.23h1.87l-.57.23h-.73Z"/><path d="M54.86,14l-.57-.22h1.87l-.57.22h-.73Z"/><path d="M54.86,14l-.57-.21h1.87l-.57.21h-.73Z"/><path d="M54.86,14l-.57-.2h1.87l-.57.2h-.73Z"/><path d="M54.86,14l-.57-.19h1.87l-.57.19h-.73Z"/><path d="M54.86,14l-.57-.18h1.87l-.57.18h-.73Z"/><path d="M54.86,14l-.57-.17h1.87l-.57.17h-.73Z"/><path d="M54.86,14l-.57-.16h1.87l-.57.16h-.73Z"/><path d="M54.86,14l-.57-.15h1.87l-.57.15h-.73Z"/><path d="M54.86,14l-.57-.14h1.87l-.57.14h-.73Z"/><path d="M54.86,13.93l-.57-.12h1.87l-.57.12h-.73Z"/></g><g class="cls-12"><path d="M54.86,25.43l-.57.24h1.87l-.57-.24h-.73Z"/><path d="M54.86,25.45l-.57.22h1.87l-.57-.22h-.73Z"/><path d="M54.86,25.47l-.57.2h1.87l-.57-.2h-.73Z"/><path d="M54.86,25.49l-.57.18h1.87l-.57-.18h-.73Z"/><path d="M54.86,25.51l-.57.16h1.87l-.57-.16h-.73Z"/><path d="M54.86,25.54l-.57.13h1.87l-.57-.13h-.73Z"/><path d="M54.86,25.56l-.57.11h1.87l-.57-.11h-.73Z"/><path d="M54.86,25.58l-.57.09h1.87l-.57-.09h-.73Z"/><path d="M54.86,25.6l-.57.07h1.87l-.57-.07h-.73Z"/><path d="M54.86,25.62l-.57.05h1.87l-.57-.05h-.73Z"/><path d="M54.86,25.64l-.57,0h1.87l-.57,0h-.73Z"/><path d="M54.86,25.66h0Z"/></g></g><rect class="cls-10" x="57.07" y="13.81" width="1.89" height="11.86"/><rect class="cls-13" x="57.07" y="13.81" width="1.89" height="11.86"/><g class="cls-10"><path d="M57.64,14.05l-.57-.24h1.87l-.57.24h-.73Z"/><path d="M57.64,14l-.57-.23h1.87l-.57.23h-.73Z"/><path d="M57.64,14l-.57-.22h1.87l-.57.22h-.73Z"/><path d="M57.64,14l-.57-.21h1.87l-.57.21h-.73Z"/><path d="M57.64,14l-.57-.2h1.87l-.57.2h-.73Z"/><path d="M57.64,14l-.57-.19h1.87l-.57.19h-.73Z"/><path d="M57.64,14l-.57-.18h1.87l-.57.18h-.73Z"/><path d="M57.64,14l-.57-.17h1.87l-.57.17h-.73Z"/><path d="M57.64,14l-.57-.16h1.87l-.57.16h-.73Z"/><path d="M57.64,14l-.57-.15h1.87l-.57.15h-.73Z"/><path d="M57.64,14l-.57-.14h1.87l-.57.14h-.73Z"/><path d="M57.64,13.93l-.57-.12h1.87l-.57.12h-.73Z"/></g><g class="cls-12"><path d="M57.64,25.43l-.57.24h1.87l-.57-.24h-.73Z"/><path d="M57.64,25.45l-.57.22h1.87l-.57-.22h-.73Z"/><path d="M57.64,25.47l-.57.2h1.87l-.57-.2h-.73Z"/><path d="M57.64,25.49l-.57.18h1.87l-.57-.18h-.73Z"/><path d="M57.64,25.51l-.57.16h1.87l-.57-.16h-.73Z"/><path d="M57.64,25.54l-.57.13h1.87l-.57-.13h-.73Z"/><path d="M57.64,25.56l-.57.11h1.87l-.57-.11h-.73Z"/><path d="M57.64,25.58l-.57.09h1.87l-.57-.09h-.73Z"/><path d="M57.64,25.6l-.57.07h1.87l-.57-.07h-.73Z"/><path d="M57.64,25.62l-.57.05h1.87l-.57-.05h-.73Z"/><path d="M57.64,25.64l-.57,0h1.87l-.57,0h-.73Z"/><path d="M57.64,25.66h0Z"/></g></g><path class="cls-14" d="M30.54,14.19v-.84a.15.15,0,0,1,0-.09.13.13,0,0,1,.1,0h1.1l0,0H30.68a.17.17,0,0,0-.13.05.18.18,0,0,0-.05.12v.84s0,0,0,0l0,0Z"/><path class="cls-15" d="M31.78,13.22v1H30.54l0,0,0,0h1.24a0,0,0,0,0,0-.05v-1Z"/><path class="cls-2" d="M61,0a.11.11,0,0,0-.08,0H30.61a.11.11,0,0,0-.08,0,.11.11,0,0,0,0,.08V13a.1.1,0,0,0,.11.11H60.93A.1.1,0,0,0,61,13V.11A.11.11,0,0,0,61,0Z"/><path class="cls-3" d="M31.78,13.13h-1.1A.17.17,0,0,1,30.5,13v-.84a0,0,0,0,1,0,0h1.24a0,0,0,0,1,0,0v1A0,0,0,0,1,31.78,13.13Z"/><path class="cls-4" d="M30.54,12.11V13a.14.14,0,0,0,.14.14h1.1l0,0H30.68A.17.17,0,0,1,30.5,13v-.84a0,0,0,0,1,0,0l0,0Z"/><path class="cls-5" d="M31.78,13.09v-1H30.54l0,0h1.27a0,0,0,0,1,0,0v1Z"/><g class="cls-6"><path class="cls-3" d="M31.43,12.69v-.18a.27.27,0,0,0-.54,0v.18a.27.27,0,0,0,.54,0Zm-.05,0a.22.22,0,1,1-.44,0v-.18a.22.22,0,1,1,.44,0Z"/></g><g class="cls-7"><path class="cls-3" d="M31.43,12.69v-.18a.27.27,0,0,0-.54,0v.18a.27.27,0,0,0,.54,0Zm-.05,0a.22.22,0,1,1-.44,0v-.18a.22.22,0,1,1,.44,0Z"/></g><path class="cls-8" d="M31.16,12.29a.22.22,0,0,0-.22.22v.18a.22.22,0,1,0,.44,0v-.18a.22.22,0,0,0-.22-.22Z"/><path class="cls-3" d="M59.76,13.13h1.1a.18.18,0,0,0,.12-.05A.18.18,0,0,0,61,13v-.84a0,0,0,0,0,0,0H59.76a0,0,0,0,0,0,0v1A0,0,0,0,0,59.76,13.13Z"/><path class="cls-4" d="M61,12.11V13a.13.13,0,0,1,0,.1.15.15,0,0,1-.09,0h-1.1l0,0h1.13a.18.18,0,0,0,.12-.05A.18.18,0,0,0,61,13v-.84l0,0,0,0Z"/><path class="cls-5" d="M59.76,13.09v-1H61l0,0H59.76a0,0,0,0,0,0,0v1a0,0,0,0,0,0,0Z"/><g class="cls-6"><path class="cls-3" d="M60.38,13a.26.26,0,0,0,.26-.26v-.18a.27.27,0,0,0-.53,0v.18A.26.26,0,0,0,60.38,13Zm-.22-.44a.22.22,0,0,1,.22-.22.22.22,0,0,1,.22.22v.18a.22.22,0,0,1-.22.22.22.22,0,0,1-.22-.22Z"/></g><g class="cls-7"><path class="cls-3" d="M60.38,13a.26.26,0,0,0,.26-.26v-.18a.27.27,0,0,0-.53,0v.18A.26.26,0,0,0,60.38,13Zm-.22-.44a.22.22,0,0,1,.22-.22.22.22,0,0,1,.22.22v.18a.22.22,0,0,1-.22.22.22.22,0,0,1-.22-.22Z"/></g><path class="cls-8" d="M60.38,12.29a.22.22,0,0,1,.22.22v.18a.22.22,0,0,1-.22.22.22.22,0,0,1-.22-.22v-.18a.22.22,0,0,1,.22-.22Z"/><path class="cls-3" d="M31.78,0h-1.1a.21.21,0,0,0-.13.05.21.21,0,0,0-.05.13V1a0,0,0,0,0,0,0h1.24a0,0,0,0,0,0,0V0A0,0,0,0,0,31.78,0Z"/><path class="cls-4" d="M30.54,1V.18a.18.18,0,0,1,0-.1.18.18,0,0,1,.1,0h1.1l0,0H30.68a.21.21,0,0,0-.13.05.21.21,0,0,0-.05.13V1a0,0,0,0,0,0,0l0,0Z"/><path class="cls-5" d="M31.78,0V1H30.54l0,0h1.27a0,0,0,0,0,0,0V0s0,0,0,0Z"/><g class="cls-6"><path class="cls-3" d="M31.16.18a.27.27,0,0,0-.27.26V.62a.27.27,0,0,0,.54,0V.44A.27.27,0,0,0,31.16.18Zm.22.44a.22.22,0,1,1-.44,0V.44a.22.22,0,1,1,.44,0Z"/></g><g class="cls-7"><path class="cls-3" d="M31.16.18a.27.27,0,0,0-.27.26V.62a.27.27,0,0,0,.54,0V.44A.27.27,0,0,0,31.16.18Zm.22.44a.22.22,0,1,1-.44,0V.44a.22.22,0,1,1,.44,0Z"/></g><path class="cls-8" d="M31.16.84a.22.22,0,0,1-.22-.22V.44a.22.22,0,1,1,.44,0V.62a.22.22,0,0,1-.22.22Z"/><path class="cls-3" d="M59.76,0h1.1A.18.18,0,0,1,61,.05.18.18,0,0,1,61,.18V1a0,0,0,0,1,0,0H59.76a0,0,0,0,1,0,0V0A0,0,0,0,1,59.76,0Z"/><path class="cls-4" d="M61,1V.18a.13.13,0,0,0,0-.1.15.15,0,0,0-.09,0h-1.1l0,0h1.13A.18.18,0,0,1,61,.05.18.18,0,0,1,61,.18V1s0,0,0,0l0,0Z"/><path class="cls-5" d="M59.76,0V1H61l0,0s0,0,0,0H59.76a0,0,0,0,1,0,0V0a0,0,0,0,1,0,0Z"/><g class="cls-6"><path class="cls-3" d="M60.11.44V.62a.27.27,0,0,0,.53,0V.44a.27.27,0,0,0-.53,0Zm0,0a.22.22,0,0,1,.22-.22.22.22,0,0,1,.22.22V.62a.22.22,0,0,1-.22.22.22.22,0,0,1-.22-.22Z"/></g><g class="cls-7"><path class="cls-3" d="M60.11.44V.62a.27.27,0,0,0,.53,0V.44a.27.27,0,0,0-.53,0Zm0,0a.22.22,0,0,1,.22-.22.22.22,0,0,1,.22.22V.62a.22.22,0,0,1-.22.22.22.22,0,0,1-.22-.22Z"/></g><path class="cls-8" d="M60.38.84A.22.22,0,0,0,60.6.62V.44a.22.22,0,0,0-.22-.22.22.22,0,0,0-.22.22V.62a.22.22,0,0,0,.22.22Z"/><g class="cls-9"><g class="cls-10"><rect class="cls-11" x="32.57" y="0.63" width="1.89" height="11.86"/><rect class="cls-10" x="32.57" y="0.63" width="1.89" height="11.86"/><g class="cls-10"><path d="M33.14.88,32.57.63h1.87l-.57.25h-.73Z"/><path d="M33.14.87,32.57.63h1.87l-.57.24h-.73Z"/><path d="M33.14.85,32.57.63h1.87l-.57.22h-.73Z"/><path d="M33.14.84,32.57.63h1.87l-.57.21h-.73Z"/><path d="M33.14.83l-.57-.2h1.87l-.57.2h-.73Z"/><path d="M33.14.82,32.57.63h1.87l-.57.19h-.73Z"/><path d="M33.14.81,32.57.63h1.87l-.57.18h-.73Z"/><path d="M33.14.8,32.57.63h1.87L33.87.8h-.73Z"/><path d="M33.14.79,32.57.63h1.87l-.57.16h-.73Z"/><path d="M33.14.78,32.57.63h1.87l-.57.15h-.73Z"/><path d="M33.14.77,32.57.63h1.87l-.57.14h-.73Z"/><path d="M33.14.76,32.57.63h1.87l-.57.13h-.73Z"/></g><g class="cls-12"><path d="M33.14,12.25l-.57.25h1.87l-.57-.25h-.73Z"/><path d="M33.14,12.28l-.57.22h1.87l-.57-.22h-.73Z"/><path d="M33.14,12.3l-.57.2h1.87l-.57-.2h-.73Z"/><path d="M33.14,12.32l-.57.18h1.87l-.57-.18h-.73Z"/><path d="M33.14,12.34l-.57.16h1.87l-.57-.16h-.73Z"/><path d="M33.14,12.36l-.57.14h1.87l-.57-.14h-.73Z"/><path d="M33.14,12.38l-.57.12h1.87l-.57-.12h-.73Z"/><path d="M33.14,12.4l-.57.1h1.87l-.57-.1h-.73Z"/><path d="M33.14,12.43l-.57.07h1.87l-.57-.07h-.73Z"/><path d="M33.14,12.45l-.57.05h1.87l-.57-.05h-.73Z"/><path d="M33.14,12.47l-.57,0h1.87l-.57,0h-.73Z"/><path d="M33.14,12.49h0Z"/></g></g><g class="cls-10"><rect class="cls-11" x="35.68" y="0.63" width="1.89" height="11.86"/><rect class="cls-10" x="35.68" y="0.63" width="1.89" height="11.86"/><g class="cls-10"><path d="M36.24.88,35.68.63h1.86L37,.88h-.74Z"/><path d="M36.24.87,35.68.63h1.86L37,.87h-.74Z"/><path d="M36.24.85,35.68.63h1.86L37,.85h-.74Z"/><path d="M36.24.84,35.68.63h1.86L37,.84h-.74Z"/><path d="M36.24.83l-.56-.2h1.86L37,.83h-.74Z"/><path d="M36.24.82,35.68.63h1.86L37,.82h-.74Z"/><path d="M36.24.81,35.68.63h1.86L37,.81h-.74Z"/><path d="M36.24.8,35.68.63h1.86L37,.8h-.74Z"/><path d="M36.24.79,35.68.63h1.86L37,.79h-.74Z"/><path d="M36.24.78,35.68.63h1.86L37,.78h-.74Z"/><path d="M36.24.77,35.68.63h1.86L37,.77h-.74Z"/><path d="M36.24.76,35.68.63h1.86L37,.76h-.74Z"/></g><g class="cls-12"><path d="M36.24,12.25l-.56.25h1.86L37,12.25h-.74Z"/><path d="M36.24,12.28l-.56.22h1.86L37,12.28h-.74Z"/><path d="M36.24,12.3l-.56.2h1.86L37,12.3h-.74Z"/><path d="M36.24,12.32l-.56.18h1.86L37,12.32h-.74Z"/><path d="M36.24,12.34l-.56.16h1.86L37,12.34h-.74Z"/><path d="M36.24,12.36l-.56.14h1.86L37,12.36h-.74Z"/><path d="M36.24,12.38l-.56.12h1.86L37,12.38h-.74Z"/><path d="M36.24,12.4l-.56.1h1.86L37,12.4h-.74Z"/><path d="M36.24,12.43l-.56.07h1.86L37,12.43h-.74Z"/><path d="M36.24,12.45l-.56.05h1.86L37,12.45h-.74Z"/><path d="M36.24,12.47l-.56,0h1.86l-.56,0h-.74Z"/><path d="M36.24,12.49h0Z"/></g></g><g class="cls-10"><rect class="cls-11" x="38.78" y="0.63" width="1.89" height="11.86"/><rect class="cls-10" x="38.78" y="0.63" width="1.89" height="11.86"/><g class="cls-10"><path d="M39.35.88,38.78.63h1.87l-.57.25h-.73Z"/><path d="M39.35.87,38.78.63h1.87l-.57.24h-.73Z"/><path d="M39.35.85,38.78.63h1.87l-.57.22h-.73Z"/><path d="M39.35.84,38.78.63h1.87l-.57.21h-.73Z"/><path d="M39.35.83l-.57-.2h1.87l-.57.2h-.73Z"/><path d="M39.35.82,38.78.63h1.87l-.57.19h-.73Z"/><path d="M39.35.81,38.78.63h1.87l-.57.18h-.73Z"/><path d="M39.35.8,38.78.63h1.87L40.08.8h-.73Z"/><path d="M39.35.79,38.78.63h1.87l-.57.16h-.73Z"/><path d="M39.35.78,38.78.63h1.87l-.57.15h-.73Z"/><path d="M39.35.77,38.78.63h1.87l-.57.14h-.73Z"/><path d="M39.35.76,38.78.63h1.87l-.57.13h-.73Z"/></g><g class="cls-12"><path d="M39.35,12.25l-.57.25h1.87l-.57-.25h-.73Z"/><path d="M39.35,12.28l-.57.22h1.87l-.57-.22h-.73Z"/><path d="M39.35,12.3l-.57.2h1.87l-.57-.2h-.73Z"/><path d="M39.35,12.32l-.57.18h1.87l-.57-.18h-.73Z"/><path d="M39.35,12.34l-.57.16h1.87l-.57-.16h-.73Z"/><path d="M39.35,12.36l-.57.14h1.87l-.57-.14h-.73Z"/><path d="M39.35,12.38l-.57.12h1.87l-.57-.12h-.73Z"/><path d="M39.35,12.4l-.57.1h1.87l-.57-.1h-.73Z"/><path d="M39.35,12.43l-.57.07h1.87l-.57-.07h-.73Z"/><path d="M39.35,12.45l-.57.05h1.87l-.57-.05h-.73Z"/><path d="M39.35,12.47l-.57,0h1.87l-.57,0h-.73Z"/><path d="M39.35,12.49h0Z"/></g></g><g class="cls-10"><rect class="cls-11" x="41.88" y="0.63" width="1.89" height="11.86"/><rect class="cls-10" x="41.88" y="0.63" width="1.89" height="11.86"/><g class="cls-10"><path d="M42.45.88,41.88.63h1.87l-.57.25h-.73Z"/><path d="M42.45.87,41.88.63h1.87l-.57.24h-.73Z"/><path d="M42.45.85,41.88.63h1.87l-.57.22h-.73Z"/><path d="M42.45.84,41.88.63h1.87l-.57.21h-.73Z"/><path d="M42.45.83l-.57-.2h1.87l-.57.2h-.73Z"/><path d="M42.45.82,41.88.63h1.87l-.57.19h-.73Z"/><path d="M42.45.81,41.88.63h1.87l-.57.18h-.73Z"/><path d="M42.45.8,41.88.63h1.87L43.18.8h-.73Z"/><path d="M42.45.79,41.88.63h1.87l-.57.16h-.73Z"/><path d="M42.45.78,41.88.63h1.87l-.57.15h-.73Z"/><path d="M42.45.77,41.88.63h1.87l-.57.14h-.73Z"/><path d="M42.45.76,41.88.63h1.87l-.57.13h-.73Z"/></g><g class="cls-12"><path d="M42.45,12.25l-.57.25h1.87l-.57-.25h-.73Z"/><path d="M42.45,12.28l-.57.22h1.87l-.57-.22h-.73Z"/><path d="M42.45,12.3l-.57.2h1.87l-.57-.2h-.73Z"/><path d="M42.45,12.32l-.57.18h1.87l-.57-.18h-.73Z"/><path d="M42.45,12.34l-.57.16h1.87l-.57-.16h-.73Z"/><path d="M42.45,12.36l-.57.14h1.87l-.57-.14h-.73Z"/><path d="M42.45,12.38l-.57.12h1.87l-.57-.12h-.73Z"/><path d="M42.45,12.4l-.57.1h1.87l-.57-.1h-.73Z"/><path d="M42.45,12.43l-.57.07h1.87l-.57-.07h-.73Z"/><path d="M42.45,12.45l-.57.05h1.87l-.57-.05h-.73Z"/><path d="M42.45,12.47l-.57,0h1.87l-.57,0h-.73Z"/><path d="M42.45,12.49h0Z"/></g></g><g class="cls-10"><rect class="cls-11" x="44.98" y="0.63" width="1.89" height="11.86"/><rect class="cls-10" x="44.98" y="0.63" width="1.89" height="11.86"/><g class="cls-10"><path d="M45.55.88,45,.63h1.87l-.57.25h-.73Z"/><path d="M45.55.87,45,.63h1.87l-.57.24h-.73Z"/><path d="M45.55.85,45,.63h1.87l-.57.22h-.73Z"/><path d="M45.55.84,45,.63h1.87l-.57.21h-.73Z"/><path d="M45.55.83,45,.63h1.87l-.57.2h-.73Z"/><path d="M45.55.82,45,.63h1.87l-.57.19h-.73Z"/><path d="M45.55.81,45,.63h1.87l-.57.18h-.73Z"/><path d="M45.55.8,45,.63h1.87L46.28.8h-.73Z"/><path d="M45.55.79,45,.63h1.87l-.57.16h-.73Z"/><path d="M45.55.78,45,.63h1.87l-.57.15h-.73Z"/><path d="M45.55.77,45,.63h1.87l-.57.14h-.73Z"/><path d="M45.55.76,45,.63h1.87l-.57.13h-.73Z"/></g><g class="cls-12"><path d="M45.55,12.25,45,12.5h1.87l-.57-.25h-.73Z"/><path d="M45.55,12.28,45,12.5h1.87l-.57-.22h-.73Z"/><path d="M45.55,12.3l-.57.2h1.87l-.57-.2h-.73Z"/><path d="M45.55,12.32,45,12.5h1.87l-.57-.18h-.73Z"/><path d="M45.55,12.34,45,12.5h1.87l-.57-.16h-.73Z"/><path d="M45.55,12.36,45,12.5h1.87l-.57-.14h-.73Z"/><path d="M45.55,12.38,45,12.5h1.87l-.57-.12h-.73Z"/><path d="M45.55,12.4l-.57.1h1.87l-.57-.1h-.73Z"/><path d="M45.55,12.43,45,12.5h1.87l-.57-.07h-.73Z"/><path d="M45.55,12.45,45,12.5h1.87l-.57-.05h-.73Z"/><path d="M45.55,12.47l-.57,0h1.87l-.57,0h-.73Z"/><path d="M45.55,12.49h0Z"/></g></g><g class="cls-10"><rect class="cls-11" x="48.09" y="0.63" width="1.89" height="11.86"/><rect class="cls-10" x="48.09" y="0.63" width="1.89" height="11.86"/><g class="cls-10"><path d="M48.65.88,48.09.63H50l-.56.25h-.74Z"/><path d="M48.65.87,48.09.63H50l-.56.24h-.74Z"/><path d="M48.65.85,48.09.63H50l-.56.22h-.74Z"/><path d="M48.65.84,48.09.63H50l-.56.21h-.74Z"/><path d="M48.65.83l-.56-.2H50l-.56.2h-.74Z"/><path d="M48.65.82,48.09.63H50l-.56.19h-.74Z"/><path d="M48.65.81,48.09.63H50l-.56.18h-.74Z"/><path d="M48.65.8,48.09.63H50L49.39.8h-.74Z"/><path d="M48.65.79,48.09.63H50l-.56.16h-.74Z"/><path d="M48.65.78,48.09.63H50l-.56.15h-.74Z"/><path d="M48.65.77,48.09.63H50l-.56.14h-.74Z"/><path d="M48.65.76,48.09.63H50l-.56.13h-.74Z"/></g><g class="cls-12"><path d="M48.65,12.25l-.56.25H50l-.56-.25h-.74Z"/><path d="M48.65,12.28l-.56.22H50l-.56-.22h-.74Z"/><path d="M48.65,12.3l-.56.2H50l-.56-.2h-.74Z"/><path d="M48.65,12.32l-.56.18H50l-.56-.18h-.74Z"/><path d="M48.65,12.34l-.56.16H50l-.56-.16h-.74Z"/><path d="M48.65,12.36l-.56.14H50l-.56-.14h-.74Z"/><path d="M48.65,12.38l-.56.12H50l-.56-.12h-.74Z"/><path d="M48.65,12.4l-.56.1H50l-.56-.1h-.74Z"/><path d="M48.65,12.43l-.56.07H50l-.56-.07h-.74Z"/><path d="M48.65,12.45l-.56.05H50l-.56-.05h-.74Z"/><path d="M48.65,12.47l-.56,0H50l-.56,0h-.74Z"/><path d="M48.65,12.49h0Z"/></g></g><g class="cls-10"><rect class="cls-11" x="51.19" y="0.63" width="1.89" height="11.86"/><rect class="cls-10" x="51.19" y="0.63" width="1.89" height="11.86"/><g class="cls-10"><path d="M51.76.88,51.19.63h1.87l-.57.25h-.73Z"/><path d="M51.76.87,51.19.63h1.87l-.57.24h-.73Z"/><path d="M51.76.85,51.19.63h1.87l-.57.22h-.73Z"/><path d="M51.76.84,51.19.63h1.87l-.57.21h-.73Z"/><path d="M51.76.83l-.57-.2h1.87l-.57.2h-.73Z"/><path d="M51.76.82,51.19.63h1.87l-.57.19h-.73Z"/><path d="M51.76.81,51.19.63h1.87l-.57.18h-.73Z"/><path d="M51.76.8,51.19.63h1.87L52.49.8h-.73Z"/><path d="M51.76.79,51.19.63h1.87l-.57.16h-.73Z"/><path d="M51.76.78,51.19.63h1.87l-.57.15h-.73Z"/><path d="M51.76.77,51.19.63h1.87l-.57.14h-.73Z"/><path d="M51.76.76,51.19.63h1.87l-.57.13h-.73Z"/></g><g class="cls-12"><path d="M51.76,12.25l-.57.25h1.87l-.57-.25h-.73Z"/><path d="M51.76,12.28l-.57.22h1.87l-.57-.22h-.73Z"/><path d="M51.76,12.3l-.57.2h1.87l-.57-.2h-.73Z"/><path d="M51.76,12.32l-.57.18h1.87l-.57-.18h-.73Z"/><path d="M51.76,12.34l-.57.16h1.87l-.57-.16h-.73Z"/><path d="M51.76,12.36l-.57.14h1.87l-.57-.14h-.73Z"/><path d="M51.76,12.38l-.57.12h1.87l-.57-.12h-.73Z"/><path d="M51.76,12.4l-.57.1h1.87l-.57-.1h-.73Z"/><path d="M51.76,12.43l-.57.07h1.87l-.57-.07h-.73Z"/><path d="M51.76,12.45l-.57.05h1.87l-.57-.05h-.73Z"/><path d="M51.76,12.47l-.57,0h1.87l-.57,0h-.73Z"/><path d="M51.76,12.49h0Z"/></g></g><g class="cls-10"><rect class="cls-11" x="54.29" y="0.63" width="1.89" height="11.86"/><rect class="cls-10" x="54.29" y="0.63" width="1.89" height="11.86"/><g class="cls-10"><path d="M54.86.88,54.29.63h1.87l-.57.25h-.73Z"/><path d="M54.86.87,54.29.63h1.87l-.57.24h-.73Z"/><path d="M54.86.85,54.29.63h1.87l-.57.22h-.73Z"/><path d="M54.86.84,54.29.63h1.87l-.57.21h-.73Z"/><path d="M54.86.83l-.57-.2h1.87l-.57.2h-.73Z"/><path d="M54.86.82,54.29.63h1.87l-.57.19h-.73Z"/><path d="M54.86.81,54.29.63h1.87l-.57.18h-.73Z"/><path d="M54.86.8,54.29.63h1.87L55.59.8h-.73Z"/><path d="M54.86.79,54.29.63h1.87l-.57.16h-.73Z"/><path d="M54.86.78,54.29.63h1.87l-.57.15h-.73Z"/><path d="M54.86.77,54.29.63h1.87l-.57.14h-.73Z"/><path d="M54.86.76,54.29.63h1.87l-.57.13h-.73Z"/></g><g class="cls-12"><path d="M54.86,12.25l-.57.25h1.87l-.57-.25h-.73Z"/><path d="M54.86,12.28l-.57.22h1.87l-.57-.22h-.73Z"/><path d="M54.86,12.3l-.57.2h1.87l-.57-.2h-.73Z"/><path d="M54.86,12.32l-.57.18h1.87l-.57-.18h-.73Z"/><path d="M54.86,12.34l-.57.16h1.87l-.57-.16h-.73Z"/><path d="M54.86,12.36l-.57.14h1.87l-.57-.14h-.73Z"/><path d="M54.86,12.38l-.57.12h1.87l-.57-.12h-.73Z"/><path d="M54.86,12.4l-.57.1h1.87l-.57-.1h-.73Z"/><path d="M54.86,12.43l-.57.07h1.87l-.57-.07h-.73Z"/><path d="M54.86,12.45l-.57.05h1.87l-.57-.05h-.73Z"/><path d="M54.86,12.47l-.57,0h1.87l-.57,0h-.73Z"/><path d="M54.86,12.49h0Z"/></g></g><rect class="cls-10" x="57.07" y="0.63" width="1.89" height="11.86"/><rect class="cls-13" x="57.07" y="0.63" width="1.89" height="11.86"/><g class="cls-10"><path d="M57.64.88,57.07.63h1.87l-.57.25h-.73Z"/><path d="M57.64.87,57.07.63h1.87l-.57.24h-.73Z"/><path d="M57.64.85,57.07.63h1.87l-.57.22h-.73Z"/><path d="M57.64.84,57.07.63h1.87l-.57.21h-.73Z"/><path d="M57.64.83l-.57-.2h1.87l-.57.2h-.73Z"/><path d="M57.64.82,57.07.63h1.87l-.57.19h-.73Z"/><path d="M57.64.81,57.07.63h1.87l-.57.18h-.73Z"/><path d="M57.64.8,57.07.63h1.87L58.37.8h-.73Z"/><path d="M57.64.79,57.07.63h1.87l-.57.16h-.73Z"/><path d="M57.64.78,57.07.63h1.87l-.57.15h-.73Z"/><path d="M57.64.77,57.07.63h1.87l-.57.14h-.73Z"/><path d="M57.64.76,57.07.63h1.87l-.57.13h-.73Z"/></g><g class="cls-12"><path d="M57.64,12.25l-.57.25h1.87l-.57-.25h-.73Z"/><path d="M57.64,12.28l-.57.22h1.87l-.57-.22h-.73Z"/><path d="M57.64,12.3l-.57.2h1.87l-.57-.2h-.73Z"/><path d="M57.64,12.32l-.57.18h1.87l-.57-.18h-.73Z"/><path d="M57.64,12.34l-.57.16h1.87l-.57-.16h-.73Z"/><path d="M57.64,12.36l-.57.14h1.87l-.57-.14h-.73Z"/><path d="M57.64,12.38l-.57.12h1.87l-.57-.12h-.73Z"/><path d="M57.64,12.4l-.57.1h1.87l-.57-.1h-.73Z"/><path d="M57.64,12.43l-.57.07h1.87l-.57-.07h-.73Z"/><path d="M57.64,12.45l-.57.05h1.87l-.57-.05h-.73Z"/><path d="M57.64,12.47l-.57,0h1.87l-.57,0h-.73Z"/><path d="M57.64,12.49h0Z"/></g></g><path class="cls-14" d="M30.54,1V.18a.18.18,0,0,1,0-.1.18.18,0,0,1,.1,0h1.1l0,0H30.68a.21.21,0,0,0-.13.05.21.21,0,0,0-.05.13V1a0,0,0,0,0,0,0l0,0Z"/><path class="cls-15" d="M31.78,0V1H30.54l0,0h1.27a0,0,0,0,0,0,0V0s0,0,0,0Z"/></g></g></g></svg>