<svg id="Ebene_1" data-name="Ebene 1" xmlns="http://www.w3.org/2000/svg" viewBox="0 0 595.28 841.89"><defs><style>.cls-1{fill:#1a171b;}.cls-2{fill:#f8b334;}</style></defs><title>Fernglas-BieneZeichenfläche 1</title><path class="cls-1" d="M197.84,431h0c-36.56-7.28-67.49-22.4-82.71-40.45C97,369,87.6,341.73,90.67,319.29c1.73-12.71,7.46-23,16.1-28.89,7.59-5.19,17.87-6.69,29.72-4.33,21.26,4.23,45.69,20.4,63.74,42.2,25,30.15,58.73,92,55.49,101.79a4.13,4.13,0,0,1-3,2.83c-13.13,3.15-33.14,2.48-54.92-1.86ZM135.25,292.31c-10.16-2-18.79-.86-24.95,3.35-7.25,5-11.87,13.42-13.39,24.48-2.83,20.7,6,46.12,23,66.32,14.35,17,43.93,31.33,79.15,38.34h0c19.71,3.93,38.43,4.75,50.61,2.27-1.26-10.73-28.92-64.13-54.29-94.72-17.19-20.74-40.23-36.08-60.15-40Z"/><path class="cls-1" d="M364.45,308.14c1.58,3.45,6.71,4.43,11.4,2.19s7.19-6.83,5.6-10.29-6.72-4.43-11.42-2.18S362.84,304.7,364.45,308.14Z"/><path class="cls-1" d="M324.32,289.41c3.34,1.77,8-.55,10.45-5.19s1.67-9.8-1.67-11.58-8,.55-10.45,5.18S321,287.64,324.32,289.41Z"/><path class="cls-1" d="M322.5,286.29s3.17.85,4.31,3.34c-14.41,15.56-10.66,52.23-8,68.85,17.23-48,47.74-53,47.74-53s2.12,2.52,1.76,5c-28.19,4.44-45.86,50.58-48,56.4v0s.6,15.62-3.17,7.08C298.94,313.89,322.5,286.29,322.5,286.29Z"/><path class="cls-2" d="M220.36,455.8c-4.87-.19-26.08,15.84-26.2,20.48C200,496,214.22,532.49,264,555.41c10.14.42,25.41-10.44,28.1-22.37C241.91,514.46,224.83,472.18,220.36,455.8Z"/><path class="cls-1" d="M273.29,442.34c-2.91-.12-20.14-1.42-30.32,3.68,3.51,11.83,18,51.07,63.6,64.26,5.28-4.28,7.1-24.61,5.34-31.12C287.82,472.68,279.32,455,273.29,442.34Z"/><path class="cls-1" d="M176.11,500.86c9.18,35.31,61.5,75.37,59.73,68.87C216.45,581.48,145.61,571.76,176.11,500.86Z"/><path class="cls-1" d="M309.44,465.44c28.51,16.75,73.39,13.49,80.79-6,5.5-14.42-11.33-40.48-36.33-62.3-28.89-25.2-58.54-19.17-69-1.18S280.93,448.63,309.44,465.44ZM341,402c-.87-1.51,7.59,17.59,19.56,4.46,1.24-1.17,6,5.63,6,5.63s10.52,14.43,1.33,18.32C347.38,435.58,341,402,341,402Z"/><rect class="cls-1" x="490.33" y="383.53" width="14.23" height="45.37"/><path class="cls-1" d="M486.41,425.64,380,419.18c-5.21-9,0-21.68,0-21.68L486.41,387Z"/><path class="cls-1" d="M327.75,492.12s-4.27,1-3.49,4.05,2.15,5.63,5.21,5.36c17.44-1.58,39.86-12.58,47.1-12s25.54-3.48,28-.49,10.37-5.21,11.75-9.36,2.82-8.08,7.67-9.82,28.95-19.9,27.21-32.84c0,0-5.91-8.28-14.5-5.87a22,22,0,0,0-14.38,12.44c-1.83,4-6.37,10.5-6.5,11.45s-2.59,6.53.59,8.42-3.38.67-4.29,6.73-6.55,1-13.52,9.29c-3.64,4.37-11.67.65-25.07,3.67,0,0-21.82,2.19-24.69,2.55a121.78,121.78,0,0,0-15.95,3.38C331.11,489.62,327.75,492.12,327.75,492.12Z"/><path class="cls-2" d="M168,556.77l-34.42,43.4,43.35-32.94A21.92,21.92,0,0,1,168,556.77Z"/></svg>