<?xml version="1.0" encoding="UTF-8"?>
<svg width="74px" height="74px" viewBox="0 0 74 74" version="1.1" xmlns="http://www.w3.org/2000/svg" xmlns:xlink="http://www.w3.org/1999/xlink">
    <!-- Generator: Sketch 46.2 (44496) - http://www.bohemiancoding.com/sketch -->
    <title>Icon/74px/Friendly</title>
    <desc>Created with Sketch.</desc>
    <defs>
        <circle id="path-1" cx="5" cy="25" r="5"></circle>
        <circle id="path-2" cx="33" cy="25" r="5"></circle>
        <rect id="path-3" x="4" y="7" width="30" height="36" rx="15"></rect>
        <circle id="path-4" cx="64" cy="18" r="5"></circle>
        <circle id="path-5" cx="36" cy="18" r="5"></circle>
        <rect id="path-6" x="35" y="0" width="30" height="36" rx="15"></rect>
        <path d="M13,0 C20.1797017,-1.31888981e-15 26,5.82029825 26,13 L26,19 C26,26.1797017 20.1797017,32 13,32 C5.82029825,32 8.79259876e-16,26.1797017 0,19 L0,13 C-8.79259876e-16,5.82029825 5.82029825,1.31888981e-15 13,0 Z" id="path-7"></path>
        <path d="M14,0 C21.7319865,-1.42034288e-15 28,6.2680135 28,14 L28,20 C28,27.7319865 21.7319865,34 14,34 C6.2680135,34 9.46895252e-16,27.7319865 0,20 L0,14 C-9.46895252e-16,6.2680135 6.2680135,1.42034288e-15 14,0 Z" id="path-9"></path>
        <circle id="path-11" cx="54" cy="45" r="6"></circle>
        <circle id="path-12" cx="20" cy="45" r="6"></circle>
        <path d="M37,23 C46.9411255,23 55,31.0588745 55,41 L55,49 C55,58.9411255 46.9411255,67 37,67 C27.0588745,67 19,58.9411255 19,49 L19,41 C19,31.0588745 27.0588745,23 37,23 Z" id="path-13"></path>
        <path d="M4,5.07371922e-13 L2.5,5.49560397e-13 C-0.215668159,2.30420329 -0.549226344,6.37361314 1.75497694,9.08928129 C3.1628735,10.7485879 5.31267574,11.5859155 7.47198533,11.3160018 L14,10.5 L15.9153477,19.1190647 C16.5490962,21.970933 19.0785637,24 22,24 L22,18 C22,8.0588745 13.9411255,1.77635684e-15 4,0 L4,5.07371922e-13 Z" id="path-14"></path>
        <path d="M8.01741614,7.68765985 C10.9834666,6.56255328 14.6713961,6 19.0812048,6 C23.5999585,6 27.4058655,6.59069259 30.4989257,7.77207776 C33.3602009,8.86492699 35.1787103,11.6910617 34.9876533,14.747974 L34.2531517,26.5 L33.174929,26.5 C32.1319527,26.5000042 31.2640725,25.6985174 31.1812419,24.6588353 C31.0504085,23.0166252 30.7410451,21.4636801 30.2531517,20 C29.586485,18 28.586485,16.5 27.2531517,15.5 C25.2531517,17.1666667 22.4198184,18.1666667 18.7531517,18.5 C15.086485,18.8333333 11.9198184,18.5 9.2531517,17.5 C8.50496243,19.260148 8.00496243,20.5934814 7.7531517,21.5 C7.56279805,22.1852731 7.32585877,23.3049286 7.04233385,24.8589664 C6.8689309,25.809391 6.0409248,26.5 5.07481111,26.5 L4.2531517,26.5 L3.51372995,14.6692519 C3.32230408,11.6064405 5.14812424,8.77606318 8.01741614,7.68765985 Z" id="path-16"></path>
    </defs>
    <g id="Symbols" stroke="none" stroke-width="1" fill="none" fill-rule="evenodd">
        <g id="Icon/74px/Friendly">
            <g id="Icon/74px/Products">
                <rect id="Rectangle-93" opacity="0.141644022" x="0" y="0" width="74" height="74"></rect>
                <circle id="Oval" fill="#E9EBF8" cx="37" cy="37" r="34"></circle>
                <g id="Oval-15">
                    <use fill="#FFFFFF" fill-rule="evenodd" xlink:href="#path-1"></use>
                    <circle stroke="#3870DF" stroke-width="2" cx="5" cy="25" r="4"></circle>
                </g>
                <g id="Oval-15">
                    <use fill="#FFFFFF" fill-rule="evenodd" xlink:href="#path-2"></use>
                    <circle stroke="#3870DF" stroke-width="2" cx="33" cy="25" r="4"></circle>
                </g>
                <g id="Rectangle-94">
                    <use fill="#FFFFFF" fill-rule="evenodd" xlink:href="#path-3"></use>
                    <rect stroke="#3870DF" stroke-width="2" x="5" y="8" width="28" height="34" rx="14"></rect>
                </g>
                <g id="Group-48" transform="translate(5.000000, 7.000000)">
                    <g id="Oval-15">
                        <use fill="#FFFFFF" fill-rule="evenodd" xlink:href="#path-4"></use>
                        <circle stroke="#3870DF" stroke-width="2" cx="64" cy="18" r="4"></circle>
                    </g>
                    <g id="Oval-15">
                        <use fill="#FFFFFF" fill-rule="evenodd" xlink:href="#path-5"></use>
                        <circle stroke="#3870DF" stroke-width="2" cx="36" cy="18" r="4"></circle>
                    </g>
                    <g id="Rectangle-94">
                        <use fill="#FFFFFF" fill-rule="evenodd" xlink:href="#path-6"></use>
                        <rect stroke="#3870DF" stroke-width="2" x="36" y="1" width="28" height="34" rx="14"></rect>
                    </g>
                    <g id="Combined-Shape" transform="translate(37.000000, 2.000000)">
                        <mask id="mask-8" fill="white">
                            <use xlink:href="#path-7"></use>
                        </mask>
                        <g id="Mask"></g>
                        <path d="M21.4077882,6.56753231 C22.8118709,8.36545199 23.6759415,10.8429412 24,14 C24,16.209139 25.790861,18 28,18 L28,-21 L-2,-21 L-2,18 C0.209138999,18 2,16.209139 2,14 C2.32407765,10.843001 3.18823141,8.36554576 4.59246127,6.56763439 C6.75761385,7.45357374 9.72565729,8 13,8 C16.2744685,8 19.2426141,7.45353177 21.4077882,6.56753231 L21.4077882,6.56753231 Z" fill="#D3D8EE" opacity="0.61939538" mask="url(#mask-8)"></path>
                        <circle id="Oval-17" fill="#3870DF" mask="url(#mask-8)" cx="18.5" cy="15.5" r="1.5"></circle>
                        <path d="M8.51481977,24.3744142 C9.86733936,25.1248775 11.3678294,25.5 13,25.5 C15.5993062,25.5 17.8534331,24.5607804 19.7071068,22.7071068 C20.0976311,22.3165825 20.0976311,21.6834175 19.7071068,21.2928932 C19.3165825,20.9023689 18.6834175,20.9023689 18.2928932,21.2928932 C16.8132335,22.7725529 15.0673605,23.5 13,23.5 C11.7018321,23.5 10.5356554,23.2084558 9.48518023,22.6255858 C9.00225462,22.3576282 8.39354347,22.5318942 8.12558583,23.0148198 C7.85762819,23.4977454 8.03189416,24.1064565 8.51481977,24.3744142 Z" id="Line-5" fill="#3870DF" fill-rule="nonzero" mask="url(#mask-8)"></path>
                        <circle id="Oval-17" fill="#3870DF" mask="url(#mask-8)" cx="7.5" cy="15.5" r="1.5"></circle>
                    </g>
                    <g id="Combined-Shape" transform="translate(0.000000, 1.000000)">
                        <mask id="mask-10" fill="white">
                            <use xlink:href="#path-9"></use>
                        </mask>
                        <g id="Mask"></g>
                        <circle id="Oval-17" fill="#3870DF" mask="url(#mask-10)" cx="19.5" cy="16.5" r="1.5"></circle>
                        <path d="M9.2,24.1 C10.3888544,25.6851392 12.018576,26.5 14,26.5 C15.981424,26.5 17.6111456,25.6851392 18.8,24.1 C19.1313708,23.6581722 19.0418278,23.0313708 18.6,22.7 C18.1581722,22.3686292 17.5313708,22.4581722 17.2,22.9 C16.3888544,23.9815275 15.3519094,24.5 14,24.5 C12.6480906,24.5 11.6111456,23.9815275 10.8,22.9 C10.4686292,22.4581722 9.8418278,22.3686292 9.4,22.7 C8.9581722,23.0313708 8.86862915,23.6581722 9.2,24.1 Z" id="Line-5" fill="#3870DF" fill-rule="nonzero" mask="url(#mask-10)"></path>
                        <circle id="Oval-17" fill="#3870DF" mask="url(#mask-10)" cx="8.5" cy="16.5" r="1.5"></circle>
                    </g>
                    <path d="M51.5722408,35.9185887 C51.0555078,35.9724111 50.5309758,36 50,36 C41.7157288,36 35,29.2842712 35,21 L35,15 C35,14.6738061 35.0104121,14.350044 35.0309219,14.029028 C44.492352,14.5632695 52,22.4048822 52,32 C52,33.3458003 51.8523054,34.6571047 51.5722408,35.9185887 L51.5722408,35.9185887 Z" id="Combined-Shape" fill-opacity="0.2" fill="#0C2B9E"></path>
                    <path d="M12.4277592,35.8895607 C12.9444922,35.9433831 13.4690242,35.970972 14,35.970972 C22.2842712,35.970972 29,29.2552433 29,20.970972 L29,14.970972 C29,14.6447781 28.9895879,14.321016 28.9690781,14 C19.507648,14.5342415 12,22.3758542 12,31.970972 C12,33.3167723 12.1476946,34.6280767 12.4277592,35.8895607 L12.4277592,35.8895607 Z" id="Combined-Shape" fill-opacity="0.2" fill="#0C2B9E"></path>
                </g>
                <g id="Oval-15">
                    <use fill="#FFFFFF" fill-rule="evenodd" xlink:href="#path-11"></use>
                    <circle stroke="#3870DF" stroke-width="2" cx="54" cy="45" r="5"></circle>
                </g>
                <g id="Oval-15">
                    <use fill="#FFFFFF" fill-rule="evenodd" xlink:href="#path-12"></use>
                    <circle stroke="#3870DF" stroke-width="2" cx="20" cy="45" r="5"></circle>
                </g>
                <g id="Rectangle-94">
                    <use fill="#FFFFFF" fill-rule="evenodd" xlink:href="#path-13"></use>
                    <path stroke="#3870DF" stroke-width="2" d="M37,24 C27.6111593,24 20,31.6111593 20,41 L20,49 C20,58.3888407 27.6111593,66 37,66 C46.3888407,66 54,58.3888407 54,49 L54,41 C54,31.6111593 46.3888407,24 37,24 Z"></path>
                </g>
                <g id="Rectangle-4" transform="translate(33.000000, 22.000000)">
                    <mask id="mask-15" fill="white">
                        <use xlink:href="#path-14"></use>
                    </mask>
                    <use id="Mask" fill="#3870DF" xlink:href="#path-14"></use>
                    <path d="M6,2 L24,2 C24,9.7319865 17.7319865,16 10,16 L-3,16 L-5.14304662,21.3576165 C-6.2645825,24.1614562 -8.98017222,26 -12,26 L-12,20 C-12,10.0588745 -3.9411255,2 6,2 L6,2 Z" fill="#0C2B9E" opacity="0.2" mask="url(#mask-15)"></path>
                </g>
                <path d="M37,22 L55,22 C55,29.7319865 48.7319865,36 41,36 L28,36 L25.8569534,41.3576165 C24.7354175,44.1614562 22.0198278,46 19,46 L19,40 C19,30.0588745 27.0588745,22 37,22 L37,22 Z" id="Rectangle-4" fill="#3870DF"></path>
                <path d="M28.5121171,53 C29.7476263,56.4955771 33.0813435,59 37,59 C40.9186565,59 44.2523737,56.4955771 45.4878829,53 L28.5121171,53 L28.5121171,53 Z" id="Combined-Shape" fill="#3870DF"></path>
                <circle id="Oval-17" fill="#3870DF" cx="30" cy="45" r="2"></circle>
                <circle id="Oval-17" fill="#3870DF" cx="44" cy="45" r="2"></circle>
                <g id="Rectangle-44">
                    <use fill="#E4E7F4" fill-rule="evenodd" xlink:href="#path-16"></use>
                    <path stroke="#3870DF" stroke-width="2" d="M5.19217451,25.4931454 C5.62359998,25.4424628 5.97898498,25.1157055 6.05857248,24.679485 C6.34711153,23.0979641 6.58925187,21.953731 6.78963379,21.2323561 C7.05563851,20.2747392 7.56898078,18.9058264 8.33284456,17.1088034 L8.70751097,16.2273843 L9.60427514,16.5636708 C12.1196775,17.5069467 15.1372943,17.8245906 18.662616,17.5041068 C22.1419313,17.1878054 24.7852647,16.2548642 26.6129673,14.7317787 L27.2204938,14.2255066 L27.8531517,14.7 C29.3604745,15.8304921 30.4743421,17.5012935 31.201835,19.6837722 C31.715732,21.2254633 32.0409319,22.8579045 32.1780834,24.5794178 C32.2194987,25.0992596 32.6534385,25.5000021 33.174929,25.5 L33.3137005,25.5 L33.9896007,14.6855957 C34.153364,12.0653841 32.5946409,9.64298401 30.1421191,8.70625602 C27.1731987,7.57228571 23.4858896,7 19.0812048,7 C14.7844214,7 11.2140204,7.54462559 8.37208497,8.62265184 C5.91269189,9.55556899 4.34770321,11.9816067 4.51178252,14.6068736 L5.19217451,25.4931454 Z"></path>
                </g>
            </g>
        </g>
    </g>
</svg>