<svg id="svg4379" xmlns="http://www.w3.org/2000/svg" xmlns:xlink="http://www.w3.org/1999/xlink" viewBox="0 0 1445.29 641"><defs><style>.cls-1{fill:none;}.cls-2{clip-path:url(#clip-path);}.cls-3{fill:url(#radial-gradient);}.cls-4{fill:#9ca7ae;}.cls-5{fill:#edf8fd;}.cls-6{fill:#7ec4ed;}</style><clipPath id="clip-path" transform="translate(4.95 0)"><rect class="cls-1" width="1444.53" height="587"/></clipPath><radialGradient id="radial-gradient" cx="296.83" cy="598.06" r="0.27" gradientTransform="matrix(0, 1607.53, 3970.05, 0, -2373394.07, -476858.62)" gradientUnits="userSpaceOnUse"><stop offset="0" stop-color="#fff"/><stop offset="1" stop-color="#b9e2f5"/></radialGradient></defs><title>Header_WebSite</title><g class="cls-2"><rect class="cls-3" width="1444.53" height="587"/></g><path id="path5726" class="cls-4" d="M313.21,385.94l1.63,23.16h2.31l-.75,7.52,3.53.6-.2,5.51-3.33,1.15-.68,1.81s4.39,1,4.82,1-.27,7.47-.27,7.47L316,435.57l1.63,51.13,2-.05,8.15.15,7,.45,5.91,1-4.14,8H357.9l-12-13-.61-.3L361.5,465.3v-1.9h5.23v1l20.17,9.37V466.2h2.45v.55l26.55,12.33h14.19l26.55-12.33v-.55H459v7.57l20.24-9.37v-1h5.23v1.9l16.23,17.54-.68.35-4.14,4.46h5.5v6.82c27.08-18.08,43.17-18.36,66-3.71h2.24l6.45.55v-3.76h-.54V437.23h3.33v4.31h4.42v1.6h-4.42v1.55h4.42v1.6h-4.42v5h4.42v1.6h-4.42v5h4.42v1.55h-4.42v5h4.42v1.6h-4.42v5h4.42v1.6h-4.42v5h4.42v1.6h-4.42v6.87h4.55V441.79h3.67v-4.46h1.16v3.36h2.17v-3.21h1.49v3.26c17.66-3.36,32.54-.9,40.2,3.86v43.51h24v-4.16h2a8.87,8.87,0,0,1-2.51-6.57c0-10.57,12.27-19.15,27.37-19.15s27.3,8.58,27.3,19.15c0,.32,0,.6-.07.9v9.37h20.37v-5.21h5.3l.2-.2H737v-2.51l-.47-.1-.34-1,.82-.4v-3.06a2.79,2.79,0,0,1-1.36-2.26c0-1.44,1.37-2.61,3.19-2.91.13-.78.27-1.75.27-1.75s-.59-.3-.61-.4l-.07-.3.48-.1v0a1.1,1.1,0,0,1-.68-.9,1.17,1.17,0,0,1,.75-1l.61-11h.27l.61,10.93a1.25,1.25,0,0,1,.88,1.05,1.13,1.13,0,0,1-.75,1l.41.1-.07.3c0,.1-.54.4-.54.4s.15,1,.27,1.75c1.82.31,3.19,1.47,3.19,2.91a2.81,2.81,0,0,1-1.36,2.26v3.06l.82.4-.34,1-.48.1.75,3.36h1.36v5l-.48.05h16.23v-8.72h18v-4.26l1.83-.35V473h2.38v-2l-2.65-2.76,22.07.05v-8.82H805v-1.6s-3.56-.8-2.51-.8,24.65-.55,24.65-.55l.75-5.41.68.05.14,5.41,3-.05,1.63.75-2.58.1v1.85l3.33.3v25.32l4.48-1.05h9.85V437.58h5.3v2.86l18.41-1.86-.07-2.86-18.47,0-.34-1.75,18.07-.2.34-1.05,1.63-.6.34-23.26,1.16,0,.68,23.51,5.23,0v48.93h.54V481l16.64-1.85h6.59V449.91l4.62-1.45v-1l2.85-.05,5.84-2.26c.86,0,8.08,1.55,8.08,1.55h12.22l1.63-.7,1.36.35h4.34v22.71h7.06l-.82,22.06h10v-6.77l7.4-2.15h13.85l.75-22.81h-3.87c-.3,0-.54-.18-.54-.4v-1.1c0-.22.24-.4.54-.4h3.94l.34-9.07h-2.38c-.3,0-.54-.18-.54-.4v-1.1c0-.22.24-.4.54-.4h2.45l.27-8.07H980.3a1.41,1.41,0,0,1-.88-.3h-1.16c-.51,0-.88-.28-.88-.65v-1.9c0-.37.38-.65.88-.65h1a1.21,1.21,0,0,1,1.09-.55h4.21l.2-5.11H980.3c-.64,0-1.15-.38-1.15-.85V426.1c0-.47.52-.85,1.15-.85h4.55l.2-5.66h-3.19c-.34,0-.61-.2-.61-.45v-1.2c0-.25.28-.45.61-.45h3.26l.54-15.84.68-.2h.47l.68.2.54,15.84h3.26c.34,0,.61.2.61.45v1.2c0,.25-.28.45-.61.45h-3.19l.2,5.66h4.55c.64,0,1.16.38,1.16.85v2.31c0,.47-.52.85-1.16.85h-4.41l.2,5.11h4.21a1.21,1.21,0,0,1,1.09.55h.95c.51,0,1,.28,1,.65v1.9c0,.37-.45.65-1,.65h-1.15a1.42,1.42,0,0,1-.88.3h-4.08l.27,8.07h2.51c.3,0,.54.18.54.4V448c0,.22-.24.4-.54.4h-2.45l.34,9.07h3.94c.3,0,.54.18.54.4V459c0,.22-.24.4-.54.4h-3.87l.82,23.71,2.1.35v4.71h14V443.09h5.77v-1.81h-.75v-.85h18.2v.85H1029v1.81h2.38V439c-1.72-.14-3.18-1.33-3.19-2.61-.23-1.48,1.55-2.95,3.56-2.95s3.79,1.47,3.57,2.95c0,1.28-1.47,2.47-3.19,2.61v4.11h9.1v39.3h5.84v5.76h17.38v-7.62l-2-.45v-1h5c10.33-3.18,18.47-4.73,35-6.62v-2.41h4v1.61a189.74,189.74,0,0,1,33.75,0v-1.61h4v2.41c16.6,1.26,26.52,3.19,35,6.62h5v1l-2,.45v14.14l36.54,2.21v-4.76h.48V477.63l16.77-.75V471l-.82-.6v-1.2l.88-.35v-6.92l-1.22-.9,5.84-7.47v-9.82h7.68v9.68l7.2,7.12-1.7.75v7.42l1.22.25.41,1.1-1.22,1v14.19s5.52,1.18,7.88,1.56h1.15l1.63-4.21,2.11-.6.34,4.81h36.94v-4.21h6.38l8.69-11.18,1.63-1.25v-4.41l2.31-.45v-1a2.16,2.16,0,0,1-1.56-1.86,2.18,2.18,0,0,1,1.56-1.81V460h-4.14v-2.15h19.42V460h-4.21v.55a2.1,2.1,0,0,1,1.36,1.7,2.07,2.07,0,0,1-1.36,1.81v1.15l2.31.45v4.41l1.7,1.25,8.69,11.18h6.32v4.21h49.1v12.68L1440,503.9v45.35H0V503.9H10.46v-8.22H34.09v-5.26H51.41V485.6h5.43L61.19,480l2.31-1.7v-6.12l3.19-.65V464.4H60.92v-3H87.74v3H82v7.17l3.19.65v6.12l2.31,1.7L97,492.22v-.85l8.62-1.15h18.47l6.93,1.55V466.9h3.26v31.18H136v-4.86l2.11-1.6h5.3l2,1.5v4.76h2.92v-16h9l1-36h3.26l1,35.64h3.8v4.06h4.41l5.09,2.15v10.23l9.64-.1v-9.22l-3.39-2.56h15v-39.7h43.6l2-.9,1.09,1.2,1.36,1.2-1.63,1.45-2,1-2.17-1.15h-7.47l-5.09,3.76v17.6c8.64,7.32,14.05,16.15,19.56,24.91h12.77v-2.86h6.25l.41-6L260.38,490l-2.65-2.41,10.32-4.81,1.83-1.1a1.76,1.76,0,0,1,.2-1.6L260,471.17l3.46-2.11s6.73,7.8,8.42,9.82a4.14,4.14,0,0,1,2.51.15l11.07-6.92,2.72,2.41s-9.71,4.57-12.43,5.81a1.73,1.73,0,0,1,.14,1.35l5.16,3-.14.75-1,.35v.05l5.84,5.11-3.46,2.11-2-2.36.48,7h2.31v6.22h13.11v-5.41h3.26L296,490.11l1.36-1.05,3.12-1,4.69-.8,3.67-.25,1.56-51.48-4.28-1.45s-.7-7.47-.27-7.47,4.82-1,4.82-1l-.68-1.81-3.33-1.15-.2-5.51,3.53-.6-.75-7.52h2.31Zm-90.32,63H202.65v12.33c.55-4,5.14-7.12,10.66-7.12,4.22,0,7.83,1.83,9.58,4.46V449Zm-9.58,6.62c-4.82,0-8.76,2.87-8.83,6.42h17.66C222.07,458.44,218.13,455.57,213.31,455.57ZM484.48,468v11.13h3.06v2.56l9.51-.1Zm-123,0-12.56,13.58,10.12.1v-2.56h2.45Zm95.14.9-22.07,10.23h13l9-4.21Zm-67.3,0v6l9.1,4.21h12.9Zm89.92.05L459,478.33v.75h6l14.26-7.27v-2.91ZM366.72,469v2.86l14.19,7.27h6v-.75ZM218.4,471.36c-4.86,0-13.85.05-13.85.05v26.37h1.83v-6.62h14.74v-1.65h12.29c-4.57-8.37-10.65-18.27-12-18.1C221.25,471.38,220,471.37,218.4,471.36Zm1116.74,1.56h-4.82v8.47H1340v1.1h2.58Zm-7.54,0h-4.82l-7.47,9.57h2.58v-1.1h9.71v-8.47Zm-848.35,3.56-5.09,2.61h5.09Zm-112.53,0v2.61h5ZM82.85,482.19H76.2V501h4.08L82,499.59H96.5L82.85,482.19Zm-10.39,0H65.81l-2.65,3.41h1.9V501h7.4Zm424.38,1.75-9.3.1v3.61h5.91Zm-147.78,0,10,10.78V484Z" transform="translate(4.95 0)"/><rect class="cls-4" x="4.95" y="518.75" width="1440" height="92.76"/><path class="cls-5" d="M1440.34,632H.34V539.59c688.46,32.17,696.47,32.17,1440,0Z" transform="translate(4.95 0)"/><path class="cls-6" d="M1440,641H0V548.59c688.46,32.17,696.47,32.17,1440,0Z" transform="translate(4.95 0)"/></svg>