<svg xmlns="http://www.w3.org/2000/svg" viewBox="0 0 100 100"><path d="M75.2 23a18.5 18.5 0 0 1 13.3 5.6 19.5 19.5 0 0 1 0 27.2l-7.6 7.7-29.3 29.8a2.1 2.1 0 0 1-3 0L19.2 63.6l-7.6-7.7a19.5 19.5 0 0 1-1-26.2 18.1 18.1 0 0 1 14-6.5 19.5 19.5 0 0 1 14 6l7.1 7.2 4.3 4.3 4.3-4.3 7.6-7.7A18.5 18.5 0 0 1 75.2 23m0-6a24.6 24.6 0 0 0-17.6 7.4L50 32.1l-7.1-7.2a25.6 25.6 0 0 0-18.3-7.8A24.2 24.2 0 0 0 6 25.8 25.5 25.5 0 0 0 7.3 60l7.6 7.7 29.3 29.8a8.1 8.1 0 0 0 11.5 0L85 67.7l7.6-7.7a25.5 25.5 0 0 0 0-35.7A24.6 24.6 0 0 0 75.2 17z" fill="#e3677c"/><path fill="none" stroke="#e3677c" stroke-linecap="round" stroke-miterlimit="10" stroke-width="4" d="M50 2v15M64 5l-2 6M36 5l2 6"/></svg>