<svg id="Ebene_1" data-name="Ebene 1" xmlns="http://www.w3.org/2000/svg" viewBox="0 0 595.28 841.89"><defs><style>.cls-1{fill:#f8b334;}.cls-2{fill:#1a171b;}</style></defs><title>Impressum-BieneZeichenfläche 1</title><path class="cls-1" d="M125.27,425.79c-7-1.31-17.41-1.26-29.47,3.62-13.18,5.35-20.6,15.9-16.52,25.95,4.7,11.6,17.59,11.33,36.61,10.12,23.26-1.63,42.23.31,50.38,20.41,4.79,11.84,2.65,22.59-3.35,32.82a30.79,30.79,0,0,1,16.56,16.44c9.41,23.24-7.87,42.2-28.85,50.7-13.41,5.43-27.86,7.65-38.89,4.83l.21-14.92c6.91,1.63,19.93,2.34,33.33-3.09,14.06-5.7,22.17-16.54,17.47-28.14-4.26-10.5-13-13.46-36.75-12.41-26,1.41-45.38-.33-53.07-19.32-3.45-8.5-2.82-20.44,5.83-33.05-6.05-1.45-12.69-7.6-15.77-15.19-8-19.65,5.25-39,28.26-48.36,12.51-5.08,24.49-6.29,33.8-5.13ZM120,515.53c13-.6,23.31-.85,29.8.41a23,23,0,0,0,1.53-20.63c-3.44-8.49-11.71-13.47-28.3-12.72-10.06.19-22.9,1.23-32.09-.26-5,8-5.69,14.8-2.89,21.71C91.25,511.87,99.78,516.22,120,515.53Z"/><path class="cls-1" d="M406.32,527.22,441,578.05l-45.43-39.94A24.35,24.35,0,0,0,406.32,527.22Z"/><path class="cls-2" d="M392.52,408.72c-22.08-2.4-41.37-7.76-52.94-14.71a4.14,4.14,0,0,1-2-3.6c-.15-10.32,50.57-59.19,83.49-80.44,23.77-15.37,51.93-23.46,73.47-21.11,12,1.3,21.37,5.82,27.05,13.05,6.47,8.24,8.85,19.74,6.69,32.39-3.81,22.32-20.95,45.56-44.73,60.66-19.95,12.65-54,17.8-91,13.76ZM493.86,295.18c-20.19-2.19-46.78,5.52-69.4,20.14-33.38,21.56-75.79,64.19-80.21,74.05,10.86,6,29,10.85,49,13h0c35.69,3.88,68.22-.91,87-12.81,22.3-14.16,38.35-35.76,41.86-56.35,1.88-11,0-20.47-5.42-27.37-4.6-5.87-12.49-9.56-22.79-10.69Z"/><path class="cls-2" d="M194.86,299.65c.55,3.75-3.22,7.36-8.37,8s-9.75-1.83-10.29-5.61,3.23-7.37,8.4-8S194.34,295.89,194.86,299.65Z"/><path class="cls-2" d="M218.39,262.13c-1.84,3.3-7,3.9-11.59,1.32s-6.74-7.32-4.89-10.63,7.05-3.9,11.59-1.32S220.22,258.83,218.39,262.13Z"/><path class="cls-2" d="M218.22,258.51s-2.2,2.44-1.81,5.14c20.55,5.23,37.31,38.08,44.15,53.44-40.56-31-68.86-18.55-68.86-18.55s-.42,3.26,1.24,5.17c26.08-11.59,66,17.56,70.91,21.3v0s8,13.43,6.51,4.21C253,268.9,218.22,258.51,218.22,258.51Z"/><path class="cls-1" d="M362.58,420.69c4.87.25,24.57,18.1,24.28,22.72-7.57,19.09-25,54.2-76.58,72.61-10.14-.48-24.38-12.66-26-24.78C335.9,477.19,356.68,436.61,362.58,420.69Z"/><path class="cls-2" d="M311.06,402.57c2.9.14,20.19.38,29.87,6.36-4.55,11.47-22.5,49.27-69.06,58.35-4.88-4.73-4.89-25.15-2.55-31.47C293.89,431.5,303.93,414.65,311.06,402.57Z"/><path class="cls-2" d="M402.64,469.5c-12.29,34.36-68,69.6-65.62,63.29C355.3,546.22,426.72,542.83,402.64,469.5Z"/><path class="cls-2" d="M303.65,355.35c-8.84-18.85-37.84-27.5-68.86-5-25.62,18.61-44.16,41.74-42.17,56.72.1.72-5.28,1.37-5.27,3.14,0,1.11,10-.19,10.45.28.87.88-1.62,1.71-3.25,2.35-1.15.45-6,1.17-5.42,2.33s8.07,2.11,8.67,2.89c11.92,15.36,48.52,16.9,75.19,4.27C302.89,408.15,312.43,374.11,303.65,355.35Zm-85.71,26.89c-8.82-4.69,2.95-18.13,2.95-18.13s13.77-14.46,20.55-12.88c7.18.58,6.15,3.86,5.8,5.1C247.23,356.32,237.86,389.25,217.94,382.24Z"/><path class="cls-2" d="M256.1,450.2s3.68-2.37,5.34.34,2.52,5.49.18,7.48c-13.35,11.34-36.89,19.63-41.53,25.24s-20.38,15.78-20,19.62-11,3.75-14.91,1.83-7.74-3.64-12.38-1.42-34.48,6.72-42.5-3.59c0,0-1.78-10,6-14.46a22,22,0,0,1,19-1.55c4.1,1.45,12,2.8,12.73,3.38s6.47,2.72,5.59,6.32,2.84-1.94,7.81,1.65,5.27-4,16.1-3.14c5.67.46,8.64-7.87,20.19-15.32,0,0,16.85-14,19.12-15.83a120.23,120.23,0,0,1,13.59-9C252,450.84,256.1,450.2,256.1,450.2Z"/><ellipse class="cls-2" cx="226.68" cy="368.6" rx="8.3" ry="8.62"/></svg>