<svg id="Ebene_1" data-name="Ebene 1" xmlns="http://www.w3.org/2000/svg" viewBox="0 0 595.28 841.89"><defs><style>.cls-1{fill:#1a171b;}.cls-2{fill:#f8b334;}</style></defs><title>Kontakt-BieneZeichenfläche 1</title><path class="cls-1" d="M471.69,394.74c-17.76-.16-33.54-2.89-43.31-7.5a3.32,3.32,0,0,1-1.87-2.7c-.94-8.21,35.54-51.14,60.05-70.68,17.7-14.12,39.47-22.81,56.8-22.66,9.67.08,17.47,2.94,22.57,8.24,5.81,6,8.62,15,7.9,25.25-1.25,18.07-13,37.93-30.78,51.85-14.87,11.66-41.55,18.46-71.37,18.2Zm71.64-98.45c-16.24-.14-36.79,8.12-53.64,21.56-24.86,19.82-55.22,57.13-58,65.33,9.13,3.93,23.93,6.33,40,6.47h0c28.72.26,54.23-6.15,68.24-17.12,16.63-13,27.68-31.52,28.84-48.19.62-8.91-1.63-16.29-6.49-21.35-4.13-4.3-10.71-6.62-19-6.7Z"/><path class="cls-1" d="M309,327.22c.71,3-2,6.11-6.09,7s-7.9-.74-8.61-3.71,2-6.11,6.11-7S308.31,324.27,309,327.22Z"/><path class="cls-1" d="M325,295.61c-1.23,2.76-5.33,3.62-9.14,1.9s-5.9-5.34-4.67-8.1,5.32-3.63,9.13-1.91S326.22,292.85,325,295.61Z"/><path class="cls-1" d="M324.61,292.74a5.82,5.82,0,0,0-1.07,4.23c16.76,2.67,32.52,27.6,39.08,39.34-34.57-21.71-56.21-9.75-56.21-9.75s-.1,2.63,1.37,4c19.93-11.14,53.84,9.16,58.05,11.77v0s7.34,10.12,5.5,2.88C353.07,298.47,324.61,292.74,324.61,292.74Z"/><path class="cls-2" d="M457.52,408.46c3.9-.15,20.87,12.67,21,16.38-4.67,15.75-16,45-55.85,63.3-8.12.34-20.33-8.35-22.48-17.89C440.28,455.39,454,421.56,457.52,408.46Z"/><path class="cls-1" d="M415.18,397.68c2.32-.09,16.11-1.14,24.26,2.94-2.81,9.47-14.43,40.86-50.88,51.41-4.22-3.42-5.68-19.69-4.28-24.9C403.56,422,410.36,407.82,415.18,397.68Z"/><path class="cls-1" d="M492.92,444.5c-7.35,28.24-49.2,60.3-47.78,55.1C460.66,509,517.33,501.22,492.92,444.5Z"/><path class="cls-1" d="M403.86,359.23c-9.84-13.44-33.93-15.78-54.82,6.68-18.08,19.44-29.3,41.58-23.73,52.59.94,1.86,1.92,5.38,4.06,4.83,23.88-6.19,34.64-18.43,34.56-16.73-.51,10.89-27.05,20.57-25.17,21,14.49,3.71,36.48-.15,51.33-11.1C411.38,400.8,413.64,372.61,403.86,359.23ZM340.7,393.5c-7.64-2.33-.46-14.69-.46-14.69s3.21-5.81,4.3-5c10.62,9.45,15.76-6.45,15.2-5.18C359.72,368.65,357.42,395.94,340.7,393.5Z"/><path class="cls-1" d="M106.81,429.28h0c-29.25-5.82-54-17.92-66.17-32.36-14.52-17.23-22-39.08-19.56-57,1.39-10.17,6-18.38,12.88-23.11,6.07-4.15,14.3-5.36,23.78-3.46,17,3.38,36.55,16.32,51,33.76,20,24.12,47,73.59,44.39,81.43a3.31,3.31,0,0,1-2.38,2.27c-10.5,2.52-26.51,2-43.93-1.49Zm-50.07-111c-8.13-1.62-15-.69-20,2.68-5.8,4-9.5,10.74-10.71,19.58-2.27,16.56,4.79,36.89,18.41,53.06C56,407.21,79.63,418.69,107.8,424.29h0c15.77,3.14,30.75,3.8,40.49,1.82-1-8.59-23.13-51.3-43.43-75.77-13.75-16.59-32.19-28.86-48.12-32Z"/><path class="cls-1" d="M208.46,322.65c2.48,1.76,6.43.39,8.79-3s2.25-7.61-.23-9.37-6.43-.39-8.79,3S206,320.91,208.46,322.65Z"/><path class="cls-1" d="M173.17,325.7c3-.1,5.34-3.59,5.17-7.77s-2.75-7.46-5.78-7.36-5.35,3.59-5.17,7.76S170.16,325.8,173.17,325.7Z"/><path class="cls-1" d="M170.66,324.26a5.82,5.82,0,0,1,4.32.59c-3.78,16.54,13.48,40.46,21.92,50.94C189.65,335.61,208.83,320,208.83,320s2.48.89,3.23,2.78c-17.77,14.34-11.59,53.37-10.73,58.26h0s6.66,10.59.63,6.17C165.35,352.81,170.66,324.26,170.66,324.26Z"/><path class="cls-2" d="M124.83,449.09c-3.9-.15-20.87,12.67-21,16.38,4.67,15.75,16,45,55.85,63.3,8.12.34,20.33-8.35,22.48-17.89C142.07,496,128.4,462.19,124.83,449.09Z"/><path class="cls-1" d="M167.17,438.32c-2.32-.09-16.11-1.14-24.26,2.94,2.81,9.46,14.43,40.86,50.88,51.41,4.22-3.43,5.68-19.69,4.28-24.9C178.79,462.6,172,448.46,167.17,438.32Z"/><path class="cls-1" d="M89.43,485.14c7.35,28.25,49.2,60.3,47.78,55.09C121.7,549.64,65,541.85,89.43,485.14Z"/><path class="cls-1" d="M205.62,459.77c13.42,3.54,29.12,1.86,41.24-2.93,1.43-.57-22.82-17.72-21.5-18.37,1.64-.8,28.8,14.88,30.24,14,6.29-4,10.46-9.12,11-14.71,1.13-12.29-17.46-28.74-41.43-40.16-27.69-13.19-49.23-2.14-53.43,14S180,453,205.62,459.77Zm10.59-55.72c-1-1,9.64,11.91,16-.78.7-1.17,5.83,3.05,5.83,3.05s11.22,8.85,5,13.83C228.4,428.58,216.22,404.06,216.22,404.06Z"/><path class="cls-1" d="M377.5,444s2-1.59,3,.71,1.37,4.42.18,6-20.41,12.63-22.94,16.72-11.21,10.9-10.93,14-6.1,2.09-8.31.25-4.38-3.53-6.95-2.12-19.22,2.55-23.82-6.31c0,0-1.11-8.11,3.17-11s8.28-1.19,10.59.3,7.18.81,7.62,1.33,3.19,5.09,2.74,7.89,1.57-1.32,4.4,1.95,2.89-2.77,9-1.2c3.18.82,4.75-5.56,11.11-10.55,0,0,9.26-9.81,10.51-11.05a92.86,92.86,0,0,1,7.5-6.06A11.24,11.24,0,0,1,377.5,444Z"/><path class="cls-1" d="M206.13,477.44s-3.48-.36-3.69,2.17.19,4.83,2.58,5.4c13.62,3.27,33.43.69,38.76,3s20.25,3.91,21.33,6.8,9.2-1.3,11.3-4.08,4.21-5.4,8.33-5.48,27-7.66,29-17.92c0,0-2.36-7.79-9.48-8.17a17.64,17.64,0,0,0-14.09,5.74c-2.4,2.52-7.52,6.32-7.86,7s-3.63,4.29-1.71,6.53-2.73-.36-5,4-5.21-1-12.63,3.57c-3.87,2.38-9-2.49-19.94-3.64,0,0-17.1-3.94-19.37-4.4a97,97,0,0,0-13-1.52A19.9,19.9,0,0,0,206.13,477.44Z"/><path class="cls-2" d="M82.44,527.94,47.92,571.27l43.42-32.84A21.92,21.92,0,0,1,82.44,527.94Z"/><path class="cls-2" d="M490.46,498.63l45.82,31.13-36-40.8A21.92,21.92,0,0,1,490.46,498.63Z"/></svg>