<svg xmlns="http://www.w3.org/2000/svg" xmlns:xlink="http://www.w3.org/1999/xlink" width="74" height="74" version="1.1" style=""><rect id="backgroundrect" width="100%" height="100%" x="0" y="0" fill="none" stroke="none"/>
    <!-- Generator: Sketch 46.2 (44496) - http://www.bohemiancoding.com/sketch -->
    <title>Icon/74px/Laptop</title>
    <desc>Created with Sketch.</desc>
    <defs>
        <path d="M0,44 L74,44 C74,48.418278 70.418278,52 66,52 L8,52 C3.581722,52 5.41083001e-16,48.418278 0,44 Z" id="path-1"/>
        <path d="M10,0 L64,0 C66.7614237,-5.07265313e-16 69,2.23857625 69,5 L69,46 L5,46 L5,5 C5,2.23857625 7.23857625,5.07265313e-16 10,0 Z" id="path-2"/>
        <path d="M0,0 L14,0 L14,12.67427 C14,13.2265548 13.5522847,13.67427 13,13.67427 C12.9070835,13.67427 12.8146203,13.6613201 12.7252789,13.635794 L7,12 L1.27472113,13.635794 C0.743686115,13.7875183 0.190200342,13.4800262 0.0384760524,12.9489911 C0.0129499191,12.8596497 6.20521112e-16,12.7671865 4.4408921e-16,12.67427 L0,0 Z" id="path-3"/>
    </defs>
    
<g class="currentLayer" style=""><title>Layer 1</title><g id="Symbols" stroke="none" stroke-width="1" fill="none" fill-rule="evenodd">
        <g id="Icon/74px/Laptop">
            <circle id="Oval-14" fill="#E9EBF8" cx="37" cy="37" r="34"/>
            <g id="Group-48">
                <g id="Rectangle-92">
                    <use fill="#FFFFFF" fill-rule="evenodd" xlink:href="#path-1" y="11" x="0" id="svg_1"/>
                    <path stroke="#3870DF" stroke-width="2" d="M1.07088886,56 C1.55611852,59.3922941 4.47352809,62 8,62 L66,62 C69.5264719,62 72.4438815,59.3922941 72.9291111,56 L1.07088886,56 z" id="svg_2"/>
                </g>
                <path d="M28,55 L46,55 C46,57.209139 44.209139,59 42,59 L32,59 C29.790861,59 28,57.209139 28,55 z" id="Rectangle-95" fill="#3870DF"/>
                <g id="Rectangle-93">
                    <use fill="#FFFFFF" fill-rule="evenodd" xlink:href="#path-2" y="11" x="0" id="svg_3"/>
                    <path stroke="#3870DF" stroke-width="2" d="M6,56 L68,56 L68,16 C68,13.790861 66.209139,12 64,12 L10,12 C7.790861,12 6,13.790861 6,16 L6,56 z" id="svg_4"/>
                </g>
                <rect id="Rectangle-94" fill="#D5D9EF" x="10" y="19" width="54" height="32"/>
                <path d="M36.1318954,39.4477612 C36.1060139,39.6676628 36.060722,39.8099499 35.9960182,39.874626899999996 C35.478388100000004,40.3920424 34.8443007,40.7218898 34.093737,40.8641791 C33.8608034,40.9029853 33.5825814,40.9223881 33.2590626,40.9223881 C32.1979208,40.9223881 31.4991306,40.7348277 31.1626711,40.3597015 C31.0720858,40.2562184 31.0267938,40.0751257 31.0267938,39.816417900000005 C31.0267938,39.1437777 31.2661942,38.2641845 31.745002,37.1776119 C31.8097058,37.035322699999995 31.7967652,36.964179099999996 31.70618,36.964179099999996 C31.6673577,36.964179099999996 31.6220658,37.0029847 31.5703027,37.080597 C31.0785541,37.9084619 30.4250559,38.6910411 29.6097884,39.428358200000005 C28.4580614,40.4761246 27.3904653,41 26.4069681,41 C25.8634564,41 25.3587746,40.8447777 24.8929075,40.5343284 C24.2976329,40.133331299999995 24,39.447766 24,38.4776119 C24,36.7183992 24.8864283,34.7457821 26.6593115,32.5597015 C27.7592755,31.2014857 29.1503856,30.0761239 30.8326835,29.1835821 C32.3208701,28.3945234 33.5825746,28 34.6178349,28 C34.9413537,28 35.2131054,28.1487547 35.4330983,28.4462687 C35.6142688,28.7049764 35.7048527,28.8666663 35.7048527,28.9313433 C35.7048527,29.0995033 35.4460415,29.2094525 34.9284114,29.261194 C32.9484762,29.4681602 30.7874028,30.8910316 28.4451265,33.5298507 C28.1992522,33.8144293 27.9566167,34.131341500000005 27.7172128,34.480597 C27.477808800000002,34.8298525 27.2416436,35.217908300000005 27.0087101,35.6447761 C26.4263762,36.7184133 26.1352136,37.5721361 26.1352136,38.2059701 C26.1352136,38.800998 26.3875545,39.1825862 26.8922439,39.3507463 C27.0087106,39.4024878 27.1510568,39.428358200000005 27.3192866,39.428358200000005 C28.3804283,39.428358200000005 29.7715384,38.1025008 31.4926586,35.4507463 C31.8161774,34.9592015 32.1946888,34.309208 32.628204,33.5007463 C33.0617193,32.6922845 33.5696362,31.7189112 34.1519701,30.580597 C34.3460814,30.1796 34.7407684,30.0243777 35.3360431,30.1149254 C35.7372064,30.1666669 35.9377851,30.341292 35.9377851,30.638806 C35.9377851,30.7552245 35.8989634,30.891044 35.8213189,31.0462687 C35.7048521,31.3049764 35.53986,31.680097 35.3263376,32.1716418 C35.1128151,32.663186499999995 34.8572391,33.2776083 34.5596018,34.014925399999996 C34.1713792,34.9850795 33.8511004,35.812931899999995 33.5987557,36.4985075 C33.346411,37.184083 33.155537700000004,37.7338288 33.0261302,38.147761200000005 C32.8967227,38.587564400000005 32.8320199,38.936814600000005 32.8320199,39.1955224 C32.8320199,39.454230100000004 32.9161335,39.6288553 33.0843633,39.719403 C33.1749486,39.7711445 33.3949381,39.8164177 33.7443384,39.8552239 C34.0419757,39.8810947 34.3978411,39.777613099999996 34.8119452,39.5447761 C35.2389901,39.3248745 35.5948554,39.020897500000004 35.879552,38.632835799999995 C35.9442558,38.5552235 35.996018,38.5746263 36.0348403,38.6910448 C36.1254255,38.9109464 36.1577769,39.1631827 36.1318954,39.4477612 zM49.9913728,39.4477612 C49.9654913,39.6676628 49.9201993,39.8099499 49.8554955,39.874626899999996 C49.3119839,40.4179132 48.6778965,40.7477606 47.9532143,40.8641791 C47.5391102,40.9417914 47.1379529,40.980597 46.7497303,40.980597 C46.1803372,40.980597 45.6950662,40.909453400000004 45.2939029,40.767164199999996 C44.5821614,40.495521 44.2262961,40.0557244 44.2262961,39.4477612 C44.2262961,39.0855703 44.388053,38.464681 44.7115719,37.5850746 C44.8539202,37.2099484 44.989796,36.870399500000005 45.1192036,36.566417900000005 C45.2486111,36.262436300000005 45.3715464,35.994031 45.4880132,35.761194 C45.656243,35.4378093 45.7403566,35.2049758 45.7403566,35.0626866 C45.7403566,34.868655700000005 45.6433024,34.7716418 45.4491911,34.7716418 C45.2680206,34.7716418 45.0027391,34.9915401 44.6533388,35.4313433 C44.4204052,35.7288572 44.1648292,36.0781074 43.886603,36.4791045 C43.6083768,36.880101499999995 43.3010385,37.3393009 42.9645789,37.856716399999996 C42.5504748,38.490550400000004 42.2204906,39.027361 41.9746163,39.4671642 C41.728742,39.9069674 41.566985,40.24975 41.4893405,40.4955224 C41.3858144,40.7930363 41.0170085,40.941790999999995 40.3829116,40.941790999999995 C39.6711702,40.941790999999995 39.367067,40.7930363 39.4705931,40.4955224 C39.7682304,39.7064637 40.0917444,38.8753775 40.4411447,38.0022388 C40.790545,37.1291001 41.1528807,36.2009999 41.5281625,35.2179104 C41.65757,34.8557196 41.5993375,34.6552241 41.3534632,34.6164179 C41.0817074,34.5776117 40.7129015,34.8363156 40.2470344,35.3925373 C39.8846933,35.8064697 39.321779,36.7119333 38.5582745,38.1089552 C37.8724146,39.337817099999995 37.4453762,40.1462667 37.2771464,40.5343284 C37.1736203,40.793036099999995 36.8112847,40.9223881 36.1901285,40.9223881 C35.5689724,40.9223881 35.2907504,40.7671657 35.3554541,40.456716400000005 C35.666032200000004,39.357208400000005 35.986311,38.20921 36.3163002,37.012686599999995 C36.6462894,35.8161632 36.9924494,34.5582156 37.3547905,33.238806 C37.4453758,32.8507443 37.7624195,32.6567164 38.3059311,32.6567164 C38.5647462,32.6567164 38.7912059,32.701989600000005 38.9853172,32.7925373 C39.2700138,32.9089558 39.41236,33.0641781 39.41236,33.258209 C39.41236,33.348756699999996 39.3864788,33.439302999999995 39.3347158,33.5298507 C39.2053083,33.775623100000004 39.0500216,34.1507437 38.868851,34.655223899999996 C38.6488582,35.2761225 38.5388635,35.6512431 38.5388635,35.780597 C38.5388635,35.9746278 38.6488582,35.9034843 38.868851,35.5671642 C40.0076373,33.846757600000004 41.0817037,32.986567199999996 42.0910825,32.986567199999996 C42.1428455,32.986567199999996 42.1946077,32.989801 42.2463707,32.9962687 C42.2981337,33.0027364 42.3563663,33.0124377 42.42107,33.025373099999996 C43.0681077,33.141791600000005 43.3916217,33.5039771 43.3916217,34.1119403 C43.3916217,34.512937300000004 43.2686863,34.9850719 43.022812,35.5283582 C42.919286,35.7482598 42.8998752,35.858209 42.9645789,35.858209 C42.9775197,35.858209 43.1780984,35.6124403 43.566321,35.1208955 C44.0321881,34.5258677 44.4592265,34.0666683 44.8474491,33.7432836 C45.4556645,33.2517388 46.0056383,33.0059701 46.4973869,33.0059701 C46.7691427,33.0059701 47.0279539,33.070646100000005 47.2738282,33.2 C47.6879323,33.394030799999996 47.894981200000004,33.743281100000004 47.894981200000004,34.2477612 C47.894981200000004,34.4676628 47.8561596,34.7134315 47.778515,34.985074600000004 C47.6620483,35.4378132 47.4097074,36.1751193 47.0214848,37.1970149 C46.8144327,37.7532366 46.659146,38.1736304 46.55562,38.458209 C46.452094,38.7427875 46.3938614,38.8980098 46.3809207,38.923880600000004 C46.3420984,39.0661699 46.3226876,39.176119 46.3226876,39.2537313 C46.3226876,39.4477622 46.4132715,39.5965169 46.594442,39.7 C46.8403164,39.8552247 47.2155926,39.9199006 47.7202819,39.8940299 C47.9661563,39.8810945 48.2832,39.7646777 48.6714225,39.5447761 C49.1372897,39.286068400000005 49.493155,38.9820913 49.7390293,38.632835799999995 C49.8037331,38.5552235 49.8554953,38.5746263 49.8943176,38.6910448 C49.9849029,38.9109464 50.0172543,39.1631827 49.9913728,39.4477612 z" id="Mark" fill="#FFFFFF" fill-rule="nonzero"/>
                <rect id="Rectangle-96" fill="#0C2B9E" opacity="0.2" x="5" y="53" width="64" height="2"/>
                <circle id="Oval-15" fill="#D5D9EF" cx="37" cy="16" r="1"/>
            </g>
            <g id="Group-47">
                <g id="Star-2">
                    <mask id="mask-4" fill="white" transform="translate(5,19) translate(50,0) ">
                        <use xlink:href="#path-3" id="svg_5"/>
                    </mask>
                    <use id="Mask" fill="#3870DF" xlink:href="#path-3" y="19" x="55"/>
                    <path d="M55.355800782,23.24039262 C53.85476449,23.20564667 52.65360144,21.98333427 52.64505747,20.48192019 C52.63520406,18.750399384 51.96362487,17.08818254 50.7678974,15.835785959999999 C49.73107355,14.74982392 49.7460284,13.03616799 50.80164698,11.96846642 C52.01904967,10.73712891 52.71953627,9.0868859 52.75960738,7.355800799999999 C52.79435333,5.8547645 54.016665733,4.653601399999999 55.518079813,4.6450575 C57.24960062,4.635204099999999 58.91181746,3.9636248999999992 60.16421404,2.767897399999999 C61.25017608,1.7310735999999984 62.96383201,1.7460284000000001 64.03153358,2.801646999999999 C65.2628711,4.0190497 66.9131141,4.7195363 68.6441992,4.7596074 C70.1452355,4.794353299999999 71.3463986,6.016665700000001 71.35494249999999,7.518079800000001 C71.3647959,9.24960062 72.0363751,10.91181746 73.2321026,12.164214040000001 C74.2689264,13.25017608 74.2539716,14.96383201 73.198353,16.03153358 C71.9809503,17.26287109 71.2804637,18.9131141001 71.2403926,20.64419922 C71.2056467,22.14523551 69.9833343,23.34639856 68.48192019999999,23.35494253 C66.75039939999999,23.36479594 65.0881825,24.03637513 63.83578596,25.2321026 C62.74982392,26.268926450000002 61.03616799,26.2539716 59.96846642,25.19835302 C58.73712891,23.98095033 57.0868859,23.28046373 55.355800782,23.24039262 L55.355800782,23.24039262 z" id="Combined-Shape" fill="#0C2B9E" opacity="0.2" mask="url(#mask-4)"/>
                </g>
                <path d="M55.35580078,21.2403926 C53.85476449,21.2056467 52.65360144,19.9833343 52.64505747,18.4819202 C52.63520406,16.7503994 51.963624870000004,15.0881825 50.767897396,13.835786 C49.731073551,12.7498239 49.746028399,11.036168 50.801646983,9.96846642 C52.01904967,8.737128910000001 52.71953627,7.0868859 52.75960738,5.35580078 C52.79435333,3.85476449 54.01666573,2.65360144 55.51807981,2.6450574700000002 C57.24960062,2.63520406 58.91181746,1.9636248700000003 60.164214,0.7678973960000002 C61.250176100000004,-0.26892644900000007 62.963832,-0.25397160100000005 64.0315336,0.801646983 C65.2628711,2.01904967 66.9131141,2.71953627 68.6441992,2.7596073800000003 C70.1452355,2.79435333 71.3463986,4.01666573 71.35494249999999,5.51807981 C71.3647959,7.24960062 72.0363751,8.91181746 73.2321026,10.164214 C74.2689264,11.250176100000001 74.2539716,12.963832 73.198353,14.0315336 C71.9809503,15.2628711 71.2804637,16.9131141 71.2403926,18.6441992 C71.2056467,20.1452355 69.9833343,21.3463986 68.4819202,21.3549425 C66.75039939999999,21.3647959 65.0881825,22.0363751 63.835786,23.2321026 C62.7498239,24.2689264 61.036168,24.2539716 59.96846642,23.198353 C58.73712891,21.9809503 57.0868859,21.2804637 55.35580078,21.2403926 L55.35580078,21.2403926 z" id="Combined-Shape" fill="#3870DF" transform=""/>
                <circle id="Oval-16" fill="#FFFFFF" cx="62" cy="12" r="8"/>
                <polygon id="Star-3" fill="#D3D8EE" points="62,15.399916648864746 58.90983009338379,16.51056480407715 59.01120471954346,13.228429794311523 57,10.632712364196777 60.15282344818115,9.714890480041504 62,7 63.847177505493164,9.714890480041504 67,10.632712364196777 64.98879528045654,13.228429794311523 65.09016990661621,16.51056480407715 "/>
            </g>
        </g>
    </g><rect fill="#d5d9ef" stroke="none" stroke-width="2" stroke-linejoin="round" stroke-dashoffset="" fill-rule="nonzero" id="svg_6" x="18" y="26" width="34" height="19" style="color: rgb(0, 0, 0);" class="selected" fill-opacity="1"/></g></svg>