<?xml version="1.0" encoding="utf-8"?>
<!-- Generator: Adobe Illustrator 22.1.0, SVG Export Plug-In . SVG Version: 6.00 Build 0)  -->
<svg version="1.1" id="Ebene_1" xmlns="http://www.w3.org/2000/svg" xmlns:xlink="http://www.w3.org/1999/xlink" x="0px" y="0px"
	 viewBox="0 0 450.6 248.7" style="enable-background:new 0 0 450.6 248.7;" xml:space="preserve">
<style type="text/css">
	.st0{fill:#F8B334;}
	.st1{fill:#1A171B;stroke:#1A171B;stroke-width:4;}
	.st2{fill:none;stroke:#1A171B;stroke-width:4;}
	.st3{fill:#1A171B;}
</style>
<title>Lupen-BieneZeichenfläche 1</title>
<rect x="211.8" y="169.7" transform="matrix(0.2517 -0.9678 0.9678 0.2517 12.3095 363.1482)" class="st0" width="58.5" height="7.9"/>
<ellipse transform="matrix(0.2516 -0.9678 0.9678 0.2516 78.9939 327.0457)" class="st1" cx="251" cy="112.4" rx="25.3" ry="5.9"/>
<line class="st2" x1="257.3" y1="88" x2="269.7" y2="91.2"/>
<line class="st2" x1="244.6" y1="136.9" x2="256.9" y2="140.1"/>
<ellipse transform="matrix(0.2517 -0.9678 0.9678 0.2517 85.0883 341.3882)" class="st1" cx="263.3" cy="115.7" rx="25.3" ry="5.9"/>
<rect x="260.4" y="92.1" transform="matrix(0.2516 -0.9678 0.9678 0.2516 105.8328 324.7162)" class="st1" width="5" height="3.7"/>
<rect x="251" y="130.9" transform="matrix(0.2496 -0.9684 0.9684 0.2496 61.0553 345.3666)" class="st1" width="4.8" height="4.8"/>
<path class="st0" d="M326.7,48.2h71.1c5.4,0,6.5-1.1,6.5-6.5s-11-13.1-16.4-13.1h-51.3c-5.4,0-16.4,7.7-16.4,13.1
	S321.3,48.2,326.7,48.2z"/>
<path class="st0" d="M301.9,87.9h120.7c9.2,0,11-1.6,11-9.3c0-16.6-18.7-18.8-27.9-18.8h-87c-9.2,0-27.9,2.2-27.9,18.8
	C290.9,86.4,292.7,87.9,301.9,87.9z"/>
<path class="st0" d="M291.6,130.2h139.8c10.6,0,12.8-1.6,12.8-9.3c0-16.6-8.4-18.8-19.1-18.8H297.9c-10.6,0-19.1,2.2-19.1,18.8
	C278.8,128.6,281,130.2,291.6,130.2z"/>
<path class="st0" d="M438.6,142.8H286.5c-6.6,0-12,6.7-12,15s5.4,15,12,15h152.2c6.6,0,12-6.7,12-15S445.3,142.8,438.6,142.8z"/>
<path class="st0" d="M432.3,184.5h-140c-6.1,0-11,3.1-11,12.2s4.9,16.6,11,16.6H332v14.4h-27.8c-8.9,0-10.6,1.2-10.6,6.9
	c0,12.3,18,14,26.8,14h23.2v-16.8c0-17.7,8.4-32.1,18.7-32.1s18.7,14.4,18.7,32.1v16.8h23.2c8.8,0,26.8-1.7,26.8-14
	c0-5.8-1.8-6.9-10.6-6.9h-27.8v-14.4h39.7c6.1,0,11-7.4,11-16.6S438.3,184.5,432.3,184.5z"/>
<path class="st3" d="M192,99.1c2.1-0.3,4.2,1.8,4.6,4.7s-0.9,5.5-3.1,5.9s-4.2-1.8-4.6-4.7S189.8,99.4,192,99.1z"/>
<path class="st3" d="M75.9,111.6L75.9,111.6c-25.8-5.1-47.5-15.8-58.3-28.5C4.8,67.9-1.8,48.7,0.4,32.9c1.2-9,5.2-16.2,11.3-20.4
	c5.3-3.7,12.6-4.7,20.9-3c15,3,32.2,14.4,44.9,29.7c17.6,21.2,41.4,64.8,39.1,71.7c-0.3,1-1.1,1.8-2.1,2
	C105.3,115.1,91.2,114.6,75.9,111.6L75.9,111.6z M31.8,13.9c-7.2-1.4-13.2-0.6-17.6,2.4c-5.1,3.5-8.4,9.5-9.4,17.2
	C2.8,48,9,65.9,21,80.2c10.1,12,31,22.1,55.8,27l0,0c13.9,2.8,27.1,3.4,35.6,1.6c-0.9-7.6-20.4-45.2-38.2-66.7
	C62.1,27.4,45.8,16.6,31.8,13.9L31.8,13.9z"/>
<path class="st3" d="M197.7,21.9c1.5,2.2,5.1,2.4,8.2,0.4s4.4-5.5,2.9-7.7s-5.1-2.4-8.2-0.4S196.3,19.7,197.7,21.9z"/>
<path class="st3" d="M168,12.8c2.5,0.9,5.5-1.2,6.8-4.6s0.2-7-2.3-7.9s-5.6,1.2-6.8,4.6S165.4,11.8,168,12.8z"/>
<path class="st3" d="M166.3,10.8c1.3,0.2,2.5,0.9,3.3,1.9c-8.5,12.3-2.4,37.5,1.1,48.8c7.3-35.2,28.2-41.6,28.2-41.6
	c1,0.9,1.6,2,1.7,3.3c-19.2,5.8-27.1,39.8-28,44l0,0c0,0,1.9,10.8-1.5,5.2C152.6,32.3,166.3,10.8,166.3,10.8z"/>
<path class="st0" d="M91.8,129c-3.4-0.1-18.4,11.2-18.5,14.4c4.1,13.9,14.1,39.6,49.2,55.8c7.1,0.3,17.9-7.4,19.8-15.8
	C117.7,174.4,98.9,154.2,91.8,129z"/>
<path class="st3" d="M129.1,119.5c-2-0.1-14.2-1-21.4,2.6c2.5,8.3,12.7,36,44.8,45.3c3.7-3,5-17.3,3.8-21.9
	C139.3,140.9,133.3,128.5,129.1,119.5z"/>
<path class="st3" d="M60.6,160.8c6.5,24.9,43.3,53.1,42.1,48.5C89,217.6,39.1,210.7,60.6,160.8z"/>
<path class="st3" d="M150.2,132.9c9.8,7.3,23.2,11.1,34.6,11.2c1.4,0-12-24.5-11.5-22.1c0.9,4.6,18.6,21.6,20.1,21.4
	c6.5-1.2,11.5-4,13.8-8.4c5-9.7-4.8-29.2-20.6-46.5c-18.3-19.9-39.5-18-48.2-6.2S131.5,118.9,150.2,132.9z M178,89.1
	c0.4-0.8,3.5-2.8,11.7,5.4c0,0,3.8,4.2,4.6,5.5c1.8,2.7,6.2,10.9-0.5,12.9C179.1,115,178,89.1,178,89.1z"/>
<path class="st3" d="M164.1,153.6c0,0-2.9-1.1-3.6,1s-1,4.1,0.9,5.2c10.8,6,28.2,8.4,32.2,11.7s16.3,8.1,16.5,10.8s8.1,1.1,10.5-0.8
	s4.8-3.6,8.4-2.7s24.8-0.1,28.9-8.4c0,0-0.2-7.2-6.1-9.2c-4.4-1.5-9.3-0.9-13.3,1.6c-2.6,1.6-7.9,3.6-8.3,4.1s-4.1,2.8-3,5.1
	s-2.2-1-5.2,2.2s-4.2-2-11.6,0.1c-3.8,1.1-7.1-4.2-16.1-7.8c0,0-13.6-7.4-15.4-8.3c-3.4-1.7-7-3.1-10.6-4.3
	C166.9,153.6,165.5,153.5,164.1,153.6z"/>
<path class="st0" d="M54.4,198.7L19.9,242l43.4-32.8C59.3,206.8,56.2,203.1,54.4,198.7z"/>
</svg>
