<?xml version="1.0" encoding="UTF-8"?>
<svg width="74px" height="74px" viewBox="0 0 74 74" version="1.1" xmlns="http://www.w3.org/2000/svg" xmlns:xlink="http://www.w3.org/1999/xlink">
    <!-- Generator: Sketch 46.2 (44496) - http://www.bohemiancoding.com/sketch -->
    <title>Icon/74px/Maternity</title>
    <desc>Created with Sketch.</desc>
    <defs>
        <path d="M0,36.6380137 L3.33072852,17.7638854 L32.1970423,17.7638854 L35.5277708,36.6380137 L35.5277708,75.0477272 C35.5277708,78.3614357 32.8414793,81.0477272 29.5277708,81.0477272 L6,81.0477272 C2.6862915,81.0477272 4.09310994e-14,78.3614357 3.46389584e-14,75.0477272 L0,36.6380137 Z" id="path-1"></path>
        <path d="M13.3229141,6.30931335 C8.14832811,8.13826704 4.44097135,13.0732479 4.44097135,18.8741283 L31.0867995,18.8741283 C31.0867995,13.0732479 27.3794427,8.13826704 22.2048568,6.30931335 L22.2048568,4.44097135 C22.2048568,1.9882906 20.2165662,-4.50550145e-16 17.7638854,0 C15.3112047,4.50550145e-16 13.3229141,1.9882906 13.3229141,4.44097135 L13.3229141,6.30931335 L13.3229141,6.30931335 Z" id="path-2"></path>
    </defs>
    <g id="Symbols" stroke="none" stroke-width="1" fill="none" fill-rule="evenodd">
        <g id="Icon/74px/Maternity">
            <g id="Group-15" transform="translate(-2.000000, -7.000000)">
                <circle id="Oval" fill="#E9EBF8" cx="39" cy="44" r="34"></circle>
                <g id="Group-7" transform="translate(41.798686, 41.781442) rotate(-315.000000) translate(-41.798686, -41.781442) translate(23.798686, 0.781442)">
                    <g id="Rectangle-46">
                        <use fill="#D3D8EE" fill-rule="evenodd" xlink:href="#path-1"></use>
                        <path stroke="#3870DF" stroke-width="2" d="M1,36.7255725 L1,75.0477272 C1,77.809151 3.23857625,80.0477272 6,80.0477272 L29.5277708,80.0477272 C32.2891946,80.0477272 34.5277708,77.809151 34.5277708,75.0477272 L34.5277708,36.7255725 L31.3580613,18.7638854 L4.16970949,18.7638854 L1,36.7255725 Z"></path>
                    </g>
                    <path d="M4.44097135,23.3150996 L31.0867995,23.3150996 L33.3072852,36.6380137 L33.3072852,53.2916563 C22.7599782,57.1775062 18.4968192,47.7404421 11.1024284,47.7404421 C6.17283453,47.7404421 3.21218696,49.5908468 2.22048568,53.2916563 L2.22048568,36.6380137 L4.44097135,23.3150996 Z" id="Rectangle-140" fill="#FFFFFF"></path>
                    <path d="M23.3150996,67.7248132 L33.3072852,67.7248132 L33.3072852,69.9452988 L23.3150996,69.9452988 C22.7019294,69.9452988 22.2048568,69.4482262 22.2048568,68.835056 C22.2048568,68.2218858 22.7019294,67.7248132 23.3150996,67.7248132 Z M26.6458281,61.0633561 L33.3072852,61.0633561 L33.3072852,63.2838418 L26.6458281,63.2838418 C26.0326579,63.2838418 25.5355853,62.7867691 25.5355853,62.173599 C25.5355853,61.5604288 26.0326579,61.0633561 26.6458281,61.0633561 Z M23.3150996,54.4018991 L33.3072852,54.4018991 L33.3072852,56.6223848 L23.3150996,56.6223848 C22.7019294,56.6223848 22.2048568,56.1253121 22.2048568,55.5121419 C22.2048568,54.8989717 22.7019294,54.4018991 23.3150996,54.4018991 Z M26.6458281,47.7404421 L33.3072852,47.7404421 L33.3072852,49.9609277 L26.6458281,49.9609277 C26.0326579,49.9609277 25.5355853,49.4638551 25.5355853,48.8506849 C25.5355853,48.2375147 26.0326579,47.7404421 26.6458281,47.7404421 Z M23.3150996,41.078985 L33.3072852,41.078985 L33.3072852,43.2994707 L23.3150996,43.2994707 C22.7019294,43.2994707 22.2048568,42.8023981 22.2048568,42.1892279 C22.2048568,41.5760577 22.7019294,41.078985 23.3150996,41.078985 Z M26.6458281,34.417528 L33.3072852,34.417528 L33.3072852,36.6380137 L26.6458281,36.6380137 C26.0326579,36.6380137 25.5355853,36.140941 25.5355853,35.5277708 C25.5355853,34.9146006 26.0326579,34.417528 26.6458281,34.417528 Z M23.3150996,27.756071 L33.3072852,27.756071 L33.3072852,29.9765566 L23.3150996,29.9765566 C22.7019294,29.9765566 22.2048568,29.479484 22.2048568,28.8663138 C22.2048568,28.2531436 22.7019294,27.756071 23.3150996,27.756071 L23.3150996,27.756071 Z" id="Combined-Shape" fill="#0C2B9E" opacity="0.2"></path>
                    <rect id="Rectangle-47" fill="#3870DF" x="1.11024284" y="16.6536426" width="33.3072852" height="6.66145703"></rect>
                    <g id="Combined-Shape">
                        <use fill="#FFFFFF" fill-rule="evenodd" xlink:href="#path-2"></use>
                        <path stroke="#3870DF" stroke-width="2" d="M5.48125017,17.8741283 L30.0465207,17.8741283 C29.6550424,13.030038 26.4432174,8.86798433 21.8716107,7.25215324 L21.2048568,7.01648954 L21.2048568,4.44097135 C21.2048568,2.54057535 19.6642814,1 17.7638854,1 C15.8634894,1 14.3229141,2.54057535 14.3229141,4.44097135 L14.3229141,7.01648954 L13.6561601,7.25215324 C9.08455348,8.86798433 5.87272845,13.030038 5.48125017,17.8741283 Z"></path>
                    </g>
                    <path d="M29.0396233,16.7580211 C28.2301559,12.1106663 24.5964346,8.43320906 19.9716838,7.55887389 C22.2551034,9.95034381 23.6573614,13.190425 23.6573614,16.7580211 L29.0396233,16.7580211 Z" id="Combined-Shape" fill="#CED5EC"></path>
                </g>
            </g>
        </g>
    </g>
</svg>