<?xml version="1.0" encoding="utf-8"?>
<!-- Generator: Adobe Illustrator 22.1.0, SVG Export Plug-In . SVG Version: 6.00 Build 0)  -->
<svg version="1.1" id="Ebene_1" xmlns="http://www.w3.org/2000/svg" xmlns:xlink="http://www.w3.org/1999/xlink" x="0px" y="0px"
	 viewBox="0 0 362.7 333.5" style="enable-background:new 0 0 362.7 333.5;" xml:space="preserve">
<style type="text/css">
	.st0{fill:#1A171B;}
	.st1{fill:#F8B334;}
</style>
<title>Micro-BieneZeichenfläche 1</title>
<path class="st0" d="M337.4,214l17.8,80.1c-2.9,4.9-9.5,2.5-9.5,2.5l-25.2-78.2L337.4,214z"/>
<path class="st1" d="M77.2,286l-39.1,47.5l48.8-35.7C86.9,297.8,79.9,293.7,77.2,286z"/>
<path class="st0" d="M107.7,159L107.7,159c-36.6-7.3-67.5-22.4-82.7-40.5C6.9,97-2.5,69.7,0.6,47.2c1.7-12.7,7.5-23,16.1-28.9
	c7.6-5.2,17.9-6.7,29.7-4.3c21.3,4.2,45.7,20.4,63.7,42.2c25,30.1,58.7,92,55.5,101.8c-0.4,1.4-1.6,2.5-3,2.8
	C149.5,164,129.5,163.3,107.7,159L107.7,159z M45.2,20.3c-10.2-2-18.8-0.9-24.9,3.4C13,28.6,8.3,37,6.8,48.1
	c-2.8,20.7,6,46.1,23,66.3c14.4,17,43.9,31.3,79.1,38.3l0,0c19.7,3.9,38.4,4.8,50.6,2.3c-1.3-10.7-28.9-64.1-54.3-94.7
	C88.1,39.6,65.1,24.2,45.2,20.3L45.2,20.3z"/>
<path class="st0" d="M274.3,36.1c1.6,3.5,6.7,4.4,11.4,2.2s7.2-6.8,5.6-10.3s-6.7-4.4-11.4-2.2S272.7,32.7,274.3,36.1z"/>
<path class="st0" d="M234.2,17.4c3.3,1.8,8-0.5,10.5-5.2s1.7-9.8-1.7-11.6s-8,0.6-10.5,5.2S230.9,15.6,234.2,17.4z"/>
<path class="st0" d="M232.4,14.2c0,0,3.2,0.9,4.3,3.3c-14.4,15.6-10.7,52.2-8,68.9c17.2-48,47.7-53,47.7-53s2.1,2.5,1.8,5
	c-28.2,4.4-45.9,50.6-48,56.4l0,0c0,0,0.6,15.6-3.2,7.1C208.8,41.8,232.4,14.2,232.4,14.2z"/>
<path class="st1" d="M130.3,183.8c-4.9-0.2-26.1,15.8-26.2,20.5c5.8,19.7,20.1,56.2,69.8,79.1c10.1,0.4,25.4-10.4,28.1-22.4
	C151.8,242.4,134.7,200.1,130.3,183.8z"/>
<path class="st0" d="M183.2,170.3c-2.9-0.1-20.1-1.4-30.3,3.7c3.5,11.8,18,51.1,63.6,64.3c5.3-4.3,7.1-24.6,5.3-31.1
	C197.7,200.6,189.2,183,183.2,170.3z"/>
<path class="st0" d="M86,228.8c9.2,35.3,61.5,75.4,59.7,68.9C126.3,309.4,55.5,299.7,86,228.8z"/>
<path class="st0" d="M219.3,193.4c28.5,16.8,73.4,13.5,80.8-6c5.5-14.4-11.3-40.5-36.3-62.3c-28.9-25.2-58.5-19.2-69-1.2
	S190.8,176.6,219.3,193.4z M250.9,129.9c-0.9-1.5,7.6,17.6,19.6,4.5c1.2-1.2,6,5.6,6,5.6s10.5,14.4,1.3,18.3
	C257.3,163.5,250.9,129.9,250.9,129.9z"/>
<path class="st0" d="M231.7,222.4c0,0-4-1.9-5.2,1s-1.8,5.8,0.8,7.4c14.7,9.6,39.1,14.8,44.4,19.8s22.2,13.1,22.3,17
	s11.4,2.3,15-0.1s7.2-4.6,12.1-3s35,2.3,41.7-8.9c0,0,0.5-10.2-7.7-13.6c-6.1-2.6-13.1-2.3-19,0.9c-3.9,2-11.5,4.3-12.2,5
	s-6.1,3.5-4.8,7s-3.1-1.6-7.5,2.6s-5.7-3.3-16.4-1.1c-5.6,1.2-9.6-6.7-22-12.6c0,0-18.5-11.8-21-13.3c-4.7-2.7-9.5-5.2-14.5-7.3
	C235.9,222.5,231.7,222.4,231.7,222.4z"/>
<circle class="st0" cx="322.1" cy="197.1" r="16.9"/>
</svg>
