<?xml version="1.0" encoding="utf-8"?>
<!-- Generator: Adobe Illustrator 22.1.0, SVG Export Plug-In . SVG Version: 6.00 Build 0)  -->
<svg version="1.1" id="Ebene_1" xmlns="http://www.w3.org/2000/svg" xmlns:xlink="http://www.w3.org/1999/xlink" x="0px" y="0px"
	 viewBox="0 0 569.1 378" style="enable-background:new 0 0 569.1 378;" xml:space="preserve">
<style type="text/css">
	.st0{fill:#F8B334;}
	.st1{fill:#FFFFFF;}
	.st2{fill:#1D1D1B;}
	.st3{fill:#707173;}
	.st4{fill:none;}
	.st5{font-family:'Chalkboard';}
	.st6{font-size:4.0072px;}
	.st7{fill:#EA6462;}
	.st8{fill:#95C042;}
	.st9{fill:#60C3DE;}
	.st10{font-size:2.4083px;}
	.st11{font-size:1.5989px;}
	.st12{font-size:2.1385px;}
	.st13{font-size:2.808px;}
	.st14{opacity:0.23;fill:#707173;enable-background:new    ;}
	.st15{fill:#D1D2D4;}
	.st16{font-size:1.8912px;}
	.st17{font-size:1.863px;}
	.st18{fill:#C6C7C8;stroke:#C6C7C8;}
	.st19{fill:#FFFFFF;stroke:#F8B334;}
	.st20{fill:#915E36;}
	.st21{fill:#9C9E9F;}
	.st22{fill:#F7B234;}
</style>
<title>Orga-Bienen</title>
<polygon class="st0" points="329.9,345.2 261.9,351.3 237.4,276.5 305.5,270.4 "/>
<polygon class="st1" points="326.1,342.4 263.8,348 241,278.1 303.3,272.5 "/>
<path class="st2" d="M276.3,271.4c0,0-2.6-6.3-6.7-5.9s-3,6.8-3,6.8l-10.6,1l1.5,4.5l31.2-2.8l-1.5-4.5L276.3,271.4z M271.3,271.3
	c-0.9,0-1.7-0.6-1.9-1.4c-0.3-0.6-0.1-1.3,0.5-1.6c0.1-0.1,0.2-0.1,0.4-0.1c0.9,0,1.7,0.6,1.9,1.4c0.3,0.6,0.1,1.3-0.5,1.6
	C271.6,271.2,271.5,271.3,271.3,271.3L271.3,271.3z"/>
<path class="st3" d="M250.2,295.3c2.7-0.1,4.5-0.2,7.7-0.5l20.5-1.9l20.5-1.9c3.1-0.3,4.9-0.5,7.5-1c-2.7,0.1-4.5,0.2-7.7,0.5
	l-20.5,1.9l-20.5,1.8C254.5,294.6,252.7,294.8,250.2,295.3z"/>
<path class="st3" d="M276.7,326.4c-0.5-1.8-0.8-3-1.5-5.2l-4.6-14l-4.6-14c-0.7-2.2-1.2-3.4-1.9-5.2c0.5,1.8,0.8,3,1.5,5.2
	c0.8,2.3,4.6,14,4.6,14s3.9,11.7,4.6,14C275.5,323.4,275.9,324.6,276.7,326.4z"/>
<path class="st3" d="M313.2,323.3c-0.5-1.8-0.8-3-1.5-5.2c-0.8-2.3-4.6-14-4.6-14s-3.9-11.7-4.6-14c-0.7-2.2-1.2-3.4-1.9-5.2
	c0.5,1.8,0.8,3,1.5,5.2c0.8,2.3,4.6,14,4.6,14s3.9,11.7,4.6,14C311.9,320.3,312.4,321.4,313.2,323.3z"/>
<path class="st3" d="M295.4,325.2c-0.5-1.8-0.8-3-1.5-5.2c-0.8-2.3-4.6-14-4.6-14l-4.6-14c-0.7-2.2-1.2-3.4-1.9-5.2
	c0.5,1.8,0.8,3,1.5,5.2c0.8,2.3,4.6,14,4.6,14s3.9,11.7,4.6,14C294.2,322.2,294.7,323.4,295.4,325.2z"/>
<polygon class="st4" points="287.3,294 270.5,295.5 268.2,288.6 285,287.1 "/>
<text transform="matrix(0.8706 -8.005606e-02 0.3102 0.9507 269.1395 291.2789)" class="st3 st5 st6">DOING</text>
<polygon class="st4" points="305.8,292.5 289,294 286.7,287 303.5,285.5 "/>
<text transform="matrix(0.8706 -8.005606e-02 0.3102 0.9507 287.6196 289.6992)" class="st3 st5 st6">DONE</text>
<polygon class="st4" points="269.4,295.4 252.7,296.9 250.4,290 267.2,288.5 "/>
<text transform="matrix(0.8706 -8.005606e-02 0.3102 0.9507 251.3097 292.689)" class="st3 st5 st6">TO DO</text>
<polygon class="st7" points="256,301.7 251.5,302.1 250,297.4 254.4,297 "/>
<polygon class="st8" points="261.6,300.8 257.1,301.2 255.6,296.5 260,296.1 "/>
<polygon class="st0" points="267.2,300.9 262.8,301.3 261.2,296.6 265.7,296.2 "/>
<polygon class="st9" points="264.4,307.4 260,307.8 258.4,303.1 262.9,302.7 "/>
<polygon class="st9" points="266.4,314.1 262,314.5 260.5,309.7 264.9,309.3 "/>
<polygon class="st8" points="258.1,308.1 253.6,308.5 252.1,303.8 256.5,303.4 "/>
<polygon class="st0" points="260.2,314.2 255.8,314.6 254.2,309.9 258.7,309.5 "/>
<polygon class="st9" points="300.9,297.7 296.5,298.1 294.9,293.4 299.4,293 "/>
<polygon class="st0" points="294.7,297.9 290.3,298.3 288.7,293.5 293.2,293.1 "/>
<polygon class="st0" points="275.1,299.8 270.6,300.2 269.1,295.4 273.5,295 "/>
<polygon class="st8" points="280.9,299.3 276.4,299.7 274.9,295 279.3,294.6 "/>
<polygon class="st7" points="286,298.5 281.5,298.9 280,294.2 284.4,293.8 "/>
<polygon class="st9" points="277,306.3 272.6,306.7 271,301.9 275.5,301.5 "/>
<polygon class="st9" points="287.8,305 283.4,305.4 281.8,300.6 286.2,300.2 "/>
<polygon class="st7" points="282.7,306.4 278.2,306.8 276.7,302 281.1,301.6 "/>
<polygon class="st9" points="320.2,338 297.2,340 291.7,323.2 314.7,321.2 "/>
<polygon class="st4" points="309.7,326.9 297.7,327.9 296.7,324.8 308.7,323.7 "/>
<text transform="matrix(0.8706 -8.005606e-02 0.3102 0.9507 297.2097 326.389)" class="st3 st5 st10">T</text>
<text transform="matrix(0.8706 -8.005606e-02 0.3102 0.9507 298.3407 326.285)" class="st3 st5 st10">i</text>
<text transform="matrix(0.8706 -8.005606e-02 0.3102 0.9507 298.8104 326.2418)" class="st3 st5 st10">c</text>
<text transform="matrix(0.8706 -8.005606e-02 0.3102 0.9507 299.811 326.1498)" class="st3 st5 st10">k</text>
<text transform="matrix(0.8706 -8.005606e-02 0.3102 0.9507 300.8375 326.0554)" class="st3 st5 st10">e</text>
<text transform="matrix(0.8706 -8.005606e-02 0.3102 0.9507 301.8464 325.9626)" class="st3 st5 st10">t ID #</text>
<polygon class="st4" points="312.6,325.3 308.9,325.6 308.1,323.2 311.8,322.8 "/>
<text transform="matrix(0.8706 -8.005606e-02 0.3102 0.9507 308.4294 324.249)" class="st3 st5 st11">42</text>
<polygon class="st4" points="322.6,334.5 296.8,336.8 294.2,329 320,326.7 "/>
<text transform="matrix(0.8706 -8.005606e-02 0.3102 0.9507 294.7397 330.4793)" class="st3 st5 st12">The week view of the  </text>
<text transform="matrix(0.8706 -8.005606e-02 0.3102 0.9507 295.5295 332.9197)" class="st3 st5 st12">n</text>
<text transform="matrix(0.8706 -8.005606e-02 0.3102 0.9507 296.5039 332.8301)" class="st3 st5 st12">ew </text>
<text transform="matrix(0.8706 -8.005606e-02 0.3102 0.9507 299.5404 332.5509)" class="st3 st5 st12">c</text>
<text transform="matrix(0.8706 -8.005606e-02 0.3102 0.9507 300.3841 332.4733)" class="st3 st5 st12">a</text>
<text transform="matrix(0.8706 -8.005606e-02 0.3102 0.9507 301.3672 332.3829)" class="st3 st5 st12">l</text>
<text transform="matrix(0.8706 -8.005606e-02 0.3102 0.9507 301.8199 332.3413)" class="st3 st5 st12">e</text>
<text transform="matrix(0.8706 -8.005606e-02 0.3102 0.9507 302.8026 332.2509)" class="st3 st5 st12">n</text>
<text transform="matrix(0.8706 -8.005606e-02 0.3102 0.9507 303.8382 332.1557)" class="st3 st5 st12">d</text>
<text transform="matrix(0.8706 -8.005606e-02 0.3102 0.9507 304.7951 332.0677)" class="st3 st5 st12">a</text>
<text transform="matrix(0.8706 -8.005606e-02 0.3102 0.9507 305.7608 331.9789)" class="st3 st5 st12">r </text>
<text transform="matrix(0.8706 -8.005606e-02 0.3102 0.9507 307.2837 331.8389)" class="st3 st5 st12">f</text>
<text transform="matrix(0.8706 -8.005606e-02 0.3102 0.9507 308.049 331.7685)" class="st3 st5 st12">e</text>
<text transform="matrix(0.8706 -8.005606e-02 0.3102 0.9507 309.0234 331.6789)" class="st3 st5 st12">a</text>
<text transform="matrix(0.8706 -8.005606e-02 0.3102 0.9507 309.8932 331.5989)" class="st3 st5 st12">t</text>
<text transform="matrix(0.8706 -8.005606e-02 0.3102 0.9507 310.7461 331.5205)" class="st3 st5 st12">u</text>
<text transform="matrix(0.8706 -8.005606e-02 0.3102 0.9507 311.755 331.4277)" class="st3 st5 st12">r</text>
<text transform="matrix(0.8706 -8.005606e-02 0.3102 0.9507 312.5296 331.3565)" class="st3 st5 st12">e</text>
<path class="st3" d="M293.9,328c1,0,1.7,0,2.9-0.2l7.8-0.8l7.8-0.8c1.2-0.1,1.9-0.2,2.8-0.4c-1,0-1.7,0-2.9,0.2l-7.8,0.8l-7.8,0.8
	C295.6,327.7,294.9,327.8,293.9,328z"/>
<polygon class="st4" points="305.5,339.6 299.1,340.1 297.9,336.4 304.2,335.9 "/>
<text transform="matrix(0.8706 -8.005606e-02 0.3102 0.9507 298.5199 338.3497)" class="st3 st5 st13">3</text>
<path class="st3" d="M300.6,337.3c0.1,0.4,0,0.9-0.2,1.3c-0.1,0.2-0.3,0.4-0.6,0.5c-0.4,0.1-0.8,0.1-1.2-0.1c-0.5-0.3-1-0.8-1.2-1.3
	c-0.2-0.5-0.1-1.1,0.2-1.5c0.3-0.3,0.7-0.4,1.1-0.3c0.3,0,0.6,0.2,0.8,0.3C300,336.4,300.3,336.8,300.6,337.3
	c-0.2-0.6-0.5-1.1-1-1.4c-0.3-0.2-0.6-0.3-1-0.4c-0.4-0.1-0.9,0.1-1.2,0.4c-0.3,0.3-0.4,0.7-0.4,1.1c0,0.2,0,0.4,0.1,0.6
	c0.1,0.2,0.2,0.4,0.3,0.6c0.3,0.4,0.6,0.8,1.1,1c0.5,0.3,1,0.3,1.6,0.1c0.3-0.1,0.5-0.3,0.7-0.5
	C300.8,338.3,300.8,337.7,300.6,337.3z"/>
<polygon class="st14" points="291.7,323.2 296.5,298.1 300.9,297.7 314.7,321.2 "/>
<polygon class="st15" points="320.3,333.6 313.8,335 312.5,332 319.1,330.6 "/>
<polygon class="st15" points="321.5,337.6 314.7,338.3 313.7,335.3 320.5,334.5 "/>
<polygon class="st4" points="326.9,333.3 315.4,335.6 314.1,332.5 325.6,330.2 "/>
<text transform="matrix(0.8238 -0.1607 0.3818 0.9243 314.6205 333.7696)" class="st3 st5 st16">Ch</text>
<text transform="matrix(0.8238 -0.1607 0.3818 0.9243 316.3836 333.4256)" class="st3 st5 st16">r</text>
<text transform="matrix(0.8238 -0.1607 0.3818 0.9243 317.1054 333.2847)" class="st3 st5 st16">is</text>
<polygon class="st4" points="328.6,338.1 316.6,339 315.6,335.9 327.6,334.9 "/>
<text transform="matrix(0.8733 -7.026399e-02 0.3011 0.9536 315.9495 337.1892)" class="st3 st5 st17">A</text>
<text transform="matrix(0.8733 -7.026399e-02 0.3011 0.9536 317.0023 337.1045)" class="st3 st5 st17">l</text>
<text transform="matrix(0.8733 -7.026399e-02 0.3011 0.9536 317.4023 337.0723)" class="st3 st5 st17">e</text>
<text transform="matrix(0.8733 -7.026399e-02 0.3011 0.9536 318.203 337.0079)" class="st3 st5 st17">x</text>
<path class="st0" d="M245,87.1h58c4.4,0,5.3-0.9,5.3-5.3s-9-10.7-13.4-10.7h-41.8c-4.4,0-13.4,6.3-13.4,10.7S240.6,87.1,245,87.1z"
	/>
<path class="st0" d="M224.8,119.5h98.5c7.5,0,9-1.3,9-7.6c0-13.5-15.2-15.3-22.7-15.3h-71c-7.5,0-22.7,1.8-22.7,15.3
	C215.8,118.3,217.3,119.5,224.8,119.5z"/>
<path class="st0" d="M216.4,154h114c8.7,0,10.4-1.3,10.4-7.6c0-13.5-6.9-15.3-15.5-15.3H221.5c-8.7,0-15.6,1.8-15.6,15.3
	C205.9,152.7,207.7,154,216.4,154z"/>
<path class="st0" d="M336.3,164.3H212.2c-5.4,0-9.8,5.5-9.8,12.2s4.4,12.2,9.8,12.2h124.2c5.4,0,9.8-5.5,9.8-12.2
	S341.7,164.3,336.3,164.3z"/>
<path class="st0" d="M331.1,198.3H216.9c-5,0-9,2.5-9,10s4,13.5,9,13.5h32.4v11.7h-22.7c-7.2,0-8.7,1-8.7,5.7
	c0,10.1,14.6,11.4,21.9,11.4h18.9V237c0-14.5,6.8-26.2,15.2-26.2s15.2,11.7,15.2,26.2v13.7h18.9c7.2,0,21.9-1.4,21.9-11.4
	c0-4.7-1.5-5.7-8.7-5.7h-22.7v-11.8h32.4c5,0,9-6,9-13.5S336.1,198.3,331.1,198.3z"/>
<path class="st2" d="M160.6,124.2c1.5-0.9,3.7,0,4.9,2.1c1.2,2.1,1,4.5-0.5,5.4s-3.7,0-4.9-2.1C158.8,127.4,159.1,125.1,160.6,124.2
	z"/>
<path class="st2" d="M68.1,138.9L68.1,138.9c-21-4.2-38.8-12.9-47.5-23.3c-10.4-12.4-15.8-28.1-14.1-41c1-7.3,4.3-13.2,9.2-16.6
	c4.4-3,10.3-3.9,17.1-2.5C45.1,58,59.1,67.3,69.5,79.8c14.4,17.3,33.8,52.9,31.9,58.5c-0.2,0.8-0.9,1.4-1.7,1.6
	C92.1,141.7,80.7,141.3,68.1,138.9L68.1,138.9z M32.1,59.1C26.3,58,21.3,58.6,17.8,61c-4.2,2.9-6.8,7.7-7.7,14.1
	c-1.6,11.9,3.4,26.5,13.2,38.1c8.2,9.8,25.2,18,45.5,22l0,0c11.3,2.3,22.1,2.7,29.1,1.3c-0.7-6.2-16.6-36.9-31.2-54.4
	C56.8,70.2,43.6,61.4,32.1,59.1L32.1,59.1z"/>
<path class="st2" d="M141.2,62.3c1.8,1.3,4.6,0.3,6.3-2.2s1.6-5.5-0.2-6.7s-4.6-0.3-6.3,2.2S139.4,61,141.2,62.3z"/>
<path class="st2" d="M115.8,64.4c2.2-0.1,3.8-2.6,3.7-5.6s-2-5.4-4.2-5.3s-3.8,2.6-3.7,5.6S113.7,64.5,115.8,64.4z"/>
<path class="st2" d="M114,63.4c1-0.3,2.2-0.1,3.1,0.4c-2.7,11.9,9.7,29.1,15.8,36.6c-5.2-28.9,8.6-40.1,8.6-40.1
	c1,0.4,1.8,1.1,2.3,2c-12.8,10.3-8.3,38.3-7.7,41.9l0,0c0,0,4.8,7.6,0.4,4.4C110.2,83.9,114,63.4,114,63.4z"/>
<path class="st0" d="M67.5,155.5c-3.6,0-19.3,10.2-19.5,13.1c3.9,12,13.6,34.1,49.5,47.3c7.4,0.1,18.8-6.9,20.9-14.3
	C82.1,191.1,70.4,165.5,67.5,155.5z"/>
<path class="st2" d="M106.4,146.3c-2.1,0-14.7-0.5-22.2,2.8c2.3,7.2,12.2,31,45.3,38.3c3.9-2.7,5.6-15.2,4.5-19.2
	C116.5,164.6,110.6,153.9,106.4,146.3z"/>
<path class="st2" d="M34.3,184c6,21.5,43.5,45.1,42.3,41.2C62.3,232.7,10.7,228.1,34.3,184z"/>
<path class="st2" d="M139.1,160.8c9.6,2.5,20.9,1.3,29.6-2.1c1-0.4-16.6-14.9-15.4-13.2c2.1,3.2,20.7,10.7,21.7,10
	c4.5-2.9,7.5-6.5,7.9-10.6c0.8-8.8-12.5-20.7-29.8-28.9c-19.9-9.5-35.4-1.5-38.4,10S120.7,155.9,139.1,160.8z M146.8,119.1
	c0-0.7,1.8-3.2,10.5,0.5c0,0,4.1,2,5.2,2.8c2.2,1.5,8.1,6.4,3.6,9.9C155.5,138.4,146.8,119.1,146.8,119.1L146.8,119.1z"/>
<path class="st18" d="M226.6,192.7c-5.8,7.2-42.5,7.5-37,0c18.2-24.6,0-24.5,0-49.8c0-9.2,30.5-6.5,37,0
	C235.4,151.7,234.4,183,226.6,192.7z"/>
<path class="st2" d="M139.5,173.5c0,0-2.5-0.3-2.6,1.6s0.1,3.5,1.9,3.9c9.8,2.4,24,0.5,27.8,2.2s14.6,2.8,15.3,4.9s6.6-0.9,8.1-2.9
	s3-3.9,6-3.9s19.4-5.5,20.9-12.9c0,0-1.7-5.6-6.8-5.9c-3.8-0.2-7.5,1.3-10.1,4.1c-1.7,1.8-5.4,4.5-5.6,5s-2.6,3.1-1.2,4.7
	s-2-0.3-3.6,2.9s-3.7-0.7-9.1,2.6c-2.8,1.7-6.5-1.8-14.3-2.6c0,0-12.3-2.8-13.9-3.2c-3.1-0.6-6.2-0.9-9.3-1.1
	C141.7,172.8,140.6,173.1,139.5,173.5z"/>
<polygon class="st19" points="245.1,153.5 248,160.9 260.5,153.7 251.6,165.4 258.2,169.9 250.3,171.1 252.5,180.6 245.1,173.6 
	239.3,182.2 239.9,171.1 232.1,169.9 238.6,165.4 236.3,160.2 242.2,160.9 "/>
<path class="st20" d="M363,173.2c-2.6-0.7-5.5-1.2-4.5-4.5c6.2-19.6,22.2-79.7,22.2-79.7c0.9-3.4,2.9-2.5,5.5-1.8l0,0
	c2.6,0.7,4.8,1,3.9,4.3c0,0-16.8,59.8-21,80C368.5,175,365.6,173.9,363,173.2L363,173.2z"/>
<path class="st21" d="M378.5,92.3c-7-2.2-9.2-3.8-8.4-8.6l0,0c0.8-4.8,2.8-8.5,7.7-7.7l10,1.6c5.3,1.7,0.3-1.7,22.3,12.6l0,0
	c3.3,3.7-0.1,7.4-10,6.5C389.5,95.7,388.5,95.5,378.5,92.3z"/>
<path class="st2" d="M412.5,102.3c-1.7-0.8-4,0.5-5,2.9s-0.5,4.9,1.3,5.7s4-0.5,5-2.9S414.2,103.1,412.5,102.3z"/>
<path class="st2" d="M524.1,101.6c-11.7,7.2-23.1,11.9-31.4,12.9c-0.9,0.1-1.8-0.3-2.3-1c-4-5,2.3-48.1,10.3-70.9
	c5.8-16.5,16.5-31.1,27.9-38.1c6.4-3.9,12.7-5.2,18.2-3.9c6.3,1.6,11.8,6.3,15.5,13.3c6.6,12.4,7,30.2,1.1,46.6
	C558.4,74.1,543.7,89.5,524.1,101.6L524.1,101.6z M530.6,7.7c-10.6,6.5-20.7,20.4-26.3,36.1c-8.1,23.2-12.7,60.1-11.1,66.6
	c7.6-1.2,18.3-5.7,28.8-12.2l0,0C540.9,86.6,555,72,559.7,59c5.5-15.4,5.2-32-0.9-43.4c-3.2-6.1-7.8-10-13-11.3
	C541.3,3.2,536,4.4,530.6,7.7L530.6,7.7z"/>
<path class="st2" d="M425.1,33.7c-1.7,1.6-4.9,0.9-7-1.5s-2.4-5.6-0.7-7.2s4.9-0.9,7,1.5S426.9,32.1,425.1,33.7z"/>
<path class="st2" d="M452.5,32.7c-2.3,0.2-4.4-2.2-4.7-5.5s1.4-6,3.7-6.2s4.4,2.2,4.7,5.5S454.8,32.5,452.5,32.7z"/>
<path class="st2" d="M454.2,31.3c-1.2-0.1-2.3,0.2-3.3,0.9c4.5,12.3-6.5,32.3-12,41.1c1.8-32.3-19.7-45-14.4-41.7
	c-1,0.5-1.8,1.4-2.2,2.4c15,9.3,13.9,39.8,13.7,43.7l0,0c0,0-4.1,8.8,0.1,4.8C461,52.7,454.2,31.3,454.2,31.3z"/>
<path class="st0" d="M501.1,122.8c3-0.5,17.2,7.8,17.6,10.6c-2.1,12.5-8.1,36-36.9,53.8c-6.2,1-16.4-4.5-18.9-11.6
	C483.4,165.1,497.6,145.4,501.1,122.8z"/>
<path class="st2" d="M467.7,118.5c1.8-0.3,12.2-2.4,18.9,0c-1.3,7.5-7.2,32.7-34.2,44.2c-3.6-2.2-6.2-14.6-5.6-18.7
	C461,138.2,464.9,126.7,467.7,118.5z"/>
<path class="st2" d="M526.8,143.8c-3,22.4-32.1,50.9-31.5,46.8C508.1,196.3,550.8,185,526.8,143.8z"/>
<path class="st2" d="M461.7,98.4c-4.7-12-22.3-18.4-42.3-5.7c-17.3,11-30,25.4-28,34.7c0.9,4.2,4.6,7.8,9.8,10.3
	c1.2,0.6,19.9-17.8,21.8-21.5c1-1.9-15.8,23.8-14.7,24c9.8,2.5,22,2.3,31.9-1.6C459.2,130.9,466.4,110.3,461.7,98.4z M407.8,111.7
	c-5.3-3.2,0.4-9.2,2.5-11.1c1-0.9,5.2-3.6,5.2-3.6c8.8-5.1,11-2.6,11.1-1.9C426.6,95.1,419.8,116.8,407.8,111.7L407.8,111.7z"/>
<path class="st2" d="M441.5,152.1c0,0,2.6-0.6,3,1.3s0.3,3.7-1.5,4.4c-10.1,3.8-25.6,3.7-29.4,6s-15.2,4.9-15.7,7.2s-7.2-0.1-9-2.1
	s-3.7-3.8-6.9-3.4s-21.5-3.3-24-11c0,0,1.1-6.2,6.5-7.1c4.1-0.7,8.2,0.4,11.4,3.1c2.1,1.7,6.4,4.1,6.7,4.6s3.2,2.9,1.9,4.9
	s2.1-0.5,4.2,2.6s3.9-1.2,10,1.5c3.2,1.5,6.7-2.8,15-4.7c0,0,12.7-4.6,14.4-5.2c3.2-1,6.5-1.8,9.8-2.4
	C439,151.8,440.2,151.9,441.5,152.1z"/>
<rect x="334.5" y="76" transform="matrix(0.8486 -0.529 0.529 0.8486 3.9689 191.4066)" class="st21" width="3.8" height="25.6"/>
<rect x="305.6" y="95.7" transform="matrix(0.8486 -0.529 0.529 0.8486 -2.8472 185.2522)" class="st21" width="33.3" height="3.8"/>
<path class="st2" d="M342.4,259.3c-1.7-0.7-3.8,0.6-4.7,2.9s-0.3,4.7,1.4,5.4s3.8-0.6,4.7-2.9S344.1,260,342.4,259.3z"/>
<path class="st2" d="M431.4,285.3c-12.7-3.5-23.4-8.4-29.5-13.5c-0.7-0.6-1-1.4-0.8-2.3c0.9-6,35.1-29.8,56.3-39.1
	c15.3-6.8,32.5-8.8,44.9-5.4c6.9,1.9,11.9,5.4,14.6,10.2c3,5.4,3.3,12.4,0.9,19.5c-4.3,12.7-16.5,24.7-31.8,31.3
	C473.1,291.3,452.7,291.1,431.4,285.3L431.4,285.3z M501.3,228.5c-11.6-3.2-27.8-1.2-42.4,5.2c-21.5,9.5-50.3,30.4-53.8,35.7
	c5.8,4.5,15.9,9.1,27.4,12.2l0,0c20.5,5.6,39.9,5.9,52,0.7c14.4-6.2,25.8-17.3,29.7-29c2.1-6.2,1.9-12-0.6-16.5
	C511.4,233,507.2,230.1,501.3,228.5L501.3,228.5z"/>
<path class="st2" d="M312.3,237.2c1.1,2.2-0.6,5.2-3.6,6.6s-6.4,0.8-7.4-1.5s0.6-5.2,3.6-6.6S311.2,235,312.3,237.2z"/>
<path class="st2" d="M318.2,211.6c-0.5,2.2-3.3,3.4-6.3,2.8s-5.1-2.9-4.6-5.1s3.3-3.5,6.3-2.8S318.6,209.4,318.2,211.6z"/>
<path class="st2" d="M317.4,209.5c-0.5,1-0.5,2.2-0.1,3.2c12.5-0.7,27.8,14.9,34.4,22.3c-28.4-10.3-42.1,1.7-42.1,1.7
	c0.2,1.1,0.8,2,1.6,2.7c12.7-11.2,40.3-1.8,43.8-0.6l0,0c0,0,6.9,6.2,4.4,1.2C338.9,209.3,317.4,209.5,317.4,209.5z"/>
<path class="st0" d="M421.1,286.3c2.9-0.1,15.4,9.4,15.5,12.1c-3.5,11.6-11.9,33.2-41.3,46.8c-6,0.2-15-6.2-16.6-13.2
	C399.3,324.4,415.1,307.4,421.1,286.3z"/>
<path class="st2" d="M389.8,278.3c1.7-0.1,11.9-0.8,17.9,2.2c-2.1,7-10.7,30.2-37.6,38c-3.2-2.5-4.2-14.5-3.2-18.4
	C381.2,296.3,386.2,285.8,389.8,278.3z"/>
<path class="st2" d="M447.2,312.9c-5.4,20.9-36.4,44.6-35.3,40.7C423.4,360.6,465.3,354.8,447.2,312.9z"/>
<path class="st2" d="M384.2,256.5c-4.9-11.3-21.8-17-40.6-4.3c-16.2,11-28,25.1-25.8,33.9c1,4,4.6,7.3,9.6,9.5
	c1.2,0.6,17.5-13.4,20.5-13.5c4.6-0.2,3,1.6,0.3,5.7S335,298,335.6,298.2c9.7,2.2,19.9,1.3,29.1-2.6
	C382.7,287.7,389,267.8,384.2,256.5z M333,270.7c-5.1-3,0.1-8.8,2.1-10.7c1-0.9,4.9-3.6,4.9-3.6c8.2-5.1,10.4-2.8,10.6-2.1
	C350.5,254.3,344.6,275.3,333,270.7L333,270.7z"/>
<path class="st2" d="M356.8,305.7c0,0,1.7-1.9,3.1-0.6s2.3,2.7,1.3,4.2c-5.9,8.5-18,17-19.8,20.9s-9.2,12.2-8.3,14.3
	s-5.7,3.8-8.2,3.4s-5-0.9-7.3,1.1s-18.6,9.2-24.8,4.6c0,0-2.6-5.4,1.2-9.2c2.8-2.8,6.6-4.2,10.6-3.8c2.6,0.2,7.3-0.3,7.8,0
	s4.1,0.5,4.2,2.7s1.3-1.5,4.7-0.3s2.4-3.1,8.7-4.3c3.3-0.6,3.7-5.8,9.1-11.9c0,0,7.4-10.6,8.4-12c2-2.6,4.1-5,6.4-7.3
	C354.7,306.8,355.7,306.2,356.8,305.7z"/>
<path class="st22" d="M26.9,217.5L0,256.3l35.1-30.4C31.5,224.1,28.7,221.1,26.9,217.5z"/>
<path class="st22" d="M444.9,353.8l40.5,24.2l-32.6-33C451.2,348.7,448.4,351.8,444.9,353.8z"/>
<path class="st22" d="M528.6,187.8l40.5,24.2l-32.6-33C534.8,182.7,532.1,185.8,528.6,187.8z"/>
</svg>
