<?xml version="1.0" encoding="UTF-8"?>
<svg width="24px" height="24px" viewBox="0 0 24 24" version="1.1" xmlns="http://www.w3.org/2000/svg" xmlns:xlink="http://www.w3.org/1999/xlink">
    <!-- Generator: Sketch 46.2 (44496) - http://www.bohemiancoding.com/sketch -->
    <title>Icon/24px/Pin/Grey/Normal</title>
    <desc>Created with Sketch.</desc>
    <defs></defs>
    <g id="Symbols" stroke="none" stroke-width="1" fill="none" fill-rule="evenodd">
        <g id="Icon/24px/Pin/Grey/Normal" fill="#C8CCE7">
            <path d="M4.8472428,15.4700462 C3.4461162,13.8312663 2.5999999,11.7037593 2.5999999,9.37863128 C2.5999999,4.19895625 6.79895615,0 11.9786312,0 C17.1583062,0 21.3572625,4.19895625 21.3572625,9.37863128 C21.3572625,11.6822404 20.5267352,13.7918695 19.1487787,15.4244204 L13.492828,23.2251806 C12.8847396,24.063864 11.7118994,24.2507982 10.873216,23.6427098 C10.7122472,23.5259991 10.5708583,23.3844376 10.4543442,23.2233265 L4.8472428,15.4700462 Z M11.9786312,13.1300838 C14.0505012,13.1300838 15.7300837,11.4505013 15.7300837,9.37863128 C15.7300837,7.30676127 14.0505012,5.62717877 11.9786312,5.62717877 C9.90676117,5.62717877 8.22717867,7.30676127 8.22717867,9.37863128 C8.22717867,11.4505013 9.90676117,13.1300838 11.9786312,13.1300838 Z" id="Pin"></path>
        </g>
    </g>
</svg>