<?xml version="1.0" encoding="utf-8"?>
<!-- Generator: Adobe Illustrator 22.1.0, SVG Export Plug-In . SVG Version: 6.00 Build 0)  -->
<svg version="1.1" id="Ebene_1" xmlns="http://www.w3.org/2000/svg" xmlns:xlink="http://www.w3.org/1999/xlink" x="0px" y="0px"
	 viewBox="0 0 527.8 400.2" style="enable-background:new 0 0 527.8 400.2;" xml:space="preserve">
<style type="text/css">
	.st0{fill:#1A171B;}
	.st1{fill:#F8B334;}
	.st2{fill:#C6C7C8;stroke:#C6C7C8;}
	.st3{fill:#FFFFFF;stroke:#F8B334;}
</style>
<title>Putz-BieneZeichenfläche 1</title>
<path class="st0" d="M319.5,132.5c2.5-2.4,7.2-1.5,10.5,2.1s3.8,8.3,1.2,10.7s-7.2,1.5-10.5-2.1S317,134.9,319.5,132.5z"/>
<path class="st0" d="M146.2,199.2L146.2,199.2c-42.5,0.5-80.6-9-101.9-25.5C19,153.9,2.1,125.6,0.2,99.9c-1.1-14.6,2.9-27.4,11.1-36
	c7.2-7.6,18.4-11.7,32.1-11.9c24.7-0.3,55.8,11.9,81.1,32c35.1,27.7,87.3,88.7,86,100.4c-0.1,1.7-1.1,3.1-2.6,3.9
	C194,194.9,171.5,198.9,146.2,199.2L146.2,199.2z M43.5,59.2c-11.8,0.2-21.2,3.5-27,9.6c-7,7.3-10.1,17.8-9.2,30.5
	c1.8,23.8,17.6,50,41.4,68.5c20,15.6,56.4,24.5,97.4,24l0,0c22.9-0.3,44-3.8,57-9.5c-4-11.7-47.5-64.7-83-92.8
	C96,70.6,66.7,59,43.5,59.2L43.5,59.2z"/>
<path class="st0" d="M256.3,20.3c4,1.7,9.1-1.4,11.4-6.8s0.9-11.3-3.1-13s-9.1,1.4-11.4,6.9S252.4,18.6,256.3,20.3z"/>
<path class="st0" d="M208,35c4.2-1,6.4-6.6,4.9-12.4s-6-9.6-10.2-8.5s-6.4,6.6-4.9,12.4C199.3,32.3,203.9,36.1,208,35z"/>
<path class="st0" d="M204.1,33.8c0,0,3.4-1.7,6.2-0.5c-0.4,24.2,30.8,52.4,45.7,64.5c-22-53.9,0.1-81.3,0.1-81.3s3.7,0.5,5.3,2.9
	c-20.5,25.3-0.3,77.9,2.3,84.4l0,0c0,0,12.4,12.8,2.7,8.4C205.2,75.2,204.1,33.8,204.1,33.8z"/>
<path class="st1" d="M177.2,221.4c-5.5,1-25.3,23.9-24.4,29.1c11.2,20.6,35.7,57.9,96.7,71.7c11.4-1.9,25.9-17.7,26-31.6
	C215.2,281.7,186.1,238.6,177.2,221.4z"/>
<path class="st0" d="M233.1,193.9c-3.3,0.6-22.8,3.2-33,11.3c6.7,12.4,32.2,52.7,86.2,56.6c4.9-6,2.1-29.1-1.4-36
	C256.5,224.3,242.8,206.6,233.1,193.9z"/>
<path class="st0" d="M138.5,282.2c18.6,37.2,86.5,69.5,83,62.6C202.7,362.6,121.4,368.5,138.5,282.2z"/>
<path class="st0" d="M293,212.4c19.8,1,41.2-6,56.6-16.3c1.8-1.2-38.2-22-35.4-19.2c5.5,5.4,44.6,12.2,46.3,10.5
	c7.6-7.5,11.9-15.8,10.9-23.8c-2.1-17.5-32.9-34.9-69.7-43.7c-42.5-10.1-69.3,11.6-70.4,35.3S255.3,210.5,293,212.4z M290.7,128.4
	c-0.2-1.4,2.2-7,20.5-3.4c0,0,8.9,2.2,11.2,3.2c4.8,2.1,18.3,9,11,17.8C315.5,162.1,290.7,128.4,290.7,128.4L290.7,128.4z"/>
<path class="st2" d="M476,238.2c-8.3,16.4-79.4,32-71.8,15.3c25.1-55.3-10.1-47.5-20.6-96.7c-3.8-18,56.4-25.3,71.8-15.3
	C476.2,155,487.2,216.1,476,238.2z"/>
<path class="st0" d="M299,236.9c0,0-5,0.5-4.5,4.1s1.7,6.7,5.2,6.8c20,0.5,46.8-9,54.9-7.3s29.4-0.6,31.8,3.1s12.4-4.5,14.5-9
	s4.3-8.8,10-10.1s35.4-18.7,35.2-33.6c0,0-5.6-10.2-15.6-8.6c-7.5,1.1-14.1,5.6-17.9,12.1c-2.6,4.2-8.6,11-8.9,12.1s-3.8,7-0.5,9.6
	s-3.9,0.3-5.8,7.1s-7.5,0.2-16.5,8.7c-4.7,4.5-13.3-0.8-28.9,0.8c0,0-25-0.4-28.3-0.4c-6.2,0.2-12.4,0.7-18.5,1.7
	C303.1,234.5,299,236.9,299,236.9z"/>
<polygon class="st3" points="495.7,154.6 504.4,167.7 525.6,148.6 513.3,175 527.8,181 513.1,186.5 521.3,204.1 504,193.6 
	496.3,212.7 492.8,190.8 477.2,191.8 488,180.4 481.3,171.2 493.1,170.1 "/>
<path class="st1" d="M142.9,342.8l-35.3,57.5l47.6-46.1C155.2,354.1,147,350.8,142.9,342.8z"/>
</svg>
