<?xml version="1.0" encoding="UTF-8"?>
<svg width="1440px" height="168px" viewBox="0 0 1440 168" version="1.1" xmlns="http://www.w3.org/2000/svg" xmlns:xlink="http://www.w3.org/1999/xlink">
    <!-- Generator: Sketch 51.3 (57544) - http://www.bohemiancoding.com/sketch -->
    <title>path5726</title>
    <desc>Created with Sketch.</desc>
    <defs></defs>
    <g id="Page-1" stroke="none" stroke-width="1" fill="none" fill-rule="evenodd">
        <g id="Website" transform="translate(0.000000, -411.000000)" fill="#FFFFFF" fill-rule="nonzero">
            <g id="header-bg" transform="translate(-5.000000, 0.000000)">
                <path d="M318.21,411 L319.84,434.825118 L322.15,434.825118 L321.4,442.56108 L324.93,443.178311 L324.73,448.84655 L321.4,450.029576 L320.72,451.891556 C320.72,451.891556 325.11,452.920274 325.54,452.920274 C325.97,452.920274 325.27,460.604801 325.27,460.604801 L321,462.055294 L322.63,514.653665 L324.63,514.602229 L332.78,514.756537 L339.78,515.21946 L345.69,516.248178 L341.55,524.477925 L362.9,524.477925 L350.9,511.104586 L350.29,510.795971 L366.5,492.639091 L366.5,490.684526 L371.73,490.684526 L371.73,491.713245 L391.9,501.352336 L391.9,493.564938 L394.35,493.564938 L394.35,494.130733 L420.9,506.814831 L435.09,506.814831 L461.64,494.130733 L461.64,493.564938 L464,493.564938 L464,501.352336 L484.24,491.713245 L484.24,490.684526 L489.47,490.684526 L489.47,492.639091 L505.7,510.682812 L505.02,511.042863 L500.88,515.630947 L506.38,515.630947 L506.38,522.646807 C533.46,504.047578 549.55,503.759537 572.38,518.830261 L574.62,518.830261 L581.07,519.396057 L581.07,515.528075 L580.53,515.528075 L580.53,463.762966 L583.86,463.762966 L583.86,468.196742 L588.28,468.196742 L588.28,469.842692 L583.86,469.842692 L583.86,471.437205 L588.28,471.437205 L588.28,473.083155 L583.86,473.083155 L583.86,478.226747 L588.28,478.226747 L588.28,479.872696 L583.86,479.872696 L583.86,485.016288 L588.28,485.016288 L588.28,486.610802 L583.86,486.610802 L583.86,491.754393 L588.28,491.754393 L588.28,493.400343 L583.86,493.400343 L583.86,498.543935 L588.28,498.543935 L588.28,500.189884 L583.86,500.189884 L583.86,505.333476 L588.28,505.333476 L588.28,506.979426 L583.86,506.979426 L583.86,514.046721 L588.41,514.046721 L588.41,468.453922 L592.08,468.453922 L592.08,463.865838 L593.24,463.865838 L593.24,467.322332 L595.41,467.322332 L595.41,464.020146 L596.9,464.020146 L596.9,467.373768 C614.56,463.917274 629.44,466.447921 637.1,471.344621 L637.1,516.104158 L661.1,516.104158 L661.1,511.824689 L663.1,511.824689 C661.393745,510.023854 660.485587,507.578457 660.59,505.066009 C660.59,494.192456 672.86,485.366052 687.96,485.366052 C703.06,485.366052 715.26,494.192456 715.26,505.066009 C715.26,505.395199 715.26,505.68324 715.19,505.991856 L715.19,515.630947 L735.56,515.630947 L735.56,510.271324 L740.86,510.271324 L741.06,510.065581 L742,510.065581 L742,507.483498 L741.53,507.380626 L741.19,506.351907 L742.01,505.94042 L742.01,502.792542 C741.206707,502.300865 740.69613,501.428038 740.65,500.467638 C740.65,498.986284 742.02,497.782683 743.84,497.474068 C743.97,496.671667 744.11,495.673811 744.11,495.673811 C744.11,495.673811 743.52,495.365195 743.5,495.262323 L743.43,494.953708 L743.91,494.850836 C743.535058,494.694364 743.27389,494.338772 743.23,493.924989 C743.266067,493.461923 743.557965,493.061549 743.98,492.896271 L744.59,481.580369 L744.86,481.580369 L745.47,492.824261 C745.946093,492.972166 746.291663,493.396336 746.35,493.904415 C746.32391,494.371299 746.028391,494.77664 745.6,494.933133 L746.01,495.036005 L745.94,495.344621 C745.94,495.447492 745.4,495.756108 745.4,495.756108 C745.4,495.756108 745.55,496.784826 745.67,497.556365 C747.49,497.875268 748.86,499.068581 748.86,500.549936 C748.810357,501.509232 748.300699,502.380486 747.5,502.874839 L747.5,506.022718 L748.32,506.434205 L747.98,507.462923 L747.5,507.565795 L748.25,511.022289 L749.61,511.022289 L749.61,516.165881 L749.13,516.217317 L765.36,516.217317 L765.36,507.246892 L783.36,507.246892 L783.36,502.864552 L785.19,502.504501 L785.19,500.560223 L787.57,500.560223 L787.57,498.502786 L784.92,495.663523 L806.99,495.714959 L806.99,486.641663 L810,486.641663 L810,484.995714 C810,484.995714 806.44,484.172739 807.49,484.172739 C808.54,484.172739 832.14,483.606944 832.14,483.606944 L832.89,478.041577 L833.57,478.093013 L833.71,483.65838 L836.71,483.606944 L838.34,484.378483 L835.76,484.481354 L835.76,486.384483 L839.09,486.693099 L839.09,512.740249 L843.57,511.660094 L853.42,511.660094 L853.42,464.123018 L858.72,464.123018 L858.72,467.065152 L877.13,465.151736 L877.06,462.209601 L858.59,462.209601 L858.25,460.409344 L876.32,460.203601 L876.66,459.123446 L878.29,458.506215 L878.63,434.578225 L879.79,434.578225 L880.47,458.763395 L885.7,458.763395 L885.7,509.098586 L886.24,509.098586 L886.24,508.78997 L902.88,506.886841 L909.47,506.886841 L909.47,476.807115 L914.09,475.315474 L914.09,474.286755 L916.94,474.235319 L922.78,471.910416 C923.64,471.910416 930.86,473.504929 930.86,473.504929 L943.08,473.504929 L944.71,472.784826 L946.07,473.144878 L950.41,473.144878 L950.41,496.507072 L957.47,496.507072 L956.65,519.2006 L966.65,519.2006 L966.65,512.236177 L974.05,510.024432 L987.9,510.024432 L988.65,486.559366 L984.78,486.559366 C984.48,486.559366 984.24,486.374196 984.24,486.147878 L984.24,485.016288 C984.24,484.78997 984.48,484.604801 984.78,484.604801 L988.72,484.604801 L989.06,475.274325 L986.68,475.274325 C986.38,475.274325 986.14,475.089156 986.14,474.862838 L986.14,473.731247 C986.14,473.504929 986.38,473.31976 986.68,473.31976 L989.13,473.31976 L989.4,465.018003 L985.3,465.018003 C984.981185,465.020437 984.67098,464.911649 984.42,464.709387 L983.26,464.709387 C982.75,464.709387 982.38,464.421346 982.38,464.04072 L982.38,462.086155 C982.38,461.705529 982.76,461.417488 983.26,461.417488 L984.26,461.417488 C984.497428,461.040325 984.914027,460.824077 985.35,460.851693 L989.56,460.851693 L989.76,455.594942 L985.3,455.594942 C984.66,455.594942 984.15,455.204029 984.15,454.720532 L984.15,452.31333 C984.15,451.829833 984.67,451.43892 985.3,451.43892 L989.85,451.43892 L990.05,445.616374 L986.86,445.616374 C986.52,445.616374 986.25,445.41063 986.25,445.15345 L986.25,443.918988 C986.25,443.661809 986.53,443.456065 986.86,443.456065 L990.12,443.456065 L990.66,427.161166 L991.34,426.955422 L991.81,426.955422 L992.49,427.161166 L993.03,443.456065 L996.29,443.456065 C996.63,443.456065 996.9,443.661809 996.9,443.918988 L996.9,445.15345 C996.9,445.41063 996.62,445.616374 996.29,445.616374 L993.1,445.616374 L993.3,451.43892 L997.85,451.43892 C998.49,451.43892 999.01,451.829833 999.01,452.31333 L999.01,454.68967 C999.01,455.173168 998.49,455.564081 997.85,455.564081 L993.44,455.564081 L993.64,460.820832 L997.85,460.820832 C998.285973,460.793215 998.702572,461.009463 998.94,461.386627 L999.89,461.386627 C1000.4,461.386627 1000.89,461.674668 1000.89,462.055294 L1000.89,464.009859 C1000.89,464.390484 1000.44,464.678526 999.89,464.678526 L998.74,464.678526 C998.488642,464.880068 998.178687,464.988769 997.86,464.987141 L993.78,464.987141 L994.05,473.288898 L996.56,473.288898 C996.86,473.288898 997.1,473.474068 997.1,473.700386 L997.1,474.842263 C997.1,475.068581 996.86,475.253751 996.56,475.253751 L994.11,475.253751 L994.45,484.584226 L998.39,484.584226 C998.69,484.584226 998.93,484.769396 998.93,484.995714 L998.93,486.158165 C998.93,486.384483 998.69,486.569653 998.39,486.569653 L994.52,486.569653 L995.34,510.960566 L997.44,511.320617 L997.44,516.165881 L1011.44,516.165881 L1011.44,469.791256 L1017.21,469.791256 L1017.21,467.929276 L1016.46,467.929276 L1016.46,467.054865 L1034.66,467.054865 L1034.66,467.929276 L1034,467.929276 L1034,469.791256 L1036.38,469.791256 L1036.38,465.583798 C1034.66,465.439777 1033.2,464.215602 1033.19,462.898843 C1032.96,461.376339 1034.74,459.864123 1036.75,459.864123 C1038.76,459.864123 1040.54,461.376339 1040.32,462.898843 C1040.32,464.215602 1038.85,465.439777 1037.13,465.583798 L1037.13,469.81183 L1046.23,469.81183 L1046.23,510.240463 L1052.07,510.240463 L1052.07,516.165881 L1069.45,516.165881 L1069.45,508.327047 L1067.45,507.864123 L1067.45,506.835405 L1072.45,506.835405 C1082.78,503.564081 1090.92,501.969567 1107.45,500.025289 L1107.45,497.546078 L1111.45,497.546078 L1111.45,499.202315 C1122.67767,498.17099 1133.97233,498.17099 1145.2,499.202315 L1145.2,497.546078 L1149.2,497.546078 L1149.2,500.025289 C1165.8,501.321474 1175.72,503.306901 1184.2,506.835405 L1189.2,506.835405 L1189.2,507.864123 L1187.2,508.327047 L1187.2,522.873125 L1223.74,525.146592 L1223.74,520.249893 L1224.22,520.249893 L1224.22,505.323189 L1240.99,504.55165 L1240.99,498.502786 L1240.17,497.885555 L1240.17,496.651093 L1241.05,496.291042 L1241.05,489.17231 L1239.83,488.246464 L1245.67,480.561937 L1245.67,470.459923 L1253.35,470.459923 L1253.35,480.417917 L1260.55,487.742392 L1258.85,488.513931 L1258.85,496.147021 L1260.07,496.404201 L1260.48,497.535791 L1259.26,498.564509 L1259.26,513.162023 C1259.26,513.162023 1264.78,514.375911 1267.14,514.766824 L1268.29,514.766824 L1269.92,510.435919 L1272.03,509.818688 L1272.37,514.766824 L1309.31,514.766824 L1309.31,510.435919 L1315.69,510.435919 L1324.38,498.934848 L1326.01,497.64895 L1326.01,493.112302 L1328.32,492.649378 L1328.32,491.62066 C1327.46783,491.372216 1326.84946,490.613757 1326.76,489.707244 C1326.87358,488.82258 1327.48621,488.091367 1328.32,487.845264 L1328.32,487.186884 L1324.18,487.186884 L1324.18,484.975139 L1343.6,484.975139 L1343.6,487.186884 L1339.39,487.186884 L1339.39,487.752679 C1340.1246,488.029505 1340.64872,488.703464 1340.75,489.5015 C1340.696,490.344795 1340.16234,491.075435 1339.39,491.36348 L1339.39,492.546507 L1341.7,493.00943 L1341.7,497.546078 L1343.4,498.831976 L1352.09,510.333048 L1358.41,510.333048 L1358.41,514.663952 L1407.51,514.663952 L1407.51,527.708101 L1445,532.347621 L1445,579 L5,579 L5,532.347621 L15.46,532.347621 L15.46,523.891556 L39.09,523.891556 L39.09,518.480497 L56.41,518.480497 L56.41,513.522075 L61.84,513.522075 L66.19,507.761252 L68.5,506.01243 L68.5,499.716674 L71.69,499.048007 L71.69,491.713245 L65.92,491.713245 L65.92,488.62709 L92.74,488.62709 L92.74,491.713245 L87,491.713245 L87,499.089156 L90.19,499.757823 L90.19,506.053579 L92.5,507.8024 L102,520.33219 L102,519.45778 L110.62,518.274754 L129.09,518.274754 L136.02,519.869267 L136.02,494.285041 L139.28,494.285041 L139.28,526.36048 L141,526.36048 L141,521.360909 L143.11,519.714959 L148.41,519.714959 L150.41,521.258037 L150.41,526.154736 L153.33,526.154736 L153.33,509.695242 L162.33,509.695242 L163.33,472.66138 L166.59,472.66138 L167.59,509.324904 L171.39,509.324904 L171.39,513.5015 L175.8,513.5015 L180.89,515.713245 L180.89,526.237034 L190.53,526.134162 L190.53,516.649378 L187.14,514.015859 L202.14,514.015859 L202.14,473.175739 L245.74,473.175739 L247.74,472.249893 L248.83,473.484355 L250.19,474.718817 L248.56,476.210459 L246.56,477.239177 L244.39,476.056151 L236.92,476.056151 L231.83,479.924132 L231.83,498.029576 C240.47,505.559794 245.88,514.643378 251.39,523.654951 L264.16,523.654951 L264.16,520.712816 L270.41,520.712816 L270.82,514.540506 L265.38,518.048435 L262.73,515.569224 L273.05,510.621089 L274.88,509.489498 C274.684067,508.939852 274.758575,508.326668 275.08,507.843549 L265,498.677668 L268.46,496.507072 C268.46,496.507072 275.19,504.531076 276.88,506.609087 C277.711984,506.391581 278.589119,506.445505 279.39,506.763395 L290.46,499.644664 L293.18,502.123875 C293.18,502.123875 283.47,506.825118 280.75,508.100729 C280.978607,508.524709 281.02917,509.026283 280.89,509.489498 L286.05,512.575654 L285.91,513.347192 L284.91,513.707244 L284.91,513.75868 L290.75,519.015431 L287.29,521.186027 L285.29,518.758251 L285.77,525.95928 L288.08,525.95928 L288.08,532.357908 L301.19,532.357908 L301.19,526.792542 L304.45,526.792542 L301,518.161595 L302.36,517.08144 L305.48,516.052722 L310.17,515.229747 L313.84,514.972568 L315.4,462.014145 L311.12,460.522503 C311.12,460.522503 310.42,452.837977 310.85,452.837977 C311.28,452.837977 315.67,451.809258 315.67,451.809258 L314.99,449.947278 L311.66,448.764252 L311.46,443.096014 L314.99,442.478783 L314.24,434.74282 L316.55,434.74282 L318.21,411 Z M227.89,472.717234 L207.65,472.717234 L207.65,485.401332 C208.2,481.286458 212.79,478.076857 218.31,478.076857 C222.53,478.076857 226.14,479.959411 227.89,482.664941 L227.89,472.778957 L227.89,472.717234 Z M218.31,479.52735 C213.49,479.52735 209.55,482.479771 209.48,486.131722 L227.14,486.131722 C227.07,482.490059 223.13,479.537637 218.31,479.537637 L218.31,479.52735 Z M489.48,492.324606 L489.48,503.774242 L492.54,503.774242 L492.54,506.407761 L502.05,506.304889 L489.48,492.324606 Z M366.48,492.324606 L353.92,506.294602 L364.04,506.397474 L364.04,503.763955 L366.49,503.763955 L366.48,492.324606 Z M461.62,493.250453 L439.55,503.774242 L452.55,503.774242 L461.55,499.443338 L461.62,493.250453 Z M394.32,493.250453 L394.32,499.422763 L403.42,503.753668 L416.32,503.753668 L394.32,493.250453 Z M484.24,493.301889 L464,502.951267 L464,503.722806 L470,503.722806 L484.26,496.244023 L484.26,493.250453 L484.24,493.301889 Z M371.72,493.353325 L371.72,496.295459 L385.91,503.774242 L391.91,503.774242 L391.91,503.002703 L371.72,493.353325 Z M223.4,495.7811 C218.54,495.7811 209.55,495.832536 209.55,495.832536 L209.55,522.95984 L211.38,522.95984 L211.38,516.149724 L226.12,516.149724 L226.12,514.452339 L238.41,514.452339 C233.84,505.841966 227.76,495.657654 226.41,495.832536 C226.25,495.801675 225,495.791387 223.4,495.7811 Z M1340.14,497.385901 L1335.32,497.385901 L1335.32,506.099146 L1345,506.099146 L1345,507.230736 L1347.58,507.230736 L1340.14,497.385901 Z M1332.6,497.385901 L1327.78,497.385901 L1320.31,507.230736 L1322.89,507.230736 L1322.89,506.099146 L1332.6,506.099146 L1332.6,497.385901 Z M484.25,501.048138 L479.16,503.733093 L484.25,503.733093 L484.25,501.048138 Z M371.72,501.048138 L371.72,503.733093 L376.72,503.733093 L371.72,501.048138 Z M87.85,506.92212 L81.2,506.92212 L81.2,526.272313 L85.28,526.272313 L87,524.82182 L101.5,524.82182 L87.85,506.92212 Z M77.46,506.92212 L70.81,506.92212 L68.16,510.43005 L70.06,510.43005 L70.06,526.272313 L77.46,526.272313 L77.46,506.92212 Z M501.84,508.722378 L492.54,508.825249 L492.54,512.538923 L498.45,512.538923 L501.84,508.722378 Z M354.06,508.722378 L364.06,519.811962 L364.06,508.784101 L354.06,508.722378 Z" id="path5726"></path>
            </g>
        </g>
    </g>
</svg>