<svg xmlns="http://www.w3.org/2000/svg" viewBox="0 0 68 80"><path d="M2.5 69.3A2.5 2.5 0 0 1 0 66.7V15.5a2.55 2.55 0 1 1 5.1 0v51.2a2.5 2.5 0 0 1-2.6 2.6zm25.4 0a2.5 2.5 0 0 1-2.5-2.5V15.5a2.5 2.5 0 0 1 5 0v51.2a2.5 2.5 0 0 1-2.5 2.5zM15.2 80C8.6 80 1.4 76 0 67.1a2.532 2.532 0 0 1 5-.8 10.3 10.3 0 0 0 20.3 0 2.532 2.532 0 0 1 5 .8C28.9 76 21.7 80 15.2 80zm13.4-12.4H1.9a1.7 1.7 0 1 1 0-3.4h26.7a1.7 1.7 0 1 1 0 3.4zm0-50.4H1.9a1.7 1.7 0 1 1 0-3.4h26.7a1.7 1.7 0 1 1 0 3.4zM2.5 18a2.5 2.5 0 0 1-1.7-4.3L13.9.7a2.7 2.7 0 0 1 1.8-.7 2.5 2.5 0 0 1 1.8.7l12.1 12.4a2.51 2.51 0 1 1-3.6 3.5L15.7 6.1 4.3 17.3a2.5 2.5 0 0 1-1.8.8zm37.6 61a2.5 2.5 0 0 1-2.5-2.5V2.8a2.55 2.55 0 1 1 5.1 0v73.7a2.5 2.5 0 0 1-2.5 2.5zm25.4 0a2.5 2.5 0 0 1-2.5-2.5V2.8a2.55 2.55 0 0 1 5.1 0v73.7a2.5 2.5 0 0 1-2.5 2.5zm0-73.8H40.1a2.5 2.5 0 0 1 0-5h25.4a2.5 2.5 0 0 1 0 5zm0 73.8H40.1a2.5 2.5 0 0 1 0-5h25.4a2.5 2.5 0 1 1 0 5zM52.2 18.9H40.1a1.7 1.7 0 1 1 0-3.4h12.1a1.7 1.7 0 1 1 0 3.4zm0 23.5H40.1a1.7 1.7 0 1 1 0-3.4h12.1a1.7 1.7 0 1 1 0 3.4zm0 21.8H40.1a1.7 1.7 0 1 1 0-3.4h12.1a1.7 1.7 0 1 1 0 3.4z" fill="#e3677c"/></svg>