<?xml version="1.0" encoding="utf-8"?>
<!-- Generator: Adobe Illustrator 22.1.0, SVG Export Plug-In . SVG Version: 6.00 Build 0)  -->
<svg version="1.1" id="Ebene_1" xmlns="http://www.w3.org/2000/svg" xmlns:xlink="http://www.w3.org/1999/xlink" x="0px" y="0px"
	 viewBox="0 0 453.8 304.4" style="enable-background:new 0 0 453.8 304.4;" xml:space="preserve">
<style type="text/css">
	.st0{fill:#F7B234;}
	.st1{fill:#1D1D1B;}
</style>
<title>Techno-Biene</title>
<path class="st0" d="M453.7,201.7l-17.3,9.3l-16.3-11.8l-1.5-20.6l16.7-9.4c-15.6-6.7-33.7,0.6-40.4,16.2c-2,4.7-2.8,9.8-2.4,14.9
	l-91.6,51.4c-11.7-7.8-27.5-4.6-35.3,7.1c-7.8,11.7-4.6,27.5,7.1,35.3c11.7,7.8,27.5,4.6,35.3-7.1c2.8-4.2,4.3-9.2,4.3-14.3
	l91.5-51.3c13.2,10.7,32.6,8.7,43.4-4.5C450.7,212.5,453,207.2,453.7,201.7L453.7,201.7z M286.8,288.7l-13.7-7.4l0.6-15.4l12.8-7.5
	l13.2,7.8v15.5L286.8,288.7z"/>
<path class="st1" d="M286.9,122.1c2.7-1.1,6.1,1,7.5,4.7s0.5,7.6-2.2,8.7s-6.1-1-7.5-4.7S284.2,123.2,286.9,122.1z"/>
<path class="st1" d="M131.1,159.7L131.1,159.7c-35.1,4.5-67.5,0.3-86.6-11.3C21.6,134.5,5,112.8,0.9,91.7c-2.3-12-0.3-22.9,5.7-30.9
	c5.2-7,14-11.4,25.4-12.9c20.4-2.6,47.3,4.5,70.1,18.6c31.6,19.5,80.7,64.9,80.7,74.7c0.1,1.4-0.6,2.7-1.8,3.5
	C170.2,151.5,152.1,157,131.1,159.7L131.1,159.7z M32.8,53.9c-9.7,1.3-17.2,4.9-21.4,10.6c-5,6.6-6.6,15.7-4.6,26.1
	c3.7,19.4,19.4,39.6,40.8,52.6c18,10.9,49,14.9,82.8,10.5l0,0c18.9-2.5,36-7.4,46.2-13.3c-4.4-9.3-45.4-48.9-77.5-68.7
	C77.3,58.3,52,51.5,32.8,53.9L32.8,53.9z"/>
<path class="st1" d="M313.2,47.5c0.4,3.6,4.7,6,9.6,5.4s8.5-4,8.1-7.6s-4.7-6-9.6-5.4S312.8,44,313.2,47.5z"/>
<path class="st1" d="M282.6,18.7c2.5,2.6,7.4,1.9,11-1.6s4.4-8.3,1.9-10.9s-7.4-1.9-11,1.6S280.1,16.2,282.6,18.7z"/>
<path class="st1" d="M281.9,15.4c0,0,2.6,1.7,2.9,4.3c-17.6,9.7-25.1,43.9-27.7,59.7c29.8-38.2,58.7-33.6,58.7-33.6s1.2,2.9,0.1,5
	c-26.7-4.4-56.3,32-60,36.6l0,0c0,0-4.1,14.3-5,5.4C252.4,33.3,281.9,15.4,281.9,15.4z"/>
<path class="st0" d="M152.4,164.6c-4.6-0.2-24.7,15-24.9,19.4c5.5,18.7,19,53.3,66.2,75.1c9.6,0.4,24.1-9.9,26.7-21.2
	C172.8,220.2,156.6,180.1,152.4,164.6z"/>
<path class="st1" d="M202.6,151.8c-2.8-0.1-19.1-1.4-28.8,3.5c3.3,11.2,17.1,48.5,60.3,61c5-4.1,6.7-23.4,5.1-29.5
	C216.4,180.6,208.3,163.8,202.6,151.8z"/>
<path class="st1" d="M110.4,207.3c8.7,33.5,58.3,71.5,56.7,65.3C148.6,283.8,81.4,274.6,110.4,207.3z"/>
<path class="st1" d="M242.7,179.5c15.1,6.5,33.8,7.4,48.9,3.9c1.8-0.4-23.3-28.4-21.9-25.4c2.7,5.8,31.1,22.6,33,21.8
	c8.1-3.6,13.9-8.8,15.5-15.3c3.5-14.2-15.4-36.8-41.5-54.5c-30.1-20.4-57.4-11.3-65.1,6.9S213.9,166.9,242.7,179.5z M265.5,113.4
	c0.2-1.1,3.8-4.8,17,3.4c0,0,6.2,4.3,7.8,5.8c3.1,3,11.6,12.4,3.4,17.1C275,147,265.5,113.4,265.5,113.4z"/>
<path class="st1" d="M249.1,191.9c0,0-3.3-2.5-5.1-0.1s-2.8,5-0.7,7.1c11.8,11.7,33.4,21.4,37.4,27s18,16.5,17.4,20.1
	s10.1,4.4,14,2.9s7.6-2.9,11.8-0.4s32.1,9,40.5-0.1c0,0,2.4-9.3-4.5-14.1c-5.2-3.6-11.7-4.7-17.8-2.9c-4,1.1-11.5,1.7-12.3,2.2
	s-6.3,2.1-5.8,5.5s-2.5-2-7.5,1s-4.7-4.2-15-4.2c-5.4,0-7.6-8.1-17.9-16c0,0-14.9-14.6-16.9-16.4c-3.8-3.5-7.9-6.6-12.2-9.6
	C252.7,193,250.9,192.3,249.1,191.9z"/>
<path class="st0" d="M103.9,260.8l-34.2,43.6l43.2-33.2C108.9,268.8,105.7,265.2,103.9,260.8z"/>
</svg>
