<svg id="Ebene_1" data-name="Ebene 1" xmlns="http://www.w3.org/2000/svg" viewBox="0 0 484.57 360.96"><defs><style>.cls-1{fill:#f7b234;}.cls-2{fill:#6f7072;}.cls-3{fill:#1d1d1b;}</style></defs><title>Training-Biene</title><rect class="cls-1" x="330.38" y="267.4" width="122.37" height="20.44" transform="translate(-88.42 269.24) rotate(-34.91)"/><rect class="cls-1" x="316.56" y="297.41" width="16.69" height="59.29" transform="translate(-128.71 239.99) rotate(-34.91)"/><rect class="cls-2" x="322.66" y="284.63" width="22.57" height="71.69" transform="translate(-123.33 244.06) rotate(-34.92)"/><rect class="cls-1" x="452.41" y="202.6" width="16.7" height="59.28" transform="translate(-50 300.67) rotate(-34.91)"/><rect class="cls-2" x="440.21" y="202.68" width="22.57" height="71.68" transform="translate(-55.26 296.5) rotate(-34.91)"/><path class="cls-3" d="M345.14,138.9c2.51-2.42,7.24-1.55,10.5,1.94s3.88,8.26,1.37,10.69-7.24,1.55-10.51-1.95S342.57,141.32,345.14,138.9Z" transform="translate(0 -4.81)"/><path class="cls-3" d="M157.77,192h0c-42.2,5.47-81.2.38-104.2-13.59C26.07,161.73,6,135.61,1.11,110.22-1.65,95.84.8,82.65,8,73.1c6.32-8.39,16.89-13.76,30.57-15.53C63.09,54.39,95.42,63,122.9,80,161,103.44,220,158,220,169.82a4.73,4.73,0,0,1-2.18,4.15c-13.05,8.2-34.94,14.77-60.08,18ZM39.48,64.77c-11.73,1.52-20.64,5.92-25.76,12.72-6,8-8,18.85-5.55,31.36,4.48,23.42,23.3,47.7,49.08,63.34,21.72,13.14,59,17.87,99.59,12.6h0c22.76-2.94,43.31-8.88,55.57-16-5.28-11.14-54.67-58.81-93.27-82.65C93,70,62.46,61.79,39.48,64.77Z" transform="translate(0 -4.81)"/><path class="cls-3" d="M341.87,43.8c2,3.83,7.94,4.63,13.14,1.78s7.77-8.23,5.73-12.08-7.94-4.63-13.15-1.77S339.82,40,341.87,43.8Z" transform="translate(0 -4.81)"/><path class="cls-3" d="M295,25c3.91,1.81,9.11-1.14,11.58-6.57s1.3-11.28-2.63-13.09-9.12,1.13-11.58,6.56S291.06,23.16,295,25Z" transform="translate(0 -4.81)"/><path class="cls-3" d="M292.69,21.53s3.67.78,5.12,3.53c-15.45,18.64-8.87,60.2-4.85,79,16.62-55.83,51.09-63.38,51.09-63.38s2.58,2.73,2.33,5.61c-31.85,6.83-49.09,60.52-51.15,67.29h0s1.67,17.77-3.17,8.26C267.57,54.46,292.69,21.53,292.69,21.53Z" transform="translate(0 -4.81)"/><path class="cls-1" d="M183.29,197.9c-5.56-.21-29.77,18.08-29.91,23.38,6.67,22.47,22.9,64.16,79.69,90.33,11.58.48,29-11.92,32.08-25.53C207.89,264.85,188.39,216.59,183.29,197.9Z" transform="translate(0 -4.81)"/><path class="cls-3" d="M243.71,182.53c-3.32-.13-23-1.62-34.61,4.2,4,13.51,20.59,58.3,72.6,73.35,6-4.89,8.11-28.1,6.1-35.53C260.29,217.17,250.57,197,243.71,182.53Z" transform="translate(0 -4.81)"/><path class="cls-3" d="M132.78,249.33c10.49,40.3,70.21,86,68.18,78.62C178.82,341.37,98,330.26,132.78,249.33Z" transform="translate(0 -4.81)"/><path class="cls-3" d="M320.75,222.53c19.79.7,41.12-6.58,56.47-17.06,1.81-1.24-38.56-21.54-35.7-18.8,5.55,5.32,44.76,11.64,46.47,9.91,7.48-7.59,11.69-16,10.63-23.92-2.29-17.46-33.35-34.5-70.29-42.85-42.69-9.64-69.2,12.51-70,36.27S283,221.11,320.75,222.53Zm-3.4-84c-.21-1.36,2.1-7,20.5-3.65,0,0,8.89,2.1,11.27,3.08,4.84,2,18.39,8.78,11.27,17.68-17.76,16.36-43.05-17.15-43.05-17.15Z" transform="translate(0 -4.81)"/><path class="cls-3" d="M290.66,256.45s-3.68-1.53-4.48,2-.89,6.8,1.56,8.29c14,8.55,36,10.72,41.19,15.53s21,11.37,21.5,15.72,10.23.88,13.13-2.39,5.77-6.31,10.24-5.22,30.94-2.8,35.43-16.54c0,0-.78-11.57-8.4-14.18s-13.38,1.08-16.52,3.91-9.55,6.63-10.07,7.5-4.9,4.92-3.32,8.62-2.87-1.3-6.29,4.13-5.41-2.85-14.46,1.3c-4.72,2.2-9.17-6.11-20.71-10.9,0,0-2.31-13.24-10-17.09-7.11-3.55-18,1.23-23.56-.62C294.33,255.94,290.66,256.45,290.66,256.45Z" transform="translate(0 -4.81)"/><path class="cls-1" d="M124.38,313.48l-41,52.29L135.16,326S127.51,321.78,124.38,313.48Z" transform="translate(0 -4.81)"/></svg>