<svg xmlns="http://www.w3.org/2000/svg" viewBox="0 0 82 80"><path d="M79.4 49.9c-6 0-8.7-3-10.9-5.3s-3.3-3.7-7.1-3.7-5.7 1.7-8.1 3.8-5.6 5.2-11.6 5.2-9-2.9-11.5-5.2-4.2-3.8-8.1-3.8-5.7 1.7-8.1 3.8-5.5 5.2-11.4 5.2a2.6 2.6 0 0 1 0-5.2c3.9 0 5.7-1.7 8.1-3.8s5.6-5.2 11.5-5.2 9 2.9 11.6 5.2 4.2 3.8 8.1 3.8 5.7-1.7 8.1-3.8 5.6-5.2 11.6-5.2 8.7 3 10.9 5.4 3.3 3.7 7.1 3.7a2.6 2.6 0 0 1 0 5.2zm0-.6a2.6 2.6 0 0 1-2.6-2.6c0-12.7-7.5-34.3-35.8-34.3S5.2 34 5.2 46.7a2.6 2.6 0 0 1-5.2 0 40.8 40.8 0 0 1 9.3-26.2C16.7 11.9 27.6 7.3 41 7.3s24.3 4.6 31.7 13.2A40.8 40.8 0 0 1 82 46.7a2.6 2.6 0 0 1-2.6 2.6zm-35-2.6v27.1c0 1-1.2 1.8-2.6 1.8s-2.6-.8-2.6-1.8V46.6m7 33.4a7 7 0 0 1-6.8-4.9 2.6 2.6 0 1 1 4.9-1.7 1.9 1.9 0 0 0 3.7 0 2.625 2.625 0 1 1 5 1.6 7 7 0 0 1-6.8 5zM41 16.5a1.7 1.7 0 0 1-1.7-1.7V1.7a1.7 1.7 0 1 1 3.4 0v13a1.7 1.7 0 0 1-1.7 1.7z" fill="#e3677c"/></svg>