<?xml version="1.0" encoding="UTF-8"?>
<svg width="800px" height="341px" viewBox="0 0 800 341" version="1.1" xmlns="http://www.w3.org/2000/svg" xmlns:xlink="http://www.w3.org/1999/xlink">
    <!-- Generator: Sketch 46.2 (44496) - http://www.bohemiancoding.com/sketch -->
    <title>Waves</title>
    <desc>Created with Sketch.</desc>
    <defs>
        <linearGradient x1="60.8872296%" y1="20.02257%" x2="50%" y2="83.3070426%" id="linearGradient-1">
            <stop stop-color="#FFFFFF" stop-opacity="0" offset="0%"></stop>
            <stop stop-color="#FFFFFF" offset="100%"></stop>
        </linearGradient>
    </defs>
    <g id="Symbols" stroke="none" stroke-width="1" fill="none" fill-rule="evenodd" opacity="0.586390399">
        <g id="Component/Homepage/Products" transform="translate(-400.000000, 0.000000)">
            <g id="Waves" transform="translate(400.000000, 0.000000)">
                <path d="M103.844466,279.508537 C112.811969,123.828246 241.689625,0.352564103 399.358974,0.352564103 C557.169865,0.352564103 686.137346,124.050036 694.897343,279.927883 L693.91027,280.187702 C685.280334,124.739781 556.704799,1.3525641 399.358974,1.3525641 C242.154966,1.3525641 113.669408,124.517464 104.831305,279.767459 L103.844465,279.508545 L103.844466,279.508537 Z" id="Wave-(extra-large" fill="#EFF1F5" fill-rule="nonzero"></path>
                <path d="M163.666561,293.204355 C166.626356,164.296924 271.877048,60.7094017 401.282051,60.7094017 C530.508633,60.7094017 635.647466,164.011472 638.884716,292.671294 L637.89086,292.932893 C634.78991,164.70352 530.043548,61.7094017 401.282051,61.7094017 C272.342411,61.7094017 167.484403,164.988705 164.660956,293.465259 L163.666561,293.204355 Z" id="Wave-(large)" fill="#E8EAEE" fill-rule="nonzero"></path>
                <path d="M221.038396,308.257278 C220.876712,305.12006 220.794872,301.961697 220.794872,298.784188 C220.794872,198.93903 301.601361,117.997863 401.282051,117.997863 C500.962741,117.997863 581.769231,198.93903 581.769231,298.784188 C581.769231,301.79473 581.695766,304.788085 581.550533,307.762553 L580.536006,308.029593 C580.690864,304.967378 580.769231,301.88495 580.769231,298.784188 C580.769231,199.490943 500.410083,118.997863 401.282051,118.997863 C302.154019,118.997863 221.794872,199.490943 221.794872,298.784188 C221.794872,302.051779 221.881898,305.299011 222.053756,308.523683 L221.038396,308.257278 Z" id="Wave-(medium)" fill="#E3E5EE" fill-rule="nonzero"></path>
                <path d="M274.186722,322.202059 C272.80088,314.606915 272.076923,306.780232 272.076923,298.784188 C272.076923,227.308529 329.923656,169.365385 401.282051,169.365385 C472.640446,169.365385 530.487179,227.308529 530.487179,298.784188 C530.487179,306.616932 529.792491,314.287162 528.461459,321.736433 L527.394411,322.017297 C528.76907,314.48204 529.487179,306.717115 529.487179,298.784188 C529.487179,227.860441 472.087788,170.365385 401.282051,170.365385 C330.476314,170.365385 273.076923,227.860441 273.076923,298.784188 C273.076923,306.880457 273.82491,314.801733 275.25544,322.482464 L274.186722,322.202059 L274.186722,322.202059 Z" id="Wave-(small)" fill="#DBDEE8" fill-rule="nonzero"></path>
                <polygon id="Gradient-Left" fill="url(#linearGradient-1)" points="36.8455694 111 380 203.165347 343.154431 341 0 248.834653"></polygon>
                <polygon id="Gradient-Right" fill="url(#linearGradient-1)" points="763.154431 111 420 203.165347 456.845569 341 800 248.834653"></polygon>
            </g>
        </g>
    </g>
</svg>