<svg id="Ebene_1" data-name="Ebene 1" xmlns="http://www.w3.org/2000/svg" xmlns:xlink="http://www.w3.org/1999/xlink" viewBox="0 0 750 382"><defs><style>.cls-1{fill:none;}.cls-2{fill:#f19300;}.cls-3{fill:#1a171b;}.cls-4{fill:#1d1d1b;}.cls-5{clip-path:url(#clip-path);}</style><clipPath id="clip-path"><rect class="cls-1" x="576.29" y="72.32" width="96.06" height="109.58"/></clipPath></defs><title>Container-Day-mit-Kubernetes-und-Helm</title><path class="cls-2" d="M123.93,118.91c0,6-13,12-26.09,12-12.34,0-22.17-4.79-28.85-14.24-5.55-7.56-8.57-17.77-8.57-28.6,0-25.2,15.37-42.72,37.42-42.72,12,0,24.32,6.43,24.32,12.47,0,2.65-1.89,4.79-4.15,4.79-1.52,0-2.78-.63-5.17-2.64-4.91-4.16-9-5.67-15-5.67-15.62,0-26.33,13.61-26.33,33.51,0,20.42,10.46,34.15,26.08,34.15,5.55,0,10-1.38,16.51-5.29,3.28-1.89,4.41-2.39,5.8-2.39C122.16,114.25,123.93,116.26,123.93,118.91Z"/><path class="cls-2" d="M182.52,98.75c0,18.65-11.59,32.13-27.6,32.13S127.33,117.4,127.33,99c0-18.9,11.46-32.39,27.59-32.39S182.52,80.1,182.52,98.75Zm-44.86-.13c0,14.24,6.8,23.31,17.26,23.31s17.27-9.2,17.27-23.18-6.81-23.19-17.27-23.19S137.66,84.76,137.66,98.62Z"/><path class="cls-2" d="M202.17,74.93c4.79-5.67,10.21-8.32,17.27-8.32,13.23,0,21.92,9.46,21.92,23.82v34.91c0,3.4-2,5.54-5.17,5.54s-5.16-2.14-5.16-5.54V91.06c0-9.2-5.92-15.5-14.62-15.5s-14.49,6.3-14.49,15.5v34.28c0,3.4-2,5.54-5.17,5.54s-5.16-2.14-5.16-5.54V72.16c0-3.4,2-5.55,5.16-5.55s5.17,2.15,5.17,5.55v2.52Z"/><path class="cls-2" d="M256.6,53.76c0-3.4,2-5.54,5.17-5.54s5.17,2.14,5.17,5.54V67.37h4.28c3.28,0,5.17,1.64,5.17,4.54s-1.89,4.41-5.17,4.41h-4.28v49c0,3.4-2,5.54-5.17,5.54s-5.17-2.14-5.17-5.54v-49h-4.28c-3.28,0-5.17-1.64-5.17-4.41s1.89-4.54,5.17-4.54h4.28Z"/><path class="cls-2" d="M323.64,71.78c0-3,2-5.17,4.79-5.17a4.84,4.84,0,0,1,4.91,5.17v53.93a4.83,4.83,0,0,1-4.91,5.17c-2.78,0-4.79-2.14-4.79-5.17v-4.28h-.25c-4.92,6.68-10.08,9.45-17.39,9.45-15.75,0-27.35-13.61-27.35-32.13s11.6-32.14,27.47-32.14c6.81,0,11.47,2.27,17.27,8.45h.25ZM289,98.62c0,14.24,6.8,23.31,17.26,23.31s17.26-9.2,17.26-23.18-6.8-23.19-17.26-23.19S289,84.76,289,98.62Z"/><path class="cls-2" d="M356.65,51.75a6.37,6.37,0,1,1-6.43-6.43A6.27,6.27,0,0,1,356.65,51.75Zm-1.26,73.59c0,3.4-2,5.54-5.17,5.54s-5.16-2.14-5.16-5.54V72.16c0-3.4,2-5.55,5.16-5.55s5.17,2.15,5.17,5.55Z"/><path class="cls-2" d="M377.82,74.93c4.78-5.67,10.2-8.32,17.26-8.32,13.23,0,21.92,9.46,21.92,23.82v34.91c0,3.4-2,5.54-5.16,5.54s-5.17-2.14-5.17-5.54V91.06c0-9.2-5.92-15.5-14.62-15.5s-14.49,6.3-14.49,15.5v34.28c0,3.4-2,5.54-5.16,5.54s-5.17-2.14-5.17-5.54V72.16c0-3.4,2-5.55,5.17-5.55s5.16,2.15,5.16,5.55v2.52Z"/><path class="cls-2" d="M435.4,102.78c.38,6.68,1.89,10.58,5.42,14.11s7.81,5,13.35,5c6.43,0,11-1.64,16.64-6.17,2.39-1.89,3.4-2.4,4.53-2.4,1.89,0,3.66,2,3.66,4.41,0,6-13.87,13.11-25.58,13.11-17,0-28.36-12.73-28.36-31.88,0-18.78,11.85-32.39,28-32.39,15.37,0,27.22,13.24,27.22,30.37,0,4.29-1.52,5.8-5.8,5.8ZM469.92,95c-.5-12.23-6.93-19.41-17.39-19.41S436.28,82.11,435.4,95Z"/><path class="cls-2" d="M498.9,77.45c3.53-6.55,9.07-10.84,14.24-10.84,3.28,0,5.67,2.15,5.67,5.3s-2,4.79-6.43,5.67c-8.69,1.64-13.86,8.19-13.73,17.89v29.87c0,3.4-2,5.54-5.17,5.54s-5.16-2.14-5.16-5.54V72.16c0-3.4,2-5.55,5.16-5.55s5.17,2.15,5.17,5.55v5.29Z"/><path class="cls-3" d="M56.56,260.43V255.7H68l.32,3.84a9.79,9.79,0,0,1,3.51-3.24,10.07,10.07,0,0,1,4.87-1.14,8.9,8.9,0,0,1,4.78,1.24,7.59,7.59,0,0,1,3,3.73A10.12,10.12,0,0,1,88,256.48a9.46,9.46,0,0,1,5-1.32,8.35,8.35,0,0,1,6.78,3q2.49,3,2.49,9v12.08l3.78.81v4.7h-15v-4.7l3.38-.81V267.14c0-2.2-.35-3.73-1.07-4.59a3.93,3.93,0,0,0-3.2-1.29,5.46,5.46,0,0,0-2.88.74,5.34,5.34,0,0,0-2,2.05c0,.34,0,.63,0,.88s0,.48,0,.73v13.59l3.17.81v4.7H74.45v-4.7l3.17-.81V267.14c0-2.15-.36-3.67-1.08-4.55a3.88,3.88,0,0,0-3.22-1.33,6.15,6.15,0,0,0-2.78.6,5.5,5.5,0,0,0-2,1.71v15.68l3.38.81v4.7H57v-4.7l3.78-.81v-18Z"/><path class="cls-3" d="M107.57,280.06l3.79-.81v-18l-4.19-.8V255.7h12v23.55l3.76.81v4.7H107.57Zm11.63-31.32h-7.84v-5.88h7.84Z"/><path class="cls-3" d="M136.29,248.58v7.12h5.1v5.5h-5.1V276a3.45,3.45,0,0,0,.69,2.42,2.52,2.52,0,0,0,1.88.72q.81,0,1.41-.06c.41-.05.86-.12,1.36-.23l.67,5.66a18.07,18.07,0,0,1-2.6.61,17.48,17.48,0,0,1-2.8.2,8.34,8.34,0,0,1-6.24-2.23c-1.46-1.48-2.19-3.84-2.19-7.06V261.2H124.2v-5.5h4.27v-7.12Z"/><path class="cls-4" d="M156.87,280.06l4.17-.81V251.19l-4.17-.81v-4.72h16v4.72l-4,.81v10.44h3.41l7.52-10.93-2.31-.32v-4.72H193v4.72l-4.24.73-9.61,12.83,10.79,15.45,3.92.67v4.7H178.36v-4.7l2.41-.32-7.52-11.31h-4.37v10.82l4,.81v4.7h-16Z"/><path class="cls-4" d="M215.26,281.08a9.66,9.66,0,0,1-3.45,3.14,9.8,9.8,0,0,1-4.68,1.1,9.13,9.13,0,0,1-7.2-2.94q-2.61-2.94-2.61-9.14v-12l-3.19-.8V255.7h11v17.59a7.56,7.56,0,0,0,1.06,4.55,3.73,3.73,0,0,0,3.15,1.39,7.86,7.86,0,0,0,3.21-.61,5.6,5.6,0,0,0,2.22-1.73V261.23l-3.44-.8V255.7h11.28v23.55l3.52.81v4.7h-10.4Z"/><path class="cls-4" d="M256.52,271q0,6.51-2.9,10.4a9.82,9.82,0,0,1-8.38,3.89,8.83,8.83,0,0,1-4.43-1.06,9,9,0,0,1-3.17-3.08l-.56,3.58h-6.77V248.4l-4.16-.81v-4.73h12v15.93a8.78,8.78,0,0,1,3-2.69,8.51,8.51,0,0,1,4-.94,9.63,9.63,0,0,1,8.43,4.18q2.89,4.17,2.9,11.13Zm-7.81-.56a15.18,15.18,0,0,0-1.25-6.73,4.39,4.39,0,0,0-4.26-2.48,5.85,5.85,0,0,0-3.09.76,5.27,5.27,0,0,0-2,2.19v12.28a5,5,0,0,0,2,2,6.48,6.48,0,0,0,3.12.7,4.48,4.48,0,0,0,4.25-2.14,12.49,12.49,0,0,0,1.21-6.06Z"/><path class="cls-4" d="M273.23,285.32a13.06,13.06,0,0,1-10-4,14.37,14.37,0,0,1-3.76-10.23V270A15.89,15.89,0,0,1,263,259.33a11.81,11.81,0,0,1,9.55-4.17q5.88,0,9.13,3.55t3.25,9.58v4.28H267.57l-.06.16a7.64,7.64,0,0,0,1.92,4.72,6,6,0,0,0,4.64,1.86,15.06,15.06,0,0,0,4.32-.53,19.91,19.91,0,0,0,3.76-1.65l2.12,4.83a15.28,15.28,0,0,1-4.66,2.39A19.69,19.69,0,0,1,273.23,285.32Zm-.69-24.12a4.08,4.08,0,0,0-3.44,1.67,8.72,8.72,0,0,0-1.56,4.38l.08.13h9.61v-.7a6.26,6.26,0,0,0-1.16-4A4.2,4.2,0,0,0,272.54,261.2Z"/><path class="cls-4" d="M288.39,280.06l3.76-.81v-18l-4.17-.8V255.7h11.47l.35,4.24a9.17,9.17,0,0,1,2.63-3.51,5.86,5.86,0,0,1,3.74-1.27,8.59,8.59,0,0,1,1.3.1,7.85,7.85,0,0,1,1.14.23l-.83,7.14-3.23-.08a5.45,5.45,0,0,0-2.84.67,4.32,4.32,0,0,0-1.72,1.91v14.12l3.76.81v4.7H288.39Z"/><path class="cls-4" d="M309.69,280.06l3.76-.81v-18l-4.16-.8V255.7h11.47l.34,4.16a10.64,10.64,0,0,1,3.58-3.46,9.3,9.3,0,0,1,4.75-1.24,8.77,8.77,0,0,1,6.88,2.77c1.64,1.84,2.47,4.74,2.47,8.67v12.65l3.76.81v4.7h-15v-4.7l3.36-.81V266.63c0-1.95-.4-3.33-1.18-4.15a4.79,4.79,0,0,0-3.58-1.22,6.06,6.06,0,0,0-2.79.63,5.82,5.82,0,0,0-2.07,1.79v15.57l3.17.81v4.7H309.69Z"/><path class="cls-4" d="M357.85,285.32a13,13,0,0,1-10-4,14.37,14.37,0,0,1-3.76-10.23V270a15.88,15.88,0,0,1,3.55-10.66,11.84,11.84,0,0,1,9.55-4.17q5.88,0,9.13,3.55t3.25,9.58v4.28H352.18l-.05.16a7.53,7.53,0,0,0,1.92,4.72,6,6,0,0,0,4.63,1.86,15.08,15.08,0,0,0,4.33-.53,20.19,20.19,0,0,0,3.76-1.65l2.12,4.83a15.28,15.28,0,0,1-4.66,2.39A19.69,19.69,0,0,1,357.85,285.32Zm-.7-24.12a4.1,4.1,0,0,0-3.44,1.67,8.62,8.62,0,0,0-1.55,4.38l.08.13h9.61v-.7a6.26,6.26,0,0,0-1.17-4A4.19,4.19,0,0,0,357.15,261.2Z"/><path class="cls-4" d="M384,248.58v7.12h5.1v5.5H384V276a3.4,3.4,0,0,0,.7,2.42,2.49,2.49,0,0,0,1.88.72q.8,0,1.41-.06c.4-.05.85-.12,1.35-.23l.67,5.66a17.76,17.76,0,0,1-2.6.61,17.43,17.43,0,0,1-2.79.2,8.35,8.35,0,0,1-6.25-2.23c-1.46-1.48-2.19-3.84-2.19-7.06V261.2H371.9v-5.5h4.27v-7.12Z"/><path class="cls-4" d="M406,285.32a13.09,13.09,0,0,1-10-4,14.41,14.41,0,0,1-3.76-10.23V270a15.89,15.89,0,0,1,3.56-10.66,11.83,11.83,0,0,1,9.55-4.17q5.88,0,9.13,3.55t3.25,9.58v4.28H400.35l-.05.16a7.53,7.53,0,0,0,1.92,4.72,6,6,0,0,0,4.63,1.86,15,15,0,0,0,4.32-.53,19.91,19.91,0,0,0,3.76-1.65l2.13,4.83a15.4,15.4,0,0,1-4.66,2.39A19.73,19.73,0,0,1,406,285.32Zm-.7-24.12a4.09,4.09,0,0,0-3.44,1.67,8.72,8.72,0,0,0-1.56,4.38l.08.13H410v-.7a6.26,6.26,0,0,0-1.17-4A4.2,4.2,0,0,0,405.32,261.2Z"/><path class="cls-4" d="M444.29,265.69H439l-.83-3.63a7.05,7.05,0,0,0-2-1.07,8,8,0,0,0-2.7-.43,5.26,5.26,0,0,0-3.28.93,2.81,2.81,0,0,0-1.2,2.32,2.64,2.64,0,0,0,1.15,2.19,12.28,12.28,0,0,0,4.62,1.54q5.4,1.08,8,3.16a6.93,6.93,0,0,1,2.61,5.73,7.65,7.65,0,0,1-3.37,6.41,14.67,14.67,0,0,1-8.88,2.48,18.38,18.38,0,0,1-6.16-1,15.64,15.64,0,0,1-5-2.81L421.9,275h5.48l1.07,3.79a4.52,4.52,0,0,0,1.91.87,10.87,10.87,0,0,0,2.52.28,6.44,6.44,0,0,0,3.64-.86,2.69,2.69,0,0,0,1.25-2.33,2.76,2.76,0,0,0-1.26-2.24,13,13,0,0,0-4.65-1.66,18.68,18.68,0,0,1-7.75-3.1,6.76,6.76,0,0,1-2.62-5.6,8.15,8.15,0,0,1,3-6.3c2-1.76,4.86-2.64,8.57-2.64a22,22,0,0,1,6.4.91,13.44,13.44,0,0,1,4.74,2.34Z"/><path class="cls-3" d="M396,338.57a9.43,9.43,0,0,1-8.14,4.24,9.1,9.1,0,0,1-7.19-2.94c-1.74-2-2.61-5-2.61-9.14v-12l-3.19-.8v-4.73h11v17.59a7.67,7.67,0,0,0,1.06,4.56,3.74,3.74,0,0,0,3.16,1.38,7.69,7.69,0,0,0,3.21-.61,5.57,5.57,0,0,0,2.21-1.73V318.72l-3.43-.8v-4.73h11.28v23.55l3.51.81v4.7H396.53Z"/><path class="cls-3" d="M408.76,337.55l3.76-.81v-18l-4.16-.8v-4.73h11.46l.35,4.17a10.64,10.64,0,0,1,3.57-3.47,9.33,9.33,0,0,1,4.76-1.23,8.75,8.75,0,0,1,6.87,2.76q2.47,2.77,2.47,8.68v12.64l3.76.81v4.7h-15v-4.7l3.35-.81V324.12c0-1.95-.39-3.33-1.18-4.15a4.78,4.78,0,0,0-3.57-1.22,6,6,0,0,0-2.79.63,5.66,5.66,0,0,0-2.07,1.79v15.57l3.17.81v4.7H408.76Z"/><path class="cls-3" d="M461.91,338.71a9.66,9.66,0,0,1-3.23,3.06,8.56,8.56,0,0,1-4.26,1,9.84,9.84,0,0,1-8.34-3.92q-3-3.92-3-10.36V328q0-6.87,3-11.09a9.65,9.65,0,0,1,8.37-4.21,8,8,0,0,1,3.93.95,9.51,9.51,0,0,1,3.06,2.7V305.89l-4.19-.81v-4.72h12v36.38l3.76.81v4.7H462.5Zm-11-10.18a12,12,0,0,0,1.27,6,4.46,4.46,0,0,0,4.18,2.19,6,6,0,0,0,3-.7,5.69,5.69,0,0,0,2.07-2V321.68a6,6,0,0,0-2.06-2.16,5.51,5.51,0,0,0-2.94-.77,4.41,4.41,0,0,0-4.19,2.55A14.51,14.51,0,0,0,451,328Z"/><path class="cls-3" d="M487.2,307.88v-4.73h16.19v4.73l-4.19.8V320h16V308.68l-4.19-.8v-4.73h16.19v4.73l-4.19.8v28.06l4.19.81v4.7H511v-4.7l4.19-.81V326h-16v10.74l4.19.81v4.7H487.2v-4.7l4.16-.81V308.68Z"/><path class="cls-3" d="M543.47,342.81a13.11,13.11,0,0,1-10.05-4,14.45,14.45,0,0,1-3.75-10.24v-1.07a15.9,15.9,0,0,1,3.55-10.66,11.83,11.83,0,0,1,9.55-4.16q5.88,0,9.13,3.54t3.25,9.59v4.27H537.8l0,.16a7.56,7.56,0,0,0,1.92,4.73,6,6,0,0,0,4.63,1.85,15,15,0,0,0,4.32-.53,18.7,18.7,0,0,0,3.76-1.65l2.13,4.84a15.63,15.63,0,0,1-4.66,2.39A20,20,0,0,1,543.47,342.81Zm-.7-24.11a4.08,4.08,0,0,0-3.44,1.66,8.62,8.62,0,0,0-1.55,4.38l.08.14h9.61v-.7a6.27,6.27,0,0,0-1.17-4A4.19,4.19,0,0,0,542.77,318.7Z"/><path class="cls-3" d="M557.2,305.08v-4.72h12v36.38l3.79.81v4.7H557.6v-4.7l3.79-.81V305.89Z"/><path class="cls-3" d="M573.83,317.92v-4.73H585.3l.32,3.84a9.82,9.82,0,0,1,3.5-3.23,10.11,10.11,0,0,1,4.88-1.14,8.92,8.92,0,0,1,4.78,1.23,7.65,7.65,0,0,1,3,3.73,10.12,10.12,0,0,1,3.49-3.65,9.43,9.43,0,0,1,5.05-1.31,8.37,8.37,0,0,1,6.78,3q2.48,3,2.48,9v12.08l3.79.81v4.7h-15v-4.7l3.38-.81V324.63c0-2.2-.36-3.73-1.07-4.59a3.94,3.94,0,0,0-3.2-1.29,5.52,5.52,0,0,0-2.89.74,5.35,5.35,0,0,0-1.94,2.06c0,.34,0,.63,0,.87s0,.49,0,.74v13.58l3.17.81v4.7H591.72v-4.7l3.17-.81V324.63c0-2.15-.36-3.66-1.08-4.55a3.89,3.89,0,0,0-3.22-1.33,6,6,0,0,0-2.78.61,5.33,5.33,0,0,0-2,1.7v15.68l3.39.81v4.7h-15v-4.7l3.79-.81v-18Z"/><path class="cls-2" d="M514.22,162.38c0-3.65,2-5.67,5.54-5.67h20.42c22.55,0,37.17,16.38,37.17,42s-14.11,42.09-35.79,42.09h-21.8c-3.52,0-5.54-2-5.54-5.67Zm10.33,69.43h14.87c16.63,0,26.84-12.73,26.84-33.39s-10.33-32.76-27.59-32.76H524.55Z"/><path class="cls-2" d="M646.52,187.46a24,24,0,0,1-1.39-5.8,4.64,4.64,0,0,1,4.79-4.41,5.49,5.49,0,0,1,5.17,3.91l14.36,43.09h.25l14.12-43.09c.88-2.52,2.64-3.91,4.91-3.91a4.64,4.64,0,0,1,4.79,4.41,19.67,19.67,0,0,1-1.39,5.8l-26.21,75a5.49,5.49,0,0,1-5,3.78,4.56,4.56,0,0,1-4.79-4.41c0-1.26.38-2.52,1.52-5.67l6.68-17.64Z"/><path class="cls-3" d="M634.57,176.59c-2.79,0-4.84,2.12-4.87,5.16l0,3.3h-.25c-5-5.45-9.21-7.92-14.71-8.51a2.56,2.56,0,0,0-2.43,1.12q-1.26,1.91-2.47,3.84a2.56,2.56,0,0,0,2.23,3.9h.11c10.54.1,17.3,9.43,17.17,23.52s-7.07,23.29-17.6,23.19-17.31-9.3-17.18-23.64c.08-7.68,2.22-13.9,5.87-17.95a2.56,2.56,0,0,0,.71-1.73,41.22,41.22,0,0,0-.32-5.93,2.55,2.55,0,0,0-4-1.72c-7.69,5.49-12.56,15.33-12.67,27.36-.18,18.66,11.37,32.47,27.24,32.62,7.36.07,12.59-2.68,17.6-9.36h.26l0,4.32c0,3,2,5.22,4.77,5.25a4.87,4.87,0,0,0,5-5.16l.51-54.33A4.88,4.88,0,0,0,634.57,176.59Z"/><g id="Biene_RGB" data-name="Biene RGB"><g class="cls-5"><g class="cls-5"><path class="cls-2" d="M612.71,165.69,604,181.9l12.22-13.32a7.35,7.35,0,0,1-3.53-2.89"/><path class="cls-3" d="M614.24,126.69h0c-11.14,0-21.08-2.63-26.6-7-6.57-5.25-10.91-12.71-11.32-19.46a12.12,12.12,0,0,1,3-9.41c1.92-2,4.85-3,8.46-3,6.48,0,14.58,3.31,21.14,8.64,9.09,7.38,22.58,23.54,22.2,26.6a1.23,1.23,0,0,1-.7,1c-3.67,1.69-9.57,2.66-16.21,2.66m-26.43-37c-3.1,0-5.56.84-7.12,2.43-1.83,1.88-2.69,4.63-2.49,8,.37,6.23,4.44,13.16,10.61,18.09,5.2,4.14,14.7,6.62,25.43,6.62,6,0,11.54-.85,15-2.29-1-3.07-12.22-17.1-21.44-24.59-6.24-5.07-13.89-8.22-20-8.22"/><path class="cls-3" d="M655.9,81c.66.92,2.22.91,3.47,0s1.7-2.42,1-3.34-2.23-.91-3.48,0-1.7,2.42-1,3.33"/><path class="cls-3" d="M643.05,77.81c1.08.32,2.32-.63,2.76-2.13s-.09-3-1.17-3.3-2.32.63-2.76,2.13.09,3,1.17,3.3"/><path class="cls-3" d="M642.33,77a2.21,2.21,0,0,1,1.46.72c-3.32,5.4-.08,15.93,1.65,20.65,2.25-15.08,10.9-18.31,10.9-18.31a2.23,2.23,0,0,1,.81,1.37c-8,2.94-10.48,17.5-10.77,19.33h0s1.08,4.54-.52,2.26c-8.84-16.56-3.54-26-3.54-26"/><path class="cls-2" d="M622.29,132.63c-1.44.23-6.72,6.17-6.49,7.53,2.86,5.43,9.16,15.3,25.08,19.12,3-.47,6.84-4.54,6.93-8.19a34.68,34.68,0,0,1-25.52-18.46"/><path class="cls-3" d="M637,125.6c-.86.13-6,.76-8.67,2.85,1.72,3.26,8.27,13.91,22.39,15.12,1.3-1.56.65-7.63-.25-9.43-7.44-.49-11-5.18-13.47-8.54"/><path class="cls-3" d="M612,148.42c4.75,9.81,22.42,18.5,21.52,16.7-5,4.57-26.32,5.86-21.52-16.7"/><path class="cls-3" d="M649,130.26c9.34,3.25,22.3-.33,23.33-6.47.77-4.54-5.68-11.2-14.28-16.13-9.94-5.71-18.28-2.21-20.3,3.68S639.62,127,649,130.26m5.54-20.44c-.34-.39,3.25,4.71,6,.16.3-.41,2.09,1.31,2.09,1.31s3.92,3.61,1.46,5.29c-5.7,2.72-9.54-6.76-9.54-6.76"/></g></g></g></svg>