<svg id="Ebene_1" data-name="Ebene 1" xmlns="http://www.w3.org/2000/svg" xmlns:xlink="http://www.w3.org/1999/xlink" viewBox="0 0 750 382"><defs><style>.cls-1{fill:none;}.cls-2{fill:#f39200;}.cls-3{clip-path:url(#clip-path);}.cls-4{clip-path:url(#clip-path-2);}.cls-5{fill:#f19300;}.cls-6{fill:#1a171b;}</style><clipPath id="clip-path"><rect class="cls-1" x="534.25" y="59.33" width="96.06" height="109.58"/></clipPath><clipPath id="clip-path-2"><rect class="cls-1" x="534.25" y="59.33" width="96.06" height="109.58"/></clipPath></defs><title>Container-Devops_Camp</title><path class="cls-2" d="M120.93,117.65c0,6-13,12-26.08,12-12.35,0-22.18-4.79-28.86-14.24-5.54-7.56-8.57-17.77-8.57-28.6,0-25.21,15.37-42.72,37.43-42.72,12,0,24.31,6.43,24.31,12.47,0,2.65-1.89,4.79-4.15,4.79-1.52,0-2.78-.63-5.17-2.64-4.91-4.16-9-5.67-15-5.67C79.22,53,68.51,66.62,68.51,86.53c0,20.41,10.46,34.14,26.08,34.14,5.55,0,10-1.38,16.51-5.29,3.28-1.89,4.41-2.39,5.8-2.39C119.16,113,120.93,115,120.93,117.65Z"/><path class="cls-2" d="M179.52,97.49c0,18.65-11.59,32.13-27.6,32.13s-27.59-13.48-27.59-31.88c0-18.9,11.46-32.38,27.59-32.38S179.52,78.84,179.52,97.49Zm-44.86-.13c0,14.24,6.81,23.31,17.26,23.31s17.27-9.2,17.27-23.18S162.38,74.3,151.92,74.3,134.66,83.5,134.66,97.36Z"/><path class="cls-2" d="M199.17,73.67c4.79-5.67,10.21-8.31,17.27-8.31,13.23,0,21.92,9.45,21.92,23.81v34.9c0,3.41-2,5.55-5.17,5.55s-5.16-2.14-5.16-5.55V89.8c0-9.2-5.92-15.5-14.62-15.5s-14.49,6.3-14.49,15.5v34.27c0,3.41-2,5.55-5.17,5.55s-5.16-2.14-5.16-5.55V70.9c0-3.4,2-5.54,5.16-5.54s5.17,2.14,5.17,5.54v2.52Z"/><path class="cls-2" d="M253.6,52.5c0-3.4,2-5.54,5.17-5.54s5.17,2.14,5.17,5.54V66.11h4.28c3.28,0,5.17,1.64,5.17,4.54s-1.89,4.41-5.17,4.41h-4.28v49c0,3.41-2,5.55-5.17,5.55s-5.17-2.14-5.17-5.55v-49h-4.28c-3.28,0-5.17-1.64-5.17-4.41s1.89-4.54,5.17-4.54h4.28Z"/><path class="cls-2" d="M320.64,70.52c0-3,2-5.16,4.79-5.16a4.83,4.83,0,0,1,4.91,5.16v53.93a4.83,4.83,0,0,1-4.91,5.17c-2.78,0-4.79-2.14-4.79-5.17v-4.28h-.25c-4.92,6.68-10.08,9.45-17.39,9.45-15.75,0-27.35-13.61-27.35-32.13s11.6-32.13,27.47-32.13c6.81,0,11.47,2.26,17.27,8.44h.25ZM286,97.36c0,14.24,6.8,23.31,17.26,23.31s17.26-9.2,17.26-23.18-6.8-23.19-17.26-23.19S286,83.5,286,97.36Z"/><path class="cls-2" d="M353.65,50.49a6.37,6.37,0,1,1-6.43-6.43A6.27,6.27,0,0,1,353.65,50.49Zm-1.26,73.58c0,3.41-2,5.55-5.17,5.55s-5.16-2.14-5.16-5.55V70.9c0-3.4,2-5.54,5.16-5.54s5.17,2.14,5.17,5.54Z"/><path class="cls-2" d="M374.82,73.67c4.78-5.67,10.2-8.31,17.26-8.31,13.23,0,21.92,9.45,21.92,23.81v34.9c0,3.41-2,5.55-5.16,5.55s-5.17-2.14-5.17-5.55V89.8c0-9.2-5.92-15.5-14.61-15.5s-14.5,6.3-14.5,15.5v34.27c0,3.41-2,5.55-5.16,5.55s-5.17-2.14-5.17-5.55V70.9c0-3.4,2-5.54,5.17-5.54s5.16,2.14,5.16,5.54v2.52Z"/><path class="cls-2" d="M432.4,101.52c.38,6.68,1.89,10.58,5.42,14.11s7.81,5,13.35,5c6.43,0,11-1.64,16.64-6.17,2.39-1.89,3.4-2.4,4.53-2.4,1.89,0,3.66,2,3.66,4.41,0,6-13.86,13.11-25.58,13.11-17,0-28.35-12.73-28.35-31.88,0-18.78,11.84-32.38,28-32.38,15.37,0,27.22,13.23,27.22,30.36,0,4.29-1.52,5.8-5.8,5.8Zm34.52-7.81c-.5-12.23-6.93-19.41-17.39-19.41s-16.25,6.55-17.13,19.41Z"/><path class="cls-2" d="M495.9,76.19c3.53-6.55,9.07-10.83,14.24-10.83,3.28,0,5.67,2.14,5.67,5.29s-2,4.79-6.43,5.67c-8.69,1.64-13.86,8.19-13.73,17.89v29.86c0,3.41-2,5.55-5.17,5.55s-5.16-2.14-5.16-5.55V70.9c0-3.4,2-5.54,5.16-5.54s5.17,2.14,5.17,5.54v5.29Z"/><path class="cls-2" d="M292.57,329.34c0,6-13,12-26.08,12-12.35,0-22.18-4.79-28.86-14.24-5.54-7.56-8.57-17.77-8.57-28.61,0-25.2,15.38-42.71,37.43-42.71,12,0,24.32,6.42,24.32,12.47,0,2.65-1.89,4.79-4.16,4.79-1.51,0-2.77-.63-5.17-2.65-4.91-4.15-8.94-5.67-15-5.67-15.63,0-26.34,13.61-26.34,33.52,0,20.42,10.46,34.15,26.09,34.15,5.54,0,9.95-1.39,16.5-5.29,3.28-1.89,4.41-2.4,5.8-2.4C290.81,324.67,292.57,326.69,292.57,329.34Z"/><path class="cls-2" d="M341,282.21c0-3,2-5.17,4.78-5.17a4.84,4.84,0,0,1,4.92,5.17v53.93a4.84,4.84,0,0,1-4.92,5.17c-2.77,0-4.78-2.15-4.78-5.17v-4.28h-.26c-4.91,6.67-10.08,9.45-17.39,9.45-15.75,0-27.34-13.61-27.34-32.14S307.56,277,323.44,277c6.81,0,11.47,2.27,17.26,8.45H341ZM306.3,309.05c0,14.24,6.81,23.31,17.27,23.31s17.26-9.2,17.26-23.19S334,286,323.57,286,306.3,295.19,306.3,309.05Z"/><path class="cls-2" d="M373,284.73c4.41-5.54,8.69-7.69,15.62-7.69,7.56,0,12.73,3.15,17.39,10.71,5.55-7.68,10.84-10.71,19-10.71,13.35,0,22.05,9.33,22.05,23.82v34.9c0,3.4-2,5.55-5.17,5.55s-5.16-2.15-5.16-5.55V300.61c0-9.08-5-14.62-13.49-14.62s-13.35,5.54-13.35,14.62v35.15c0,3.4-2,5.55-5.17,5.55s-5.17-2.15-5.17-5.55V300.61c0-9.08-5-14.62-13.48-14.62s-13.35,5.54-13.35,14.62v35.15c0,3.4-2,5.55-5.17,5.55s-5.17-2.15-5.17-5.55V282.59c0-3.4,2-5.55,5.17-5.55s5.17,2.15,5.17,5.55v1.89Z"/><path class="cls-2" d="M470,360.46c0,3.4-2,5.54-5.17,5.54s-5.17-2.14-5.17-5.54V282.59c0-3.4,2-5.55,5.17-5.55s5.17,2.15,5.17,5.55v3.15h.25c3.4-6.05,8.44-8.7,16.38-8.7,15.75,0,27.09,13.49,27.09,32.13,0,18.4-11.34,32.14-26.59,32.14a20,20,0,0,1-16.88-8.57H470Zm-1-51.41c0,14.24,6.68,23.31,17.26,23.31,10.33,0,17.14-9.2,17.14-23.19S496.56,286,486.11,286,469,295.19,469,309.05Z"/><g id="Biene_RGB" data-name="Biene RGB"><g class="cls-3"><g class="cls-4"><path class="cls-5" d="M570.67,152.69,562,168.9l12.22-13.32a7.28,7.28,0,0,1-3.53-2.89"/><path class="cls-6" d="M572.2,113.7h0c-11.14,0-21.08-2.63-26.6-7C539,101.41,534.69,94,534.28,87.2a12.09,12.09,0,0,1,3-9.4c1.92-2,4.85-3,8.46-3,6.48,0,14.58,3.32,21.14,8.65C576,90.82,589.49,107,589.11,110a1.23,1.23,0,0,1-.7,1c-3.67,1.69-9.57,2.66-16.21,2.66m-26.43-37c-3.1,0-5.56.85-7.12,2.44-1.83,1.88-2.69,4.63-2.49,8,.37,6.24,4.44,13.17,10.61,18.1,5.2,4.14,14.71,6.62,25.43,6.62,6,0,11.54-.85,15-2.29-1-3.07-12.22-17.11-21.44-24.59-6.24-5.07-13.89-8.23-20-8.23"/><path class="cls-6" d="M613.86,68c.66.92,2.22.91,3.47,0s1.71-2.42,1-3.34-2.23-.91-3.48,0-1.7,2.43-1,3.34"/><path class="cls-6" d="M601,64.81c1.08.33,2.32-.63,2.76-2.13s-.09-3-1.17-3.29-2.32.63-2.76,2.12.09,3,1.17,3.3"/><path class="cls-6" d="M600.29,64a2.16,2.16,0,0,1,1.46.72c-3.32,5.4-.08,15.93,1.65,20.65,2.25-15.09,10.91-18.31,10.91-18.31a2.24,2.24,0,0,1,.8,1.36c-8,2.95-10.48,17.5-10.77,19.33h0s1.08,4.54-.52,2.26c-8.83-16.56-3.54-26-3.54-26"/><path class="cls-5" d="M580.25,119.64c-1.44.23-6.72,6.16-6.49,7.53,2.86,5.43,9.16,15.3,25.08,19.12,3-.47,6.84-4.54,6.93-8.2a34.67,34.67,0,0,1-25.52-18.45"/><path class="cls-6" d="M595,112.61c-.85.13-6,.75-8.67,2.84,1.72,3.27,8.27,13.92,22.39,15.12,1.3-1.56.65-7.62-.25-9.43-7.44-.49-11-5.17-13.47-8.53"/><path class="cls-6" d="M569.91,135.42c4.75,9.82,22.42,18.51,21.52,16.7-5,4.58-26.32,5.86-21.52-16.7"/><path class="cls-6" d="M606.91,117.27c9.34,3.25,22.3-.33,23.33-6.47.77-4.55-5.68-11.2-14.28-16.14-9.94-5.7-18.27-2.2-20.3,3.68s1.92,15.66,11.25,18.93m5.54-20.45c-.34-.39,3.25,4.71,6,.17.3-.42,2.09,1.3,2.09,1.3s3.93,3.62,1.46,5.3c-5.7,2.71-9.54-6.77-9.54-6.77"/></g></g></g><path d="M328.69,159.5c0-3.65,2-5.67,5.54-5.67h20.41c22.56,0,37.17,16.38,37.17,42S377.7,237.87,356,237.87h-21.8c-3.53,0-5.54-2-5.54-5.67ZM339,228.92h14.87c16.63,0,26.83-12.72,26.83-33.38s-10.33-32.76-27.59-32.76H339Z"/><path d="M407.94,210.53c.38,6.68,1.89,10.58,5.42,14.11s7.81,5,13.35,5c6.43,0,11-1.64,16.63-6.17,2.4-1.89,3.41-2.4,4.54-2.4,1.89,0,3.65,2,3.65,4.41,0,6-13.86,13.11-25.57,13.11-17,0-28.35-12.73-28.35-31.88,0-18.77,11.84-32.38,28-32.38,15.37,0,27.21,13.23,27.21,30.36,0,4.29-1.51,5.8-5.79,5.8Zm34.52-7.81c-.5-12.22-6.93-19.41-17.39-19.41s-16.25,6.56-17.13,19.41Z"/><path d="M493.11,178.4c.89-2.77,2.52-4,5.3-4a4.66,4.66,0,0,1,4.91,4.79c0,1.13-.13,1.76-1.13,4.28l-18,50.65c-1.26,3.53-2.4,4.54-5.42,4.54s-4.16-1-5.42-4.54l-18.14-50.65-.38-1a11.41,11.41,0,0,1-.63-3.27,4.63,4.63,0,0,1,4.79-4.79c2.77,0,4.41,1.26,5.42,4l14.23,43.47h.26Z"/><path d="M598.58,257.78c0,3.4-2,5.54-5.17,5.54s-5.17-2.14-5.17-5.54V179.91c0-3.4,2-5.54,5.17-5.54s5.17,2.14,5.17,5.54v3.15h.25c3.4-6.05,8.44-8.69,16.38-8.69,15.75,0,27.09,13.48,27.09,32.13,0,18.39-11.34,32.13-26.59,32.13a20,20,0,0,1-16.88-8.57h-.25Zm-1-51.41c0,14.24,6.68,23.31,17.26,23.31,10.33,0,17.13-9.2,17.13-23.18s-6.8-23.19-17.26-23.19S597.57,192.51,597.57,206.37Z"/><path d="M692.44,185.58a4.21,4.21,0,0,1-4.53,4.16c-1.51,0-2.65-.5-5-2.27-3.91-3-6.93-4.16-11.34-4.16-6.43,0-11,3.15-11,7.69,0,4,3.78,6.8,13.6,10.33,14.12,5,19.91,10.33,19.91,18.52,0,11-9.57,18.78-23.06,18.78-12,0-23.43-5.93-23.43-12.1a4.39,4.39,0,0,1,4.28-4.54c1.26,0,2.78.76,5.42,2.65,5.17,3.65,9.07,5,14.11,5,6.93,0,12.22-3.78,12.22-8.57,0-4.28-4-7.56-14.49-11.59-13.6-5.29-18.89-10.21-18.89-17.51,0-10.08,9.07-17.64,21.16-17.64C682,174.37,692.44,179.91,692.44,185.58Z"/><path d="M566.3,169.7l-1.27.84a4.36,4.36,0,0,0-1.47,5.52c2.65,5.36,4.1,12.09,4.1,19.86,0,20.67-10.08,33.9-25.71,33.9s-25.7-13.11-25.7-34c0-20.41,10.08-33.64,25.7-33.64a23.1,23.1,0,0,1,12.65,3.54,4.41,4.41,0,0,0,6.53-2.28l.15-.42a4.44,4.44,0,0,0-2-5.3,34.57,34.57,0,0,0-17.3-4.49c-21.54,0-36.79,17.89-36.79,43.09,0,24.57,15.5,42.46,36.79,42.46s36.79-17.89,36.79-42.84a49.3,49.3,0,0,0-6.17-24.71A4.44,4.44,0,0,0,566.3,169.7Z"/></svg>