<svg id="Ebene_1" data-name="Ebene 1" xmlns="http://www.w3.org/2000/svg" xmlns:xlink="http://www.w3.org/1999/xlink" viewBox="0 0 750 382"><defs><style>.cls-1{fill:none;}.cls-2{fill:#f19300;}.cls-3{fill:#1a171b;}.cls-4{clip-path:url(#clip-path);}.cls-5{fill:#f39200;}</style><clipPath id="clip-path"><rect class="cls-1" x="559.29" y="71.91" width="96.06" height="109.58"/></clipPath></defs><title>Container-Day-mit-Java und Testcontainers</title><path class="cls-2" d="M121.93,115.29c0,6-13,12-26.09,12C83.5,127.26,73.67,122.47,67,113c-5.55-7.56-8.57-17.77-8.57-28.6,0-25.21,15.37-42.72,37.42-42.72,12,0,24.32,6.43,24.32,12.47,0,2.65-1.89,4.79-4.15,4.79-1.52,0-2.78-.63-5.17-2.64-4.91-4.16-9-5.68-15-5.68-15.62,0-26.33,13.61-26.33,33.52,0,20.42,10.46,34.15,26.08,34.15,5.55,0,10-1.39,16.51-5.29,3.28-1.89,4.41-2.4,5.8-2.4C120.16,110.62,121.93,112.64,121.93,115.29Z"/><path class="cls-2" d="M180.52,95.13c0,18.64-11.59,32.13-27.6,32.13s-27.59-13.49-27.59-31.88c0-18.9,11.46-32.39,27.59-32.39S180.52,76.48,180.52,95.13ZM135.66,95c0,14.24,6.8,23.31,17.26,23.31s17.27-9.2,17.27-23.18-6.81-23.19-17.27-23.19S135.66,81.14,135.66,95Z"/><path class="cls-2" d="M200.17,71.31C205,65.64,210.38,63,217.44,63c13.23,0,21.92,9.45,21.92,23.82v34.9c0,3.41-2,5.55-5.17,5.55s-5.16-2.14-5.16-5.55V87.44c0-9.2-5.92-15.5-14.62-15.5s-14.49,6.3-14.49,15.5v34.27c0,3.41-2,5.55-5.17,5.55s-5.16-2.14-5.16-5.55V68.54c0-3.4,2-5.55,5.16-5.55s5.17,2.15,5.17,5.55v2.52Z"/><path class="cls-2" d="M254.6,50.14c0-3.4,2-5.54,5.17-5.54s5.17,2.14,5.17,5.54V63.75h4.28c3.28,0,5.17,1.64,5.17,4.54s-1.89,4.41-5.17,4.41h-4.28v49c0,3.41-2,5.55-5.17,5.55s-5.17-2.14-5.17-5.55v-49h-4.28c-3.28,0-5.17-1.64-5.17-4.41s1.89-4.54,5.17-4.54h4.28Z"/><path class="cls-2" d="M321.64,68.16c0-3,2-5.17,4.79-5.17a4.84,4.84,0,0,1,4.91,5.17v53.93a4.83,4.83,0,0,1-4.91,5.17c-2.78,0-4.79-2.14-4.79-5.17v-4.28h-.25c-4.92,6.68-10.08,9.45-17.39,9.45-15.75,0-27.35-13.61-27.35-32.13S288.25,63,304.12,63c6.81,0,11.47,2.27,17.27,8.45h.25ZM287,95c0,14.24,6.8,23.31,17.26,23.31s17.26-9.2,17.26-23.18-6.8-23.19-17.26-23.19S287,81.14,287,95Z"/><path class="cls-2" d="M354.65,48.13a6.37,6.37,0,1,1-6.43-6.43A6.26,6.26,0,0,1,354.65,48.13Zm-1.26,73.58c0,3.41-2,5.55-5.17,5.55s-5.16-2.14-5.16-5.55V68.54c0-3.4,2-5.55,5.16-5.55s5.17,2.15,5.17,5.55Z"/><path class="cls-2" d="M375.82,71.31C380.6,65.64,386,63,393.08,63,406.31,63,415,72.44,415,86.81v34.9c0,3.41-2,5.55-5.16,5.55s-5.17-2.14-5.17-5.55V87.44c0-9.2-5.92-15.5-14.62-15.5s-14.49,6.3-14.49,15.5v34.27c0,3.41-2,5.55-5.16,5.55s-5.17-2.14-5.17-5.55V68.54c0-3.4,2-5.55,5.17-5.55s5.16,2.15,5.16,5.55v2.52Z"/><path class="cls-2" d="M433.4,99.16c.38,6.68,1.89,10.58,5.42,14.11s7.81,5,13.35,5c6.43,0,11-1.64,16.64-6.17,2.39-1.89,3.4-2.4,4.53-2.4,1.89,0,3.66,2,3.66,4.41,0,6-13.87,13.11-25.58,13.11-17,0-28.36-12.73-28.36-31.88C423.06,76.6,434.91,63,451,63c15.37,0,27.22,13.23,27.22,30.37,0,4.29-1.52,5.8-5.8,5.8Zm34.52-7.82c-.5-12.22-6.93-19.4-17.39-19.4s-16.25,6.55-17.13,19.4Z"/><path class="cls-2" d="M496.9,73.83C500.43,67.28,506,63,511.14,63c3.28,0,5.67,2.15,5.67,5.3s-2,4.78-6.43,5.67c-8.69,1.63-13.86,8.19-13.73,17.89v29.86c0,3.41-2,5.55-5.17,5.55s-5.16-2.14-5.16-5.55V68.54c0-3.4,2-5.55,5.16-5.55s5.17,2.15,5.17,5.55v5.29Z"/><path class="cls-3" d="M57.56,257.12v-4.73H69l.32,3.84A9.7,9.7,0,0,1,72.86,253a10.07,10.07,0,0,1,4.87-1.14,8.81,8.81,0,0,1,4.78,1.24,7.59,7.59,0,0,1,3,3.73A10.12,10.12,0,0,1,89,253.17a9.46,9.46,0,0,1,5-1.32,8.35,8.35,0,0,1,6.78,3q2.49,3,2.49,9v12.08l3.78.81v4.7h-15v-4.7l3.38-.81V263.83c0-2.2-.35-3.73-1.07-4.59a3.93,3.93,0,0,0-3.2-1.29,5.46,5.46,0,0,0-2.88.74,5.28,5.28,0,0,0-2,2.05q0,.51,0,.87c0,.25,0,.49,0,.74v13.59l3.17.81v4.7H75.45v-4.7l3.17-.81V263.83c0-2.15-.36-3.67-1.08-4.55A3.88,3.88,0,0,0,74.32,258a6.15,6.15,0,0,0-2.78.6,5.4,5.4,0,0,0-2,1.71v15.68l3.38.81v4.7H58v-4.7l3.78-.81v-18Z"/><path class="cls-3" d="M108.57,276.75l3.79-.81v-18l-4.19-.8v-4.73h12v23.55l3.76.81v4.7H108.57Zm11.63-31.32h-7.84v-5.88h7.84Z"/><path class="cls-3" d="M137.29,245.27v7.12h5.1v5.5h-5.1v14.8a3.45,3.45,0,0,0,.69,2.42,2.52,2.52,0,0,0,1.88.72q.81,0,1.41-.06c.41,0,.86-.12,1.36-.23l.67,5.67a19.45,19.45,0,0,1-2.6.6,18.71,18.71,0,0,1-2.8.2,8.34,8.34,0,0,1-6.24-2.23c-1.46-1.48-2.19-3.84-2.19-7.06V257.89H125.2v-5.5h4.27v-7.12Z"/><path class="cls-3" d="M187.66,242.35v4.72l-4.19.81v21.83a11.44,11.44,0,0,1-3.7,9,13.39,13.39,0,0,1-9.33,3.32q-6.12,0-9.69-3t-3.44-8.78l.05-.16H165a6,6,0,0,0,1.48,4.5,5.51,5.51,0,0,0,4,1.41,4.78,4.78,0,0,0,3.69-1.68,6.59,6.59,0,0,0,1.52-4.61V247.88l-4.19-.81v-4.72h16.2Z"/><path class="cls-3" d="M207.75,281.45a15.7,15.7,0,0,1-.56-1.49,12.08,12.08,0,0,1-.38-1.55,10.62,10.62,0,0,1-3.4,2.61,10.18,10.18,0,0,1-4.58,1,9.6,9.6,0,0,1-6.78-2.32,8.22,8.22,0,0,1-2.51-6.33,7.19,7.19,0,0,1,3.28-6.31c2.18-1.48,5.39-2.23,9.61-2.23h4V262a4.3,4.3,0,0,0-1.21-3.25,5,5,0,0,0-3.58-1.16,8.71,8.71,0,0,0-2.39.31,6.38,6.38,0,0,0-1.69.74l-.51,3.12h-5.91l0-6.45a21.8,21.8,0,0,1,4.93-2.44,17.67,17.67,0,0,1,6.06-1,13.73,13.73,0,0,1,8.76,2.65A9,9,0,0,1,214.3,262v12c0,.44,0,.86,0,1.26a10.14,10.14,0,0,0,.09,1.13l2.39.32v4.7ZM201,276.21a6.8,6.8,0,0,0,3.22-.76,6.33,6.33,0,0,0,2.26-1.92v-4.44h-4a5.45,5.45,0,0,0-3.78,1.17,3.67,3.67,0,0,0-1.29,2.81,2.94,2.94,0,0,0,.95,2.31A3.93,3.93,0,0,0,201,276.21Z"/><path class="cls-3" d="M230.56,257.12l-2.74.51,3.84,13,.51,2.73h.16l.57-2.73,3.78-13-2.79-.53v-4.73h13.18v4.73l-2.52.4L236,281.45h-7.49l-8.59-23.93-2.53-.4v-4.73h13.19Z"/><path class="cls-3" d="M266.85,281.45a15.77,15.77,0,0,1-.57-1.49,12,12,0,0,1-.37-1.55,10.73,10.73,0,0,1-3.4,2.61,10.18,10.18,0,0,1-4.58,1,9.6,9.6,0,0,1-6.78-2.32,8.22,8.22,0,0,1-2.51-6.33,7.19,7.19,0,0,1,3.28-6.31c2.18-1.48,5.39-2.23,9.61-2.23h4V262a4.26,4.26,0,0,0-1.21-3.25,5,5,0,0,0-3.57-1.16,8.71,8.71,0,0,0-2.39.31,6.24,6.24,0,0,0-1.69.74l-.51,3.12h-5.91l0-6.45a21.59,21.59,0,0,1,4.93-2.44,17.66,17.66,0,0,1,6-1A13.76,13.76,0,0,1,270,254.5,9,9,0,0,1,273.4,262v12c0,.44,0,.86,0,1.26a8.19,8.19,0,0,0,.1,1.13l2.39.32v4.7Zm-6.8-5.24a6.81,6.81,0,0,0,3.23-.76,6.29,6.29,0,0,0,2.25-1.92v-4.44h-4a5.48,5.48,0,0,0-3.79,1.17,3.66,3.66,0,0,0-1.28,2.81,2.9,2.9,0,0,0,1,2.31A3.9,3.9,0,0,0,260.05,276.21Z"/><path class="cls-3" d="M310.72,277.77a9.66,9.66,0,0,1-3.45,3.14,9.81,9.81,0,0,1-4.69,1.1,9.13,9.13,0,0,1-7.2-2.94q-2.6-2.94-2.6-9.14v-12l-3.2-.8v-4.73h11V270a7.56,7.56,0,0,0,1.06,4.55,3.75,3.75,0,0,0,3.16,1.39,7.92,7.92,0,0,0,3.21-.61,5.57,5.57,0,0,0,2.21-1.73V257.92l-3.44-.8v-4.73H318.1v23.55l3.52.81v4.7H311.23Z"/><path class="cls-3" d="M323.46,276.75l3.75-.81v-18l-4.16-.8v-4.73h11.47l.35,4.16a10.7,10.7,0,0,1,3.57-3.46,9.2,9.2,0,0,1,4.75-1.24,8.73,8.73,0,0,1,6.88,2.77q2.48,2.76,2.47,8.67v12.65l3.76.81v4.7h-15v-4.7l3.36-.81V263.32c0-1.95-.39-3.33-1.18-4.15a4.78,4.78,0,0,0-3.57-1.22,6.1,6.1,0,0,0-2.8.63,5.71,5.71,0,0,0-2.06,1.79v15.57l3.17.81v4.7H323.46Z"/><path class="cls-3" d="M376.61,277.9a9.4,9.4,0,0,1-3.24,3.06,8.5,8.5,0,0,1-4.25,1.05,9.87,9.87,0,0,1-8.34-3.92q-3-3.91-3-10.37v-.56q0-6.87,3-11.09a9.68,9.68,0,0,1,8.38-4.22,8,8,0,0,1,3.92,1,9.49,9.49,0,0,1,3.06,2.69V245.09l-4.19-.81v-4.73h12v36.39l3.76.81v4.7H377.2Zm-11-10.18a12,12,0,0,0,1.28,6,4.45,4.45,0,0,0,4.17,2.19,6.11,6.11,0,0,0,3-.7,5.49,5.49,0,0,0,2.07-2V260.88a6,6,0,0,0-2-2.17,5.5,5.5,0,0,0-2.94-.76A4.4,4.4,0,0,0,367,260.5a14.5,14.5,0,0,0-1.32,6.66Z"/><path class="cls-3" d="M183.72,302.33v10.42h-6l-.32-4.38h-7.2v27.55l4.19.81v4.7H158.15v-4.7l4.19-.81V308.37h-7.17l-.32,4.38h-6V302.33Z"/><path class="cls-3" d="M197.15,342a13.1,13.1,0,0,1-10-4,14.4,14.4,0,0,1-3.76-10.23v-1.08A15.91,15.91,0,0,1,186.91,316a11.81,11.81,0,0,1,9.55-4.16q5.88,0,9.13,3.54t3.25,9.59v4.27H191.49l-.06.16a7.67,7.67,0,0,0,1.92,4.73A6,6,0,0,0,198,336a15.09,15.09,0,0,0,4.32-.52,19.37,19.37,0,0,0,3.76-1.66l2.12,4.84a15.51,15.51,0,0,1-4.66,2.39A20,20,0,0,1,197.15,342Zm-.69-24.12a4.07,4.07,0,0,0-3.44,1.66,8.72,8.72,0,0,0-1.56,4.38l.08.14h9.61v-.7a6.27,6.27,0,0,0-1.16-4A4.23,4.23,0,0,0,196.46,317.88Z"/><path class="cls-3" d="M235.43,322.36h-5.26l-.84-3.62a6.87,6.87,0,0,0-2-1.08,8.31,8.31,0,0,0-2.7-.43,5.26,5.26,0,0,0-3.28.93,2.83,2.83,0,0,0-1.21,2.32,2.65,2.65,0,0,0,1.16,2.19,12.42,12.42,0,0,0,4.62,1.55c3.6.71,6.26,1.77,8,3.15a6.93,6.93,0,0,1,2.6,5.74,7.62,7.62,0,0,1-3.37,6.4,14.55,14.55,0,0,1-8.87,2.49,18.38,18.38,0,0,1-6.16-1,15.56,15.56,0,0,1-5-2.8l-.08-6.53h5.48l1.08,3.79a4.53,4.53,0,0,0,1.9.87,11,11,0,0,0,2.53.28,6.38,6.38,0,0,0,3.64-.86,2.68,2.68,0,0,0,1.24-2.33,2.74,2.74,0,0,0-1.26-2.23,12.93,12.93,0,0,0-4.64-1.67,18.49,18.49,0,0,1-7.75-3.1,6.72,6.72,0,0,1-2.62-5.6,8.1,8.1,0,0,1,3-6.29c2-1.77,4.86-2.65,8.56-2.65a22,22,0,0,1,6.41.91,13.61,13.61,0,0,1,4.74,2.34Z"/><path class="cls-3" d="M250.77,305.26v7.11h5.1v5.51h-5.1v14.8a3.39,3.39,0,0,0,.7,2.41,2.47,2.47,0,0,0,1.88.73,11.63,11.63,0,0,0,1.41-.07,12.47,12.47,0,0,0,1.36-.23l.67,5.67a18.14,18.14,0,0,1-2.61.6,17.39,17.39,0,0,1-2.79.21,8.36,8.36,0,0,1-6.24-2.23Q243,337.54,243,332.7V317.88h-4.27v-5.51H243v-7.11Z"/><path class="cls-3" d="M272.53,336a4.64,4.64,0,0,0,3.36-1.22,4.35,4.35,0,0,0,1.26-3.26h7.09l.08.16A9.08,9.08,0,0,1,281,339a12.45,12.45,0,0,1-8.49,3q-6.5,0-10-4.11A15.64,15.64,0,0,1,259,327.33v-.8A15.47,15.47,0,0,1,262.61,316q3.61-4.12,10.3-4.13a17.85,17.85,0,0,1,6.31,1,12.59,12.59,0,0,1,4.65,3l.1,7.76h-6.36l-1.29-4.54a5.09,5.09,0,0,0-1.45-.85,5.44,5.44,0,0,0-2-.33,4.94,4.94,0,0,0-4.7,2.42,12.55,12.55,0,0,0-1.37,6.23v.8a13.38,13.38,0,0,0,1.26,6.27A4.58,4.58,0,0,0,272.53,336Z"/><path class="cls-3" d="M287,326.63A15.51,15.51,0,0,1,290.68,316q3.65-4.15,10.06-4.15T310.82,316a15.53,15.53,0,0,1,3.64,10.66v.57a15.5,15.5,0,0,1-3.64,10.67q-3.63,4.13-10,4.13t-10.11-4.13A15.5,15.5,0,0,1,287,327.2Zm7.84.57a12.68,12.68,0,0,0,1.4,6.38,5.37,5.37,0,0,0,9,0,12.54,12.54,0,0,0,1.41-6.36v-.57a12.43,12.43,0,0,0-1.43-6.31,4.81,4.81,0,0,0-4.48-2.44,4.75,4.75,0,0,0-4.46,2.44,12.65,12.65,0,0,0-1.4,6.31Z"/><path class="cls-3" d="M316.62,336.73l3.76-.81v-18l-4.17-.81v-4.73h11.47l.35,4.17a10.73,10.73,0,0,1,3.57-3.47,9.33,9.33,0,0,1,4.76-1.23,8.75,8.75,0,0,1,6.87,2.76q2.47,2.77,2.47,8.68v12.64l3.76.81v4.7h-15v-4.7l3.35-.81V323.3c0-1.95-.39-3.33-1.18-4.14a4.74,4.74,0,0,0-3.57-1.23,6,6,0,0,0-2.79.63,5.75,5.75,0,0,0-2.07,1.79v15.57l3.17.81v4.7H316.62Z"/><path class="cls-3" d="M362.71,305.26v7.11h5.1v5.51h-5.1v14.8a3.39,3.39,0,0,0,.7,2.41,2.46,2.46,0,0,0,1.88.73,11.68,11.68,0,0,0,2.76-.3l.67,5.67a17.71,17.71,0,0,1-2.6.6,17.39,17.39,0,0,1-2.79.21,8.39,8.39,0,0,1-6.25-2.23q-2.19-2.24-2.19-7.07V317.88h-4.27v-5.51h4.27v-7.11Z"/><path class="cls-3" d="M389.33,341.43a14.73,14.73,0,0,1-.56-1.49,10.49,10.49,0,0,1-.38-1.54A10.73,10.73,0,0,1,385,341a10.18,10.18,0,0,1-4.58,1,9.61,9.61,0,0,1-6.78-2.33,8.21,8.21,0,0,1-2.51-6.32A7.17,7.17,0,0,1,374.4,327c2.18-1.49,5.39-2.23,9.61-2.23h4V322a4.29,4.29,0,0,0-1.2-3.25,5,5,0,0,0-3.58-1.15,8.34,8.34,0,0,0-2.39.31,6.39,6.39,0,0,0-1.69.73l-.51,3.12h-5.91l0-6.45a22,22,0,0,1,4.93-2.44,17.9,17.9,0,0,1,6.05-1,13.8,13.8,0,0,1,8.77,2.64,9,9,0,0,1,3.37,7.53v12c0,.45,0,.87,0,1.26a10.14,10.14,0,0,0,.09,1.13l2.39.32v4.7Zm-6.79-5.24a6.8,6.8,0,0,0,3.22-.76,6.11,6.11,0,0,0,2.25-1.92v-4.43h-4a5.45,5.45,0,0,0-3.78,1.17,3.63,3.63,0,0,0-1.29,2.8,2.88,2.88,0,0,0,.95,2.31A3.88,3.88,0,0,0,382.54,336.19Z"/><path class="cls-3" d="M400,336.73l3.79-.81v-18l-4.19-.81v-4.73h12v23.55l3.76.81v4.7H400Zm11.63-31.31h-7.84v-5.88h7.84Z"/><path class="cls-3" d="M416.68,336.73l3.76-.81v-18l-4.16-.81v-4.73h11.47l.35,4.17a10.55,10.55,0,0,1,3.57-3.47,9.29,9.29,0,0,1,4.75-1.23,8.76,8.76,0,0,1,6.88,2.76c1.64,1.85,2.47,4.74,2.47,8.68v12.64l3.76.81v4.7h-15v-4.7l3.36-.81V323.3c0-1.95-.39-3.33-1.18-4.14a4.74,4.74,0,0,0-3.57-1.23,6.1,6.1,0,0,0-2.8.63,5.8,5.8,0,0,0-2.06,1.79v15.57l3.16.81v4.7H416.68Z"/><path class="cls-3" d="M464.84,342a13.1,13.1,0,0,1-10-4A14.4,14.4,0,0,1,451,327.74v-1.08A15.91,15.91,0,0,1,454.6,316a11.81,11.81,0,0,1,9.55-4.16q5.88,0,9.13,3.54t3.25,9.59v4.27H459.18l-.06.16a7.67,7.67,0,0,0,1.92,4.73,6,6,0,0,0,4.64,1.85,15.09,15.09,0,0,0,4.32-.52,19.37,19.37,0,0,0,3.76-1.66l2.12,4.84a15.51,15.51,0,0,1-4.66,2.39A20,20,0,0,1,464.84,342Zm-.69-24.12a4.07,4.07,0,0,0-3.44,1.66,8.72,8.72,0,0,0-1.56,4.38l.08.14h9.61v-.7a6.27,6.27,0,0,0-1.16-4A4.23,4.23,0,0,0,464.15,317.88Z"/><path class="cls-3" d="M480,336.73l3.76-.81v-18l-4.17-.81v-4.73h11.47l.35,4.25A9.13,9.13,0,0,1,494,313.1a5.91,5.91,0,0,1,3.74-1.26,10,10,0,0,1,1.3.09,7.33,7.33,0,0,1,1.14.23l-.83,7.14-3.23-.08a5.55,5.55,0,0,0-2.84.67,4.37,4.37,0,0,0-1.72,1.91v14.12l3.76.81v4.7H480Z"/><path class="cls-3" d="M525.44,322.36h-5.26l-.83-3.62a6.93,6.93,0,0,0-2-1.08,8.22,8.22,0,0,0-2.7-.43,5.21,5.21,0,0,0-3.27.93,2.81,2.81,0,0,0-1.21,2.32,2.64,2.64,0,0,0,1.15,2.19,12.42,12.42,0,0,0,4.62,1.55c3.6.71,6.27,1.77,8,3.15a6.94,6.94,0,0,1,2.61,5.74,7.62,7.62,0,0,1-3.37,6.4,14.6,14.6,0,0,1-8.88,2.49,18.38,18.38,0,0,1-6.16-1,15.61,15.61,0,0,1-5-2.8l-.08-6.53h5.48l1.07,3.79a4.52,4.52,0,0,0,1.91.87,10.87,10.87,0,0,0,2.52.28,6.36,6.36,0,0,0,3.64-.86,2.69,2.69,0,0,0,1.25-2.33,2.74,2.74,0,0,0-1.26-2.23,13,13,0,0,0-4.65-1.67,18.54,18.54,0,0,1-7.75-3.1,6.74,6.74,0,0,1-2.62-5.6,8.13,8.13,0,0,1,3-6.29c2-1.77,4.86-2.65,8.57-2.65a22,22,0,0,1,6.4.91,13.44,13.44,0,0,1,4.74,2.34Z"/><path class="cls-3" d="M617.57,176.18c-2.79,0-4.84,2.12-4.87,5.16l0,3.3h-.25c-5-5.44-9.21-7.91-14.71-8.51a2.56,2.56,0,0,0-2.43,1.12q-1.26,1.91-2.47,3.84A2.56,2.56,0,0,0,595,185h.11c10.54.1,17.3,9.43,17.17,23.52s-7.07,23.29-17.6,23.19-17.31-9.3-17.18-23.64c.08-7.68,2.22-13.9,5.87-17.94a2.6,2.6,0,0,0,.71-1.74,41.22,41.22,0,0,0-.32-5.93,2.55,2.55,0,0,0-4-1.72c-7.69,5.49-12.56,15.33-12.67,27.36-.18,18.66,11.37,32.47,27.24,32.62,7.36.07,12.59-2.68,17.6-9.36h.26l0,4.31c0,3.05,2,5.22,4.77,5.25a4.87,4.87,0,0,0,5-5.16l.51-54.33A4.88,4.88,0,0,0,617.57,176.18Z"/><g id="Biene_RGB" data-name="Biene RGB"><g class="cls-4"><g class="cls-4"><path class="cls-2" d="M595.71,165.28,587,181.49l12.22-13.32a7.35,7.35,0,0,1-3.53-2.89"/><path class="cls-3" d="M597.24,126.28h0c-11.14,0-21.08-2.63-26.6-7-6.57-5.25-10.91-12.71-11.32-19.46a12.12,12.12,0,0,1,3-9.41c1.92-2,4.85-3,8.46-3,6.48,0,14.58,3.31,21.14,8.65,9.09,7.37,22.58,23.53,22.2,26.59a1.21,1.21,0,0,1-.7,1c-3.67,1.69-9.57,2.66-16.21,2.66m-26.43-37c-3.1,0-5.56.84-7.12,2.44-1.83,1.87-2.69,4.62-2.49,8,.37,6.23,4.44,13.16,10.61,18.09,5.2,4.15,14.7,6.62,25.43,6.62,6,0,11.54-.85,15-2.29C611.21,119,600,105,590.77,97.5c-6.24-5.07-13.89-8.22-20-8.22"/><path class="cls-3" d="M638.9,80.55c.66.91,2.22.9,3.47,0s1.7-2.42,1-3.34-2.23-.91-3.48,0-1.7,2.42-1,3.34"/><path class="cls-3" d="M626.05,77.4c1.08.32,2.32-.63,2.76-2.13s-.09-3-1.17-3.3-2.32.63-2.76,2.13.09,3,1.17,3.3"/><path class="cls-3" d="M625.33,76.59a2.21,2.21,0,0,1,1.46.72c-3.32,5.4-.08,15.94,1.65,20.65,2.25-15.08,10.9-18.31,10.9-18.31a2.23,2.23,0,0,1,.81,1.37c-8,2.94-10.48,17.5-10.77,19.33h0s1.08,4.54-.52,2.26c-8.84-16.56-3.54-26-3.54-26"/><path class="cls-2" d="M605.29,132.22c-1.44.24-6.72,6.17-6.49,7.54,2.86,5.42,9.16,15.3,25.08,19.11,3-.47,6.84-4.54,6.93-8.19a34.68,34.68,0,0,1-25.52-18.46"/><path class="cls-3" d="M620,125.19c-.86.14-6,.76-8.67,2.85,1.72,3.26,8.27,13.91,22.39,15.12,1.3-1.56.65-7.63-.25-9.43-7.44-.49-11-5.18-13.47-8.54"/><path class="cls-3" d="M595,148c4.75,9.81,22.42,18.5,21.52,16.7-5,4.57-26.32,5.86-21.52-16.7"/><path class="cls-3" d="M632,129.85c9.34,3.25,22.3-.33,23.33-6.46.77-4.55-5.68-11.21-14.28-16.14-9.94-5.71-18.28-2.21-20.3,3.68s1.92,15.66,11.25,18.92m5.54-20.44c-.34-.39,3.25,4.71,6,.16.3-.41,2.09,1.31,2.09,1.31s3.92,3.61,1.46,5.29c-5.7,2.72-9.54-6.76-9.54-6.76"/></g></g></g><path class="cls-5" d="M556.15,231.15c3.17,0,5.06,1.82,5,5s-1.95,4.81-5.12,4.78l-27.17-.25c-3.55,0-5.56-2.09-5.53-5.77l.69-74.13c0-3.42,2.08-5.56,5.26-5.53s5.18,2.2,5.15,5.63l-.65,70.07Z"/><path class="cls-5" d="M650.13,235.18c0,3.43-2.09,5.56-5.26,5.54s-5.18-2.21-5.15-5.64l.75-81.36c0-3.43,2.09-5.57,5.26-5.54s5.19,2.21,5.15,5.63l-.28,30.85h.25a20.26,20.26,0,0,1,17.09-8.47c15.36.14,26.66,14.08,26.48,32.61-.17,18.79-11.72,32.27-27.59,32.12-8-.08-13.05-2.79-16.42-8.91h-.25Zm-.77-26.92c-.13,14.34,6.51,23.54,17.18,23.64,10.4.1,17.34-9.1,17.47-23.19s-6.63-23.42-17.17-23.52S649.49,194.3,649.36,208.26Z"/></svg>