<svg id="Ebene_1" data-name="Ebene 1" xmlns="http://www.w3.org/2000/svg" xmlns:xlink="http://www.w3.org/1999/xlink" viewBox="0 0 750 382"><defs><style>.cls-1{fill:none;}.cls-2{fill:#f19300;}.cls-3{fill:#1a171b;}.cls-4{clip-path:url(#clip-path);}.cls-5{clip-path:url(#clip-path-2);}.cls-6{fill:#1d1d1b;}</style><clipPath id="clip-path"><rect class="cls-1" x="575.29" y="71.71" width="96.06" height="109.58"/></clipPath><clipPath id="clip-path-2"><rect class="cls-1" x="575.29" y="71.71" width="96.06" height="109.58"/></clipPath></defs><title>Container-Day-mit-Kubernetes-Prometheus-und-Grafana</title><path class="cls-2" d="M119.93,116.09c0,6-13,12-26.09,12-12.34,0-22.17-4.79-28.85-14.24-5.55-7.56-8.57-17.77-8.57-28.6C56.42,60,71.79,42.5,93.84,42.5c12,0,24.32,6.43,24.32,12.48,0,2.64-1.89,4.78-4.15,4.78-1.52,0-2.78-.63-5.17-2.64-4.91-4.16-9-5.67-15-5.67C78.22,51.45,67.51,65.06,67.51,85c0,20.41,10.46,34.14,26.08,34.14,5.55,0,10-1.38,16.51-5.29,3.28-1.89,4.41-2.39,5.8-2.39C118.16,111.43,119.93,113.44,119.93,116.09Z"/><path class="cls-2" d="M178.52,95.93c0,18.65-11.59,32.13-27.6,32.13s-27.59-13.48-27.59-31.88c0-18.9,11.46-32.38,27.59-32.38S178.52,77.28,178.52,95.93Zm-44.86-.13c0,14.24,6.8,23.31,17.26,23.31s17.27-9.19,17.27-23.18-6.81-23.19-17.27-23.19S133.66,81.94,133.66,95.8Z"/><path class="cls-2" d="M198.17,72.11c4.79-5.67,10.21-8.31,17.27-8.31,13.23,0,21.92,9.45,21.92,23.81v34.91c0,3.4-2,5.54-5.17,5.54s-5.16-2.14-5.16-5.54V88.24c0-9.2-5.92-15.5-14.62-15.5s-14.49,6.3-14.49,15.5v34.28c0,3.4-2,5.54-5.17,5.54s-5.16-2.14-5.16-5.54V69.34c0-3.4,2-5.54,5.16-5.54s5.17,2.14,5.17,5.54v2.52Z"/><path class="cls-2" d="M252.6,50.94c0-3.4,2-5.54,5.17-5.54s5.17,2.14,5.17,5.54V64.55h4.28c3.28,0,5.17,1.64,5.17,4.54s-1.89,4.41-5.17,4.41h-4.28v49c0,3.4-2,5.54-5.17,5.54s-5.17-2.14-5.17-5.54v-49h-4.28c-3.28,0-5.17-1.64-5.17-4.41s1.89-4.54,5.17-4.54h4.28Z"/><path class="cls-2" d="M319.64,69c0-3,2-5.16,4.79-5.16A4.83,4.83,0,0,1,329.34,69v53.93a4.83,4.83,0,0,1-4.91,5.17c-2.78,0-4.79-2.14-4.79-5.17v-4.28h-.25c-4.92,6.68-10.08,9.45-17.39,9.45-15.75,0-27.35-13.61-27.35-32.13s11.6-32.13,27.47-32.13c6.81,0,11.47,2.26,17.27,8.44h.25ZM285,95.8c0,14.24,6.8,23.31,17.26,23.31s17.26-9.19,17.26-23.18-6.8-23.19-17.26-23.19S285,81.94,285,95.8Z"/><path class="cls-2" d="M352.65,48.93a6.37,6.37,0,1,1-6.43-6.43A6.27,6.27,0,0,1,352.65,48.93Zm-1.26,73.59c0,3.4-2,5.54-5.17,5.54s-5.16-2.14-5.16-5.54V69.34c0-3.4,2-5.54,5.16-5.54s5.17,2.14,5.17,5.54Z"/><path class="cls-2" d="M373.82,72.11c4.78-5.67,10.2-8.31,17.26-8.31,13.23,0,21.92,9.45,21.92,23.81v34.91c0,3.4-2,5.54-5.16,5.54s-5.17-2.14-5.17-5.54V88.24c0-9.2-5.92-15.5-14.62-15.5s-14.49,6.3-14.49,15.5v34.28c0,3.4-2,5.54-5.16,5.54s-5.17-2.14-5.17-5.54V69.34c0-3.4,2-5.54,5.17-5.54s5.16,2.14,5.16,5.54v2.52Z"/><path class="cls-2" d="M431.4,100c.38,6.68,1.89,10.59,5.42,14.11s7.81,5,13.35,5c6.43,0,11-1.63,16.64-6.17,2.39-1.89,3.4-2.39,4.53-2.39,1.89,0,3.66,2,3.66,4.41,0,6-13.87,13.1-25.58,13.1-17,0-28.36-12.73-28.36-31.88,0-18.77,11.85-32.38,28-32.38,15.37,0,27.22,13.23,27.22,30.36,0,4.29-1.52,5.8-5.8,5.8Zm34.52-7.81c-.5-12.22-6.93-19.41-17.39-19.41S432.28,79.3,431.4,92.15Z"/><path class="cls-2" d="M494.9,74.63c3.53-6.55,9.07-10.83,14.24-10.83,3.28,0,5.67,2.14,5.67,5.29s-2,4.79-6.43,5.67c-8.69,1.64-13.86,8.19-13.73,17.89v29.87c0,3.4-2,5.54-5.17,5.54s-5.16-2.14-5.16-5.54V69.34c0-3.4,2-5.54,5.16-5.54s5.17,2.14,5.17,5.54v5.29Z"/><path class="cls-2" d="M513.22,161.78c0-3.66,2-5.68,5.54-5.68h20.42c22.55,0,37.17,16.39,37.17,42s-14.11,42.08-35.79,42.08h-21.8c-3.52,0-5.54-2-5.54-5.67Zm10.33,69.43h14.87c16.63,0,26.84-12.73,26.84-33.4s-10.33-32.76-27.59-32.76H523.55Z"/><path class="cls-2" d="M645.52,186.85a23.75,23.75,0,0,1-1.39-5.8,4.64,4.64,0,0,1,4.79-4.41,5.51,5.51,0,0,1,5.17,3.91l14.36,43.09h.25l14.12-43.09c.88-2.52,2.64-3.91,4.91-3.91a4.64,4.64,0,0,1,4.79,4.41,19.61,19.61,0,0,1-1.39,5.8l-26.21,75a5.49,5.49,0,0,1-5,3.78,4.56,4.56,0,0,1-4.79-4.41c0-1.26.38-2.52,1.52-5.67l6.68-17.64Z"/><path class="cls-3" d="M633.57,176c-2.79,0-4.84,2.11-4.87,5.16l0,3.3h-.25c-5-5.45-9.21-7.92-14.71-8.52a2.59,2.59,0,0,0-2.43,1.13Q610,179,608.81,180.9a2.56,2.56,0,0,0,2.23,3.89h.11c10.54.1,17.3,9.43,17.17,23.52s-7.07,23.29-17.6,23.19-17.31-9.3-17.18-23.64c.08-7.68,2.22-13.9,5.87-17.94a2.58,2.58,0,0,0,.71-1.74,41.22,41.22,0,0,0-.32-5.93,2.55,2.55,0,0,0-4-1.72c-7.69,5.49-12.56,15.34-12.67,27.36-.18,18.66,11.37,32.48,27.24,32.62,7.36.07,12.59-2.67,17.6-9.35h.26l0,4.31c0,3.05,2,5.23,4.77,5.25a4.87,4.87,0,0,0,5-5.15l.51-54.33A4.87,4.87,0,0,0,633.57,176Z"/><g id="Biene_RGB" data-name="Biene RGB"><g class="cls-4"><g class="cls-5"><path class="cls-2" d="M611.71,165.08,603,181.29,615.24,168a7.28,7.28,0,0,1-3.53-2.89"/><path class="cls-3" d="M613.24,126.08h0c-11.14,0-21.08-2.62-26.6-7-6.57-5.25-10.91-12.71-11.32-19.46a12.12,12.12,0,0,1,3-9.41c1.92-2,4.85-3,8.46-3,6.48,0,14.58,3.31,21.14,8.65,9.09,7.37,22.58,23.53,22.2,26.59a1.23,1.23,0,0,1-.7,1c-3.67,1.69-9.57,2.65-16.21,2.65m-26.43-37c-3.1,0-5.56.85-7.12,2.44-1.83,1.87-2.69,4.62-2.49,8,.37,6.23,4.44,13.17,10.61,18.1,5.2,4.14,14.7,6.62,25.43,6.62,6,0,11.54-.85,15-2.29-1-3.07-12.22-17.11-21.44-24.59-6.24-5.08-13.89-8.23-20-8.23"/><path class="cls-3" d="M654.9,80.35c.66.92,2.22.91,3.47,0s1.7-2.43,1-3.35-2.23-.9-3.48,0-1.7,2.42-1,3.34"/><path class="cls-3" d="M642.05,77.2c1.08.33,2.32-.63,2.76-2.13s-.09-3-1.17-3.29-2.32.62-2.76,2.12.09,3,1.17,3.3"/><path class="cls-3" d="M641.33,76.39a2.19,2.19,0,0,1,1.46.73c-3.32,5.4-.08,15.93,1.65,20.64,2.25-15.08,10.9-18.31,10.9-18.31a2.27,2.27,0,0,1,.81,1.37c-8,3-10.48,17.5-10.77,19.33h0s1.08,4.55-.52,2.26c-8.84-16.55-3.54-26-3.54-26"/><path class="cls-2" d="M621.29,132c-1.44.23-6.72,6.16-6.49,7.53,2.86,5.43,9.16,15.3,25.08,19.12,3-.47,6.84-4.55,6.93-8.2A34.67,34.67,0,0,1,621.29,132"/><path class="cls-3" d="M636,125c-.86.14-6,.76-8.67,2.85,1.72,3.26,8.27,13.92,22.39,15.12,1.3-1.56.65-7.63-.25-9.43-7.44-.49-11-5.17-13.47-8.54"/><path class="cls-3" d="M611,147.81c4.75,9.81,22.42,18.5,21.52,16.7-5,4.58-26.32,5.86-21.52-16.7"/><path class="cls-3" d="M648,129.66c9.34,3.24,22.3-.33,23.33-6.47.77-4.55-5.68-11.2-14.28-16.14-9.94-5.7-18.28-2.2-20.3,3.68s1.92,15.66,11.25,18.93m5.54-20.45c-.34-.39,3.25,4.71,6,.17.3-.42,2.09,1.3,2.09,1.3s3.92,3.62,1.46,5.29c-5.7,2.72-9.54-6.76-9.54-6.76"/></g></g></g><path class="cls-3" d="M57.56,258.9v-4.72H69l.32,3.84a9.7,9.7,0,0,1,3.51-3.24,10.07,10.07,0,0,1,4.87-1.14,8.9,8.9,0,0,1,4.78,1.23,7.62,7.62,0,0,1,3,3.74A10.15,10.15,0,0,1,89,255a9.54,9.54,0,0,1,5-1.31,8.35,8.35,0,0,1,6.78,3q2.49,3,2.49,9v12.09l3.78.8v4.7h-15v-4.7l3.38-.8V265.62c0-2.2-.35-3.74-1.07-4.6a4,4,0,0,0-3.2-1.28,5.46,5.46,0,0,0-2.88.73,5.37,5.37,0,0,0-2,2.06q0,.51,0,.87c0,.24,0,.49,0,.74v13.59l3.17.8v4.7H75.45v-4.7l3.17-.8V265.62c0-2.15-.36-3.67-1.08-4.55a3.88,3.88,0,0,0-3.22-1.33,6.15,6.15,0,0,0-2.78.6,5.38,5.38,0,0,0-2,1.7v15.69l3.38.8v4.7H58v-4.7l3.78-.8v-18Z"/><path class="cls-3" d="M108.57,278.53l3.79-.8v-18l-4.19-.81v-4.72h12v23.55l3.76.8v4.7H108.57Zm11.63-31.31h-7.84v-5.88h7.84Z"/><path class="cls-3" d="M137.29,247.06v7.12h5.1v5.5h-5.1v14.8a3.46,3.46,0,0,0,.69,2.42,2.52,2.52,0,0,0,1.88.72,11.63,11.63,0,0,0,1.41-.07c.41,0,.86-.12,1.36-.22l.67,5.66a19.51,19.51,0,0,1-2.6.61,18.71,18.71,0,0,1-2.8.2,8.34,8.34,0,0,1-6.24-2.23q-2.19-2.24-2.19-7.06V259.68H125.2v-5.5h4.27v-7.12Z"/><path class="cls-6" d="M157.87,278.53l4.17-.8V249.67l-4.17-.81v-4.73h16v4.73l-4,.81v10.44h3.41l7.52-10.93-2.31-.32v-4.73H194v4.73l-4.24.72-9.61,12.84,10.79,15.44,3.92.67v4.7H179.36v-4.7l2.41-.32-7.52-11.3h-4.37v10.82l4,.8v4.7h-16Z"/><path class="cls-6" d="M216.26,279.55a9.69,9.69,0,0,1-3.45,3.15,9.8,9.8,0,0,1-4.68,1.1,9.13,9.13,0,0,1-7.2-2.94q-2.61-2.94-2.61-9.15v-12l-3.19-.81v-4.72h11v17.59a7.56,7.56,0,0,0,1.06,4.55,3.72,3.72,0,0,0,3.15,1.38,7.86,7.86,0,0,0,3.21-.6,5.63,5.63,0,0,0,2.22-1.74V259.71l-3.44-.81v-4.72h11.28v23.55l3.52.8v4.7h-10.4Z"/><path class="cls-6" d="M257.52,269.51q0,6.5-2.9,10.39a9.8,9.8,0,0,1-8.38,3.9,8.93,8.93,0,0,1-4.43-1.06,9,9,0,0,1-3.17-3.08l-.56,3.57h-6.77V246.87l-4.16-.8v-4.73h12v15.93a8.78,8.78,0,0,1,3-2.69,8.4,8.4,0,0,1,4-.94,9.6,9.6,0,0,1,8.43,4.18q2.89,4.17,2.9,11.13Zm-7.81-.56a15.18,15.18,0,0,0-1.25-6.73,4.37,4.37,0,0,0-4.26-2.48,5.85,5.85,0,0,0-3.09.76,5.27,5.27,0,0,0-2,2.19V275a4.86,4.86,0,0,0,2,2,6.37,6.37,0,0,0,3.12.7,4.47,4.47,0,0,0,4.25-2.13,12.55,12.55,0,0,0,1.21-6.06Z"/><path class="cls-6" d="M274.23,283.8a13.1,13.1,0,0,1-10-4,14.4,14.4,0,0,1-3.76-10.23v-1.08A15.92,15.92,0,0,1,264,257.8a11.81,11.81,0,0,1,9.55-4.16q5.88,0,9.13,3.55t3.25,9.58V271H268.57l-.06.16a7.67,7.67,0,0,0,1.92,4.73,6,6,0,0,0,4.64,1.85,15.09,15.09,0,0,0,4.32-.52,19.91,19.91,0,0,0,3.76-1.65l2.12,4.83a15.28,15.28,0,0,1-4.66,2.39A19.69,19.69,0,0,1,274.23,283.8Zm-.69-24.12a4.08,4.08,0,0,0-3.44,1.67,8.71,8.71,0,0,0-1.56,4.37l.08.14h9.61v-.7a6.31,6.31,0,0,0-1.16-4A4.23,4.23,0,0,0,273.54,259.68Z"/><path class="cls-6" d="M289.39,278.53l3.76-.8v-18L289,258.9v-4.72h11.47l.35,4.24a9.21,9.21,0,0,1,2.63-3.52,5.91,5.91,0,0,1,3.74-1.26,10,10,0,0,1,1.3.09,9.47,9.47,0,0,1,1.14.23l-.83,7.15-3.23-.09a5.45,5.45,0,0,0-2.84.68,4.29,4.29,0,0,0-1.72,1.9v14.13l3.76.8v4.7H289.39Z"/><path class="cls-6" d="M310.69,278.53l3.76-.8v-18l-4.16-.81v-4.72h11.47l.34,4.16a10.67,10.67,0,0,1,3.58-3.47,9.29,9.29,0,0,1,4.75-1.23,8.73,8.73,0,0,1,6.88,2.77c1.64,1.84,2.47,4.73,2.47,8.67v12.65l3.76.8v4.7h-15v-4.7l3.36-.8V265.11c0-1.95-.4-3.34-1.18-4.15a4.75,4.75,0,0,0-3.58-1.22,6.06,6.06,0,0,0-2.79.63,5.79,5.79,0,0,0-2.07,1.78v15.58l3.17.8v4.7H310.69Z"/><path class="cls-6" d="M358.85,283.8a13.08,13.08,0,0,1-10-4,14.4,14.4,0,0,1-3.76-10.23v-1.08a15.92,15.92,0,0,1,3.55-10.66,11.83,11.83,0,0,1,9.55-4.16q5.88,0,9.13,3.55t3.25,9.58V271H353.18l-.05.16a7.56,7.56,0,0,0,1.92,4.73,6,6,0,0,0,4.63,1.85,15.12,15.12,0,0,0,4.33-.52,20.19,20.19,0,0,0,3.76-1.65l2.12,4.83a15.28,15.28,0,0,1-4.66,2.39A19.69,19.69,0,0,1,358.85,283.8Zm-.7-24.12a4.1,4.1,0,0,0-3.44,1.67,8.62,8.62,0,0,0-1.55,4.37l.08.14h9.61v-.7a6.31,6.31,0,0,0-1.17-4A4.21,4.21,0,0,0,358.15,259.68Z"/><path class="cls-6" d="M385,247.06v7.12h5.1v5.5H385v14.8a3.41,3.41,0,0,0,.7,2.42,2.49,2.49,0,0,0,1.88.72,11.85,11.85,0,0,0,1.41-.07c.4,0,.85-.12,1.35-.22L391,283a19.15,19.15,0,0,1-2.6.61,18.68,18.68,0,0,1-2.79.2,8.35,8.35,0,0,1-6.25-2.23q-2.19-2.24-2.19-7.06V259.68H372.9v-5.5h4.27v-7.12Z"/><path class="cls-6" d="M407,283.8a13.12,13.12,0,0,1-10-4,14.44,14.44,0,0,1-3.76-10.23v-1.08a15.92,15.92,0,0,1,3.56-10.66,11.82,11.82,0,0,1,9.55-4.16q5.88,0,9.13,3.55t3.25,9.58V271H401.35l-.05.16a7.56,7.56,0,0,0,1.92,4.73,6,6,0,0,0,4.63,1.85,15,15,0,0,0,4.32-.52,19.91,19.91,0,0,0,3.76-1.65l2.13,4.83a15.4,15.4,0,0,1-4.66,2.39A19.73,19.73,0,0,1,407,283.8Zm-.7-24.12a4.09,4.09,0,0,0-3.44,1.67,8.71,8.71,0,0,0-1.56,4.37l.08.14H411v-.7a6.31,6.31,0,0,0-1.17-4A4.23,4.23,0,0,0,406.32,259.68Z"/><path class="cls-6" d="M445.29,264.17H440l-.83-3.63a6.82,6.82,0,0,0-2-1.07,8,8,0,0,0-2.7-.43,5.32,5.32,0,0,0-3.28.92,2.84,2.84,0,0,0-1.2,2.33,2.66,2.66,0,0,0,1.15,2.19,12.46,12.46,0,0,0,4.62,1.54q5.4,1.08,8,3.16a6.91,6.91,0,0,1,2.61,5.73,7.63,7.63,0,0,1-3.37,6.4,14.6,14.6,0,0,1-8.88,2.49,18.64,18.64,0,0,1-6.16-1,15.64,15.64,0,0,1-5-2.81l-.08-6.52h5.48l1.07,3.78a4.41,4.41,0,0,0,1.91.88,11.45,11.45,0,0,0,2.52.28,6.44,6.44,0,0,0,3.64-.86,2.7,2.7,0,0,0,1.25-2.34,2.74,2.74,0,0,0-1.26-2.23,13,13,0,0,0-4.65-1.66,18.68,18.68,0,0,1-7.75-3.1,6.76,6.76,0,0,1-2.62-5.6,8.13,8.13,0,0,1,3-6.3c2-1.76,4.86-2.65,8.57-2.65a22,22,0,0,1,6.4.92,13.27,13.27,0,0,1,4.74,2.33Z"/><path class="cls-6" d="M458.11,282.19a12.91,12.91,0,0,1-1.54,5.8,16.45,16.45,0,0,1-3.78,5l-3.86-2.09a18.17,18.17,0,0,0,1.61-3.89,16.67,16.67,0,0,0,.56-4.47v-5.85h7Z"/><path class="cls-3" d="M77.9,301.13q6.72,0,10.59,3.45a12.43,12.43,0,0,1,0,18.06q-3.87,3.42-10.59,3.41H71.29v8.68l4.19.8v4.7H59.29v-4.7l4.16-.8V306.67l-4.16-.81v-4.73H77.9ZM71.29,320H77.9a6.46,6.46,0,0,0,4.95-1.78,6.39,6.39,0,0,0,1.68-4.56A6.61,6.61,0,0,0,82.85,309a6.34,6.34,0,0,0-4.95-1.84H71.29Z"/><path class="cls-3" d="M94.83,335.53l3.76-.8v-18l-4.17-.81v-4.72h11.47l.35,4.24a9.21,9.21,0,0,1,2.63-3.52,5.9,5.9,0,0,1,3.73-1.26,10.07,10.07,0,0,1,1.31.09,9.47,9.47,0,0,1,1.14.23l-.83,7.15L111,318a5.45,5.45,0,0,0-2.84.68,4.29,4.29,0,0,0-1.72,1.9v14.13l3.76.8v4.7H94.83Z"/><path class="cls-3" d="M116,325.44a15.59,15.59,0,0,1,3.64-10.65q3.65-4.16,10.06-4.15t10.08,4.13a15.55,15.55,0,0,1,3.64,10.67V326a15.53,15.53,0,0,1-3.64,10.68q-3.63,4.13-10,4.12t-10.11-4.12A15.58,15.58,0,0,1,116,326Zm7.85.56a12.66,12.66,0,0,0,1.39,6.38,4.83,4.83,0,0,0,4.51,2.4,4.76,4.76,0,0,0,4.45-2.42,12.54,12.54,0,0,0,1.41-6.36v-.56a12.41,12.41,0,0,0-1.43-6.31,5.3,5.3,0,0,0-8.94,0,12.63,12.63,0,0,0-1.39,6.31Z"/><path class="cls-3" d="M145.12,315.9v-4.72h11.46l.32,3.84a9.79,9.79,0,0,1,3.51-3.24,10.07,10.07,0,0,1,4.87-1.14,8.87,8.87,0,0,1,4.78,1.23,7.62,7.62,0,0,1,3,3.74,10.15,10.15,0,0,1,3.49-3.66,9.57,9.57,0,0,1,5.05-1.31,8.35,8.35,0,0,1,6.78,3q2.49,3,2.49,9v12.09l3.78.8v4.7h-15v-4.7l3.39-.8V322.62c0-2.2-.36-3.74-1.08-4.6a3.94,3.94,0,0,0-3.19-1.28,5.47,5.47,0,0,0-2.89.73,5.37,5.37,0,0,0-1.95,2.06q0,.51,0,.87c0,.24,0,.49,0,.74v13.59l3.17.8v4.7H163v-4.7l3.17-.8V322.62c0-2.15-.36-3.67-1.07-4.55a3.9,3.9,0,0,0-3.23-1.33,6.15,6.15,0,0,0-2.78.6,5.38,5.38,0,0,0-2,1.7v15.69l3.38.8v4.7h-15v-4.7l3.78-.8v-18Z"/><path class="cls-3" d="M210,340.8a13.12,13.12,0,0,1-10-4,14.44,14.44,0,0,1-3.76-10.23v-1.08a15.92,15.92,0,0,1,3.56-10.66,11.81,11.81,0,0,1,9.55-4.16q5.88,0,9.13,3.55t3.25,9.58V328H204.34l-.05.16a7.56,7.56,0,0,0,1.92,4.73,6,6,0,0,0,4.63,1.85,15,15,0,0,0,4.32-.52,19.91,19.91,0,0,0,3.76-1.65l2.12,4.83a15.28,15.28,0,0,1-4.66,2.39A19.63,19.63,0,0,1,210,340.8Zm-.7-24.12a4.09,4.09,0,0,0-3.44,1.67,8.71,8.71,0,0,0-1.56,4.37l.08.14H214v-.7a6.31,6.31,0,0,0-1.17-4A4.23,4.23,0,0,0,209.31,316.68Z"/><path class="cls-3" d="M236.14,304.06v7.12h5.11v5.5h-5.11v14.8a3.46,3.46,0,0,0,.7,2.42,2.5,2.5,0,0,0,1.88.72,11.63,11.63,0,0,0,1.41-.07c.4,0,.86-.12,1.36-.22l.67,5.66a19.64,19.64,0,0,1-2.61.61,18.68,18.68,0,0,1-2.79.2,8.34,8.34,0,0,1-6.24-2.23q-2.19-2.24-2.19-7.06V316.68h-4.27v-5.5h4.27v-7.12Z"/><path class="cls-3" d="M243.83,335.53l3.79-.8V303.87l-4.19-.8v-4.73h12v16.54a10,10,0,0,1,3.36-3.13,8.85,8.85,0,0,1,4.4-1.11,8.94,8.94,0,0,1,7.16,3q2.59,3,2.59,9.33v11.74l3.76.8v4.7h-15v-4.7l3.38-.8V322.94c0-2.26-.4-3.85-1.19-4.79a4.42,4.42,0,0,0-3.56-1.41,6.41,6.41,0,0,0-2.86.59,5.63,5.63,0,0,0-2.06,1.66v15.74l3.39.8v4.7h-15Z"/><path class="cls-3" d="M292,340.8a13.11,13.11,0,0,1-10-4,14.4,14.4,0,0,1-3.76-10.23v-1.08a15.92,15.92,0,0,1,3.56-10.66,11.81,11.81,0,0,1,9.55-4.16q5.88,0,9.13,3.55t3.25,9.58V328H286.38l-.06.16a7.67,7.67,0,0,0,1.92,4.73,6,6,0,0,0,4.64,1.85,15,15,0,0,0,4.32-.52,19.91,19.91,0,0,0,3.76-1.65l2.12,4.83a15.28,15.28,0,0,1-4.66,2.39A19.65,19.65,0,0,1,292,340.8Zm-.69-24.12a4.09,4.09,0,0,0-3.44,1.67,8.71,8.71,0,0,0-1.56,4.37l.08.14h9.62v-.7a6.31,6.31,0,0,0-1.17-4A4.23,4.23,0,0,0,291.35,316.68Z"/><path class="cls-3" d="M326.94,336.55a9.69,9.69,0,0,1-3.45,3.15,9.84,9.84,0,0,1-4.69,1.1,9.13,9.13,0,0,1-7.2-2.94q-2.6-2.94-2.6-9.15v-12l-3.2-.81v-4.72h11v17.59a7.56,7.56,0,0,0,1.06,4.55,3.74,3.74,0,0,0,3.16,1.38,7.93,7.93,0,0,0,3.21-.6,5.59,5.59,0,0,0,2.21-1.74V316.71L323,315.9v-4.72h11.28v23.55l3.52.8v4.7H327.45Z"/><path class="cls-3" d="M363.82,321.17h-5.27l-.83-3.63a6.69,6.69,0,0,0-2-1.07A8,8,0,0,0,353,316a5.3,5.3,0,0,0-3.28.92,2.83,2.83,0,0,0-1.21,2.33,2.67,2.67,0,0,0,1.16,2.19,12.32,12.32,0,0,0,4.61,1.54q5.4,1.08,8,3.16a6.93,6.93,0,0,1,2.6,5.73,7.61,7.61,0,0,1-3.37,6.4,14.57,14.57,0,0,1-8.87,2.49,18.7,18.7,0,0,1-6.17-1,15.64,15.64,0,0,1-5-2.81l-.08-6.52h5.48l1.07,3.78a4.46,4.46,0,0,0,1.91.88,11.58,11.58,0,0,0,2.52.28,6.42,6.42,0,0,0,3.64-.86,2.67,2.67,0,0,0,1.25-2.34A2.74,2.74,0,0,0,356,330a13,13,0,0,0-4.65-1.66,18.57,18.57,0,0,1-7.74-3.1,6.73,6.73,0,0,1-2.62-5.6,8.1,8.1,0,0,1,3-6.3c2-1.76,4.86-2.65,8.56-2.65a22,22,0,0,1,6.41.92,13.44,13.44,0,0,1,4.74,2.33Z"/><path class="cls-3" d="M400.57,336.55a9.69,9.69,0,0,1-3.45,3.15,9.81,9.81,0,0,1-4.69,1.1,9.1,9.1,0,0,1-7.19-2.94q-2.61-2.94-2.61-9.15v-12l-3.19-.81v-4.72h11v17.59a7.63,7.63,0,0,0,1.06,4.55,3.74,3.74,0,0,0,3.16,1.38,7.93,7.93,0,0,0,3.21-.6,5.59,5.59,0,0,0,2.21-1.74V316.71l-3.43-.81v-4.72H408v23.55l3.51.8v4.7H401.08Z"/><path class="cls-3" d="M413.31,335.53l3.76-.8v-18l-4.16-.81v-4.72h11.46l.35,4.16a10.73,10.73,0,0,1,3.57-3.47,9.33,9.33,0,0,1,4.76-1.23,8.73,8.73,0,0,1,6.87,2.77q2.47,2.76,2.47,8.67v12.65l3.76.8v4.7h-15v-4.7l3.35-.8V322.11c0-1.95-.39-3.34-1.18-4.15a4.74,4.74,0,0,0-3.57-1.22,6,6,0,0,0-2.79.63,5.63,5.63,0,0,0-2.07,1.78v15.58l3.17.8v4.7H413.31Z"/><path class="cls-3" d="M466.46,336.69a9.66,9.66,0,0,1-3.23,3.06A8.57,8.57,0,0,1,459,340.8a9.87,9.87,0,0,1-8.34-3.92q-3-3.93-3-10.37V326q0-6.88,3-11.09a9.66,9.66,0,0,1,8.38-4.22,8.09,8.09,0,0,1,3.92.95,9.68,9.68,0,0,1,3.07,2.7V303.87l-4.19-.8v-4.73h12v36.39l3.76.8v4.7H467.05Zm-10.95-10.18a12,12,0,0,0,1.27,6A4.46,4.46,0,0,0,461,334.7a6,6,0,0,0,3-.7,5.53,5.53,0,0,0,2.07-2V319.66A6,6,0,0,0,464,317.5a5.5,5.5,0,0,0-2.94-.76,4.4,4.4,0,0,0-4.19,2.55,14.51,14.51,0,0,0-1.31,6.66Z"/><path class="cls-3" d="M524.16,335.88a17.17,17.17,0,0,1-5.56,3.4,24.22,24.22,0,0,1-9.23,1.52,16.87,16.87,0,0,1-12.9-5.31q-5-5.3-5-13.79v-1.34q0-8.78,4.9-14.29a16.3,16.3,0,0,1,12.79-5.5,23.33,23.33,0,0,1,8.4,1.46,18.21,18.21,0,0,1,6.32,4v7.87h-5.8l-1.1-5.24a8.27,8.27,0,0,0-2.83-1.46,13.5,13.5,0,0,0-4.05-.55,9.38,9.38,0,0,0-8,3.79q-2.85,3.78-2.85,9.91v1.39q0,6,2.79,9.52c1.87,2.38,4.55,3.56,8.06,3.56a14.82,14.82,0,0,0,3.83-.4,8.36,8.36,0,0,0,2.29-.94v-6.63l-5.58-.43v-5.51h13.45Z"/><path class="cls-3" d="M528,335.53l3.76-.8v-18l-4.17-.81v-4.72H539.1l.35,4.24a9.21,9.21,0,0,1,2.63-3.52,5.91,5.91,0,0,1,3.74-1.26,10,10,0,0,1,1.3.09,8.72,8.72,0,0,1,1.14.23l-.83,7.15L544.2,318a5.45,5.45,0,0,0-2.84.68,4.29,4.29,0,0,0-1.72,1.9v14.13l3.76.8v4.7H528Z"/><path class="cls-3" d="M567.74,340.23a12.72,12.72,0,0,1-.57-1.49,11.89,11.89,0,0,1-.37-1.54,10.84,10.84,0,0,1-3.4,2.6,10.05,10.05,0,0,1-4.58,1,9.62,9.62,0,0,1-6.78-2.32,8.22,8.22,0,0,1-2.51-6.33,7.19,7.19,0,0,1,3.28-6.31q3.27-2.23,9.61-2.23h4v-2.85a4.24,4.24,0,0,0-1.21-3.24,5,5,0,0,0-3.57-1.16,8.34,8.34,0,0,0-2.39.31,5.94,5.94,0,0,0-1.69.74l-.51,3.11h-5.91l0-6.44a22,22,0,0,1,4.93-2.45,17.9,17.9,0,0,1,6-1,13.82,13.82,0,0,1,8.77,2.64,9,9,0,0,1,3.37,7.54v12c0,.45,0,.87,0,1.26a7.92,7.92,0,0,0,.1,1.13l2.39.32v4.7Zm-6.8-5.23a6.85,6.85,0,0,0,3.23-.77,6.28,6.28,0,0,0,2.25-1.92v-4.43h-4a5.46,5.46,0,0,0-3.79,1.17,3.65,3.65,0,0,0-1.29,2.81,2.91,2.91,0,0,0,1,2.31A3.9,3.9,0,0,0,560.94,335Z"/><path class="cls-3" d="M579.05,335.53l3.79-.8V316.68h-4.33v-5.5h4.33V308c0-3.26.94-5.76,2.82-7.53s4.52-2.65,7.92-2.65a15.79,15.79,0,0,1,2,.15c.69.1,1.44.24,2.27.42l-.67,5.83c-.43-.07-.85-.14-1.25-.19a11.69,11.69,0,0,0-1.41-.08,3.76,3.76,0,0,0-2.89,1.05,4.23,4.23,0,0,0-1,3v3.23h5.77v5.5h-5.77v18.05l3.79.8v4.7H579.05Z"/><path class="cls-3" d="M616.76,340.23a14.73,14.73,0,0,1-.56-1.49,11.93,11.93,0,0,1-.38-1.54,10.8,10.8,0,0,1-3.39,2.6,10.08,10.08,0,0,1-4.58,1,9.62,9.62,0,0,1-6.78-2.32,8.18,8.18,0,0,1-2.51-6.33,7.2,7.2,0,0,1,3.27-6.31c2.19-1.49,5.39-2.23,9.62-2.23h4v-2.85a4.28,4.28,0,0,0-1.21-3.24,5,5,0,0,0-3.57-1.16,8.3,8.3,0,0,0-2.39.31,5.94,5.94,0,0,0-1.69.74l-.51,3.11h-5.91l0-6.44a22.46,22.46,0,0,1,4.93-2.45,17.92,17.92,0,0,1,6.06-1,13.82,13.82,0,0,1,8.77,2.64,9.05,9.05,0,0,1,3.37,7.54v12c0,.45,0,.87,0,1.26a9.77,9.77,0,0,0,.09,1.13l2.39.32v4.7ZM610,335a6.81,6.81,0,0,0,3.22-.77,6.23,6.23,0,0,0,2.26-1.92v-4.43h-4a5.46,5.46,0,0,0-3.79,1.17,3.65,3.65,0,0,0-1.29,2.81,2.94,2.94,0,0,0,1,2.31A3.93,3.93,0,0,0,610,335Z"/><path class="cls-3" d="M627.22,335.53l3.76-.8v-18l-4.16-.81v-4.72h11.46l.35,4.16a10.73,10.73,0,0,1,3.57-3.47,9.33,9.33,0,0,1,4.76-1.23,8.73,8.73,0,0,1,6.87,2.77q2.48,2.76,2.47,8.67v12.65l3.76.8v4.7h-15v-4.7l3.35-.8V322.11c0-1.95-.39-3.34-1.18-4.15a4.74,4.74,0,0,0-3.57-1.22,6,6,0,0,0-2.79.63,5.71,5.71,0,0,0-2.07,1.78v15.58l3.17.8v4.7H627.22Z"/><path class="cls-3" d="M680.24,340.23a14.79,14.79,0,0,1-.57-1.49,11.89,11.89,0,0,1-.37-1.54,10.84,10.84,0,0,1-3.4,2.6,10.05,10.05,0,0,1-4.58,1,9.63,9.63,0,0,1-6.78-2.32,8.22,8.22,0,0,1-2.51-6.33,7.19,7.19,0,0,1,3.28-6.31c2.18-1.49,5.39-2.23,9.61-2.23h4v-2.85a4.24,4.24,0,0,0-1.21-3.24,5,5,0,0,0-3.57-1.16,8.34,8.34,0,0,0-2.39.31,5.94,5.94,0,0,0-1.69.74l-.51,3.11h-5.91l0-6.44a22,22,0,0,1,4.93-2.45,17.9,17.9,0,0,1,6-1,13.82,13.82,0,0,1,8.77,2.64,9,9,0,0,1,3.37,7.54v12c0,.45,0,.87,0,1.26a7.92,7.92,0,0,0,.1,1.13l2.39.32v4.7Zm-6.8-5.23a6.85,6.85,0,0,0,3.23-.77,6.28,6.28,0,0,0,2.25-1.92v-4.43h-4a5.48,5.48,0,0,0-3.79,1.17,3.68,3.68,0,0,0-1.28,2.81,2.9,2.9,0,0,0,.95,2.31A3.9,3.9,0,0,0,673.44,335Z"/></svg>