<svg id="Ebene_1" data-name="Ebene 1" xmlns="http://www.w3.org/2000/svg" xmlns:xlink="http://www.w3.org/1999/xlink" viewBox="0 0 750 382"><defs><style>.cls-1{fill:none;}.cls-2{fill:#f19300;}.cls-3{fill:#1a171b;}.cls-4{clip-path:url(#clip-path);}.cls-5{fill:#f39200;}</style><clipPath id="clip-path"><rect class="cls-1" x="558.29" y="70.52" width="96.06" height="109.58"/></clipPath></defs><title>Container-Lab-mit-GitLab-CI</title><path class="cls-2" d="M121.93,116.1c0,6.05-13,12-26.09,12-12.34,0-22.17-4.79-28.85-14.24-5.54-7.56-8.57-17.77-8.57-28.61,0-25.2,15.37-42.71,37.42-42.71,12,0,24.32,6.42,24.32,12.47,0,2.65-1.89,4.79-4.15,4.79-1.52,0-2.78-.63-5.17-2.65-4.91-4.15-9-5.67-15-5.67C80.22,51.46,69.51,65.07,69.51,85c0,20.42,10.46,34.15,26.08,34.15,5.55,0,10-1.39,16.51-5.29,3.28-1.89,4.41-2.4,5.8-2.4C120.16,111.44,121.93,113.46,121.93,116.1Z"/><path class="cls-2" d="M180.52,95.94c0,18.65-11.59,32.14-27.6,32.14s-27.59-13.49-27.59-31.88c0-18.9,11.46-32.39,27.59-32.39S180.52,77.3,180.52,95.94Zm-44.86-.12c0,14.24,6.8,23.31,17.26,23.31s17.27-9.2,17.27-23.19-6.81-23.18-17.27-23.18S135.66,82,135.66,95.82Z"/><path class="cls-2" d="M200.17,72.13c4.79-5.67,10.21-8.32,17.27-8.32,13.23,0,21.92,9.45,21.92,23.82v34.9c0,3.4-2,5.55-5.17,5.55s-5.16-2.15-5.16-5.55V88.26c0-9.2-5.92-15.5-14.62-15.5s-14.49,6.3-14.49,15.5v34.27c0,3.4-2,5.55-5.17,5.55s-5.16-2.15-5.16-5.55V69.36c0-3.41,2-5.55,5.16-5.55s5.17,2.14,5.17,5.55v2.52Z"/><path class="cls-2" d="M254.6,51c0-3.4,2-5.54,5.17-5.54s5.17,2.14,5.17,5.54V64.57h4.28c3.28,0,5.17,1.64,5.17,4.53s-1.89,4.41-5.17,4.41h-4.28v49c0,3.4-2,5.55-5.17,5.55s-5.17-2.15-5.17-5.55v-49h-4.28c-3.28,0-5.17-1.63-5.17-4.41s1.89-4.53,5.17-4.53h4.28Z"/><path class="cls-2" d="M321.64,69c0-3,2-5.17,4.79-5.17A4.83,4.83,0,0,1,331.34,69v53.93a4.84,4.84,0,0,1-4.91,5.17c-2.78,0-4.79-2.15-4.79-5.17v-4.28h-.25c-4.92,6.67-10.08,9.45-17.39,9.45-15.75,0-27.35-13.61-27.35-32.14s11.6-32.13,27.47-32.13c6.81,0,11.47,2.27,17.27,8.45h.25ZM287,95.82c0,14.24,6.8,23.31,17.26,23.31s17.26-9.2,17.26-23.19-6.8-23.18-17.26-23.18S287,82,287,95.82Z"/><path class="cls-2" d="M354.65,48.94a6.37,6.37,0,1,1-6.43-6.42A6.27,6.27,0,0,1,354.65,48.94Zm-1.26,73.59c0,3.4-2,5.55-5.17,5.55s-5.16-2.15-5.16-5.55V69.36c0-3.41,2-5.55,5.16-5.55s5.17,2.14,5.17,5.55Z"/><path class="cls-2" d="M375.82,72.13c4.78-5.67,10.2-8.32,17.26-8.32,13.23,0,21.92,9.45,21.92,23.82v34.9c0,3.4-2,5.55-5.16,5.55s-5.17-2.15-5.17-5.55V88.26c0-9.2-5.92-15.5-14.62-15.5s-14.49,6.3-14.49,15.5v34.27c0,3.4-2,5.55-5.16,5.55s-5.17-2.15-5.17-5.55V69.36c0-3.41,2-5.55,5.17-5.55s5.16,2.14,5.16,5.55v2.52Z"/><path class="cls-2" d="M433.4,100c.38,6.68,1.89,10.58,5.42,14.11s7.81,5,13.35,5c6.43,0,11-1.64,16.63-6.18,2.4-1.88,3.41-2.39,4.54-2.39,1.89,0,3.66,2,3.66,4.41,0,6-13.87,13.11-25.58,13.11-17,0-28.36-12.73-28.36-31.88,0-18.78,11.85-32.39,28-32.39,15.37,0,27.22,13.23,27.22,30.37,0,4.28-1.52,5.8-5.8,5.8Zm34.52-7.82c-.5-12.22-6.93-19.4-17.39-19.4s-16.25,6.55-17.13,19.4Z"/><path class="cls-2" d="M496.9,74.65c3.53-6.55,9.07-10.84,14.24-10.84,3.28,0,5.67,2.14,5.67,5.29s-2,4.79-6.43,5.67c-8.69,1.64-13.86,8.2-13.73,17.9v29.86c0,3.4-2,5.55-5.17,5.55s-5.16-2.15-5.16-5.55V69.36c0-3.41,2-5.55,5.16-5.55s5.17,2.14,5.17,5.55v5.29Z"/><path class="cls-3" d="M616.57,174.79c-2.79,0-4.84,2.11-4.87,5.16l0,3.3h-.25c-5-5.45-9.21-7.92-14.71-8.52a2.59,2.59,0,0,0-2.43,1.13c-.84,1.26-1.66,2.55-2.47,3.84a2.56,2.56,0,0,0,2.23,3.89h.11c10.54.09,17.3,9.42,17.17,23.51s-7.07,23.29-17.6,23.2-17.31-9.3-17.18-23.65c.08-7.67,2.22-13.9,5.87-17.94a2.58,2.58,0,0,0,.71-1.73,41.06,41.06,0,0,0-.32-5.93,2.55,2.55,0,0,0-4-1.73c-7.69,5.5-12.56,15.34-12.67,27.36-.18,18.66,11.37,32.48,27.24,32.63,7.36.07,12.59-2.68,17.6-9.36h.26l0,4.32c0,3,2,5.22,4.77,5.25a4.88,4.88,0,0,0,5-5.16l.51-54.33A4.88,4.88,0,0,0,616.57,174.79Z"/><g id="Biene_RGB" data-name="Biene RGB"><g class="cls-4"><g class="cls-4"><path class="cls-2" d="M594.71,163.88,586,180.09l12.22-13.32a7.28,7.28,0,0,1-3.53-2.89"/><path class="cls-3" d="M596.24,124.89h0c-11.14,0-21.08-2.63-26.6-7-6.57-5.26-10.91-12.71-11.32-19.47a12.1,12.1,0,0,1,3-9.4c1.92-2,4.85-3,8.46-3,6.48,0,14.58,3.32,21.14,8.65,9.09,7.38,22.58,23.53,22.2,26.6a1.23,1.23,0,0,1-.7,1c-3.67,1.69-9.57,2.66-16.21,2.66m-26.43-37c-3.1,0-5.56.85-7.12,2.44-1.83,1.88-2.69,4.63-2.49,8,.37,6.24,4.44,13.17,10.61,18.1,5.2,4.14,14.7,6.62,25.43,6.62,6,0,11.54-.85,15-2.29-1-3.07-12.22-17.11-21.44-24.59-6.24-5.07-13.89-8.23-20-8.23"/><path class="cls-3" d="M637.9,79.15c.66.92,2.22.91,3.47,0s1.7-2.42,1-3.34-2.23-.91-3.48,0-1.7,2.43-1,3.34"/><path class="cls-3" d="M625.05,76c1.08.33,2.32-.63,2.76-2.13s-.09-3-1.17-3.29-2.32.63-2.76,2.12.09,3,1.17,3.3"/><path class="cls-3" d="M624.33,75.2a2.16,2.16,0,0,1,1.46.72c-3.32,5.4-.08,15.93,1.65,20.65,2.25-15.09,10.9-18.31,10.9-18.31a2.23,2.23,0,0,1,.81,1.36c-8,2.95-10.48,17.5-10.77,19.33h0s1.08,4.54-.52,2.26c-8.84-16.56-3.54-26-3.54-26"/><path class="cls-2" d="M604.29,130.83c-1.44.23-6.72,6.16-6.49,7.53,2.86,5.43,9.16,15.3,25.08,19.12,3-.47,6.84-4.54,6.93-8.2a34.67,34.67,0,0,1-25.52-18.45"/><path class="cls-3" d="M619,123.8c-.86.13-6,.75-8.67,2.84,1.72,3.27,8.27,13.92,22.39,15.12,1.3-1.56.65-7.62-.25-9.43-7.44-.49-11-5.17-13.47-8.53"/><path class="cls-3" d="M594,146.61c4.75,9.82,22.42,18.51,21.52,16.7-5,4.58-26.32,5.86-21.52-16.7"/><path class="cls-3" d="M631,128.46c9.34,3.25,22.3-.33,23.33-6.47.77-4.55-5.68-11.2-14.28-16.14-9.94-5.7-18.28-2.2-20.3,3.68s1.92,15.66,11.25,18.93M636.49,108c-.34-.39,3.25,4.71,6,.17.3-.42,2.09,1.3,2.09,1.3s3.92,3.62,1.46,5.3c-5.7,2.71-9.54-6.77-9.54-6.77"/></g></g></g><path class="cls-5" d="M555.15,229.75c3.17,0,5.06,1.83,5,5s-1.95,4.81-5.12,4.78l-27.17-.26c-3.55,0-5.56-2.08-5.53-5.76l.69-74.13c0-3.43,2.08-5.56,5.26-5.53s5.18,2.2,5.15,5.63l-.65,70.06Z"/><path class="cls-5" d="M649.13,233.78c0,3.43-2.09,5.57-5.26,5.54s-5.18-2.21-5.15-5.63l.75-81.37c0-3.42,2.09-5.56,5.26-5.53s5.19,2.2,5.15,5.63l-.28,30.85h.25a20.27,20.27,0,0,1,17.09-8.48c15.36.15,26.66,14.09,26.48,32.62-.17,18.79-11.72,32.26-27.59,32.12-8-.08-13.05-2.79-16.42-8.92h-.25Zm-.77-26.92c-.13,14.35,6.51,23.55,17.18,23.65,10.4.1,17.34-9.11,17.47-23.2s-6.63-23.41-17.17-23.51S648.49,192.9,648.36,206.86Z"/><path class="cls-3" d="M61.78,275.71V271H73.25l.32,3.84a9.85,9.85,0,0,1,3.5-3.24A10.11,10.11,0,0,1,82,270.44a8.84,8.84,0,0,1,4.78,1.24,7.7,7.7,0,0,1,3,3.73,10,10,0,0,1,3.49-3.65,9.43,9.43,0,0,1,5-1.32,8.38,8.38,0,0,1,6.78,3q2.47,3,2.48,9v12.08l3.79.81V300h-15v-4.7l3.39-.81V282.42q0-3.3-1.08-4.59a3.91,3.91,0,0,0-3.19-1.29,5.52,5.52,0,0,0-2.89.74,5.42,5.42,0,0,0-2,2.05q0,.51,0,.87c0,.25,0,.49,0,.74v13.59l3.17.81V300H79.66v-4.7l3.17-.81V282.42c0-2.15-.36-3.67-1.07-4.55a3.89,3.89,0,0,0-3.22-1.33,6.09,6.09,0,0,0-2.78.6,5.35,5.35,0,0,0-2,1.71v15.68l3.39.81V300h-15v-4.7l3.79-.81v-18Z"/><path class="cls-3" d="M112.79,295.34l3.78-.81v-18l-4.19-.8V271h12v23.55l3.76.81V300H112.79ZM124.41,264h-7.84v-5.88h7.84Z"/><path class="cls-3" d="M141.5,263.86V271h5.1v5.5h-5.1v14.8a3.4,3.4,0,0,0,.7,2.42,2.49,2.49,0,0,0,1.88.72q.81,0,1.41-.06c.4-.05.85-.12,1.36-.23l.67,5.67a19.58,19.58,0,0,1-2.61.6,18.68,18.68,0,0,1-2.79.2,8.32,8.32,0,0,1-6.24-2.23c-1.46-1.48-2.19-3.84-2.19-7.06V276.48h-4.27V271h4.27v-7.12Z"/><path class="cls-3" d="M194.5,295.69a17.35,17.35,0,0,1-5.56,3.39,24,24,0,0,1-9.23,1.52,16.9,16.9,0,0,1-12.9-5.3q-5-5.31-5-13.79v-1.35q0-8.78,4.9-14.28a16.31,16.31,0,0,1,12.79-5.51,23.12,23.12,0,0,1,8.4,1.47,17.93,17.93,0,0,1,6.32,4v7.87h-5.8l-1.1-5.24a7.93,7.93,0,0,0-2.83-1.46,13.53,13.53,0,0,0-4.05-.56,9.4,9.4,0,0,0-8,3.79q-2.85,3.78-2.85,9.91v1.4q0,6,2.79,9.52a9.66,9.66,0,0,0,8.06,3.56,14.76,14.76,0,0,0,3.83-.41,8.36,8.36,0,0,0,2.29-.94v-6.63l-5.58-.43v-5.51H194.5Z"/><path class="cls-3" d="M197.54,295.34l3.79-.81v-18l-4.19-.8V271h12v23.55l3.76.81V300H197.54ZM209.17,264h-7.84v-5.88h7.84Z"/><path class="cls-3" d="M226.26,263.86V271h5.1v5.5h-5.1v14.8a3.4,3.4,0,0,0,.7,2.42,2.49,2.49,0,0,0,1.88.72c.54,0,1,0,1.41-.06s.85-.12,1.35-.23l.68,5.67a19.58,19.58,0,0,1-2.61.6,18.68,18.68,0,0,1-2.79.2,8.35,8.35,0,0,1-6.25-2.23c-1.46-1.48-2.18-3.84-2.18-7.06V276.48h-4.28V271h4.28v-7.12Z"/><path class="cls-3" d="M234.19,300v-4.7l4.16-.81V266.47l-4.16-.81v-4.72h16.19v4.72l-4.19.81V294h11l.38-4.91h6V300Z"/><path class="cls-3" d="M284.28,300a15.7,15.7,0,0,1-.56-1.49,12.08,12.08,0,0,1-.38-1.55,10.68,10.68,0,0,1-3.39,2.61,10.21,10.21,0,0,1-4.58,1,9.57,9.57,0,0,1-6.78-2.32,8.19,8.19,0,0,1-2.52-6.33,7.21,7.21,0,0,1,3.28-6.31c2.19-1.48,5.39-2.23,9.61-2.23h4v-2.84a4.3,4.3,0,0,0-1.21-3.25,5,5,0,0,0-3.57-1.16,8.61,8.61,0,0,0-2.39.31,6.31,6.31,0,0,0-1.7.74l-.51,3.12h-5.9l0-6.45a21.8,21.8,0,0,1,4.93-2.44,17.67,17.67,0,0,1,6.06-1,13.73,13.73,0,0,1,8.76,2.65,9,9,0,0,1,3.38,7.53v12c0,.44,0,.86,0,1.26a10.14,10.14,0,0,0,.09,1.13l2.39.32V300Zm-6.79-5.24a6.8,6.8,0,0,0,3.22-.76,6.33,6.33,0,0,0,2.26-1.92v-4.44h-4a5.45,5.45,0,0,0-3.78,1.17,3.67,3.67,0,0,0-1.29,2.81,2.94,2.94,0,0,0,.95,2.31A3.93,3.93,0,0,0,277.49,294.8Z"/><path class="cls-3" d="M322.4,286.31q0,6.51-2.9,10.4a9.83,9.83,0,0,1-8.38,3.89,8.83,8.83,0,0,1-4.43-1.06,9,9,0,0,1-3.17-3.07L303,300h-6.77V263.68l-4.16-.81v-4.73h12v15.93a8.87,8.87,0,0,1,3-2.69,8.55,8.55,0,0,1,4.05-.94,9.65,9.65,0,0,1,8.43,4.18q2.89,4.17,2.9,11.13Zm-7.82-.56a15,15,0,0,0-1.25-6.73,4.38,4.38,0,0,0-4.25-2.48,5.85,5.85,0,0,0-3.09.76,5.36,5.36,0,0,0-2,2.19v12.28a5,5,0,0,0,2,2,6.52,6.52,0,0,0,3.13.7,4.49,4.49,0,0,0,4.25-2.14,12.5,12.5,0,0,0,1.2-6.06Z"/><path class="cls-3" d="M328.69,303.39h-5.8l14.34-42.45H343Z"/><path class="cls-3" d="M376.31,274.12h-5.83l-.8-5.21a8,8,0,0,0-2.92-1.82,11.51,11.51,0,0,0-4.14-.68,9.21,9.21,0,0,0-7.86,3.71,15.84,15.84,0,0,0-2.75,9.67v1.37a16,16,0,0,0,2.74,9.69,9,9,0,0,0,7.73,3.74,12.68,12.68,0,0,0,4.23-.68,7,7,0,0,0,3-1.82l.8-5.21h5.83v7.73a16.77,16.77,0,0,1-6,4.37,20.07,20.07,0,0,1-8.2,1.62,16.75,16.75,0,0,1-12.89-5.45q-5-5.46-5-14v-1.32q0-8.5,5-14a16.7,16.7,0,0,1,12.92-5.48,19.71,19.71,0,0,1,8.19,1.65,17.54,17.54,0,0,1,6,4.37Z"/><path class="cls-3" d="M379.06,265.66v-4.72h16.19v4.72l-4.19.81v28.06l4.19.81V300H379.06v-4.7l4.19-.81V266.47Z"/></svg>