<svg id="Ebene_1" data-name="Ebene 1" xmlns="http://www.w3.org/2000/svg" xmlns:xlink="http://www.w3.org/1999/xlink" viewBox="0 0 750 382"><defs><style>.cls-1{fill:none;}.cls-2{fill:#f19300;}.cls-3{fill:#1a171b;}.cls-4{fill:#1d1d1b;}.cls-5{clip-path:url(#clip-path);}.cls-6{fill:#f39200;}</style><clipPath id="clip-path"><rect class="cls-1" x="558.29" y="70.32" width="96.06" height="109.58"/></clipPath></defs><title>Container-Lab-mit-Kubernetes</title><path class="cls-2" d="M121.93,115.91c0,6-13,12-26.09,12-12.34,0-22.17-4.79-28.85-14.24-5.55-7.56-8.57-17.77-8.57-28.6,0-25.2,15.37-42.72,37.42-42.72,12,0,24.32,6.43,24.32,12.47,0,2.65-1.89,4.79-4.15,4.79-1.52,0-2.78-.63-5.17-2.64-4.91-4.16-9-5.67-15-5.67-15.62,0-26.33,13.61-26.33,33.52,0,20.41,10.46,34.14,26.08,34.14,5.55,0,10-1.38,16.51-5.29,3.28-1.89,4.41-2.39,5.8-2.39C120.16,111.25,121.93,113.26,121.93,115.91Z"/><path class="cls-2" d="M180.52,95.75c0,18.65-11.59,32.13-27.6,32.13S125.33,114.4,125.33,96c0-18.9,11.46-32.38,27.59-32.38S180.52,77.1,180.52,95.75Zm-44.86-.13c0,14.24,6.8,23.31,17.26,23.31s17.27-9.2,17.27-23.18-6.81-23.19-17.27-23.19S135.66,81.76,135.66,95.62Z"/><path class="cls-2" d="M200.17,71.93c4.79-5.67,10.21-8.31,17.27-8.31,13.23,0,21.92,9.45,21.92,23.81v34.91c0,3.4-2,5.54-5.17,5.54s-5.16-2.14-5.16-5.54V88.06c0-9.2-5.92-15.5-14.62-15.5s-14.49,6.3-14.49,15.5v34.28c0,3.4-2,5.54-5.17,5.54s-5.16-2.14-5.16-5.54V69.16c0-3.4,2-5.54,5.16-5.54s5.17,2.14,5.17,5.54v2.52Z"/><path class="cls-2" d="M254.6,50.76c0-3.4,2-5.54,5.17-5.54s5.17,2.14,5.17,5.54V64.37h4.28c3.28,0,5.17,1.64,5.17,4.54s-1.89,4.41-5.17,4.41h-4.28v49c0,3.4-2,5.54-5.17,5.54s-5.17-2.14-5.17-5.54v-49h-4.28c-3.28,0-5.17-1.64-5.17-4.41s1.89-4.54,5.17-4.54h4.28Z"/><path class="cls-2" d="M321.64,68.78c0-3,2-5.16,4.79-5.16a4.83,4.83,0,0,1,4.91,5.16v53.93a4.83,4.83,0,0,1-4.91,5.17c-2.78,0-4.79-2.14-4.79-5.17v-4.28h-.25c-4.92,6.68-10.08,9.45-17.39,9.45-15.75,0-27.35-13.61-27.35-32.13s11.6-32.13,27.47-32.13c6.81,0,11.47,2.26,17.27,8.44h.25ZM287,95.62c0,14.24,6.8,23.31,17.26,23.31s17.26-9.2,17.26-23.18-6.8-23.19-17.26-23.19S287,81.76,287,95.62Z"/><path class="cls-2" d="M354.65,48.75a6.37,6.37,0,1,1-6.43-6.43A6.27,6.27,0,0,1,354.65,48.75Zm-1.26,73.59c0,3.4-2,5.54-5.17,5.54s-5.16-2.14-5.16-5.54V69.16c0-3.4,2-5.54,5.16-5.54s5.17,2.14,5.17,5.54Z"/><path class="cls-2" d="M375.82,71.93c4.78-5.67,10.2-8.31,17.26-8.31,13.23,0,21.92,9.45,21.92,23.81v34.91c0,3.4-2,5.54-5.16,5.54s-5.17-2.14-5.17-5.54V88.06c0-9.2-5.92-15.5-14.62-15.5s-14.49,6.3-14.49,15.5v34.28c0,3.4-2,5.54-5.16,5.54s-5.17-2.14-5.17-5.54V69.16c0-3.4,2-5.54,5.17-5.54s5.16,2.14,5.16,5.54v2.52Z"/><path class="cls-2" d="M433.4,99.78c.38,6.68,1.89,10.58,5.42,14.11s7.81,5,13.35,5c6.43,0,11-1.64,16.64-6.17,2.39-1.89,3.4-2.4,4.53-2.4,1.89,0,3.66,2,3.66,4.41,0,6-13.87,13.11-25.58,13.11-17,0-28.36-12.73-28.36-31.88,0-18.78,11.85-32.38,28-32.38,15.37,0,27.22,13.23,27.22,30.36,0,4.29-1.52,5.8-5.8,5.8ZM467.92,92c-.5-12.23-6.93-19.41-17.39-19.41S434.28,79.11,433.4,92Z"/><path class="cls-2" d="M496.9,74.45c3.53-6.55,9.07-10.83,14.24-10.83,3.28,0,5.67,2.14,5.67,5.29s-2,4.79-6.43,5.67c-8.69,1.64-13.86,8.19-13.73,17.89v29.87c0,3.4-2,5.54-5.17,5.54s-5.16-2.14-5.16-5.54V69.16c0-3.4,2-5.54,5.16-5.54s5.17,2.14,5.17,5.54v5.29Z"/><path class="cls-3" d="M56.56,281.72V277H68l.32,3.84a9.7,9.7,0,0,1,3.51-3.24,10.07,10.07,0,0,1,4.87-1.14,8.9,8.9,0,0,1,4.78,1.23,7.62,7.62,0,0,1,3,3.74A10.15,10.15,0,0,1,88,277.77a9.54,9.54,0,0,1,5-1.31,8.35,8.35,0,0,1,6.78,3c1.66,2,2.49,5,2.49,9v12.09l3.78.8v4.7h-15v-4.7l3.38-.8V288.44c0-2.21-.35-3.74-1.07-4.6a3.93,3.93,0,0,0-3.2-1.29,5.46,5.46,0,0,0-2.88.74,5.37,5.37,0,0,0-2,2.06q0,.51,0,.87c0,.24,0,.49,0,.74v13.59l3.17.8v4.7H74.45v-4.7l3.17-.8V288.44q0-3.22-1.08-4.56a3.91,3.91,0,0,0-3.22-1.33,6.15,6.15,0,0,0-2.78.61,5.38,5.38,0,0,0-2,1.7v15.69l3.38.8v4.7H57v-4.7l3.78-.8v-18Z"/><path class="cls-3" d="M107.57,301.35l3.79-.8v-18l-4.19-.81V277h12v23.55l3.76.8v4.7H107.57ZM119.2,270h-7.84v-5.88h7.84Z"/><path class="cls-3" d="M136.29,269.88V277h5.1v5.5h-5.1v14.8a3.42,3.42,0,0,0,.69,2.41,2.49,2.49,0,0,0,1.88.73,11.84,11.84,0,0,0,2.77-.3l.67,5.67a19.51,19.51,0,0,1-2.6.61,18.71,18.71,0,0,1-2.8.2,8.34,8.34,0,0,1-6.24-2.23c-1.46-1.49-2.19-3.84-2.19-7.07V282.5H124.2V277h4.27v-7.12Z"/><path class="cls-4" d="M156.87,301.35l4.17-.8V272.48l-4.17-.8V267h16v4.73l-4,.8v10.45h3.41L179.81,272l-2.31-.32V267H193v4.73l-4.24.72-9.61,12.84,10.79,15.44,3.92.67v4.7H178.36v-4.7l2.41-.32-7.52-11.31h-4.37v10.83l4,.8v4.7h-16Z"/><path class="cls-4" d="M215.26,302.37a9.41,9.41,0,0,1-8.13,4.25,9.13,9.13,0,0,1-7.2-2.94q-2.61-2.94-2.61-9.15v-12l-3.19-.81V277h11v17.59a7.56,7.56,0,0,0,1.06,4.55,3.72,3.72,0,0,0,3.15,1.38,7.86,7.86,0,0,0,3.21-.6,5.63,5.63,0,0,0,2.22-1.74V282.53l-3.44-.81V277h11.28v23.55l3.52.8v4.7h-10.4Z"/><path class="cls-4" d="M256.52,292.33q0,6.5-2.9,10.39a9.8,9.8,0,0,1-8.38,3.9,8.93,8.93,0,0,1-4.43-1.06,9.13,9.13,0,0,1-3.17-3.08l-.56,3.57h-6.77V269.69l-4.16-.81v-4.72h12v15.92a8.85,8.85,0,0,1,3-2.68,8.4,8.4,0,0,1,4-.94,9.62,9.62,0,0,1,8.43,4.17q2.89,4.19,2.9,11.14Zm-7.81-.56a15.18,15.18,0,0,0-1.25-6.73,4.38,4.38,0,0,0-4.26-2.49,5.85,5.85,0,0,0-3.09.77,5.27,5.27,0,0,0-2,2.19v12.27a4.86,4.86,0,0,0,2,2,6.37,6.37,0,0,0,3.12.7,4.47,4.47,0,0,0,4.25-2.13,12.55,12.55,0,0,0,1.21-6.06Z"/><path class="cls-4" d="M273.23,306.62a13.1,13.1,0,0,1-10-4,14.4,14.4,0,0,1-3.76-10.23v-1.08A15.91,15.91,0,0,1,263,280.62a11.81,11.81,0,0,1,9.55-4.16q5.88,0,9.13,3.54t3.25,9.59v4.27H267.57l-.06.16a7.67,7.67,0,0,0,1.92,4.73,6,6,0,0,0,4.64,1.85,15.09,15.09,0,0,0,4.32-.52,19.91,19.91,0,0,0,3.76-1.65l2.12,4.83a15.28,15.28,0,0,1-4.66,2.39A20,20,0,0,1,273.23,306.62Zm-.69-24.12a4.08,4.08,0,0,0-3.44,1.67,8.68,8.68,0,0,0-1.56,4.37l.08.14h9.61V288a6.27,6.27,0,0,0-1.16-4A4.23,4.23,0,0,0,272.54,282.5Z"/><path class="cls-4" d="M288.39,301.35l3.76-.8v-18l-4.17-.81V277h11.47l.35,4.24a9.13,9.13,0,0,1,2.63-3.52,5.91,5.91,0,0,1,3.74-1.26,10,10,0,0,1,1.3.09,9.47,9.47,0,0,1,1.14.23l-.83,7.14-3.23-.08a5.45,5.45,0,0,0-2.84.68,4.29,4.29,0,0,0-1.72,1.9v14.13l3.76.8v4.7H288.39Z"/><path class="cls-4" d="M309.69,301.35l3.76-.8v-18l-4.16-.81V277h11.47l.34,4.16a10.67,10.67,0,0,1,3.58-3.47,9.29,9.29,0,0,1,4.75-1.23,8.76,8.76,0,0,1,6.88,2.76c1.64,1.85,2.47,4.74,2.47,8.68v12.65l3.76.8v4.7h-15v-4.7l3.36-.8V287.93c0-2-.4-3.34-1.18-4.15a4.75,4.75,0,0,0-3.58-1.23,6.07,6.07,0,0,0-2.79.64,5.79,5.79,0,0,0-2.07,1.78v15.58l3.17.8v4.7H309.69Z"/><path class="cls-4" d="M357.85,306.62a13.08,13.08,0,0,1-10-4,14.4,14.4,0,0,1-3.76-10.23v-1.08a15.9,15.9,0,0,1,3.55-10.66,11.83,11.83,0,0,1,9.55-4.16q5.88,0,9.13,3.54t3.25,9.59v4.27H352.18l-.05.16a7.56,7.56,0,0,0,1.92,4.73,6,6,0,0,0,4.63,1.85,15.12,15.12,0,0,0,4.33-.52,20.19,20.19,0,0,0,3.76-1.65l2.12,4.83a15.28,15.28,0,0,1-4.66,2.39A20,20,0,0,1,357.85,306.62Zm-.7-24.12a4.1,4.1,0,0,0-3.44,1.67,8.58,8.58,0,0,0-1.55,4.37l.08.14h9.61V288a6.27,6.27,0,0,0-1.17-4A4.21,4.21,0,0,0,357.15,282.5Z"/><path class="cls-4" d="M384,269.88V277h5.1v5.5H384v14.8a3.37,3.37,0,0,0,.7,2.41,2.46,2.46,0,0,0,1.88.73,11.68,11.68,0,0,0,2.76-.3l.67,5.67a19.15,19.15,0,0,1-2.6.61,18.68,18.68,0,0,1-2.79.2,8.35,8.35,0,0,1-6.25-2.23c-1.46-1.49-2.19-3.84-2.19-7.07V282.5H371.9V277h4.27v-7.12Z"/><path class="cls-4" d="M406,306.62a13.12,13.12,0,0,1-10-4,14.44,14.44,0,0,1-3.76-10.23v-1.08a15.91,15.91,0,0,1,3.56-10.66,11.82,11.82,0,0,1,9.55-4.16q5.88,0,9.13,3.54t3.25,9.59v4.27H400.35l-.05.16a7.56,7.56,0,0,0,1.92,4.73,6,6,0,0,0,4.63,1.85,15,15,0,0,0,4.32-.52,19.91,19.91,0,0,0,3.76-1.65l2.13,4.83a15.4,15.4,0,0,1-4.66,2.39A20,20,0,0,1,406,306.62Zm-.7-24.12a4.09,4.09,0,0,0-3.44,1.67,8.68,8.68,0,0,0-1.56,4.37l.08.14H410V288a6.27,6.27,0,0,0-1.17-4A4.23,4.23,0,0,0,405.32,282.5Z"/><path class="cls-4" d="M444.29,287H439l-.83-3.63a6.82,6.82,0,0,0-2-1.07,8,8,0,0,0-2.7-.43,5.32,5.32,0,0,0-3.28.92,2.84,2.84,0,0,0-1.2,2.33,2.63,2.63,0,0,0,1.15,2.18,12.24,12.24,0,0,0,4.62,1.55c3.6.71,6.27,1.77,8,3.15a6.94,6.94,0,0,1,2.61,5.74,7.63,7.63,0,0,1-3.37,6.4,14.6,14.6,0,0,1-8.88,2.49,18.64,18.64,0,0,1-6.16-1,15.83,15.83,0,0,1-5-2.81l-.08-6.53h5.48l1.07,3.79a4.4,4.4,0,0,0,1.91.87,10.87,10.87,0,0,0,2.52.29,6.44,6.44,0,0,0,3.64-.86,2.71,2.71,0,0,0,1.25-2.34,2.74,2.74,0,0,0-1.26-2.23,13,13,0,0,0-4.65-1.66,18.67,18.67,0,0,1-7.75-3.11,6.72,6.72,0,0,1-2.62-5.59,8.13,8.13,0,0,1,3-6.3c2-1.77,4.86-2.65,8.57-2.65a22,22,0,0,1,6.4.92,13.27,13.27,0,0,1,4.74,2.33Z"/><path class="cls-3" d="M616.57,174.59c-2.79,0-4.84,2.12-4.87,5.16l0,3.3h-.25c-5-5.45-9.21-7.92-14.71-8.51a2.56,2.56,0,0,0-2.43,1.12q-1.26,1.91-2.47,3.84a2.56,2.56,0,0,0,2.23,3.9h.11c10.54.1,17.3,9.43,17.17,23.52s-7.07,23.29-17.6,23.19-17.31-9.3-17.18-23.64c.08-7.68,2.22-13.9,5.87-17.95a2.56,2.56,0,0,0,.71-1.73,41.22,41.22,0,0,0-.32-5.93,2.55,2.55,0,0,0-4-1.72c-7.69,5.49-12.56,15.33-12.67,27.36-.18,18.66,11.37,32.47,27.24,32.62,7.36.07,12.59-2.68,17.6-9.36h.26l0,4.32c0,3,2,5.22,4.77,5.25a4.87,4.87,0,0,0,5-5.16l.51-54.33A4.88,4.88,0,0,0,616.57,174.59Z"/><g id="Biene_RGB" data-name="Biene RGB"><g class="cls-5"><g class="cls-5"><path class="cls-2" d="M594.71,163.69,586,179.9l12.22-13.32a7.35,7.35,0,0,1-3.53-2.89"/><path class="cls-3" d="M596.24,124.69h0c-11.14,0-21.08-2.63-26.6-7-6.57-5.25-10.91-12.71-11.32-19.46a12.12,12.12,0,0,1,3-9.41c1.92-2,4.85-3,8.46-3,6.48,0,14.58,3.31,21.14,8.64,9.09,7.38,22.58,23.54,22.2,26.6a1.23,1.23,0,0,1-.7,1c-3.67,1.69-9.57,2.66-16.21,2.66m-26.43-37c-3.1,0-5.56.84-7.12,2.43-1.83,1.88-2.69,4.63-2.49,8,.37,6.23,4.44,13.16,10.61,18.09,5.2,4.14,14.7,6.62,25.43,6.62,6,0,11.54-.85,15-2.29-1-3.07-12.22-17.1-21.44-24.59-6.24-5.07-13.89-8.22-20-8.22"/><path class="cls-3" d="M637.9,79c.66.92,2.22.91,3.47,0s1.7-2.42,1-3.34-2.23-.91-3.48,0-1.7,2.42-1,3.33"/><path class="cls-3" d="M625.05,75.81c1.08.32,2.32-.63,2.76-2.13s-.09-3-1.17-3.3-2.32.63-2.76,2.13.09,3,1.17,3.3"/><path class="cls-3" d="M624.33,75a2.21,2.21,0,0,1,1.46.72c-3.32,5.4-.08,15.93,1.65,20.65,2.25-15.08,10.9-18.31,10.9-18.31a2.23,2.23,0,0,1,.81,1.37c-8,2.94-10.48,17.5-10.77,19.33h0s1.08,4.54-.52,2.26c-8.84-16.56-3.54-26-3.54-26"/><path class="cls-2" d="M604.29,130.63c-1.44.23-6.72,6.17-6.49,7.53,2.86,5.43,9.16,15.3,25.08,19.12,3-.47,6.84-4.54,6.93-8.19a34.68,34.68,0,0,1-25.52-18.46"/><path class="cls-3" d="M619,123.6c-.86.13-6,.76-8.67,2.85,1.72,3.26,8.27,13.91,22.39,15.12,1.3-1.56.65-7.63-.25-9.43-7.44-.49-11-5.18-13.47-8.54"/><path class="cls-3" d="M594,146.42c4.75,9.81,22.42,18.5,21.52,16.7-5,4.57-26.32,5.86-21.52-16.7"/><path class="cls-3" d="M631,128.26c9.34,3.25,22.3-.33,23.33-6.47.77-4.54-5.68-11.2-14.28-16.13-9.94-5.71-18.28-2.21-20.3,3.68S621.62,125,631,128.26m5.54-20.44c-.34-.39,3.25,4.71,6,.16.3-.41,2.09,1.31,2.09,1.31s3.92,3.61,1.46,5.29c-5.7,2.72-9.54-6.76-9.54-6.76"/></g></g></g><path class="cls-6" d="M555.15,229.56c3.17,0,5.06,1.82,5,5s-1.95,4.81-5.12,4.78l-27.17-.25c-3.55,0-5.56-2.09-5.53-5.77l.69-74.13c0-3.42,2.08-5.56,5.26-5.53s5.18,2.2,5.15,5.63l-.65,70.07Z"/><path class="cls-6" d="M649.13,233.59c0,3.42-2.09,5.56-5.26,5.53s-5.18-2.2-5.15-5.63l.75-81.36c0-3.43,2.09-5.57,5.26-5.54s5.19,2.21,5.15,5.63l-.28,30.85h.25a20.26,20.26,0,0,1,17.09-8.47c15.36.14,26.66,14.08,26.48,32.61-.17,18.79-11.72,32.27-27.59,32.12-8-.08-13.05-2.79-16.42-8.91h-.25Zm-.77-26.92c-.13,14.34,6.51,23.54,17.18,23.64,10.4.1,17.34-9.1,17.47-23.19s-6.63-23.42-17.17-23.52S648.49,192.71,648.36,206.67Z"/></svg>