<svg id="Ebene_1" data-name="Ebene 1" xmlns="http://www.w3.org/2000/svg" xmlns:xlink="http://www.w3.org/1999/xlink" viewBox="0 0 750 382"><defs><style>.cls-1{fill:none;}.cls-2{fill:#f19300;}.cls-3{fill:#1a171b;}.cls-4{clip-path:url(#clip-path);}</style><clipPath id="clip-path"><rect class="cls-1" x="577.29" y="70.52" width="96.06" height="109.58"/></clipPath></defs><title>Container-Day-mit-Kubernetes-und-Rancher</title><path class="cls-2" d="M121.93,114.89c0,6-13,12-26.09,12-12.34,0-22.17-4.78-28.85-14.24-5.55-7.56-8.57-17.76-8.57-28.6,0-25.2,15.37-42.72,37.42-42.72,12,0,24.32,6.43,24.32,12.48,0,2.65-1.89,4.79-4.15,4.79-1.52,0-2.78-.63-5.17-2.65-4.91-4.16-9-5.67-15-5.67-15.62,0-26.33,13.61-26.33,33.52,0,20.41,10.46,34.15,26.08,34.15,5.55,0,10-1.39,16.51-5.3,3.28-1.89,4.41-2.39,5.8-2.39C120.16,110.23,121.93,112.25,121.93,114.89Z"/><path class="cls-2" d="M180.52,94.73c0,18.65-11.59,32.13-27.6,32.13S125.33,113.38,125.33,95c0-18.9,11.46-32.38,27.59-32.38S180.52,76.08,180.52,94.73Zm-44.86-.12c0,14.23,6.8,23.31,17.26,23.31s17.27-9.2,17.27-23.19-6.81-23.18-17.27-23.18S135.66,80.75,135.66,94.61Z"/><path class="cls-2" d="M200.17,70.92c4.79-5.67,10.21-8.32,17.27-8.32,13.23,0,21.92,9.45,21.92,23.81v34.91c0,3.4-2,5.54-5.17,5.54s-5.16-2.14-5.16-5.54V87c0-9.19-5.92-15.49-14.62-15.49S199.92,77.85,199.92,87v34.28c0,3.4-2,5.54-5.17,5.54s-5.16-2.14-5.16-5.54V68.14c0-3.4,2-5.54,5.16-5.54s5.17,2.14,5.17,5.54v2.52Z"/><path class="cls-2" d="M254.6,49.75c0-3.41,2-5.55,5.17-5.55s5.17,2.14,5.17,5.55V63.36h4.28c3.28,0,5.17,1.63,5.17,4.53s-1.89,4.41-5.17,4.41h-4.28v49c0,3.4-2,5.54-5.17,5.54s-5.17-2.14-5.17-5.54v-49h-4.28c-3.28,0-5.17-1.64-5.17-4.41s1.89-4.53,5.17-4.53h4.28Z"/><path class="cls-2" d="M321.64,67.77c0-3,2-5.17,4.79-5.17a4.83,4.83,0,0,1,4.91,5.17V121.7a4.83,4.83,0,0,1-4.91,5.16c-2.78,0-4.79-2.14-4.79-5.16v-4.29h-.25c-4.92,6.68-10.08,9.45-17.39,9.45-15.75,0-27.35-13.61-27.35-32.13s11.6-32.13,27.47-32.13c6.81,0,11.47,2.27,17.27,8.44h.25ZM287,94.61c0,14.23,6.8,23.31,17.26,23.31s17.26-9.2,17.26-23.19-6.8-23.18-17.26-23.18S287,80.75,287,94.61Z"/><path class="cls-2" d="M354.65,47.73a6.37,6.37,0,1,1-6.43-6.43A6.27,6.27,0,0,1,354.65,47.73Zm-1.26,73.59c0,3.4-2,5.54-5.17,5.54s-5.16-2.14-5.16-5.54V68.14c0-3.4,2-5.54,5.16-5.54s5.17,2.14,5.17,5.54Z"/><path class="cls-2" d="M375.82,70.92c4.78-5.67,10.2-8.32,17.26-8.32,13.23,0,21.92,9.45,21.92,23.81v34.91c0,3.4-2,5.54-5.16,5.54s-5.17-2.14-5.17-5.54V87c0-9.19-5.92-15.49-14.62-15.49S375.56,77.85,375.56,87v34.28c0,3.4-2,5.54-5.16,5.54s-5.17-2.14-5.17-5.54V68.14c0-3.4,2-5.54,5.17-5.54s5.16,2.14,5.16,5.54v2.52Z"/><path class="cls-2" d="M433.4,98.76c.38,6.68,1.89,10.59,5.42,14.12s7.81,5,13.35,5c6.43,0,11-1.64,16.64-6.18,2.39-1.89,3.4-2.39,4.53-2.39,1.89,0,3.66,2,3.66,4.41,0,6-13.87,13.1-25.58,13.1-17,0-28.36-12.72-28.36-31.88,0-18.77,11.85-32.38,28-32.38,15.37,0,27.22,13.23,27.22,30.37,0,4.28-1.52,5.79-5.8,5.79ZM467.92,91c-.5-12.22-6.93-19.4-17.39-19.4S434.28,78.1,433.4,91Z"/><path class="cls-2" d="M496.9,73.44c3.53-6.56,9.07-10.84,14.24-10.84,3.28,0,5.67,2.14,5.67,5.29s-2,4.79-6.43,5.67c-8.69,1.64-13.86,8.19-13.73,17.9v29.86c0,3.4-2,5.54-5.17,5.54s-5.16-2.14-5.16-5.54V68.14c0-3.4,2-5.54,5.16-5.54s5.17,2.14,5.17,5.54v5.3Z"/><path class="cls-2" d="M515.22,160.58c0-3.66,2-5.67,5.54-5.67h20.42c22.55,0,37.17,16.38,37.17,42S564.24,239,542.56,239h-21.8c-3.52,0-5.54-2-5.54-5.67ZM525.55,230h14.87c16.63,0,26.84-12.73,26.84-33.39s-10.33-32.77-27.59-32.77H525.55Z"/><path class="cls-2" d="M647.52,185.65a23.81,23.81,0,0,1-1.39-5.79,4.63,4.63,0,0,1,4.79-4.41,5.5,5.5,0,0,1,5.17,3.9l14.36,43.1h.25l14.12-43.1c.88-2.52,2.64-3.9,4.91-3.9a4.63,4.63,0,0,1,4.79,4.41,19.57,19.57,0,0,1-1.39,5.79l-26.21,75a5.49,5.49,0,0,1-5,3.78,4.56,4.56,0,0,1-4.79-4.41c0-1.26.38-2.52,1.52-5.67l6.68-17.64Z"/><path class="cls-3" d="M635.57,174.79c-2.79,0-4.84,2.11-4.87,5.16l0,3.3h-.25c-5-5.45-9.21-7.92-14.71-8.52a2.59,2.59,0,0,0-2.43,1.13c-.84,1.26-1.66,2.55-2.47,3.84a2.56,2.56,0,0,0,2.23,3.89h.11c10.54.09,17.3,9.42,17.17,23.51s-7.07,23.29-17.6,23.2-17.31-9.3-17.18-23.65c.08-7.67,2.22-13.9,5.87-17.94a2.58,2.58,0,0,0,.71-1.73,41.06,41.06,0,0,0-.32-5.93,2.55,2.55,0,0,0-4-1.73c-7.69,5.5-12.56,15.34-12.67,27.36-.18,18.66,11.37,32.48,27.24,32.63,7.36.07,12.59-2.68,17.6-9.36h.26l0,4.32c0,3,2,5.22,4.77,5.25a4.88,4.88,0,0,0,5-5.16l.51-54.33A4.88,4.88,0,0,0,635.57,174.79Z"/><g id="Biene_RGB" data-name="Biene RGB"><g class="cls-4"><g class="cls-4"><path class="cls-2" d="M613.71,163.88,605,180.09l12.22-13.32a7.28,7.28,0,0,1-3.53-2.89"/><path class="cls-3" d="M615.24,124.89h0c-11.14,0-21.08-2.63-26.6-7-6.57-5.26-10.91-12.71-11.32-19.47a12.1,12.1,0,0,1,3-9.4c1.92-2,4.85-3,8.46-3,6.48,0,14.58,3.32,21.14,8.65,9.09,7.38,22.58,23.53,22.2,26.6a1.23,1.23,0,0,1-.7,1c-3.67,1.69-9.57,2.66-16.21,2.66m-26.43-37c-3.1,0-5.56.85-7.12,2.44-1.83,1.88-2.69,4.63-2.49,8,.37,6.24,4.44,13.17,10.61,18.1,5.2,4.14,14.7,6.62,25.43,6.62,6,0,11.54-.85,15-2.29-1-3.07-12.22-17.11-21.44-24.59-6.24-5.07-13.89-8.23-20-8.23"/><path class="cls-3" d="M656.9,79.15c.66.92,2.22.91,3.47,0s1.7-2.42,1-3.34-2.23-.91-3.48,0-1.7,2.43-1,3.34"/><path class="cls-3" d="M644.05,76c1.08.33,2.32-.63,2.76-2.13s-.09-3-1.17-3.29-2.32.63-2.76,2.12.09,3,1.17,3.3"/><path class="cls-3" d="M643.33,75.2a2.16,2.16,0,0,1,1.46.72c-3.32,5.4-.08,15.93,1.65,20.65,2.25-15.09,10.9-18.31,10.9-18.31a2.23,2.23,0,0,1,.81,1.36c-8,2.95-10.48,17.5-10.77,19.33h0s1.08,4.54-.52,2.26c-8.84-16.56-3.54-26-3.54-26"/><path class="cls-2" d="M623.29,130.83c-1.44.23-6.72,6.16-6.49,7.53,2.86,5.43,9.16,15.3,25.08,19.12,3-.47,6.84-4.54,6.93-8.2a34.67,34.67,0,0,1-25.52-18.45"/><path class="cls-3" d="M638,123.8c-.86.13-6,.75-8.67,2.84,1.72,3.27,8.27,13.92,22.39,15.12,1.3-1.56.65-7.62-.25-9.43-7.44-.49-11-5.17-13.47-8.53"/><path class="cls-3" d="M613,146.61c4.75,9.82,22.42,18.51,21.52,16.7-5,4.58-26.32,5.86-21.52-16.7"/><path class="cls-3" d="M650,128.46c9.34,3.25,22.3-.33,23.33-6.47.77-4.55-5.68-11.2-14.28-16.14-9.94-5.7-18.28-2.2-20.3,3.68s1.92,15.66,11.25,18.93M655.49,108c-.34-.39,3.25,4.71,6,.17.3-.42,2.09,1.3,2.09,1.3s3.92,3.62,1.46,5.3c-5.7,2.71-9.54-6.77-9.54-6.77"/></g></g></g><path class="cls-3" d="M58.56,257.71V253H70l.32,3.84a9.79,9.79,0,0,1,3.51-3.24,10.07,10.07,0,0,1,4.87-1.14,8.9,8.9,0,0,1,4.78,1.24,7.59,7.59,0,0,1,3,3.73A10.12,10.12,0,0,1,90,253.76a9.46,9.46,0,0,1,5-1.32,8.35,8.35,0,0,1,6.78,3q2.49,3,2.49,9v12.08l3.78.81V282h-15v-4.7l3.38-.81V264.42c0-2.2-.35-3.73-1.07-4.59a3.93,3.93,0,0,0-3.2-1.29,5.46,5.46,0,0,0-2.88.74,5.34,5.34,0,0,0-2,2.05c0,.34,0,.63,0,.88s0,.48,0,.73v13.59l3.17.81V282H76.45v-4.7l3.17-.81V264.42c0-2.15-.36-3.67-1.08-4.55a3.88,3.88,0,0,0-3.22-1.33,6.15,6.15,0,0,0-2.78.6,5.5,5.5,0,0,0-2,1.71v15.68l3.38.81V282H59v-4.7l3.78-.81v-18Z"/><path class="cls-3" d="M109.57,277.34l3.79-.81v-18l-4.19-.8V253h12v23.55l3.76.81V282H109.57ZM121.2,246h-7.84v-5.88h7.84Z"/><path class="cls-3" d="M138.29,245.86V253h5.1v5.5h-5.1v14.8a3.45,3.45,0,0,0,.69,2.42,2.52,2.52,0,0,0,1.88.72q.81,0,1.41-.06c.41-.05.86-.12,1.36-.23l.67,5.66a18.07,18.07,0,0,1-2.6.61,17.48,17.48,0,0,1-2.8.2,8.34,8.34,0,0,1-6.24-2.23c-1.46-1.48-2.19-3.84-2.19-7.06V258.48H126.2V253h4.27v-7.12Z"/><path class="cls-3" d="M158.87,277.34l4.17-.81V248.47l-4.17-.81v-4.72h16v4.72l-4,.81v10.44h3.41L181.81,248l-2.31-.32v-4.72H195v4.72l-4.24.73-9.61,12.83,10.79,15.45,3.92.67V282H180.36v-4.7l2.41-.32-7.52-11.31h-4.37v10.82l4,.81V282h-16Z"/><path class="cls-3" d="M217.26,278.36a9.66,9.66,0,0,1-3.45,3.14,9.8,9.8,0,0,1-4.68,1.1,9.13,9.13,0,0,1-7.2-2.94q-2.61-2.94-2.61-9.14v-12l-3.19-.8V253h11v17.59a7.56,7.56,0,0,0,1.06,4.55,3.73,3.73,0,0,0,3.15,1.39,7.86,7.86,0,0,0,3.21-.61,5.6,5.6,0,0,0,2.22-1.73V258.51l-3.44-.8V253h11.28v23.55l3.52.81V282h-10.4Z"/><path class="cls-3" d="M258.52,268.31q0,6.51-2.9,10.4a9.82,9.82,0,0,1-8.38,3.89,8.83,8.83,0,0,1-4.43-1.06,9,9,0,0,1-3.17-3.08l-.56,3.58h-6.77V245.68l-4.16-.81v-4.73h12v15.93a8.78,8.78,0,0,1,3-2.69,8.51,8.51,0,0,1,4-.94,9.63,9.63,0,0,1,8.43,4.18q2.89,4.17,2.9,11.13Zm-7.81-.56a15.18,15.18,0,0,0-1.25-6.73,4.39,4.39,0,0,0-4.26-2.48,5.85,5.85,0,0,0-3.09.76,5.27,5.27,0,0,0-2,2.19v12.28a5,5,0,0,0,2,2,6.48,6.48,0,0,0,3.12.7,4.48,4.48,0,0,0,4.25-2.14,12.49,12.49,0,0,0,1.21-6.06Z"/><path class="cls-3" d="M275.23,282.6a13.06,13.06,0,0,1-10-4,14.37,14.37,0,0,1-3.76-10.23v-1.07A15.89,15.89,0,0,1,265,256.61a11.81,11.81,0,0,1,9.55-4.17q5.88,0,9.13,3.55t3.25,9.58v4.28H269.57l-.06.16a7.64,7.64,0,0,0,1.92,4.72,6,6,0,0,0,4.64,1.86,15.06,15.06,0,0,0,4.32-.53,19.91,19.91,0,0,0,3.76-1.65l2.12,4.83a15.28,15.28,0,0,1-4.66,2.39A19.69,19.69,0,0,1,275.23,282.6Zm-.69-24.12a4.08,4.08,0,0,0-3.44,1.67,8.72,8.72,0,0,0-1.56,4.38l.08.13h9.61V264a6.26,6.26,0,0,0-1.16-4A4.2,4.2,0,0,0,274.54,258.48Z"/><path class="cls-3" d="M290.39,277.34l3.76-.81v-18l-4.17-.8V253h11.47l.35,4.24a9.17,9.17,0,0,1,2.63-3.51,5.86,5.86,0,0,1,3.74-1.27,8.59,8.59,0,0,1,1.3.1,7.85,7.85,0,0,1,1.14.23l-.83,7.14-3.23-.08a5.45,5.45,0,0,0-2.84.67,4.32,4.32,0,0,0-1.72,1.91v14.12l3.76.81V282H290.39Z"/><path class="cls-3" d="M311.69,277.34l3.76-.81v-18l-4.16-.8V253h11.47l.34,4.16a10.64,10.64,0,0,1,3.58-3.46,9.3,9.3,0,0,1,4.75-1.24,8.77,8.77,0,0,1,6.88,2.77c1.64,1.84,2.47,4.74,2.47,8.67v12.65l3.76.81V282h-15v-4.7l3.36-.81V263.91c0-2-.4-3.33-1.18-4.15a4.79,4.79,0,0,0-3.58-1.22,6.06,6.06,0,0,0-2.79.63,5.82,5.82,0,0,0-2.07,1.79v15.57l3.17.81V282H311.69Z"/><path class="cls-3" d="M359.85,282.6a13,13,0,0,1-10-4,14.37,14.37,0,0,1-3.76-10.23v-1.07a15.88,15.88,0,0,1,3.55-10.66,11.84,11.84,0,0,1,9.55-4.17q5.88,0,9.13,3.55t3.25,9.58v4.28H354.18l-.05.16a7.53,7.53,0,0,0,1.92,4.72,6,6,0,0,0,4.63,1.86,15.08,15.08,0,0,0,4.33-.53,20.19,20.19,0,0,0,3.76-1.65l2.12,4.83a15.28,15.28,0,0,1-4.66,2.39A19.69,19.69,0,0,1,359.85,282.6Zm-.7-24.12a4.1,4.1,0,0,0-3.44,1.67,8.62,8.62,0,0,0-1.55,4.38l.08.13h9.61V264a6.26,6.26,0,0,0-1.17-4A4.19,4.19,0,0,0,359.15,258.48Z"/><path class="cls-3" d="M386,245.86V253h5.1v5.5H386v14.8a3.4,3.4,0,0,0,.7,2.42,2.49,2.49,0,0,0,1.88.72q.8,0,1.41-.06c.4-.05.85-.12,1.35-.23l.67,5.66a17.76,17.76,0,0,1-2.6.61,17.43,17.43,0,0,1-2.79.2,8.35,8.35,0,0,1-6.25-2.23c-1.46-1.48-2.19-3.84-2.19-7.06V258.48H373.9V253h4.27v-7.12Z"/><path class="cls-3" d="M408,282.6a13.09,13.09,0,0,1-10-4,14.41,14.41,0,0,1-3.76-10.23v-1.07a15.89,15.89,0,0,1,3.56-10.66,11.83,11.83,0,0,1,9.55-4.17q5.88,0,9.13,3.55t3.25,9.58v4.28H402.35l-.05.16a7.53,7.53,0,0,0,1.92,4.72,6,6,0,0,0,4.63,1.86,15,15,0,0,0,4.32-.53,19.91,19.91,0,0,0,3.76-1.65l2.13,4.83a15.4,15.4,0,0,1-4.66,2.39A19.73,19.73,0,0,1,408,282.6Zm-.7-24.12a4.09,4.09,0,0,0-3.44,1.67,8.72,8.72,0,0,0-1.56,4.38l.08.13H412V264a6.26,6.26,0,0,0-1.17-4A4.2,4.2,0,0,0,407.32,258.48Z"/><path class="cls-3" d="M446.29,263H441l-.83-3.63a7.05,7.05,0,0,0-2-1.07,8,8,0,0,0-2.7-.43,5.26,5.26,0,0,0-3.28.93,2.81,2.81,0,0,0-1.2,2.32,2.64,2.64,0,0,0,1.15,2.19,12.46,12.46,0,0,0,4.62,1.54q5.4,1.08,8,3.16a6.93,6.93,0,0,1,2.61,5.73,7.65,7.65,0,0,1-3.37,6.41,14.67,14.67,0,0,1-8.88,2.48,18.38,18.38,0,0,1-6.16-1,15.64,15.64,0,0,1-5-2.81l-.08-6.52h5.48l1.07,3.79a4.52,4.52,0,0,0,1.91.87,10.87,10.87,0,0,0,2.52.28,6.44,6.44,0,0,0,3.64-.86,2.69,2.69,0,0,0,1.25-2.33,2.76,2.76,0,0,0-1.26-2.24,13,13,0,0,0-4.65-1.66,18.68,18.68,0,0,1-7.75-3.1,6.76,6.76,0,0,1-2.62-5.6,8.15,8.15,0,0,1,3-6.3c2-1.76,4.86-2.64,8.57-2.64a22,22,0,0,1,6.4.91,13.44,13.44,0,0,1,4.74,2.34Z"/><path class="cls-3" d="M279.81,335.36a9.66,9.66,0,0,1-3.45,3.14,9.84,9.84,0,0,1-4.69,1.1,9.13,9.13,0,0,1-7.2-2.94q-2.6-2.94-2.6-9.14v-12l-3.2-.8V310h11v17.59a7.56,7.56,0,0,0,1.06,4.55,3.75,3.75,0,0,0,3.16,1.39,7.92,7.92,0,0,0,3.21-.61,5.57,5.57,0,0,0,2.21-1.73V315.51l-3.44-.8V310h11.28v23.55l3.52.81V339H280.32Z"/><path class="cls-3" d="M292.54,334.34l3.76-.81v-18l-4.16-.8V310h11.47l.35,4.16a10.52,10.52,0,0,1,3.57-3.46,9.3,9.3,0,0,1,4.75-1.24,8.77,8.77,0,0,1,6.88,2.77c1.64,1.84,2.47,4.74,2.47,8.67v12.65l3.76.81V339h-15v-4.7l3.36-.81V320.91c0-2-.39-3.33-1.18-4.15a4.78,4.78,0,0,0-3.57-1.22,6.1,6.1,0,0,0-2.8.63,5.71,5.71,0,0,0-2.06,1.79v15.57l3.16.81V339H292.54Z"/><path class="cls-3" d="M345.7,335.49a9.4,9.4,0,0,1-3.24,3.06,8.5,8.5,0,0,1-4.25,1.05,9.86,9.86,0,0,1-8.34-3.92q-3-3.92-3-10.37v-.56q0-6.87,3-11.09a9.68,9.68,0,0,1,8.38-4.22,8,8,0,0,1,3.92,1,9.51,9.51,0,0,1,3.06,2.7V302.68l-4.19-.81v-4.73h12v36.39l3.76.81V339H346.29Zm-11-10.18a12,12,0,0,0,1.28,6,4.45,4.45,0,0,0,4.17,2.19,6.11,6.11,0,0,0,3-.7,5.49,5.49,0,0,0,2.07-2V318.47a6,6,0,0,0-2.05-2.17,5.5,5.5,0,0,0-2.94-.76,4.39,4.39,0,0,0-4.19,2.55,14.5,14.5,0,0,0-1.32,6.66Z"/><path class="cls-3" d="M388.55,299.94q6.66,0,10.45,3a10.23,10.23,0,0,1,3.78,8.42,8.52,8.52,0,0,1-1.58,5.13,11.08,11.08,0,0,1-4.65,3.52,8.41,8.41,0,0,1,5,3.4,10.74,10.74,0,0,1,1.52,5.89v2a3.38,3.38,0,0,0,.51,2,2.29,2.29,0,0,0,1.69.85l1,.13V339h-4.06q-3.84,0-5.39-2.07a8.64,8.64,0,0,1-1.56-5.35V329.4a6.29,6.29,0,0,0-1.52-4.47,5.78,5.78,0,0,0-4.28-1.71H383v10.31l4.19.81V339H371v-4.7l4.17-.81V305.47l-4.17-.81v-4.72h17.57ZM383,317.18h5.42a7.42,7.42,0,0,0,4.92-1.4,5,5,0,0,0,1.64-4,5.56,5.56,0,0,0-1.63-4.2,6.61,6.61,0,0,0-4.79-1.57H383Z"/><path class="cls-3" d="M426.66,339a15.7,15.7,0,0,1-.56-1.49,12.08,12.08,0,0,1-.38-1.55,10.68,10.68,0,0,1-3.39,2.61,10.21,10.21,0,0,1-4.58,1,9.57,9.57,0,0,1-6.78-2.32,8.18,8.18,0,0,1-2.51-6.33,7.2,7.2,0,0,1,3.27-6.31c2.19-1.48,5.39-2.23,9.62-2.23h4v-2.84a4.3,4.3,0,0,0-1.21-3.25,5,5,0,0,0-3.57-1.16,8.66,8.66,0,0,0-2.39.31,6.24,6.24,0,0,0-1.69.74l-.51,3.12h-5.91l0-6.45a22,22,0,0,1,4.93-2.44,17.67,17.67,0,0,1,6.06-1,13.76,13.76,0,0,1,8.77,2.65,9,9,0,0,1,3.37,7.53v12c0,.45,0,.87,0,1.27a10.14,10.14,0,0,0,.09,1.13l2.39.32V339Zm-6.79-5.24a6.92,6.92,0,0,0,3.22-.76,6.33,6.33,0,0,0,2.26-1.92v-4.44h-4a5.46,5.46,0,0,0-3.79,1.17,3.67,3.67,0,0,0-1.29,2.81,2.94,2.94,0,0,0,1,2.31A3.93,3.93,0,0,0,419.87,333.8Z"/><path class="cls-3" d="M437.12,334.34l3.76-.81v-18l-4.17-.8V310h11.47l.35,4.16a10.7,10.7,0,0,1,3.57-3.46,9.33,9.33,0,0,1,4.76-1.24,8.76,8.76,0,0,1,6.87,2.77c1.65,1.84,2.47,4.74,2.47,8.67v12.65l3.76.81V339H455v-4.7l3.35-.81V320.91c0-2-.39-3.33-1.18-4.15a4.78,4.78,0,0,0-3.57-1.22,6,6,0,0,0-2.79.63,5.66,5.66,0,0,0-2.07,1.79v15.57l3.17.81V339H437.12Z"/><path class="cls-3" d="M485,333.59a4.62,4.62,0,0,0,3.36-1.23,4.32,4.32,0,0,0,1.26-3.26h7.09l.08.16a9.06,9.06,0,0,1-3.3,7.37,12.49,12.49,0,0,1-8.49,3q-6.5,0-10-4.11a15.69,15.69,0,0,1-3.52-10.55v-.81a15.45,15.45,0,0,1,3.62-10.55c2.4-2.76,5.84-4.14,10.29-4.14a17.9,17.9,0,0,1,6.32,1.05,12.45,12.45,0,0,1,4.64,2.95l.11,7.77h-6.37l-1.28-4.54a5,5,0,0,0-1.45-.85,5.49,5.49,0,0,0-2-.34,4.94,4.94,0,0,0-4.69,2.42,12.47,12.47,0,0,0-1.37,6.23v.81a13.4,13.4,0,0,0,1.26,6.27A4.59,4.59,0,0,0,485,333.59Z"/><path class="cls-3" d="M499.09,334.34l3.79-.81V302.68l-4.19-.81v-4.73h12v16.55a9.73,9.73,0,0,1,3.36-3.13,8.75,8.75,0,0,1,4.4-1.12,9,9,0,0,1,7.16,3q2.6,3,2.59,9.34v11.73l3.76.81V339H517v-4.7l3.39-.81V321.74c0-2.25-.4-3.85-1.2-4.79a4.39,4.39,0,0,0-3.56-1.41,6.58,6.58,0,0,0-2.86.59,5.7,5.7,0,0,0-2.05,1.66v15.74l3.38.81V339h-15Z"/><path class="cls-3" d="M547.3,339.6a13,13,0,0,1-10-4,14.37,14.37,0,0,1-3.76-10.23v-1.07a15.84,15.84,0,0,1,3.56-10.66,11.81,11.81,0,0,1,9.54-4.17q5.88,0,9.13,3.55t3.25,9.58v4.28H541.64l-.06.16a7.53,7.53,0,0,0,1.92,4.72,6,6,0,0,0,4.63,1.86,15.08,15.08,0,0,0,4.33-.53,20.19,20.19,0,0,0,3.76-1.65l2.12,4.83a15.28,15.28,0,0,1-4.66,2.39A19.69,19.69,0,0,1,547.3,339.6Zm-.7-24.12a4.07,4.07,0,0,0-3.43,1.67,8.62,8.62,0,0,0-1.56,4.38l.08.13h9.61V321a6.32,6.32,0,0,0-1.16-4A4.21,4.21,0,0,0,546.6,315.48Z"/><path class="cls-3" d="M562.46,334.34l3.76-.81v-18l-4.17-.8V310h11.47l.35,4.24a9.17,9.17,0,0,1,2.63-3.51,5.85,5.85,0,0,1,3.73-1.27,8.63,8.63,0,0,1,1.31.1,7.85,7.85,0,0,1,1.14.23l-.83,7.14-3.23-.08a5.45,5.45,0,0,0-2.84.67,4.26,4.26,0,0,0-1.72,1.91v14.12l3.76.81V339H562.46Z"/></svg>